G04 #@! TF.GenerationSoftware,KiCad,Pcbnew,(5.1.12-1-10_14)*
G04 #@! TF.CreationDate,2021-11-18T09:42:33+01:00*
G04 #@! TF.ProjectId,window-shutter-relay-esp8266,77696e64-6f77-42d7-9368-75747465722d,rev?*
G04 #@! TF.SameCoordinates,Original*
G04 #@! TF.FileFunction,Copper,L2,Bot*
G04 #@! TF.FilePolarity,Positive*
%FSLAX46Y46*%
G04 Gerber Fmt 4.6, Leading zero omitted, Abs format (unit mm)*
G04 Created by KiCad (PCBNEW (5.1.12-1-10_14)) date 2021-11-18 09:42:33*
%MOMM*%
%LPD*%
G01*
G04 APERTURE LIST*
G04 #@! TA.AperFunction,Profile*
%ADD10C,0.100000*%
G04 #@! TD*
G04 #@! TA.AperFunction,Profile*
%ADD11C,0.150000*%
G04 #@! TD*
G04 #@! TA.AperFunction,ComponentPad*
%ADD12R,1.200000X1.200000*%
G04 #@! TD*
G04 #@! TA.AperFunction,ComponentPad*
%ADD13C,1.200000*%
G04 #@! TD*
G04 #@! TA.AperFunction,ComponentPad*
%ADD14R,1.700000X1.700000*%
G04 #@! TD*
G04 #@! TA.AperFunction,ComponentPad*
%ADD15O,1.700000X1.700000*%
G04 #@! TD*
G04 #@! TA.AperFunction,ComponentPad*
%ADD16O,2.500000X3.500000*%
G04 #@! TD*
G04 #@! TA.AperFunction,ComponentPad*
%ADD17C,2.500000*%
G04 #@! TD*
G04 #@! TA.AperFunction,ComponentPad*
%ADD18C,3.000000*%
G04 #@! TD*
G04 #@! TA.AperFunction,ComponentPad*
%ADD19C,1.524000*%
G04 #@! TD*
G04 #@! TA.AperFunction,ComponentPad*
%ADD20O,1.000000X1.550000*%
G04 #@! TD*
G04 #@! TA.AperFunction,ComponentPad*
%ADD21O,1.250000X0.950000*%
G04 #@! TD*
G04 #@! TA.AperFunction,ComponentPad*
%ADD22R,1.600000X1.600000*%
G04 #@! TD*
G04 #@! TA.AperFunction,ComponentPad*
%ADD23C,1.600000*%
G04 #@! TD*
G04 #@! TA.AperFunction,ViaPad*
%ADD24C,0.800000*%
G04 #@! TD*
G04 #@! TA.AperFunction,Conductor*
%ADD25C,0.500000*%
G04 #@! TD*
G04 #@! TA.AperFunction,Conductor*
%ADD26C,1.000000*%
G04 #@! TD*
G04 #@! TA.AperFunction,Conductor*
%ADD27C,2.750000*%
G04 #@! TD*
G04 #@! TA.AperFunction,Conductor*
%ADD28C,0.254000*%
G04 #@! TD*
G04 #@! TA.AperFunction,Conductor*
%ADD29C,0.100000*%
G04 #@! TD*
G04 APERTURE END LIST*
D10*
X58997106Y-168369999D02*
G75*
G02*
X59790000Y-169162893I0J-792894D01*
G01*
X59790000Y-175370000D02*
X59790000Y-169162893D01*
X59790000Y-175370000D02*
G75*
G02*
X58790000Y-175370000I-500000J0D01*
G01*
X58790000Y-169870000D02*
X58790000Y-175370000D01*
X58290000Y-169370000D02*
G75*
G02*
X58790000Y-169870000I0J-500000D01*
G01*
X53340000Y-169370000D02*
X58290000Y-169370000D01*
X53340000Y-169370000D02*
G75*
G02*
X53340000Y-163370000I0J3000000D01*
G01*
X58290000Y-163370000D02*
X53340000Y-163370000D01*
X58790000Y-162870000D02*
G75*
G02*
X58290000Y-163370000I-500000J0D01*
G01*
X58790000Y-157369999D02*
X58790000Y-162870000D01*
X58789999Y-157369999D02*
G75*
G02*
X59789999Y-157369999I500000J0D01*
G01*
X59790000Y-163577106D02*
X59789999Y-157369999D01*
X59790000Y-163577106D02*
G75*
G02*
X58997106Y-164370000I-792894J0D01*
G01*
X53340000Y-164370000D02*
X58997106Y-164370000D01*
X53340000Y-168370000D02*
G75*
G02*
X53340000Y-164370000I0J2000000D01*
G01*
X58997106Y-168370000D02*
X53340000Y-168370000D01*
X58997106Y-146779999D02*
G75*
G02*
X59790000Y-147572893I0J-792894D01*
G01*
X59790000Y-153780000D02*
X59790000Y-147572893D01*
X59790000Y-153780000D02*
G75*
G02*
X58790000Y-153780000I-500000J0D01*
G01*
X58790000Y-148280000D02*
X58790000Y-153780000D01*
X58290000Y-147780000D02*
G75*
G02*
X58790000Y-148280000I0J-500000D01*
G01*
X53340000Y-147780000D02*
X58290000Y-147780000D01*
X53340000Y-147780000D02*
G75*
G02*
X53340000Y-141780000I0J3000000D01*
G01*
X58290000Y-141780000D02*
X53340000Y-141780000D01*
X58790000Y-141280000D02*
G75*
G02*
X58290000Y-141780000I-500000J0D01*
G01*
X58790000Y-135779999D02*
X58790000Y-141280000D01*
X58789999Y-135779999D02*
G75*
G02*
X59789999Y-135779999I500000J0D01*
G01*
X59790000Y-141987106D02*
X59789999Y-135779999D01*
X59790000Y-141987106D02*
G75*
G02*
X58997106Y-142780000I-792894J0D01*
G01*
X53340000Y-142780000D02*
X58997106Y-142780000D01*
X53340000Y-146780000D02*
G75*
G02*
X53340000Y-142780000I0J2000000D01*
G01*
X58997106Y-146780000D02*
X53340000Y-146780000D01*
X58997106Y-104361999D02*
G75*
G02*
X59790000Y-105154893I0J-792894D01*
G01*
X59790000Y-111362000D02*
X59790000Y-105154893D01*
X59790000Y-111362000D02*
G75*
G02*
X58790000Y-111362000I-500000J0D01*
G01*
X58790000Y-105862000D02*
X58790000Y-111362000D01*
X58290000Y-105362000D02*
G75*
G02*
X58790000Y-105862000I0J-500000D01*
G01*
X53340000Y-105362000D02*
X58290000Y-105362000D01*
X53340000Y-105362000D02*
G75*
G02*
X53340000Y-99362000I0J3000000D01*
G01*
X58290000Y-99362000D02*
X53340000Y-99362000D01*
X58790000Y-98862000D02*
G75*
G02*
X58290000Y-99362000I-500000J0D01*
G01*
X58790000Y-93361999D02*
X58790000Y-98862000D01*
X58789999Y-93361999D02*
G75*
G02*
X59789999Y-93361999I500000J0D01*
G01*
X59790000Y-99569106D02*
X59789999Y-93361999D01*
X59790000Y-99569106D02*
G75*
G02*
X58997106Y-100362000I-792894J0D01*
G01*
X53340000Y-100362000D02*
X58997106Y-100362000D01*
X53340000Y-104362000D02*
G75*
G02*
X53340000Y-100362000I0J2000000D01*
G01*
X58997106Y-104362000D02*
X53340000Y-104362000D01*
X58997106Y-82771999D02*
G75*
G02*
X59790000Y-83564893I0J-792894D01*
G01*
X59790000Y-89772000D02*
X59790000Y-83564893D01*
X59790000Y-89772000D02*
G75*
G02*
X58790000Y-89772000I-500000J0D01*
G01*
X58790000Y-84272000D02*
X58790000Y-89772000D01*
X58290000Y-83772000D02*
G75*
G02*
X58790000Y-84272000I0J-500000D01*
G01*
X53340000Y-83772000D02*
X58290000Y-83772000D01*
X53340000Y-83772000D02*
G75*
G02*
X53340000Y-77772000I0J3000000D01*
G01*
X58290000Y-77772000D02*
X53340000Y-77772000D01*
X58790000Y-77272000D02*
G75*
G02*
X58290000Y-77772000I-500000J0D01*
G01*
X58790000Y-71771999D02*
X58790000Y-77272000D01*
X58789999Y-71771999D02*
G75*
G02*
X59789999Y-71771999I500000J0D01*
G01*
X59790000Y-77979106D02*
X59789999Y-71771999D01*
X59790000Y-77979106D02*
G75*
G02*
X58997106Y-78772000I-792894J0D01*
G01*
X53340000Y-78772000D02*
X58997106Y-78772000D01*
X53340000Y-82772000D02*
G75*
G02*
X53340000Y-78772000I0J2000000D01*
G01*
X58997106Y-82772000D02*
X53340000Y-82772000D01*
X58997106Y-40099999D02*
G75*
G02*
X59790000Y-40892893I0J-792894D01*
G01*
X59790000Y-47100000D02*
X59790000Y-40892893D01*
X59790000Y-47100000D02*
G75*
G02*
X58790000Y-47100000I-500000J0D01*
G01*
X58790000Y-41600000D02*
X58790000Y-47100000D01*
X58290000Y-41100000D02*
G75*
G02*
X58790000Y-41600000I0J-500000D01*
G01*
X53340000Y-41100000D02*
X58290000Y-41100000D01*
X53340000Y-41100000D02*
G75*
G02*
X53340000Y-35100000I0J3000000D01*
G01*
X58290000Y-35100000D02*
X53340000Y-35100000D01*
X58790000Y-34600000D02*
G75*
G02*
X58290000Y-35100000I-500000J0D01*
G01*
X58790000Y-29099999D02*
X58790000Y-34600000D01*
X58789999Y-29099999D02*
G75*
G02*
X59789999Y-29099999I500000J0D01*
G01*
X59790000Y-35307106D02*
X59789999Y-29099999D01*
X59790000Y-35307106D02*
G75*
G02*
X58997106Y-36100000I-792894J0D01*
G01*
X53340000Y-36100000D02*
X58997106Y-36100000D01*
X53340000Y-40100000D02*
G75*
G02*
X53340000Y-36100000I0J2000000D01*
G01*
X58997106Y-40100000D02*
X53340000Y-40100000D01*
X58997106Y-18509999D02*
G75*
G02*
X59790000Y-19302893I0J-792894D01*
G01*
X59790000Y-25510000D02*
X59790000Y-19302893D01*
X59790000Y-25510000D02*
G75*
G02*
X58790000Y-25510000I-500000J0D01*
G01*
X58790000Y-20010000D02*
X58790000Y-25510000D01*
X58290000Y-19510000D02*
G75*
G02*
X58790000Y-20010000I0J-500000D01*
G01*
X53340000Y-19510000D02*
X58290000Y-19510000D01*
X53340000Y-19510000D02*
G75*
G02*
X53340000Y-13510000I0J3000000D01*
G01*
X58290000Y-13510000D02*
X53340000Y-13510000D01*
X58790000Y-13010000D02*
G75*
G02*
X58290000Y-13510000I-500000J0D01*
G01*
X58790000Y-7509999D02*
X58790000Y-13010000D01*
X58789999Y-7509999D02*
G75*
G02*
X59789999Y-7509999I500000J0D01*
G01*
X59790000Y-13717106D02*
X59789999Y-7509999D01*
X59790000Y-13717106D02*
G75*
G02*
X58997106Y-14510000I-792894J0D01*
G01*
X53340000Y-14510000D02*
X58997106Y-14510000D01*
X53340000Y-18510000D02*
G75*
G02*
X53340000Y-14510000I0J2000000D01*
G01*
X58997106Y-18510000D02*
X53340000Y-18510000D01*
D11*
X91440000Y-181610000D02*
X91440000Y-3810000D01*
X3810000Y-185420000D02*
G75*
G02*
X0Y-181610000I0J3810000D01*
G01*
X91440000Y-181610000D02*
G75*
G02*
X87630000Y-185420000I-3810000J0D01*
G01*
X87630000Y0D02*
G75*
G02*
X91440000Y-3810000I0J-3810000D01*
G01*
X0Y-3810000D02*
G75*
G02*
X3810000Y0I3810000J0D01*
G01*
X0Y-3810000D02*
X0Y-181610000D01*
X87630000Y0D02*
X3810000Y0D01*
X3810000Y-185420000D02*
X87630000Y-185420000D01*
D12*
X22860000Y-35560000D03*
D13*
X24860000Y-35560000D03*
D12*
X22860000Y-40894000D03*
D13*
X24860000Y-40894000D03*
D14*
X10160000Y-62484000D03*
D15*
X7620000Y-62484000D03*
X5080000Y-62484000D03*
D14*
X7366000Y-165862000D03*
D15*
X4826000Y-165862000D03*
D16*
X77978000Y-92202000D03*
X77978000Y-101702000D03*
X77978000Y-82702000D03*
X77978000Y-156210000D03*
X77978000Y-165710000D03*
X77978000Y-146710000D03*
X77978000Y-27940000D03*
X77978000Y-37440000D03*
X77978000Y-18440000D03*
D17*
X55290000Y-108412000D03*
D18*
X67490000Y-108412000D03*
X67540000Y-96362000D03*
D17*
X55290000Y-96412000D03*
D18*
X53340000Y-102362000D03*
D17*
X55290000Y-86822000D03*
D18*
X67490000Y-86822000D03*
X67540000Y-74772000D03*
D17*
X55290000Y-74822000D03*
D18*
X53340000Y-80772000D03*
D17*
X55290000Y-172420000D03*
D18*
X67490000Y-172420000D03*
X67540000Y-160370000D03*
D17*
X55290000Y-160420000D03*
D18*
X53340000Y-166370000D03*
D17*
X55290000Y-150830000D03*
D18*
X67490000Y-150830000D03*
X67540000Y-138780000D03*
D17*
X55290000Y-138830000D03*
D18*
X53340000Y-144780000D03*
D17*
X55290000Y-22560000D03*
D18*
X67490000Y-22560000D03*
X67540000Y-10510000D03*
D17*
X55290000Y-10560000D03*
D18*
X53340000Y-16510000D03*
D17*
X55290000Y-44150000D03*
D18*
X67490000Y-44150000D03*
X67540000Y-32100000D03*
D17*
X55290000Y-32150000D03*
D18*
X53340000Y-38100000D03*
D14*
X18288000Y-90678000D03*
D15*
X18288000Y-93218000D03*
X18288000Y-95758000D03*
X24130000Y-95758000D03*
X24130000Y-93218000D03*
D14*
X24130000Y-90678000D03*
D15*
X29718000Y-95758000D03*
X29718000Y-93218000D03*
D14*
X29718000Y-90678000D03*
D19*
X3810000Y-12700000D03*
X3810000Y-15240000D03*
X3810000Y-17780000D03*
X3810000Y-20320000D03*
X3810000Y-22860000D03*
X3810000Y-25400000D03*
X3810000Y-27940000D03*
X3810000Y-30480000D03*
X3810000Y-33020000D03*
X3810000Y-35560000D03*
X3810000Y-38100000D03*
X3810000Y-40640000D03*
X3810000Y-43180000D03*
X3810000Y-45720000D03*
X3810000Y-48260000D03*
X31750000Y-48260000D03*
X31750000Y-45720000D03*
X31750000Y-43180000D03*
X31750000Y-40640000D03*
X31750000Y-38100000D03*
X31750000Y-35560000D03*
X31750000Y-33020000D03*
X31750000Y-30480000D03*
X31750000Y-27940000D03*
X31750000Y-25400000D03*
X31750000Y-22860000D03*
X31750000Y-20320000D03*
X31750000Y-17780000D03*
X31750000Y-15240000D03*
X31750000Y-12700000D03*
D20*
X20010000Y-182960000D03*
X13010000Y-182960000D03*
D21*
X19010000Y-180260000D03*
X14010000Y-180260000D03*
D15*
X25908000Y-181356000D03*
D14*
X28448000Y-181356000D03*
D13*
X9620000Y-74930000D03*
D12*
X7620000Y-74930000D03*
X7620000Y-80010000D03*
D13*
X9620000Y-80010000D03*
D22*
X19050000Y-69215000D03*
D23*
X19050000Y-65715000D03*
D24*
X44450000Y-140462000D03*
X43942000Y-33782000D03*
X43942000Y-28956000D03*
X44196000Y-75946000D03*
X44450000Y-136144000D03*
X35052000Y-79502000D03*
X30480000Y-74930000D03*
X44196000Y-72136000D03*
X27305000Y-27940000D03*
X4826000Y-68580000D03*
X11430000Y-68580000D03*
X11430000Y-67056000D03*
X15240000Y-177800000D03*
X3810000Y-68580000D03*
X11430000Y-69850000D03*
X44704000Y-88138000D03*
X44704000Y-109728000D03*
X44958000Y-23622000D03*
X44958000Y-152400000D03*
X44958000Y-173736000D03*
X44704000Y-45720000D03*
X9144000Y-18542000D03*
X41656000Y-23622000D03*
X41402000Y-45720000D03*
X41402000Y-88138000D03*
X9144000Y-20574000D03*
X41402000Y-109728000D03*
X9144000Y-22606000D03*
X41402000Y-152400000D03*
X9144000Y-24638000D03*
X41402000Y-173990000D03*
X29972000Y-36830000D03*
D25*
X44450000Y-140462000D02*
X44450000Y-136144000D01*
X43942000Y-33782000D02*
X43942000Y-28956000D01*
X35052000Y-79502000D02*
X30480000Y-74930000D01*
X44196000Y-75946000D02*
X44196000Y-72136000D01*
X31750000Y-27940000D02*
X31115000Y-27940000D01*
X31750000Y-27940000D02*
X27305000Y-27940000D01*
D26*
X56414000Y-10560000D02*
X45974000Y-10560000D01*
X55290000Y-32150000D02*
X45850000Y-32150000D01*
X55290000Y-96412000D02*
X46500000Y-96412000D01*
X55906000Y-74822000D02*
X46500000Y-74822000D01*
X55290000Y-138830000D02*
X46850000Y-138830000D01*
X55290000Y-160420000D02*
X46500000Y-160420000D01*
D27*
X73858000Y-22560000D02*
X77978000Y-18440000D01*
X67490000Y-22560000D02*
X73858000Y-22560000D01*
X77978000Y-29972000D02*
X69850000Y-38100000D01*
X77978000Y-27940000D02*
X77978000Y-29972000D01*
X53340000Y-38100000D02*
X69850000Y-38100000D01*
X71268000Y-44150000D02*
X77978000Y-37440000D01*
X67490000Y-44150000D02*
X71268000Y-44150000D01*
X67490000Y-108412000D02*
X71268000Y-108412000D01*
X71268000Y-108412000D02*
X77978000Y-101702000D01*
X77978000Y-92202000D02*
X77978000Y-94234000D01*
X77978000Y-94234000D02*
X69850000Y-102362000D01*
X53340000Y-102362000D02*
X69850000Y-102362000D01*
X67490000Y-86822000D02*
X73858000Y-86822000D01*
X73858000Y-86822000D02*
X77978000Y-82702000D01*
X67490000Y-150830000D02*
X73858000Y-150830000D01*
X73858000Y-150830000D02*
X77978000Y-146710000D01*
X77978000Y-156210000D02*
X77978000Y-158242000D01*
X77978000Y-158242000D02*
X69850000Y-166370000D01*
X53340000Y-166370000D02*
X69850000Y-166370000D01*
X67490000Y-172420000D02*
X71268000Y-172420000D01*
X71268000Y-172420000D02*
X77978000Y-165710000D01*
D25*
X31750000Y-12700000D02*
X34036000Y-12700000D01*
X41656000Y-20320000D02*
X41656000Y-20828000D01*
X34036000Y-12700000D02*
X41656000Y-20320000D01*
X41656000Y-23622000D02*
X41656000Y-20828000D01*
X9144000Y-18542000D02*
X23368000Y-18542000D01*
X29210000Y-12700000D02*
X31750000Y-12700000D01*
X23368000Y-18542000D02*
X29210000Y-12700000D01*
X35814000Y-17780000D02*
X37592000Y-19558000D01*
X31750000Y-15240000D02*
X33274000Y-15240000D01*
X33274000Y-15240000D02*
X35052000Y-17018000D01*
X35052000Y-17018000D02*
X37592000Y-19558000D01*
X34036000Y-16002000D02*
X35052000Y-17018000D01*
X41402000Y-26670000D02*
X41402000Y-45720000D01*
X38862000Y-24130000D02*
X41402000Y-26670000D01*
X38862000Y-20828000D02*
X38862000Y-24130000D01*
X37592000Y-19558000D02*
X38862000Y-20828000D01*
X35306000Y-20320000D02*
X36576000Y-21590000D01*
X40132000Y-46990000D02*
X40132000Y-27178000D01*
X37592000Y-22606000D02*
X36576000Y-21590000D01*
X37592000Y-24638000D02*
X37592000Y-22606000D01*
X40132000Y-27178000D02*
X37592000Y-24638000D01*
X32827630Y-17780000D02*
X34290000Y-19242370D01*
X31750000Y-17780000D02*
X32827630Y-17780000D01*
X34290000Y-19304000D02*
X36576000Y-21590000D01*
X34290000Y-19242370D02*
X34290000Y-19304000D01*
X33528000Y-18542000D02*
X34290000Y-19304000D01*
X40132000Y-86868000D02*
X41402000Y-88138000D01*
X40132000Y-46990000D02*
X40132000Y-86868000D01*
X38862000Y-107188000D02*
X41402000Y-109728000D01*
X32827630Y-30480000D02*
X38862000Y-36514370D01*
X31750000Y-30480000D02*
X32827630Y-30480000D01*
X38862000Y-36830000D02*
X38862000Y-107188000D01*
X38862000Y-36514370D02*
X38862000Y-36830000D01*
X31750000Y-30480000D02*
X27432000Y-30480000D01*
X27432000Y-30480000D02*
X17526000Y-20574000D01*
X17526000Y-20574000D02*
X9144000Y-20574000D01*
D27*
X60960000Y-16510000D02*
X53340000Y-16510000D01*
X62230000Y-17780000D02*
X60960000Y-16510000D01*
X62230000Y-26790000D02*
X62230000Y-17780000D01*
X67540000Y-32100000D02*
X62230000Y-26790000D01*
X67540000Y-96362000D02*
X62230000Y-91052000D01*
X60960000Y-80772000D02*
X53340000Y-80772000D01*
X62230000Y-91052000D02*
X62230000Y-82042000D01*
X62230000Y-82042000D02*
X60960000Y-80772000D01*
X67540000Y-160370000D02*
X62230000Y-155060000D01*
X60960000Y-144780000D02*
X53340000Y-144780000D01*
X62230000Y-155060000D02*
X62230000Y-146050000D01*
X62230000Y-146050000D02*
X60960000Y-144780000D01*
D25*
X41402000Y-152400000D02*
X37592000Y-148590000D01*
X37592000Y-37784370D02*
X37592000Y-38100000D01*
X32827630Y-33020000D02*
X37592000Y-37784370D01*
X31750000Y-33020000D02*
X32827630Y-33020000D01*
X37592000Y-148590000D02*
X37592000Y-38100000D01*
X27813000Y-33020000D02*
X17399000Y-22606000D01*
X31750000Y-33020000D02*
X27813000Y-33020000D01*
X9144000Y-22606000D02*
X17399000Y-22606000D01*
X41402000Y-155448000D02*
X41402000Y-173990000D01*
X36322000Y-150368000D02*
X41402000Y-155448000D01*
X33020000Y-35560000D02*
X36322000Y-38862000D01*
X31750000Y-35560000D02*
X33020000Y-35560000D01*
X36322000Y-38862000D02*
X36322000Y-150368000D01*
X31750000Y-35560000D02*
X28194000Y-35560000D01*
X28194000Y-35560000D02*
X17272000Y-24638000D01*
X17272000Y-24638000D02*
X9144000Y-24638000D01*
X29972000Y-36830000D02*
X23622000Y-36830000D01*
X23622000Y-36830000D02*
X22860000Y-36068000D01*
X22860000Y-36068000D02*
X22860000Y-35687000D01*
D28*
X46863000Y-184023000D02*
X20831590Y-184023000D01*
X20958284Y-183868623D01*
X21063676Y-183671446D01*
X21128577Y-183457498D01*
X21145000Y-183290751D01*
X21145000Y-182629248D01*
X21128577Y-182462501D01*
X21063676Y-182248553D01*
X20958284Y-182051377D01*
X20816449Y-181878551D01*
X20643623Y-181736716D01*
X20599050Y-181712891D01*
X24466519Y-181712891D01*
X24563843Y-181987252D01*
X24712822Y-182237355D01*
X24907731Y-182453588D01*
X25141080Y-182627641D01*
X25403901Y-182752825D01*
X25551110Y-182797476D01*
X25781000Y-182676155D01*
X25781000Y-181483000D01*
X24587186Y-181483000D01*
X24466519Y-181712891D01*
X20599050Y-181712891D01*
X20446446Y-181631324D01*
X20232498Y-181566423D01*
X20010000Y-181544509D01*
X19787501Y-181566423D01*
X19573553Y-181631324D01*
X19376377Y-181736716D01*
X19203551Y-181878551D01*
X19061716Y-182051377D01*
X18956324Y-182248554D01*
X18891423Y-182462502D01*
X18875000Y-182629249D01*
X18875000Y-183290752D01*
X18891423Y-183457499D01*
X18956324Y-183671447D01*
X19061717Y-183868623D01*
X19188411Y-184023000D01*
X13831590Y-184023000D01*
X13958284Y-183868623D01*
X14063676Y-183671446D01*
X14128577Y-183457498D01*
X14145000Y-183290751D01*
X14145000Y-182629248D01*
X14128577Y-182462501D01*
X14063676Y-182248553D01*
X13958284Y-182051377D01*
X13816449Y-181878551D01*
X13643623Y-181736716D01*
X13446446Y-181631324D01*
X13232498Y-181566423D01*
X13010000Y-181544509D01*
X12787501Y-181566423D01*
X12573553Y-181631324D01*
X12376377Y-181736716D01*
X12203551Y-181878551D01*
X12061716Y-182051377D01*
X11956324Y-182248554D01*
X11891423Y-182462502D01*
X11875000Y-182629249D01*
X11875000Y-183290752D01*
X11891423Y-183457499D01*
X11956324Y-183671447D01*
X12061717Y-183868623D01*
X12188411Y-184023000D01*
X8076377Y-184023000D01*
X8093287Y-184011701D01*
X8751701Y-183353287D01*
X9269013Y-182579074D01*
X9625344Y-181718815D01*
X9807000Y-180805569D01*
X9807000Y-180260000D01*
X12744630Y-180260000D01*
X12766062Y-180477598D01*
X12829532Y-180686834D01*
X12932604Y-180879666D01*
X13071314Y-181048686D01*
X13240334Y-181187396D01*
X13433166Y-181290468D01*
X13642402Y-181353938D01*
X13805479Y-181370000D01*
X14214521Y-181370000D01*
X14377598Y-181353938D01*
X14586834Y-181290468D01*
X14779666Y-181187396D01*
X14948686Y-181048686D01*
X15087396Y-180879666D01*
X15190468Y-180686834D01*
X15253938Y-180477598D01*
X15275370Y-180260000D01*
X17744630Y-180260000D01*
X17766062Y-180477598D01*
X17829532Y-180686834D01*
X17932604Y-180879666D01*
X18071314Y-181048686D01*
X18240334Y-181187396D01*
X18433166Y-181290468D01*
X18642402Y-181353938D01*
X18805479Y-181370000D01*
X19214521Y-181370000D01*
X19377598Y-181353938D01*
X19586834Y-181290468D01*
X19779666Y-181187396D01*
X19948686Y-181048686D01*
X19989372Y-180999109D01*
X24466519Y-180999109D01*
X24587186Y-181229000D01*
X25781000Y-181229000D01*
X25781000Y-180035845D01*
X26035000Y-180035845D01*
X26035000Y-181229000D01*
X26055000Y-181229000D01*
X26055000Y-181483000D01*
X26035000Y-181483000D01*
X26035000Y-182676155D01*
X26264890Y-182797476D01*
X26412099Y-182752825D01*
X26674920Y-182627641D01*
X26908269Y-182453588D01*
X26984034Y-182369534D01*
X27008498Y-182450180D01*
X27067463Y-182560494D01*
X27146815Y-182657185D01*
X27243506Y-182736537D01*
X27353820Y-182795502D01*
X27473518Y-182831812D01*
X27598000Y-182844072D01*
X29298000Y-182844072D01*
X29422482Y-182831812D01*
X29542180Y-182795502D01*
X29652494Y-182736537D01*
X29749185Y-182657185D01*
X29828537Y-182560494D01*
X29887502Y-182450180D01*
X29923812Y-182330482D01*
X29936072Y-182206000D01*
X29936072Y-180506000D01*
X29923812Y-180381518D01*
X29887502Y-180261820D01*
X29828537Y-180151506D01*
X29749185Y-180054815D01*
X29652494Y-179975463D01*
X29542180Y-179916498D01*
X29422482Y-179880188D01*
X29298000Y-179867928D01*
X27598000Y-179867928D01*
X27473518Y-179880188D01*
X27353820Y-179916498D01*
X27243506Y-179975463D01*
X27146815Y-180054815D01*
X27067463Y-180151506D01*
X27008498Y-180261820D01*
X26984034Y-180342466D01*
X26908269Y-180258412D01*
X26674920Y-180084359D01*
X26412099Y-179959175D01*
X26264890Y-179914524D01*
X26035000Y-180035845D01*
X25781000Y-180035845D01*
X25551110Y-179914524D01*
X25403901Y-179959175D01*
X25141080Y-180084359D01*
X24907731Y-180258412D01*
X24712822Y-180474645D01*
X24563843Y-180724748D01*
X24466519Y-180999109D01*
X19989372Y-180999109D01*
X20087396Y-180879666D01*
X20190468Y-180686834D01*
X20253938Y-180477598D01*
X20275370Y-180260000D01*
X20253938Y-180042402D01*
X20190468Y-179833166D01*
X20087396Y-179640334D01*
X19948686Y-179471314D01*
X19779666Y-179332604D01*
X19586834Y-179229532D01*
X19377598Y-179166062D01*
X19214521Y-179150000D01*
X18805479Y-179150000D01*
X18642402Y-179166062D01*
X18433166Y-179229532D01*
X18240334Y-179332604D01*
X18071314Y-179471314D01*
X17932604Y-179640334D01*
X17829532Y-179833166D01*
X17766062Y-180042402D01*
X17744630Y-180260000D01*
X15275370Y-180260000D01*
X15253938Y-180042402D01*
X15190468Y-179833166D01*
X15087396Y-179640334D01*
X14948686Y-179471314D01*
X14779666Y-179332604D01*
X14586834Y-179229532D01*
X14377598Y-179166062D01*
X14214521Y-179150000D01*
X13805479Y-179150000D01*
X13642402Y-179166062D01*
X13433166Y-179229532D01*
X13240334Y-179332604D01*
X13071314Y-179471314D01*
X12932604Y-179640334D01*
X12829532Y-179833166D01*
X12766062Y-180042402D01*
X12744630Y-180260000D01*
X9807000Y-180260000D01*
X9807000Y-179874431D01*
X9625344Y-178961185D01*
X9269013Y-178100926D01*
X8751701Y-177326713D01*
X8093287Y-176668299D01*
X7319074Y-176150987D01*
X6458815Y-175794656D01*
X5545569Y-175613000D01*
X4614431Y-175613000D01*
X3701185Y-175794656D01*
X2840926Y-176150987D01*
X2066713Y-176668299D01*
X1894834Y-176840178D01*
X1879363Y-165715740D01*
X3341000Y-165715740D01*
X3341000Y-166008260D01*
X3398068Y-166295158D01*
X3510010Y-166565411D01*
X3672525Y-166808632D01*
X3879368Y-167015475D01*
X4122589Y-167177990D01*
X4392842Y-167289932D01*
X4679740Y-167347000D01*
X4972260Y-167347000D01*
X5259158Y-167289932D01*
X5529411Y-167177990D01*
X5772632Y-167015475D01*
X5904487Y-166883620D01*
X5926498Y-166956180D01*
X5985463Y-167066494D01*
X6064815Y-167163185D01*
X6161506Y-167242537D01*
X6271820Y-167301502D01*
X6391518Y-167337812D01*
X6516000Y-167350072D01*
X8216000Y-167350072D01*
X8340482Y-167337812D01*
X8460180Y-167301502D01*
X8570494Y-167242537D01*
X8667185Y-167163185D01*
X8746537Y-167066494D01*
X8805502Y-166956180D01*
X8841812Y-166836482D01*
X8854072Y-166712000D01*
X8854072Y-165012000D01*
X8841812Y-164887518D01*
X8805502Y-164767820D01*
X8746537Y-164657506D01*
X8667185Y-164560815D01*
X8570494Y-164481463D01*
X8460180Y-164422498D01*
X8340482Y-164386188D01*
X8216000Y-164373928D01*
X6516000Y-164373928D01*
X6391518Y-164386188D01*
X6271820Y-164422498D01*
X6161506Y-164481463D01*
X6064815Y-164560815D01*
X5985463Y-164657506D01*
X5926498Y-164767820D01*
X5904487Y-164840380D01*
X5772632Y-164708525D01*
X5529411Y-164546010D01*
X5259158Y-164434068D01*
X4972260Y-164377000D01*
X4679740Y-164377000D01*
X4392842Y-164434068D01*
X4122589Y-164546010D01*
X3879368Y-164708525D01*
X3672525Y-164915368D01*
X3510010Y-165158589D01*
X3398068Y-165428842D01*
X3341000Y-165715740D01*
X1879363Y-165715740D01*
X1862961Y-153923200D01*
X1863748Y-153923987D01*
X2131537Y-154102918D01*
X2429088Y-154226168D01*
X2744967Y-154289000D01*
X3067033Y-154289000D01*
X3382912Y-154226168D01*
X3680463Y-154102918D01*
X3948252Y-153923987D01*
X4175987Y-153696252D01*
X4354918Y-153428463D01*
X4478168Y-153130912D01*
X4541000Y-152815033D01*
X4541000Y-152492967D01*
X4478168Y-152177088D01*
X4354918Y-151879537D01*
X4175987Y-151611748D01*
X3948252Y-151384013D01*
X3680463Y-151205082D01*
X3382912Y-151081832D01*
X3067033Y-151019000D01*
X2744967Y-151019000D01*
X2429088Y-151081832D01*
X2131537Y-151205082D01*
X1863748Y-151384013D01*
X1859435Y-151388326D01*
X1773817Y-89828000D01*
X16799928Y-89828000D01*
X16799928Y-91528000D01*
X16812188Y-91652482D01*
X16848498Y-91772180D01*
X16907463Y-91882494D01*
X16986815Y-91979185D01*
X17083506Y-92058537D01*
X17193820Y-92117502D01*
X17266380Y-92139513D01*
X17134525Y-92271368D01*
X16972010Y-92514589D01*
X16860068Y-92784842D01*
X16803000Y-93071740D01*
X16803000Y-93364260D01*
X16860068Y-93651158D01*
X16972010Y-93921411D01*
X17134525Y-94164632D01*
X17341368Y-94371475D01*
X17515760Y-94488000D01*
X17341368Y-94604525D01*
X17134525Y-94811368D01*
X16972010Y-95054589D01*
X16860068Y-95324842D01*
X16803000Y-95611740D01*
X16803000Y-95904260D01*
X16860068Y-96191158D01*
X16972010Y-96461411D01*
X17134525Y-96704632D01*
X17341368Y-96911475D01*
X17584589Y-97073990D01*
X17854842Y-97185932D01*
X18141740Y-97243000D01*
X18434260Y-97243000D01*
X18721158Y-97185932D01*
X18991411Y-97073990D01*
X19234632Y-96911475D01*
X19441475Y-96704632D01*
X19603990Y-96461411D01*
X19715932Y-96191158D01*
X19773000Y-95904260D01*
X19773000Y-95611740D01*
X19715932Y-95324842D01*
X19603990Y-95054589D01*
X19441475Y-94811368D01*
X19234632Y-94604525D01*
X19060240Y-94488000D01*
X19234632Y-94371475D01*
X19441475Y-94164632D01*
X19603990Y-93921411D01*
X19715932Y-93651158D01*
X19773000Y-93364260D01*
X19773000Y-93071740D01*
X19715932Y-92784842D01*
X19603990Y-92514589D01*
X19441475Y-92271368D01*
X19309620Y-92139513D01*
X19382180Y-92117502D01*
X19492494Y-92058537D01*
X19589185Y-91979185D01*
X19668537Y-91882494D01*
X19727502Y-91772180D01*
X19763812Y-91652482D01*
X19776072Y-91528000D01*
X19776072Y-89828000D01*
X22641928Y-89828000D01*
X22641928Y-91528000D01*
X22654188Y-91652482D01*
X22690498Y-91772180D01*
X22749463Y-91882494D01*
X22828815Y-91979185D01*
X22925506Y-92058537D01*
X23035820Y-92117502D01*
X23108380Y-92139513D01*
X22976525Y-92271368D01*
X22814010Y-92514589D01*
X22702068Y-92784842D01*
X22645000Y-93071740D01*
X22645000Y-93364260D01*
X22702068Y-93651158D01*
X22814010Y-93921411D01*
X22976525Y-94164632D01*
X23183368Y-94371475D01*
X23357760Y-94488000D01*
X23183368Y-94604525D01*
X22976525Y-94811368D01*
X22814010Y-95054589D01*
X22702068Y-95324842D01*
X22645000Y-95611740D01*
X22645000Y-95904260D01*
X22702068Y-96191158D01*
X22814010Y-96461411D01*
X22976525Y-96704632D01*
X23183368Y-96911475D01*
X23426589Y-97073990D01*
X23696842Y-97185932D01*
X23983740Y-97243000D01*
X24276260Y-97243000D01*
X24563158Y-97185932D01*
X24833411Y-97073990D01*
X25076632Y-96911475D01*
X25283475Y-96704632D01*
X25445990Y-96461411D01*
X25557932Y-96191158D01*
X25615000Y-95904260D01*
X25615000Y-95611740D01*
X25557932Y-95324842D01*
X25445990Y-95054589D01*
X25283475Y-94811368D01*
X25076632Y-94604525D01*
X24902240Y-94488000D01*
X25076632Y-94371475D01*
X25283475Y-94164632D01*
X25445990Y-93921411D01*
X25557932Y-93651158D01*
X25615000Y-93364260D01*
X25615000Y-93071740D01*
X25557932Y-92784842D01*
X25445990Y-92514589D01*
X25283475Y-92271368D01*
X25151620Y-92139513D01*
X25224180Y-92117502D01*
X25334494Y-92058537D01*
X25431185Y-91979185D01*
X25510537Y-91882494D01*
X25569502Y-91772180D01*
X25605812Y-91652482D01*
X25618072Y-91528000D01*
X25618072Y-89828000D01*
X28229928Y-89828000D01*
X28229928Y-91528000D01*
X28242188Y-91652482D01*
X28278498Y-91772180D01*
X28337463Y-91882494D01*
X28416815Y-91979185D01*
X28513506Y-92058537D01*
X28623820Y-92117502D01*
X28696380Y-92139513D01*
X28564525Y-92271368D01*
X28402010Y-92514589D01*
X28290068Y-92784842D01*
X28233000Y-93071740D01*
X28233000Y-93364260D01*
X28290068Y-93651158D01*
X28402010Y-93921411D01*
X28564525Y-94164632D01*
X28771368Y-94371475D01*
X28945760Y-94488000D01*
X28771368Y-94604525D01*
X28564525Y-94811368D01*
X28402010Y-95054589D01*
X28290068Y-95324842D01*
X28233000Y-95611740D01*
X28233000Y-95904260D01*
X28290068Y-96191158D01*
X28402010Y-96461411D01*
X28564525Y-96704632D01*
X28771368Y-96911475D01*
X29014589Y-97073990D01*
X29284842Y-97185932D01*
X29571740Y-97243000D01*
X29864260Y-97243000D01*
X30151158Y-97185932D01*
X30421411Y-97073990D01*
X30664632Y-96911475D01*
X30871475Y-96704632D01*
X31033990Y-96461411D01*
X31145932Y-96191158D01*
X31203000Y-95904260D01*
X31203000Y-95611740D01*
X31145932Y-95324842D01*
X31033990Y-95054589D01*
X30871475Y-94811368D01*
X30664632Y-94604525D01*
X30490240Y-94488000D01*
X30664632Y-94371475D01*
X30871475Y-94164632D01*
X31033990Y-93921411D01*
X31145932Y-93651158D01*
X31203000Y-93364260D01*
X31203000Y-93071740D01*
X31145932Y-92784842D01*
X31033990Y-92514589D01*
X30871475Y-92271368D01*
X30739620Y-92139513D01*
X30812180Y-92117502D01*
X30922494Y-92058537D01*
X31019185Y-91979185D01*
X31098537Y-91882494D01*
X31157502Y-91772180D01*
X31193812Y-91652482D01*
X31206072Y-91528000D01*
X31206072Y-89828000D01*
X31193812Y-89703518D01*
X31157502Y-89583820D01*
X31098537Y-89473506D01*
X31019185Y-89376815D01*
X30922494Y-89297463D01*
X30812180Y-89238498D01*
X30692482Y-89202188D01*
X30568000Y-89189928D01*
X28868000Y-89189928D01*
X28743518Y-89202188D01*
X28623820Y-89238498D01*
X28513506Y-89297463D01*
X28416815Y-89376815D01*
X28337463Y-89473506D01*
X28278498Y-89583820D01*
X28242188Y-89703518D01*
X28229928Y-89828000D01*
X25618072Y-89828000D01*
X25605812Y-89703518D01*
X25569502Y-89583820D01*
X25510537Y-89473506D01*
X25431185Y-89376815D01*
X25334494Y-89297463D01*
X25224180Y-89238498D01*
X25104482Y-89202188D01*
X24980000Y-89189928D01*
X23280000Y-89189928D01*
X23155518Y-89202188D01*
X23035820Y-89238498D01*
X22925506Y-89297463D01*
X22828815Y-89376815D01*
X22749463Y-89473506D01*
X22690498Y-89583820D01*
X22654188Y-89703518D01*
X22641928Y-89828000D01*
X19776072Y-89828000D01*
X19763812Y-89703518D01*
X19727502Y-89583820D01*
X19668537Y-89473506D01*
X19589185Y-89376815D01*
X19492494Y-89297463D01*
X19382180Y-89238498D01*
X19262482Y-89202188D01*
X19138000Y-89189928D01*
X17438000Y-89189928D01*
X17313518Y-89202188D01*
X17193820Y-89238498D01*
X17083506Y-89297463D01*
X16986815Y-89376815D01*
X16907463Y-89473506D01*
X16848498Y-89583820D01*
X16812188Y-89703518D01*
X16799928Y-89828000D01*
X1773817Y-89828000D01*
X1760996Y-80610000D01*
X6381928Y-80610000D01*
X6394188Y-80734482D01*
X6430498Y-80854180D01*
X6489463Y-80964494D01*
X6568815Y-81061185D01*
X6665506Y-81140537D01*
X6775820Y-81199502D01*
X6895518Y-81235812D01*
X7020000Y-81248072D01*
X7334250Y-81245000D01*
X7493000Y-81086250D01*
X7493000Y-80137000D01*
X6543750Y-80137000D01*
X6385000Y-80295750D01*
X6381928Y-80610000D01*
X1760996Y-80610000D01*
X1759327Y-79410000D01*
X6381928Y-79410000D01*
X6385000Y-79724250D01*
X6543750Y-79883000D01*
X7493000Y-79883000D01*
X7493000Y-78933750D01*
X7747000Y-78933750D01*
X7747000Y-79883000D01*
X7767000Y-79883000D01*
X7767000Y-80137000D01*
X7747000Y-80137000D01*
X7747000Y-81086250D01*
X7905750Y-81245000D01*
X8220000Y-81248072D01*
X8344482Y-81235812D01*
X8464180Y-81199502D01*
X8574494Y-81140537D01*
X8671185Y-81061185D01*
X8750537Y-80964494D01*
X8777499Y-80914053D01*
X8832733Y-80969287D01*
X9035008Y-81104443D01*
X9259764Y-81197540D01*
X9498363Y-81245000D01*
X9741637Y-81245000D01*
X9980236Y-81197540D01*
X10204992Y-81104443D01*
X10407267Y-80969287D01*
X10579287Y-80797267D01*
X10714443Y-80594992D01*
X10807540Y-80370236D01*
X10855000Y-80131637D01*
X10855000Y-79888363D01*
X10807540Y-79649764D01*
X10714443Y-79425008D01*
X10579287Y-79222733D01*
X10407267Y-79050713D01*
X10204992Y-78915557D01*
X9980236Y-78822460D01*
X9741637Y-78775000D01*
X9498363Y-78775000D01*
X9259764Y-78822460D01*
X9035008Y-78915557D01*
X8832733Y-79050713D01*
X8777499Y-79105947D01*
X8750537Y-79055506D01*
X8671185Y-78958815D01*
X8574494Y-78879463D01*
X8464180Y-78820498D01*
X8344482Y-78784188D01*
X8220000Y-78771928D01*
X7905750Y-78775000D01*
X7747000Y-78933750D01*
X7493000Y-78933750D01*
X7334250Y-78775000D01*
X7020000Y-78771928D01*
X6895518Y-78784188D01*
X6775820Y-78820498D01*
X6665506Y-78879463D01*
X6568815Y-78958815D01*
X6489463Y-79055506D01*
X6430498Y-79165820D01*
X6394188Y-79285518D01*
X6381928Y-79410000D01*
X1759327Y-79410000D01*
X1753931Y-75530000D01*
X6381928Y-75530000D01*
X6394188Y-75654482D01*
X6430498Y-75774180D01*
X6489463Y-75884494D01*
X6568815Y-75981185D01*
X6665506Y-76060537D01*
X6775820Y-76119502D01*
X6895518Y-76155812D01*
X7020000Y-76168072D01*
X7334250Y-76165000D01*
X7493000Y-76006250D01*
X7493000Y-75057000D01*
X6543750Y-75057000D01*
X6385000Y-75215750D01*
X6381928Y-75530000D01*
X1753931Y-75530000D01*
X1752262Y-74330000D01*
X6381928Y-74330000D01*
X6385000Y-74644250D01*
X6543750Y-74803000D01*
X7493000Y-74803000D01*
X7493000Y-73853750D01*
X7747000Y-73853750D01*
X7747000Y-74803000D01*
X7767000Y-74803000D01*
X7767000Y-75057000D01*
X7747000Y-75057000D01*
X7747000Y-76006250D01*
X7905750Y-76165000D01*
X8220000Y-76168072D01*
X8344482Y-76155812D01*
X8464180Y-76119502D01*
X8574494Y-76060537D01*
X8671185Y-75981185D01*
X8750537Y-75884494D01*
X8777499Y-75834053D01*
X8832733Y-75889287D01*
X9035008Y-76024443D01*
X9259764Y-76117540D01*
X9498363Y-76165000D01*
X9741637Y-76165000D01*
X9980236Y-76117540D01*
X10204992Y-76024443D01*
X10407267Y-75889287D01*
X10579287Y-75717267D01*
X10714443Y-75514992D01*
X10807540Y-75290236D01*
X10855000Y-75051637D01*
X10855000Y-74808363D01*
X10807540Y-74569764D01*
X10714443Y-74345008D01*
X10579287Y-74142733D01*
X10407267Y-73970713D01*
X10204992Y-73835557D01*
X9980236Y-73742460D01*
X9741637Y-73695000D01*
X9498363Y-73695000D01*
X9259764Y-73742460D01*
X9035008Y-73835557D01*
X8832733Y-73970713D01*
X8777499Y-74025947D01*
X8750537Y-73975506D01*
X8671185Y-73878815D01*
X8574494Y-73799463D01*
X8464180Y-73740498D01*
X8344482Y-73704188D01*
X8220000Y-73691928D01*
X7905750Y-73695000D01*
X7747000Y-73853750D01*
X7493000Y-73853750D01*
X7334250Y-73695000D01*
X7020000Y-73691928D01*
X6895518Y-73704188D01*
X6775820Y-73740498D01*
X6665506Y-73799463D01*
X6568815Y-73878815D01*
X6489463Y-73975506D01*
X6430498Y-74085820D01*
X6394188Y-74205518D01*
X6381928Y-74330000D01*
X1752262Y-74330000D01*
X1746261Y-70015000D01*
X17611928Y-70015000D01*
X17624188Y-70139482D01*
X17660498Y-70259180D01*
X17719463Y-70369494D01*
X17798815Y-70466185D01*
X17895506Y-70545537D01*
X18005820Y-70604502D01*
X18125518Y-70640812D01*
X18250000Y-70653072D01*
X18764250Y-70650000D01*
X18923000Y-70491250D01*
X18923000Y-69342000D01*
X19177000Y-69342000D01*
X19177000Y-70491250D01*
X19335750Y-70650000D01*
X19850000Y-70653072D01*
X19974482Y-70640812D01*
X20094180Y-70604502D01*
X20204494Y-70545537D01*
X20301185Y-70466185D01*
X20380537Y-70369494D01*
X20439502Y-70259180D01*
X20475812Y-70139482D01*
X20488072Y-70015000D01*
X20485000Y-69500750D01*
X20326250Y-69342000D01*
X19177000Y-69342000D01*
X18923000Y-69342000D01*
X17773750Y-69342000D01*
X17615000Y-69500750D01*
X17611928Y-70015000D01*
X1746261Y-70015000D01*
X1744036Y-68415000D01*
X17611928Y-68415000D01*
X17615000Y-68929250D01*
X17773750Y-69088000D01*
X18923000Y-69088000D01*
X18923000Y-67938750D01*
X19177000Y-67938750D01*
X19177000Y-69088000D01*
X20326250Y-69088000D01*
X20485000Y-68929250D01*
X20488072Y-68415000D01*
X20475812Y-68290518D01*
X20439502Y-68170820D01*
X20380537Y-68060506D01*
X20301185Y-67963815D01*
X20204494Y-67884463D01*
X20094180Y-67825498D01*
X19974482Y-67789188D01*
X19850000Y-67776928D01*
X19335750Y-67780000D01*
X19177000Y-67938750D01*
X18923000Y-67938750D01*
X18764250Y-67780000D01*
X18250000Y-67776928D01*
X18125518Y-67789188D01*
X18005820Y-67825498D01*
X17895506Y-67884463D01*
X17798815Y-67963815D01*
X17719463Y-68060506D01*
X17660498Y-68170820D01*
X17624188Y-68290518D01*
X17611928Y-68415000D01*
X1744036Y-68415000D01*
X1740084Y-65573665D01*
X17615000Y-65573665D01*
X17615000Y-65856335D01*
X17670147Y-66133574D01*
X17778320Y-66394727D01*
X17935363Y-66629759D01*
X18135241Y-66829637D01*
X18370273Y-66986680D01*
X18631426Y-67094853D01*
X18908665Y-67150000D01*
X19191335Y-67150000D01*
X19468574Y-67094853D01*
X19729727Y-66986680D01*
X19964759Y-66829637D01*
X20164637Y-66629759D01*
X20321680Y-66394727D01*
X20429853Y-66133574D01*
X20485000Y-65856335D01*
X20485000Y-65573665D01*
X20429853Y-65296426D01*
X20321680Y-65035273D01*
X20164637Y-64800241D01*
X19964759Y-64600363D01*
X19729727Y-64443320D01*
X19468574Y-64335147D01*
X19191335Y-64280000D01*
X18908665Y-64280000D01*
X18631426Y-64335147D01*
X18370273Y-64443320D01*
X18135241Y-64600363D01*
X17935363Y-64800241D01*
X17778320Y-65035273D01*
X17670147Y-65296426D01*
X17615000Y-65573665D01*
X1740084Y-65573665D01*
X1735582Y-62337740D01*
X3595000Y-62337740D01*
X3595000Y-62630260D01*
X3652068Y-62917158D01*
X3764010Y-63187411D01*
X3926525Y-63430632D01*
X4133368Y-63637475D01*
X4376589Y-63799990D01*
X4646842Y-63911932D01*
X4933740Y-63969000D01*
X5226260Y-63969000D01*
X5513158Y-63911932D01*
X5783411Y-63799990D01*
X6026632Y-63637475D01*
X6233475Y-63430632D01*
X6350000Y-63256240D01*
X6466525Y-63430632D01*
X6673368Y-63637475D01*
X6916589Y-63799990D01*
X7186842Y-63911932D01*
X7473740Y-63969000D01*
X7766260Y-63969000D01*
X8053158Y-63911932D01*
X8323411Y-63799990D01*
X8566632Y-63637475D01*
X8698487Y-63505620D01*
X8720498Y-63578180D01*
X8779463Y-63688494D01*
X8858815Y-63785185D01*
X8955506Y-63864537D01*
X9065820Y-63923502D01*
X9185518Y-63959812D01*
X9310000Y-63972072D01*
X9874250Y-63969000D01*
X10033000Y-63810250D01*
X10033000Y-62611000D01*
X10287000Y-62611000D01*
X10287000Y-63810250D01*
X10445750Y-63969000D01*
X11010000Y-63972072D01*
X11134482Y-63959812D01*
X11254180Y-63923502D01*
X11364494Y-63864537D01*
X11461185Y-63785185D01*
X11540537Y-63688494D01*
X11599502Y-63578180D01*
X11635812Y-63458482D01*
X11648072Y-63334000D01*
X11645000Y-62769750D01*
X11486250Y-62611000D01*
X10287000Y-62611000D01*
X10033000Y-62611000D01*
X10013000Y-62611000D01*
X10013000Y-62357000D01*
X10033000Y-62357000D01*
X10033000Y-61157750D01*
X10287000Y-61157750D01*
X10287000Y-62357000D01*
X11486250Y-62357000D01*
X11645000Y-62198250D01*
X11648072Y-61634000D01*
X11635812Y-61509518D01*
X11599502Y-61389820D01*
X11540537Y-61279506D01*
X11461185Y-61182815D01*
X11364494Y-61103463D01*
X11254180Y-61044498D01*
X11134482Y-61008188D01*
X11010000Y-60995928D01*
X10445750Y-60999000D01*
X10287000Y-61157750D01*
X10033000Y-61157750D01*
X9874250Y-60999000D01*
X9310000Y-60995928D01*
X9185518Y-61008188D01*
X9065820Y-61044498D01*
X8955506Y-61103463D01*
X8858815Y-61182815D01*
X8779463Y-61279506D01*
X8720498Y-61389820D01*
X8698487Y-61462380D01*
X8566632Y-61330525D01*
X8323411Y-61168010D01*
X8053158Y-61056068D01*
X7766260Y-60999000D01*
X7473740Y-60999000D01*
X7186842Y-61056068D01*
X6916589Y-61168010D01*
X6673368Y-61330525D01*
X6466525Y-61537368D01*
X6350000Y-61711760D01*
X6233475Y-61537368D01*
X6026632Y-61330525D01*
X5783411Y-61168010D01*
X5513158Y-61056068D01*
X5226260Y-60999000D01*
X4933740Y-60999000D01*
X4646842Y-61056068D01*
X4376589Y-61168010D01*
X4133368Y-61330525D01*
X3926525Y-61537368D01*
X3764010Y-61780589D01*
X3652068Y-62050842D01*
X3595000Y-62337740D01*
X1735582Y-62337740D01*
X1664601Y-11303000D01*
X3672408Y-11303000D01*
X3402510Y-11356686D01*
X3148273Y-11461995D01*
X2919465Y-11614880D01*
X2724880Y-11809465D01*
X2571995Y-12038273D01*
X2466686Y-12292510D01*
X2413000Y-12562408D01*
X2413000Y-12837592D01*
X2466686Y-13107490D01*
X2571995Y-13361727D01*
X2724880Y-13590535D01*
X2919465Y-13785120D01*
X3148273Y-13938005D01*
X3225515Y-13970000D01*
X3148273Y-14001995D01*
X2919465Y-14154880D01*
X2724880Y-14349465D01*
X2571995Y-14578273D01*
X2466686Y-14832510D01*
X2413000Y-15102408D01*
X2413000Y-15377592D01*
X2466686Y-15647490D01*
X2571995Y-15901727D01*
X2724880Y-16130535D01*
X2919465Y-16325120D01*
X3148273Y-16478005D01*
X3225515Y-16510000D01*
X3148273Y-16541995D01*
X2919465Y-16694880D01*
X2724880Y-16889465D01*
X2571995Y-17118273D01*
X2466686Y-17372510D01*
X2413000Y-17642408D01*
X2413000Y-17917592D01*
X2466686Y-18187490D01*
X2571995Y-18441727D01*
X2724880Y-18670535D01*
X2919465Y-18865120D01*
X3148273Y-19018005D01*
X3225515Y-19050000D01*
X3148273Y-19081995D01*
X2919465Y-19234880D01*
X2724880Y-19429465D01*
X2571995Y-19658273D01*
X2466686Y-19912510D01*
X2413000Y-20182408D01*
X2413000Y-20457592D01*
X2466686Y-20727490D01*
X2571995Y-20981727D01*
X2724880Y-21210535D01*
X2919465Y-21405120D01*
X3148273Y-21558005D01*
X3225515Y-21590000D01*
X3148273Y-21621995D01*
X2919465Y-21774880D01*
X2724880Y-21969465D01*
X2571995Y-22198273D01*
X2466686Y-22452510D01*
X2413000Y-22722408D01*
X2413000Y-22997592D01*
X2466686Y-23267490D01*
X2571995Y-23521727D01*
X2724880Y-23750535D01*
X2919465Y-23945120D01*
X3148273Y-24098005D01*
X3225515Y-24130000D01*
X3148273Y-24161995D01*
X2919465Y-24314880D01*
X2724880Y-24509465D01*
X2571995Y-24738273D01*
X2466686Y-24992510D01*
X2413000Y-25262408D01*
X2413000Y-25537592D01*
X2466686Y-25807490D01*
X2571995Y-26061727D01*
X2724880Y-26290535D01*
X2919465Y-26485120D01*
X3148273Y-26638005D01*
X3225515Y-26670000D01*
X3148273Y-26701995D01*
X2919465Y-26854880D01*
X2724880Y-27049465D01*
X2571995Y-27278273D01*
X2466686Y-27532510D01*
X2413000Y-27802408D01*
X2413000Y-28077592D01*
X2466686Y-28347490D01*
X2571995Y-28601727D01*
X2724880Y-28830535D01*
X2919465Y-29025120D01*
X3148273Y-29178005D01*
X3225515Y-29210000D01*
X3148273Y-29241995D01*
X2919465Y-29394880D01*
X2724880Y-29589465D01*
X2571995Y-29818273D01*
X2466686Y-30072510D01*
X2413000Y-30342408D01*
X2413000Y-30617592D01*
X2466686Y-30887490D01*
X2571995Y-31141727D01*
X2724880Y-31370535D01*
X2919465Y-31565120D01*
X3148273Y-31718005D01*
X3225515Y-31750000D01*
X3148273Y-31781995D01*
X2919465Y-31934880D01*
X2724880Y-32129465D01*
X2571995Y-32358273D01*
X2466686Y-32612510D01*
X2413000Y-32882408D01*
X2413000Y-33157592D01*
X2466686Y-33427490D01*
X2571995Y-33681727D01*
X2724880Y-33910535D01*
X2919465Y-34105120D01*
X3148273Y-34258005D01*
X3225515Y-34290000D01*
X3148273Y-34321995D01*
X2919465Y-34474880D01*
X2724880Y-34669465D01*
X2571995Y-34898273D01*
X2466686Y-35152510D01*
X2413000Y-35422408D01*
X2413000Y-35697592D01*
X2466686Y-35967490D01*
X2571995Y-36221727D01*
X2724880Y-36450535D01*
X2919465Y-36645120D01*
X3148273Y-36798005D01*
X3225515Y-36830000D01*
X3148273Y-36861995D01*
X2919465Y-37014880D01*
X2724880Y-37209465D01*
X2571995Y-37438273D01*
X2466686Y-37692510D01*
X2413000Y-37962408D01*
X2413000Y-38237592D01*
X2466686Y-38507490D01*
X2571995Y-38761727D01*
X2724880Y-38990535D01*
X2919465Y-39185120D01*
X3148273Y-39338005D01*
X3225515Y-39370000D01*
X3148273Y-39401995D01*
X2919465Y-39554880D01*
X2724880Y-39749465D01*
X2571995Y-39978273D01*
X2466686Y-40232510D01*
X2413000Y-40502408D01*
X2413000Y-40777592D01*
X2466686Y-41047490D01*
X2571995Y-41301727D01*
X2724880Y-41530535D01*
X2919465Y-41725120D01*
X3148273Y-41878005D01*
X3225515Y-41910000D01*
X3148273Y-41941995D01*
X2919465Y-42094880D01*
X2724880Y-42289465D01*
X2571995Y-42518273D01*
X2466686Y-42772510D01*
X2413000Y-43042408D01*
X2413000Y-43317592D01*
X2466686Y-43587490D01*
X2571995Y-43841727D01*
X2724880Y-44070535D01*
X2919465Y-44265120D01*
X3148273Y-44418005D01*
X3225515Y-44450000D01*
X3148273Y-44481995D01*
X2919465Y-44634880D01*
X2724880Y-44829465D01*
X2571995Y-45058273D01*
X2466686Y-45312510D01*
X2413000Y-45582408D01*
X2413000Y-45857592D01*
X2466686Y-46127490D01*
X2571995Y-46381727D01*
X2724880Y-46610535D01*
X2919465Y-46805120D01*
X3148273Y-46958005D01*
X3225515Y-46990000D01*
X3148273Y-47021995D01*
X2919465Y-47174880D01*
X2724880Y-47369465D01*
X2571995Y-47598273D01*
X2466686Y-47852510D01*
X2413000Y-48122408D01*
X2413000Y-48397592D01*
X2466686Y-48667490D01*
X2571995Y-48921727D01*
X2724880Y-49150535D01*
X2919465Y-49345120D01*
X3148273Y-49498005D01*
X3402510Y-49603314D01*
X3672408Y-49657000D01*
X3947592Y-49657000D01*
X4217490Y-49603314D01*
X4471727Y-49498005D01*
X4700535Y-49345120D01*
X4895120Y-49150535D01*
X5048005Y-48921727D01*
X5153314Y-48667490D01*
X5207000Y-48397592D01*
X5207000Y-48122408D01*
X5153314Y-47852510D01*
X5048005Y-47598273D01*
X4895120Y-47369465D01*
X4700535Y-47174880D01*
X4471727Y-47021995D01*
X4394485Y-46990000D01*
X4471727Y-46958005D01*
X4700535Y-46805120D01*
X4895120Y-46610535D01*
X5048005Y-46381727D01*
X5153314Y-46127490D01*
X5207000Y-45857592D01*
X5207000Y-45582408D01*
X5153314Y-45312510D01*
X5048005Y-45058273D01*
X4895120Y-44829465D01*
X4700535Y-44634880D01*
X4471727Y-44481995D01*
X4394485Y-44450000D01*
X4471727Y-44418005D01*
X4700535Y-44265120D01*
X4895120Y-44070535D01*
X5048005Y-43841727D01*
X5153314Y-43587490D01*
X5207000Y-43317592D01*
X5207000Y-43042408D01*
X5153314Y-42772510D01*
X5048005Y-42518273D01*
X4895120Y-42289465D01*
X4700535Y-42094880D01*
X4471727Y-41941995D01*
X4394485Y-41910000D01*
X4471727Y-41878005D01*
X4700535Y-41725120D01*
X4895120Y-41530535D01*
X5048005Y-41301727D01*
X5153314Y-41047490D01*
X5207000Y-40777592D01*
X5207000Y-40502408D01*
X5165546Y-40294000D01*
X21621928Y-40294000D01*
X21621928Y-41494000D01*
X21634188Y-41618482D01*
X21670498Y-41738180D01*
X21729463Y-41848494D01*
X21808815Y-41945185D01*
X21905506Y-42024537D01*
X22015820Y-42083502D01*
X22135518Y-42119812D01*
X22260000Y-42132072D01*
X23460000Y-42132072D01*
X23584482Y-42119812D01*
X23704180Y-42083502D01*
X23814494Y-42024537D01*
X23911185Y-41945185D01*
X23990537Y-41848494D01*
X24017499Y-41798053D01*
X24072733Y-41853287D01*
X24275008Y-41988443D01*
X24499764Y-42081540D01*
X24738363Y-42129000D01*
X24981637Y-42129000D01*
X25220236Y-42081540D01*
X25444992Y-41988443D01*
X25647267Y-41853287D01*
X25819287Y-41681267D01*
X25954443Y-41478992D01*
X26047540Y-41254236D01*
X26095000Y-41015637D01*
X26095000Y-40772363D01*
X26047540Y-40533764D01*
X25954443Y-40309008D01*
X25819287Y-40106733D01*
X25647267Y-39934713D01*
X25444992Y-39799557D01*
X25220236Y-39706460D01*
X24981637Y-39659000D01*
X24738363Y-39659000D01*
X24499764Y-39706460D01*
X24275008Y-39799557D01*
X24072733Y-39934713D01*
X24017499Y-39989947D01*
X23990537Y-39939506D01*
X23911185Y-39842815D01*
X23814494Y-39763463D01*
X23704180Y-39704498D01*
X23584482Y-39668188D01*
X23460000Y-39655928D01*
X22260000Y-39655928D01*
X22135518Y-39668188D01*
X22015820Y-39704498D01*
X21905506Y-39763463D01*
X21808815Y-39842815D01*
X21729463Y-39939506D01*
X21670498Y-40049820D01*
X21634188Y-40169518D01*
X21621928Y-40294000D01*
X5165546Y-40294000D01*
X5153314Y-40232510D01*
X5048005Y-39978273D01*
X4895120Y-39749465D01*
X4700535Y-39554880D01*
X4471727Y-39401995D01*
X4394485Y-39370000D01*
X4471727Y-39338005D01*
X4700535Y-39185120D01*
X4895120Y-38990535D01*
X5048005Y-38761727D01*
X5153314Y-38507490D01*
X5207000Y-38237592D01*
X5207000Y-37962408D01*
X5153314Y-37692510D01*
X5048005Y-37438273D01*
X4895120Y-37209465D01*
X4700535Y-37014880D01*
X4471727Y-36861995D01*
X4394485Y-36830000D01*
X4471727Y-36798005D01*
X4700535Y-36645120D01*
X4895120Y-36450535D01*
X5048005Y-36221727D01*
X5153314Y-35967490D01*
X5207000Y-35697592D01*
X5207000Y-35422408D01*
X5153314Y-35152510D01*
X5048005Y-34898273D01*
X4895120Y-34669465D01*
X4700535Y-34474880D01*
X4471727Y-34321995D01*
X4394485Y-34290000D01*
X4471727Y-34258005D01*
X4700535Y-34105120D01*
X4895120Y-33910535D01*
X5048005Y-33681727D01*
X5153314Y-33427490D01*
X5207000Y-33157592D01*
X5207000Y-32882408D01*
X5153314Y-32612510D01*
X5048005Y-32358273D01*
X4895120Y-32129465D01*
X4700535Y-31934880D01*
X4471727Y-31781995D01*
X4394485Y-31750000D01*
X4471727Y-31718005D01*
X4700535Y-31565120D01*
X4895120Y-31370535D01*
X5048005Y-31141727D01*
X5153314Y-30887490D01*
X5207000Y-30617592D01*
X5207000Y-30342408D01*
X5153314Y-30072510D01*
X5048005Y-29818273D01*
X4895120Y-29589465D01*
X4700535Y-29394880D01*
X4471727Y-29241995D01*
X4394485Y-29210000D01*
X4471727Y-29178005D01*
X4700535Y-29025120D01*
X4895120Y-28830535D01*
X5048005Y-28601727D01*
X5153314Y-28347490D01*
X5207000Y-28077592D01*
X5207000Y-27802408D01*
X5153314Y-27532510D01*
X5048005Y-27278273D01*
X4895120Y-27049465D01*
X4700535Y-26854880D01*
X4471727Y-26701995D01*
X4394485Y-26670000D01*
X4471727Y-26638005D01*
X4700535Y-26485120D01*
X4895120Y-26290535D01*
X5048005Y-26061727D01*
X5153314Y-25807490D01*
X5207000Y-25537592D01*
X5207000Y-25262408D01*
X5153314Y-24992510D01*
X5048005Y-24738273D01*
X4895120Y-24509465D01*
X4700535Y-24314880D01*
X4471727Y-24161995D01*
X4394485Y-24130000D01*
X4471727Y-24098005D01*
X4700535Y-23945120D01*
X4895120Y-23750535D01*
X5048005Y-23521727D01*
X5153314Y-23267490D01*
X5207000Y-22997592D01*
X5207000Y-22722408D01*
X5153314Y-22452510D01*
X5048005Y-22198273D01*
X4895120Y-21969465D01*
X4700535Y-21774880D01*
X4471727Y-21621995D01*
X4394485Y-21590000D01*
X4471727Y-21558005D01*
X4700535Y-21405120D01*
X4895120Y-21210535D01*
X5048005Y-20981727D01*
X5153314Y-20727490D01*
X5207000Y-20457592D01*
X5207000Y-20182408D01*
X5153314Y-19912510D01*
X5048005Y-19658273D01*
X4895120Y-19429465D01*
X4700535Y-19234880D01*
X4471727Y-19081995D01*
X4394485Y-19050000D01*
X4471727Y-19018005D01*
X4700535Y-18865120D01*
X4895120Y-18670535D01*
X5048005Y-18441727D01*
X5153314Y-18187490D01*
X5207000Y-17917592D01*
X5207000Y-17642408D01*
X5153314Y-17372510D01*
X5048005Y-17118273D01*
X4895120Y-16889465D01*
X4700535Y-16694880D01*
X4471727Y-16541995D01*
X4394485Y-16510000D01*
X4471727Y-16478005D01*
X4700535Y-16325120D01*
X4895120Y-16130535D01*
X5048005Y-15901727D01*
X5153314Y-15647490D01*
X5207000Y-15377592D01*
X5207000Y-15102408D01*
X5153314Y-14832510D01*
X5048005Y-14578273D01*
X4895120Y-14349465D01*
X4700535Y-14154880D01*
X4471727Y-14001995D01*
X4394485Y-13970000D01*
X4471727Y-13938005D01*
X4700535Y-13785120D01*
X4895120Y-13590535D01*
X5048005Y-13361727D01*
X5153314Y-13107490D01*
X5207000Y-12837592D01*
X5207000Y-12562408D01*
X5153314Y-12292510D01*
X5048005Y-12038273D01*
X4895120Y-11809465D01*
X4700535Y-11614880D01*
X4471727Y-11461995D01*
X4217490Y-11356686D01*
X3947592Y-11303000D01*
X31612408Y-11303000D01*
X31342510Y-11356686D01*
X31088273Y-11461995D01*
X30859465Y-11614880D01*
X30664880Y-11809465D01*
X30661182Y-11815000D01*
X29253469Y-11815000D01*
X29210000Y-11810719D01*
X29166531Y-11815000D01*
X29166523Y-11815000D01*
X29036510Y-11827805D01*
X28869686Y-11878411D01*
X28715941Y-11960589D01*
X28614953Y-12043468D01*
X28614951Y-12043470D01*
X28581183Y-12071183D01*
X28553470Y-12104951D01*
X23001422Y-17657000D01*
X9682454Y-17657000D01*
X9634256Y-17624795D01*
X9445898Y-17546774D01*
X9245939Y-17507000D01*
X9042061Y-17507000D01*
X8842102Y-17546774D01*
X8653744Y-17624795D01*
X8484226Y-17738063D01*
X8340063Y-17882226D01*
X8226795Y-18051744D01*
X8148774Y-18240102D01*
X8109000Y-18440061D01*
X8109000Y-18643939D01*
X8148774Y-18843898D01*
X8226795Y-19032256D01*
X8340063Y-19201774D01*
X8484226Y-19345937D01*
X8653744Y-19459205D01*
X8842102Y-19537226D01*
X8946541Y-19558000D01*
X8842102Y-19578774D01*
X8653744Y-19656795D01*
X8484226Y-19770063D01*
X8340063Y-19914226D01*
X8226795Y-20083744D01*
X8148774Y-20272102D01*
X8109000Y-20472061D01*
X8109000Y-20675939D01*
X8148774Y-20875898D01*
X8226795Y-21064256D01*
X8340063Y-21233774D01*
X8484226Y-21377937D01*
X8653744Y-21491205D01*
X8842102Y-21569226D01*
X8946541Y-21590000D01*
X8842102Y-21610774D01*
X8653744Y-21688795D01*
X8484226Y-21802063D01*
X8340063Y-21946226D01*
X8226795Y-22115744D01*
X8148774Y-22304102D01*
X8109000Y-22504061D01*
X8109000Y-22707939D01*
X8148774Y-22907898D01*
X8226795Y-23096256D01*
X8340063Y-23265774D01*
X8484226Y-23409937D01*
X8653744Y-23523205D01*
X8842102Y-23601226D01*
X8946541Y-23622000D01*
X8842102Y-23642774D01*
X8653744Y-23720795D01*
X8484226Y-23834063D01*
X8340063Y-23978226D01*
X8226795Y-24147744D01*
X8148774Y-24336102D01*
X8109000Y-24536061D01*
X8109000Y-24739939D01*
X8148774Y-24939898D01*
X8226795Y-25128256D01*
X8340063Y-25297774D01*
X8484226Y-25441937D01*
X8653744Y-25555205D01*
X8842102Y-25633226D01*
X9042061Y-25673000D01*
X9245939Y-25673000D01*
X9445898Y-25633226D01*
X9634256Y-25555205D01*
X9682454Y-25523000D01*
X16905422Y-25523000D01*
X27327421Y-35945000D01*
X26037282Y-35945000D01*
X26047540Y-35920236D01*
X26095000Y-35681637D01*
X26095000Y-35438363D01*
X26047540Y-35199764D01*
X25954443Y-34975008D01*
X25819287Y-34772733D01*
X25647267Y-34600713D01*
X25444992Y-34465557D01*
X25220236Y-34372460D01*
X24981637Y-34325000D01*
X24738363Y-34325000D01*
X24499764Y-34372460D01*
X24275008Y-34465557D01*
X24072733Y-34600713D01*
X24017499Y-34655947D01*
X23990537Y-34605506D01*
X23911185Y-34508815D01*
X23814494Y-34429463D01*
X23704180Y-34370498D01*
X23584482Y-34334188D01*
X23460000Y-34321928D01*
X22260000Y-34321928D01*
X22135518Y-34334188D01*
X22015820Y-34370498D01*
X21905506Y-34429463D01*
X21808815Y-34508815D01*
X21729463Y-34605506D01*
X21670498Y-34715820D01*
X21634188Y-34835518D01*
X21621928Y-34960000D01*
X21621928Y-36160000D01*
X21634188Y-36284482D01*
X21670498Y-36404180D01*
X21729463Y-36514494D01*
X21808815Y-36611185D01*
X21905506Y-36690537D01*
X22015820Y-36749502D01*
X22135518Y-36785812D01*
X22260000Y-36798072D01*
X22338494Y-36798072D01*
X22965470Y-37425049D01*
X22993183Y-37458817D01*
X23026951Y-37486530D01*
X23026953Y-37486532D01*
X23127941Y-37569411D01*
X23281687Y-37651589D01*
X23448510Y-37702195D01*
X23578523Y-37715000D01*
X23578531Y-37715000D01*
X23622000Y-37719281D01*
X23665469Y-37715000D01*
X29433546Y-37715000D01*
X29481744Y-37747205D01*
X29670102Y-37825226D01*
X29870061Y-37865000D01*
X30073939Y-37865000D01*
X30273898Y-37825226D01*
X30389840Y-37777201D01*
X30353000Y-37962408D01*
X30353000Y-38237592D01*
X30406686Y-38507490D01*
X30511995Y-38761727D01*
X30664880Y-38990535D01*
X30859465Y-39185120D01*
X31088273Y-39338005D01*
X31165515Y-39370000D01*
X31088273Y-39401995D01*
X30859465Y-39554880D01*
X30664880Y-39749465D01*
X30511995Y-39978273D01*
X30406686Y-40232510D01*
X30353000Y-40502408D01*
X30353000Y-40777592D01*
X30406686Y-41047490D01*
X30511995Y-41301727D01*
X30664880Y-41530535D01*
X30859465Y-41725120D01*
X31088273Y-41878005D01*
X31165515Y-41910000D01*
X31088273Y-41941995D01*
X30859465Y-42094880D01*
X30664880Y-42289465D01*
X30511995Y-42518273D01*
X30406686Y-42772510D01*
X30353000Y-43042408D01*
X30353000Y-43317592D01*
X30406686Y-43587490D01*
X30511995Y-43841727D01*
X30664880Y-44070535D01*
X30859465Y-44265120D01*
X31088273Y-44418005D01*
X31165515Y-44450000D01*
X31088273Y-44481995D01*
X30859465Y-44634880D01*
X30664880Y-44829465D01*
X30511995Y-45058273D01*
X30406686Y-45312510D01*
X30353000Y-45582408D01*
X30353000Y-45857592D01*
X30406686Y-46127490D01*
X30511995Y-46381727D01*
X30664880Y-46610535D01*
X30859465Y-46805120D01*
X31088273Y-46958005D01*
X31165515Y-46990000D01*
X31088273Y-47021995D01*
X30859465Y-47174880D01*
X30664880Y-47369465D01*
X30511995Y-47598273D01*
X30406686Y-47852510D01*
X30353000Y-48122408D01*
X30353000Y-48397592D01*
X30406686Y-48667490D01*
X30511995Y-48921727D01*
X30664880Y-49150535D01*
X30859465Y-49345120D01*
X31088273Y-49498005D01*
X31342510Y-49603314D01*
X31612408Y-49657000D01*
X31887592Y-49657000D01*
X32157490Y-49603314D01*
X32411727Y-49498005D01*
X32640535Y-49345120D01*
X32835120Y-49150535D01*
X32988005Y-48921727D01*
X33093314Y-48667490D01*
X33147000Y-48397592D01*
X33147000Y-48122408D01*
X33093314Y-47852510D01*
X32988005Y-47598273D01*
X32835120Y-47369465D01*
X32640535Y-47174880D01*
X32411727Y-47021995D01*
X32334485Y-46990000D01*
X32411727Y-46958005D01*
X32640535Y-46805120D01*
X32835120Y-46610535D01*
X32988005Y-46381727D01*
X33093314Y-46127490D01*
X33147000Y-45857592D01*
X33147000Y-45582408D01*
X33093314Y-45312510D01*
X32988005Y-45058273D01*
X32835120Y-44829465D01*
X32640535Y-44634880D01*
X32411727Y-44481995D01*
X32334485Y-44450000D01*
X32411727Y-44418005D01*
X32640535Y-44265120D01*
X32835120Y-44070535D01*
X32988005Y-43841727D01*
X33093314Y-43587490D01*
X33147000Y-43317592D01*
X33147000Y-43042408D01*
X33093314Y-42772510D01*
X32988005Y-42518273D01*
X32835120Y-42289465D01*
X32640535Y-42094880D01*
X32411727Y-41941995D01*
X32334485Y-41910000D01*
X32411727Y-41878005D01*
X32640535Y-41725120D01*
X32835120Y-41530535D01*
X32988005Y-41301727D01*
X33093314Y-41047490D01*
X33147000Y-40777592D01*
X33147000Y-40502408D01*
X33093314Y-40232510D01*
X32988005Y-39978273D01*
X32835120Y-39749465D01*
X32640535Y-39554880D01*
X32411727Y-39401995D01*
X32334485Y-39370000D01*
X32411727Y-39338005D01*
X32640535Y-39185120D01*
X32835120Y-38990535D01*
X32988005Y-38761727D01*
X33093314Y-38507490D01*
X33147000Y-38237592D01*
X33147000Y-37962408D01*
X33093314Y-37692510D01*
X32988005Y-37438273D01*
X32835120Y-37209465D01*
X32640535Y-37014880D01*
X32411727Y-36861995D01*
X32334485Y-36830000D01*
X32411727Y-36798005D01*
X32640535Y-36645120D01*
X32747038Y-36538617D01*
X35437000Y-39228579D01*
X35437000Y-78541196D01*
X35353898Y-78506774D01*
X35297044Y-78495465D01*
X31486535Y-74684957D01*
X31475226Y-74628102D01*
X31397205Y-74439744D01*
X31283937Y-74270226D01*
X31139774Y-74126063D01*
X30970256Y-74012795D01*
X30781898Y-73934774D01*
X30581939Y-73895000D01*
X30378061Y-73895000D01*
X30178102Y-73934774D01*
X29989744Y-74012795D01*
X29820226Y-74126063D01*
X29676063Y-74270226D01*
X29562795Y-74439744D01*
X29484774Y-74628102D01*
X29445000Y-74828061D01*
X29445000Y-75031939D01*
X29484774Y-75231898D01*
X29562795Y-75420256D01*
X29676063Y-75589774D01*
X29820226Y-75733937D01*
X29989744Y-75847205D01*
X30178102Y-75925226D01*
X30234957Y-75936535D01*
X34045465Y-79747044D01*
X34056774Y-79803898D01*
X34134795Y-79992256D01*
X34248063Y-80161774D01*
X34392226Y-80305937D01*
X34561744Y-80419205D01*
X34750102Y-80497226D01*
X34950061Y-80537000D01*
X35153939Y-80537000D01*
X35353898Y-80497226D01*
X35437000Y-80462804D01*
X35437001Y-150324521D01*
X35432719Y-150368000D01*
X35449805Y-150541490D01*
X35500412Y-150708313D01*
X35582590Y-150862059D01*
X35665468Y-150963046D01*
X35665471Y-150963049D01*
X35693184Y-150996817D01*
X35726952Y-151024530D01*
X40517000Y-155814579D01*
X40517001Y-173451544D01*
X40484795Y-173499744D01*
X40406774Y-173688102D01*
X40367000Y-173888061D01*
X40367000Y-174091939D01*
X40406774Y-174291898D01*
X40484795Y-174480256D01*
X40598063Y-174649774D01*
X40742226Y-174793937D01*
X40911744Y-174907205D01*
X41100102Y-174985226D01*
X41300061Y-175025000D01*
X41503939Y-175025000D01*
X41703898Y-174985226D01*
X41892256Y-174907205D01*
X42061774Y-174793937D01*
X42205937Y-174649774D01*
X42319205Y-174480256D01*
X42397226Y-174291898D01*
X42437000Y-174091939D01*
X42437000Y-173888061D01*
X42397226Y-173688102D01*
X42319205Y-173499744D01*
X42287000Y-173451546D01*
X42287000Y-155491469D01*
X42291281Y-155448000D01*
X42287000Y-155404531D01*
X42287000Y-155404523D01*
X42274195Y-155274510D01*
X42223589Y-155107687D01*
X42141411Y-154953941D01*
X42030817Y-154819183D01*
X41997051Y-154791472D01*
X37207000Y-150001422D01*
X37207000Y-149456578D01*
X40395465Y-152645044D01*
X40406774Y-152701898D01*
X40484795Y-152890256D01*
X40598063Y-153059774D01*
X40742226Y-153203937D01*
X40911744Y-153317205D01*
X41100102Y-153395226D01*
X41300061Y-153435000D01*
X41503939Y-153435000D01*
X41703898Y-153395226D01*
X41892256Y-153317205D01*
X42061774Y-153203937D01*
X42205937Y-153059774D01*
X42319205Y-152890256D01*
X42397226Y-152701898D01*
X42437000Y-152501939D01*
X42437000Y-152298061D01*
X42397226Y-152098102D01*
X42319205Y-151909744D01*
X42205937Y-151740226D01*
X42061774Y-151596063D01*
X41892256Y-151482795D01*
X41703898Y-151404774D01*
X41647044Y-151393465D01*
X38477000Y-148223422D01*
X38477000Y-136042061D01*
X43415000Y-136042061D01*
X43415000Y-136245939D01*
X43454774Y-136445898D01*
X43532795Y-136634256D01*
X43565001Y-136682456D01*
X43565000Y-139923545D01*
X43532795Y-139971744D01*
X43454774Y-140160102D01*
X43415000Y-140360061D01*
X43415000Y-140563939D01*
X43454774Y-140763898D01*
X43532795Y-140952256D01*
X43646063Y-141121774D01*
X43790226Y-141265937D01*
X43959744Y-141379205D01*
X44148102Y-141457226D01*
X44348061Y-141497000D01*
X44551939Y-141497000D01*
X44751898Y-141457226D01*
X44940256Y-141379205D01*
X45109774Y-141265937D01*
X45253937Y-141121774D01*
X45367205Y-140952256D01*
X45445226Y-140763898D01*
X45485000Y-140563939D01*
X45485000Y-140360061D01*
X45445226Y-140160102D01*
X45367205Y-139971744D01*
X45335000Y-139923546D01*
X45335000Y-136682454D01*
X45367205Y-136634256D01*
X45445226Y-136445898D01*
X45485000Y-136245939D01*
X45485000Y-136042061D01*
X45445226Y-135842102D01*
X45367205Y-135653744D01*
X45253937Y-135484226D01*
X45109774Y-135340063D01*
X44940256Y-135226795D01*
X44751898Y-135148774D01*
X44551939Y-135109000D01*
X44348061Y-135109000D01*
X44148102Y-135148774D01*
X43959744Y-135226795D01*
X43790226Y-135340063D01*
X43646063Y-135484226D01*
X43532795Y-135653744D01*
X43454774Y-135842102D01*
X43415000Y-136042061D01*
X38477000Y-136042061D01*
X38477000Y-108054578D01*
X40395465Y-109973044D01*
X40406774Y-110029898D01*
X40484795Y-110218256D01*
X40598063Y-110387774D01*
X40742226Y-110531937D01*
X40911744Y-110645205D01*
X41100102Y-110723226D01*
X41300061Y-110763000D01*
X41503939Y-110763000D01*
X41703898Y-110723226D01*
X41892256Y-110645205D01*
X42061774Y-110531937D01*
X42205937Y-110387774D01*
X42319205Y-110218256D01*
X42397226Y-110029898D01*
X42437000Y-109829939D01*
X42437000Y-109626061D01*
X42397226Y-109426102D01*
X42319205Y-109237744D01*
X42205937Y-109068226D01*
X42061774Y-108924063D01*
X41892256Y-108810795D01*
X41703898Y-108732774D01*
X41647044Y-108721465D01*
X39747000Y-106821422D01*
X39747000Y-87734578D01*
X40395465Y-88383044D01*
X40406774Y-88439898D01*
X40484795Y-88628256D01*
X40598063Y-88797774D01*
X40742226Y-88941937D01*
X40911744Y-89055205D01*
X41100102Y-89133226D01*
X41300061Y-89173000D01*
X41503939Y-89173000D01*
X41703898Y-89133226D01*
X41892256Y-89055205D01*
X42061774Y-88941937D01*
X42205937Y-88797774D01*
X42319205Y-88628256D01*
X42397226Y-88439898D01*
X42437000Y-88239939D01*
X42437000Y-88036061D01*
X42397226Y-87836102D01*
X42319205Y-87647744D01*
X42205937Y-87478226D01*
X42061774Y-87334063D01*
X41892256Y-87220795D01*
X41703898Y-87142774D01*
X41647044Y-87131465D01*
X41017000Y-86501422D01*
X41017000Y-72034061D01*
X43161000Y-72034061D01*
X43161000Y-72237939D01*
X43200774Y-72437898D01*
X43278795Y-72626256D01*
X43311001Y-72674456D01*
X43311000Y-75407545D01*
X43278795Y-75455744D01*
X43200774Y-75644102D01*
X43161000Y-75844061D01*
X43161000Y-76047939D01*
X43200774Y-76247898D01*
X43278795Y-76436256D01*
X43392063Y-76605774D01*
X43536226Y-76749937D01*
X43705744Y-76863205D01*
X43894102Y-76941226D01*
X44094061Y-76981000D01*
X44297939Y-76981000D01*
X44497898Y-76941226D01*
X44686256Y-76863205D01*
X44855774Y-76749937D01*
X44999937Y-76605774D01*
X45113205Y-76436256D01*
X45191226Y-76247898D01*
X45231000Y-76047939D01*
X45231000Y-75844061D01*
X45191226Y-75644102D01*
X45113205Y-75455744D01*
X45081000Y-75407546D01*
X45081000Y-72674454D01*
X45113205Y-72626256D01*
X45191226Y-72437898D01*
X45231000Y-72237939D01*
X45231000Y-72034061D01*
X45191226Y-71834102D01*
X45113205Y-71645744D01*
X44999937Y-71476226D01*
X44855774Y-71332063D01*
X44686256Y-71218795D01*
X44497898Y-71140774D01*
X44297939Y-71101000D01*
X44094061Y-71101000D01*
X43894102Y-71140774D01*
X43705744Y-71218795D01*
X43536226Y-71332063D01*
X43392063Y-71476226D01*
X43278795Y-71645744D01*
X43200774Y-71834102D01*
X43161000Y-72034061D01*
X41017000Y-72034061D01*
X41017000Y-46680804D01*
X41100102Y-46715226D01*
X41300061Y-46755000D01*
X41503939Y-46755000D01*
X41703898Y-46715226D01*
X41892256Y-46637205D01*
X42061774Y-46523937D01*
X42205937Y-46379774D01*
X42319205Y-46210256D01*
X42397226Y-46021898D01*
X42437000Y-45821939D01*
X42437000Y-45618061D01*
X42397226Y-45418102D01*
X42319205Y-45229744D01*
X42287000Y-45181546D01*
X42287000Y-28854061D01*
X42907000Y-28854061D01*
X42907000Y-29057939D01*
X42946774Y-29257898D01*
X43024795Y-29446256D01*
X43057001Y-29494456D01*
X43057000Y-33243546D01*
X43024795Y-33291744D01*
X42946774Y-33480102D01*
X42907000Y-33680061D01*
X42907000Y-33883939D01*
X42946774Y-34083898D01*
X43024795Y-34272256D01*
X43138063Y-34441774D01*
X43282226Y-34585937D01*
X43451744Y-34699205D01*
X43640102Y-34777226D01*
X43840061Y-34817000D01*
X44043939Y-34817000D01*
X44243898Y-34777226D01*
X44432256Y-34699205D01*
X44601774Y-34585937D01*
X44745937Y-34441774D01*
X44859205Y-34272256D01*
X44937226Y-34083898D01*
X44977000Y-33883939D01*
X44977000Y-33680061D01*
X44937226Y-33480102D01*
X44859205Y-33291744D01*
X44827000Y-33243546D01*
X44827000Y-29494454D01*
X44859205Y-29446256D01*
X44937226Y-29257898D01*
X44977000Y-29057939D01*
X44977000Y-28854061D01*
X44937226Y-28654102D01*
X44859205Y-28465744D01*
X44745937Y-28296226D01*
X44601774Y-28152063D01*
X44432256Y-28038795D01*
X44243898Y-27960774D01*
X44043939Y-27921000D01*
X43840061Y-27921000D01*
X43640102Y-27960774D01*
X43451744Y-28038795D01*
X43282226Y-28152063D01*
X43138063Y-28296226D01*
X43024795Y-28465744D01*
X42946774Y-28654102D01*
X42907000Y-28854061D01*
X42287000Y-28854061D01*
X42287000Y-26713465D01*
X42291281Y-26669999D01*
X42287000Y-26626533D01*
X42287000Y-26626523D01*
X42274195Y-26496510D01*
X42223589Y-26329687D01*
X42141411Y-26175941D01*
X42030817Y-26041183D01*
X41997050Y-26013471D01*
X39747000Y-23763422D01*
X39747000Y-20871465D01*
X39751281Y-20827999D01*
X39747000Y-20784533D01*
X39747000Y-20784523D01*
X39734195Y-20654510D01*
X39683589Y-20487687D01*
X39601411Y-20333941D01*
X39490817Y-20199183D01*
X39457050Y-20171471D01*
X38248536Y-18962958D01*
X38248532Y-18962953D01*
X37333520Y-18047941D01*
X35708536Y-16422958D01*
X35708532Y-16422953D01*
X33930534Y-14644956D01*
X33902817Y-14611183D01*
X33768059Y-14500589D01*
X33614313Y-14418411D01*
X33447490Y-14367805D01*
X33317477Y-14355000D01*
X33317469Y-14355000D01*
X33274000Y-14350719D01*
X33230531Y-14355000D01*
X32838818Y-14355000D01*
X32835120Y-14349465D01*
X32640535Y-14154880D01*
X32411727Y-14001995D01*
X32334485Y-13970000D01*
X32411727Y-13938005D01*
X32640535Y-13785120D01*
X32835120Y-13590535D01*
X32838818Y-13585000D01*
X33669422Y-13585000D01*
X40771000Y-20686579D01*
X40771000Y-20871477D01*
X40771001Y-20871487D01*
X40771000Y-23083545D01*
X40738795Y-23131744D01*
X40660774Y-23320102D01*
X40621000Y-23520061D01*
X40621000Y-23723939D01*
X40660774Y-23923898D01*
X40738795Y-24112256D01*
X40852063Y-24281774D01*
X40996226Y-24425937D01*
X41165744Y-24539205D01*
X41354102Y-24617226D01*
X41554061Y-24657000D01*
X41757939Y-24657000D01*
X41957898Y-24617226D01*
X42146256Y-24539205D01*
X42315774Y-24425937D01*
X42459937Y-24281774D01*
X42573205Y-24112256D01*
X42651226Y-23923898D01*
X42691000Y-23723939D01*
X42691000Y-23520061D01*
X42651226Y-23320102D01*
X42573205Y-23131744D01*
X42541000Y-23083546D01*
X42541000Y-20363465D01*
X42545281Y-20319999D01*
X42541000Y-20276533D01*
X42541000Y-20276523D01*
X42528195Y-20146510D01*
X42477589Y-19979687D01*
X42395411Y-19825941D01*
X42321949Y-19736428D01*
X42312532Y-19724953D01*
X42312530Y-19724951D01*
X42284817Y-19691183D01*
X42251051Y-19663472D01*
X34692534Y-12104956D01*
X34664817Y-12071183D01*
X34530059Y-11960589D01*
X34376313Y-11878411D01*
X34209490Y-11827805D01*
X34079477Y-11815000D01*
X34079469Y-11815000D01*
X34036000Y-11810719D01*
X33992531Y-11815000D01*
X32838818Y-11815000D01*
X32835120Y-11809465D01*
X32640535Y-11614880D01*
X32411727Y-11461995D01*
X32157490Y-11356686D01*
X31887592Y-11303000D01*
X33020000Y-11303000D01*
X33044776Y-11300560D01*
X33068601Y-11293333D01*
X33090557Y-11281597D01*
X33109803Y-11265803D01*
X33125597Y-11246557D01*
X33137333Y-11224601D01*
X33144560Y-11200776D01*
X33147000Y-11176000D01*
X33147000Y-1651000D01*
X46863000Y-1651000D01*
X46863000Y-184023000D01*
G04 #@! TA.AperFunction,Conductor*
D29*
G36*
X46863000Y-184023000D02*
G01*
X20831590Y-184023000D01*
X20958284Y-183868623D01*
X21063676Y-183671446D01*
X21128577Y-183457498D01*
X21145000Y-183290751D01*
X21145000Y-182629248D01*
X21128577Y-182462501D01*
X21063676Y-182248553D01*
X20958284Y-182051377D01*
X20816449Y-181878551D01*
X20643623Y-181736716D01*
X20599050Y-181712891D01*
X24466519Y-181712891D01*
X24563843Y-181987252D01*
X24712822Y-182237355D01*
X24907731Y-182453588D01*
X25141080Y-182627641D01*
X25403901Y-182752825D01*
X25551110Y-182797476D01*
X25781000Y-182676155D01*
X25781000Y-181483000D01*
X24587186Y-181483000D01*
X24466519Y-181712891D01*
X20599050Y-181712891D01*
X20446446Y-181631324D01*
X20232498Y-181566423D01*
X20010000Y-181544509D01*
X19787501Y-181566423D01*
X19573553Y-181631324D01*
X19376377Y-181736716D01*
X19203551Y-181878551D01*
X19061716Y-182051377D01*
X18956324Y-182248554D01*
X18891423Y-182462502D01*
X18875000Y-182629249D01*
X18875000Y-183290752D01*
X18891423Y-183457499D01*
X18956324Y-183671447D01*
X19061717Y-183868623D01*
X19188411Y-184023000D01*
X13831590Y-184023000D01*
X13958284Y-183868623D01*
X14063676Y-183671446D01*
X14128577Y-183457498D01*
X14145000Y-183290751D01*
X14145000Y-182629248D01*
X14128577Y-182462501D01*
X14063676Y-182248553D01*
X13958284Y-182051377D01*
X13816449Y-181878551D01*
X13643623Y-181736716D01*
X13446446Y-181631324D01*
X13232498Y-181566423D01*
X13010000Y-181544509D01*
X12787501Y-181566423D01*
X12573553Y-181631324D01*
X12376377Y-181736716D01*
X12203551Y-181878551D01*
X12061716Y-182051377D01*
X11956324Y-182248554D01*
X11891423Y-182462502D01*
X11875000Y-182629249D01*
X11875000Y-183290752D01*
X11891423Y-183457499D01*
X11956324Y-183671447D01*
X12061717Y-183868623D01*
X12188411Y-184023000D01*
X8076377Y-184023000D01*
X8093287Y-184011701D01*
X8751701Y-183353287D01*
X9269013Y-182579074D01*
X9625344Y-181718815D01*
X9807000Y-180805569D01*
X9807000Y-180260000D01*
X12744630Y-180260000D01*
X12766062Y-180477598D01*
X12829532Y-180686834D01*
X12932604Y-180879666D01*
X13071314Y-181048686D01*
X13240334Y-181187396D01*
X13433166Y-181290468D01*
X13642402Y-181353938D01*
X13805479Y-181370000D01*
X14214521Y-181370000D01*
X14377598Y-181353938D01*
X14586834Y-181290468D01*
X14779666Y-181187396D01*
X14948686Y-181048686D01*
X15087396Y-180879666D01*
X15190468Y-180686834D01*
X15253938Y-180477598D01*
X15275370Y-180260000D01*
X17744630Y-180260000D01*
X17766062Y-180477598D01*
X17829532Y-180686834D01*
X17932604Y-180879666D01*
X18071314Y-181048686D01*
X18240334Y-181187396D01*
X18433166Y-181290468D01*
X18642402Y-181353938D01*
X18805479Y-181370000D01*
X19214521Y-181370000D01*
X19377598Y-181353938D01*
X19586834Y-181290468D01*
X19779666Y-181187396D01*
X19948686Y-181048686D01*
X19989372Y-180999109D01*
X24466519Y-180999109D01*
X24587186Y-181229000D01*
X25781000Y-181229000D01*
X25781000Y-180035845D01*
X26035000Y-180035845D01*
X26035000Y-181229000D01*
X26055000Y-181229000D01*
X26055000Y-181483000D01*
X26035000Y-181483000D01*
X26035000Y-182676155D01*
X26264890Y-182797476D01*
X26412099Y-182752825D01*
X26674920Y-182627641D01*
X26908269Y-182453588D01*
X26984034Y-182369534D01*
X27008498Y-182450180D01*
X27067463Y-182560494D01*
X27146815Y-182657185D01*
X27243506Y-182736537D01*
X27353820Y-182795502D01*
X27473518Y-182831812D01*
X27598000Y-182844072D01*
X29298000Y-182844072D01*
X29422482Y-182831812D01*
X29542180Y-182795502D01*
X29652494Y-182736537D01*
X29749185Y-182657185D01*
X29828537Y-182560494D01*
X29887502Y-182450180D01*
X29923812Y-182330482D01*
X29936072Y-182206000D01*
X29936072Y-180506000D01*
X29923812Y-180381518D01*
X29887502Y-180261820D01*
X29828537Y-180151506D01*
X29749185Y-180054815D01*
X29652494Y-179975463D01*
X29542180Y-179916498D01*
X29422482Y-179880188D01*
X29298000Y-179867928D01*
X27598000Y-179867928D01*
X27473518Y-179880188D01*
X27353820Y-179916498D01*
X27243506Y-179975463D01*
X27146815Y-180054815D01*
X27067463Y-180151506D01*
X27008498Y-180261820D01*
X26984034Y-180342466D01*
X26908269Y-180258412D01*
X26674920Y-180084359D01*
X26412099Y-179959175D01*
X26264890Y-179914524D01*
X26035000Y-180035845D01*
X25781000Y-180035845D01*
X25551110Y-179914524D01*
X25403901Y-179959175D01*
X25141080Y-180084359D01*
X24907731Y-180258412D01*
X24712822Y-180474645D01*
X24563843Y-180724748D01*
X24466519Y-180999109D01*
X19989372Y-180999109D01*
X20087396Y-180879666D01*
X20190468Y-180686834D01*
X20253938Y-180477598D01*
X20275370Y-180260000D01*
X20253938Y-180042402D01*
X20190468Y-179833166D01*
X20087396Y-179640334D01*
X19948686Y-179471314D01*
X19779666Y-179332604D01*
X19586834Y-179229532D01*
X19377598Y-179166062D01*
X19214521Y-179150000D01*
X18805479Y-179150000D01*
X18642402Y-179166062D01*
X18433166Y-179229532D01*
X18240334Y-179332604D01*
X18071314Y-179471314D01*
X17932604Y-179640334D01*
X17829532Y-179833166D01*
X17766062Y-180042402D01*
X17744630Y-180260000D01*
X15275370Y-180260000D01*
X15253938Y-180042402D01*
X15190468Y-179833166D01*
X15087396Y-179640334D01*
X14948686Y-179471314D01*
X14779666Y-179332604D01*
X14586834Y-179229532D01*
X14377598Y-179166062D01*
X14214521Y-179150000D01*
X13805479Y-179150000D01*
X13642402Y-179166062D01*
X13433166Y-179229532D01*
X13240334Y-179332604D01*
X13071314Y-179471314D01*
X12932604Y-179640334D01*
X12829532Y-179833166D01*
X12766062Y-180042402D01*
X12744630Y-180260000D01*
X9807000Y-180260000D01*
X9807000Y-179874431D01*
X9625344Y-178961185D01*
X9269013Y-178100926D01*
X8751701Y-177326713D01*
X8093287Y-176668299D01*
X7319074Y-176150987D01*
X6458815Y-175794656D01*
X5545569Y-175613000D01*
X4614431Y-175613000D01*
X3701185Y-175794656D01*
X2840926Y-176150987D01*
X2066713Y-176668299D01*
X1894834Y-176840178D01*
X1879363Y-165715740D01*
X3341000Y-165715740D01*
X3341000Y-166008260D01*
X3398068Y-166295158D01*
X3510010Y-166565411D01*
X3672525Y-166808632D01*
X3879368Y-167015475D01*
X4122589Y-167177990D01*
X4392842Y-167289932D01*
X4679740Y-167347000D01*
X4972260Y-167347000D01*
X5259158Y-167289932D01*
X5529411Y-167177990D01*
X5772632Y-167015475D01*
X5904487Y-166883620D01*
X5926498Y-166956180D01*
X5985463Y-167066494D01*
X6064815Y-167163185D01*
X6161506Y-167242537D01*
X6271820Y-167301502D01*
X6391518Y-167337812D01*
X6516000Y-167350072D01*
X8216000Y-167350072D01*
X8340482Y-167337812D01*
X8460180Y-167301502D01*
X8570494Y-167242537D01*
X8667185Y-167163185D01*
X8746537Y-167066494D01*
X8805502Y-166956180D01*
X8841812Y-166836482D01*
X8854072Y-166712000D01*
X8854072Y-165012000D01*
X8841812Y-164887518D01*
X8805502Y-164767820D01*
X8746537Y-164657506D01*
X8667185Y-164560815D01*
X8570494Y-164481463D01*
X8460180Y-164422498D01*
X8340482Y-164386188D01*
X8216000Y-164373928D01*
X6516000Y-164373928D01*
X6391518Y-164386188D01*
X6271820Y-164422498D01*
X6161506Y-164481463D01*
X6064815Y-164560815D01*
X5985463Y-164657506D01*
X5926498Y-164767820D01*
X5904487Y-164840380D01*
X5772632Y-164708525D01*
X5529411Y-164546010D01*
X5259158Y-164434068D01*
X4972260Y-164377000D01*
X4679740Y-164377000D01*
X4392842Y-164434068D01*
X4122589Y-164546010D01*
X3879368Y-164708525D01*
X3672525Y-164915368D01*
X3510010Y-165158589D01*
X3398068Y-165428842D01*
X3341000Y-165715740D01*
X1879363Y-165715740D01*
X1862961Y-153923200D01*
X1863748Y-153923987D01*
X2131537Y-154102918D01*
X2429088Y-154226168D01*
X2744967Y-154289000D01*
X3067033Y-154289000D01*
X3382912Y-154226168D01*
X3680463Y-154102918D01*
X3948252Y-153923987D01*
X4175987Y-153696252D01*
X4354918Y-153428463D01*
X4478168Y-153130912D01*
X4541000Y-152815033D01*
X4541000Y-152492967D01*
X4478168Y-152177088D01*
X4354918Y-151879537D01*
X4175987Y-151611748D01*
X3948252Y-151384013D01*
X3680463Y-151205082D01*
X3382912Y-151081832D01*
X3067033Y-151019000D01*
X2744967Y-151019000D01*
X2429088Y-151081832D01*
X2131537Y-151205082D01*
X1863748Y-151384013D01*
X1859435Y-151388326D01*
X1773817Y-89828000D01*
X16799928Y-89828000D01*
X16799928Y-91528000D01*
X16812188Y-91652482D01*
X16848498Y-91772180D01*
X16907463Y-91882494D01*
X16986815Y-91979185D01*
X17083506Y-92058537D01*
X17193820Y-92117502D01*
X17266380Y-92139513D01*
X17134525Y-92271368D01*
X16972010Y-92514589D01*
X16860068Y-92784842D01*
X16803000Y-93071740D01*
X16803000Y-93364260D01*
X16860068Y-93651158D01*
X16972010Y-93921411D01*
X17134525Y-94164632D01*
X17341368Y-94371475D01*
X17515760Y-94488000D01*
X17341368Y-94604525D01*
X17134525Y-94811368D01*
X16972010Y-95054589D01*
X16860068Y-95324842D01*
X16803000Y-95611740D01*
X16803000Y-95904260D01*
X16860068Y-96191158D01*
X16972010Y-96461411D01*
X17134525Y-96704632D01*
X17341368Y-96911475D01*
X17584589Y-97073990D01*
X17854842Y-97185932D01*
X18141740Y-97243000D01*
X18434260Y-97243000D01*
X18721158Y-97185932D01*
X18991411Y-97073990D01*
X19234632Y-96911475D01*
X19441475Y-96704632D01*
X19603990Y-96461411D01*
X19715932Y-96191158D01*
X19773000Y-95904260D01*
X19773000Y-95611740D01*
X19715932Y-95324842D01*
X19603990Y-95054589D01*
X19441475Y-94811368D01*
X19234632Y-94604525D01*
X19060240Y-94488000D01*
X19234632Y-94371475D01*
X19441475Y-94164632D01*
X19603990Y-93921411D01*
X19715932Y-93651158D01*
X19773000Y-93364260D01*
X19773000Y-93071740D01*
X19715932Y-92784842D01*
X19603990Y-92514589D01*
X19441475Y-92271368D01*
X19309620Y-92139513D01*
X19382180Y-92117502D01*
X19492494Y-92058537D01*
X19589185Y-91979185D01*
X19668537Y-91882494D01*
X19727502Y-91772180D01*
X19763812Y-91652482D01*
X19776072Y-91528000D01*
X19776072Y-89828000D01*
X22641928Y-89828000D01*
X22641928Y-91528000D01*
X22654188Y-91652482D01*
X22690498Y-91772180D01*
X22749463Y-91882494D01*
X22828815Y-91979185D01*
X22925506Y-92058537D01*
X23035820Y-92117502D01*
X23108380Y-92139513D01*
X22976525Y-92271368D01*
X22814010Y-92514589D01*
X22702068Y-92784842D01*
X22645000Y-93071740D01*
X22645000Y-93364260D01*
X22702068Y-93651158D01*
X22814010Y-93921411D01*
X22976525Y-94164632D01*
X23183368Y-94371475D01*
X23357760Y-94488000D01*
X23183368Y-94604525D01*
X22976525Y-94811368D01*
X22814010Y-95054589D01*
X22702068Y-95324842D01*
X22645000Y-95611740D01*
X22645000Y-95904260D01*
X22702068Y-96191158D01*
X22814010Y-96461411D01*
X22976525Y-96704632D01*
X23183368Y-96911475D01*
X23426589Y-97073990D01*
X23696842Y-97185932D01*
X23983740Y-97243000D01*
X24276260Y-97243000D01*
X24563158Y-97185932D01*
X24833411Y-97073990D01*
X25076632Y-96911475D01*
X25283475Y-96704632D01*
X25445990Y-96461411D01*
X25557932Y-96191158D01*
X25615000Y-95904260D01*
X25615000Y-95611740D01*
X25557932Y-95324842D01*
X25445990Y-95054589D01*
X25283475Y-94811368D01*
X25076632Y-94604525D01*
X24902240Y-94488000D01*
X25076632Y-94371475D01*
X25283475Y-94164632D01*
X25445990Y-93921411D01*
X25557932Y-93651158D01*
X25615000Y-93364260D01*
X25615000Y-93071740D01*
X25557932Y-92784842D01*
X25445990Y-92514589D01*
X25283475Y-92271368D01*
X25151620Y-92139513D01*
X25224180Y-92117502D01*
X25334494Y-92058537D01*
X25431185Y-91979185D01*
X25510537Y-91882494D01*
X25569502Y-91772180D01*
X25605812Y-91652482D01*
X25618072Y-91528000D01*
X25618072Y-89828000D01*
X28229928Y-89828000D01*
X28229928Y-91528000D01*
X28242188Y-91652482D01*
X28278498Y-91772180D01*
X28337463Y-91882494D01*
X28416815Y-91979185D01*
X28513506Y-92058537D01*
X28623820Y-92117502D01*
X28696380Y-92139513D01*
X28564525Y-92271368D01*
X28402010Y-92514589D01*
X28290068Y-92784842D01*
X28233000Y-93071740D01*
X28233000Y-93364260D01*
X28290068Y-93651158D01*
X28402010Y-93921411D01*
X28564525Y-94164632D01*
X28771368Y-94371475D01*
X28945760Y-94488000D01*
X28771368Y-94604525D01*
X28564525Y-94811368D01*
X28402010Y-95054589D01*
X28290068Y-95324842D01*
X28233000Y-95611740D01*
X28233000Y-95904260D01*
X28290068Y-96191158D01*
X28402010Y-96461411D01*
X28564525Y-96704632D01*
X28771368Y-96911475D01*
X29014589Y-97073990D01*
X29284842Y-97185932D01*
X29571740Y-97243000D01*
X29864260Y-97243000D01*
X30151158Y-97185932D01*
X30421411Y-97073990D01*
X30664632Y-96911475D01*
X30871475Y-96704632D01*
X31033990Y-96461411D01*
X31145932Y-96191158D01*
X31203000Y-95904260D01*
X31203000Y-95611740D01*
X31145932Y-95324842D01*
X31033990Y-95054589D01*
X30871475Y-94811368D01*
X30664632Y-94604525D01*
X30490240Y-94488000D01*
X30664632Y-94371475D01*
X30871475Y-94164632D01*
X31033990Y-93921411D01*
X31145932Y-93651158D01*
X31203000Y-93364260D01*
X31203000Y-93071740D01*
X31145932Y-92784842D01*
X31033990Y-92514589D01*
X30871475Y-92271368D01*
X30739620Y-92139513D01*
X30812180Y-92117502D01*
X30922494Y-92058537D01*
X31019185Y-91979185D01*
X31098537Y-91882494D01*
X31157502Y-91772180D01*
X31193812Y-91652482D01*
X31206072Y-91528000D01*
X31206072Y-89828000D01*
X31193812Y-89703518D01*
X31157502Y-89583820D01*
X31098537Y-89473506D01*
X31019185Y-89376815D01*
X30922494Y-89297463D01*
X30812180Y-89238498D01*
X30692482Y-89202188D01*
X30568000Y-89189928D01*
X28868000Y-89189928D01*
X28743518Y-89202188D01*
X28623820Y-89238498D01*
X28513506Y-89297463D01*
X28416815Y-89376815D01*
X28337463Y-89473506D01*
X28278498Y-89583820D01*
X28242188Y-89703518D01*
X28229928Y-89828000D01*
X25618072Y-89828000D01*
X25605812Y-89703518D01*
X25569502Y-89583820D01*
X25510537Y-89473506D01*
X25431185Y-89376815D01*
X25334494Y-89297463D01*
X25224180Y-89238498D01*
X25104482Y-89202188D01*
X24980000Y-89189928D01*
X23280000Y-89189928D01*
X23155518Y-89202188D01*
X23035820Y-89238498D01*
X22925506Y-89297463D01*
X22828815Y-89376815D01*
X22749463Y-89473506D01*
X22690498Y-89583820D01*
X22654188Y-89703518D01*
X22641928Y-89828000D01*
X19776072Y-89828000D01*
X19763812Y-89703518D01*
X19727502Y-89583820D01*
X19668537Y-89473506D01*
X19589185Y-89376815D01*
X19492494Y-89297463D01*
X19382180Y-89238498D01*
X19262482Y-89202188D01*
X19138000Y-89189928D01*
X17438000Y-89189928D01*
X17313518Y-89202188D01*
X17193820Y-89238498D01*
X17083506Y-89297463D01*
X16986815Y-89376815D01*
X16907463Y-89473506D01*
X16848498Y-89583820D01*
X16812188Y-89703518D01*
X16799928Y-89828000D01*
X1773817Y-89828000D01*
X1760996Y-80610000D01*
X6381928Y-80610000D01*
X6394188Y-80734482D01*
X6430498Y-80854180D01*
X6489463Y-80964494D01*
X6568815Y-81061185D01*
X6665506Y-81140537D01*
X6775820Y-81199502D01*
X6895518Y-81235812D01*
X7020000Y-81248072D01*
X7334250Y-81245000D01*
X7493000Y-81086250D01*
X7493000Y-80137000D01*
X6543750Y-80137000D01*
X6385000Y-80295750D01*
X6381928Y-80610000D01*
X1760996Y-80610000D01*
X1759327Y-79410000D01*
X6381928Y-79410000D01*
X6385000Y-79724250D01*
X6543750Y-79883000D01*
X7493000Y-79883000D01*
X7493000Y-78933750D01*
X7747000Y-78933750D01*
X7747000Y-79883000D01*
X7767000Y-79883000D01*
X7767000Y-80137000D01*
X7747000Y-80137000D01*
X7747000Y-81086250D01*
X7905750Y-81245000D01*
X8220000Y-81248072D01*
X8344482Y-81235812D01*
X8464180Y-81199502D01*
X8574494Y-81140537D01*
X8671185Y-81061185D01*
X8750537Y-80964494D01*
X8777499Y-80914053D01*
X8832733Y-80969287D01*
X9035008Y-81104443D01*
X9259764Y-81197540D01*
X9498363Y-81245000D01*
X9741637Y-81245000D01*
X9980236Y-81197540D01*
X10204992Y-81104443D01*
X10407267Y-80969287D01*
X10579287Y-80797267D01*
X10714443Y-80594992D01*
X10807540Y-80370236D01*
X10855000Y-80131637D01*
X10855000Y-79888363D01*
X10807540Y-79649764D01*
X10714443Y-79425008D01*
X10579287Y-79222733D01*
X10407267Y-79050713D01*
X10204992Y-78915557D01*
X9980236Y-78822460D01*
X9741637Y-78775000D01*
X9498363Y-78775000D01*
X9259764Y-78822460D01*
X9035008Y-78915557D01*
X8832733Y-79050713D01*
X8777499Y-79105947D01*
X8750537Y-79055506D01*
X8671185Y-78958815D01*
X8574494Y-78879463D01*
X8464180Y-78820498D01*
X8344482Y-78784188D01*
X8220000Y-78771928D01*
X7905750Y-78775000D01*
X7747000Y-78933750D01*
X7493000Y-78933750D01*
X7334250Y-78775000D01*
X7020000Y-78771928D01*
X6895518Y-78784188D01*
X6775820Y-78820498D01*
X6665506Y-78879463D01*
X6568815Y-78958815D01*
X6489463Y-79055506D01*
X6430498Y-79165820D01*
X6394188Y-79285518D01*
X6381928Y-79410000D01*
X1759327Y-79410000D01*
X1753931Y-75530000D01*
X6381928Y-75530000D01*
X6394188Y-75654482D01*
X6430498Y-75774180D01*
X6489463Y-75884494D01*
X6568815Y-75981185D01*
X6665506Y-76060537D01*
X6775820Y-76119502D01*
X6895518Y-76155812D01*
X7020000Y-76168072D01*
X7334250Y-76165000D01*
X7493000Y-76006250D01*
X7493000Y-75057000D01*
X6543750Y-75057000D01*
X6385000Y-75215750D01*
X6381928Y-75530000D01*
X1753931Y-75530000D01*
X1752262Y-74330000D01*
X6381928Y-74330000D01*
X6385000Y-74644250D01*
X6543750Y-74803000D01*
X7493000Y-74803000D01*
X7493000Y-73853750D01*
X7747000Y-73853750D01*
X7747000Y-74803000D01*
X7767000Y-74803000D01*
X7767000Y-75057000D01*
X7747000Y-75057000D01*
X7747000Y-76006250D01*
X7905750Y-76165000D01*
X8220000Y-76168072D01*
X8344482Y-76155812D01*
X8464180Y-76119502D01*
X8574494Y-76060537D01*
X8671185Y-75981185D01*
X8750537Y-75884494D01*
X8777499Y-75834053D01*
X8832733Y-75889287D01*
X9035008Y-76024443D01*
X9259764Y-76117540D01*
X9498363Y-76165000D01*
X9741637Y-76165000D01*
X9980236Y-76117540D01*
X10204992Y-76024443D01*
X10407267Y-75889287D01*
X10579287Y-75717267D01*
X10714443Y-75514992D01*
X10807540Y-75290236D01*
X10855000Y-75051637D01*
X10855000Y-74808363D01*
X10807540Y-74569764D01*
X10714443Y-74345008D01*
X10579287Y-74142733D01*
X10407267Y-73970713D01*
X10204992Y-73835557D01*
X9980236Y-73742460D01*
X9741637Y-73695000D01*
X9498363Y-73695000D01*
X9259764Y-73742460D01*
X9035008Y-73835557D01*
X8832733Y-73970713D01*
X8777499Y-74025947D01*
X8750537Y-73975506D01*
X8671185Y-73878815D01*
X8574494Y-73799463D01*
X8464180Y-73740498D01*
X8344482Y-73704188D01*
X8220000Y-73691928D01*
X7905750Y-73695000D01*
X7747000Y-73853750D01*
X7493000Y-73853750D01*
X7334250Y-73695000D01*
X7020000Y-73691928D01*
X6895518Y-73704188D01*
X6775820Y-73740498D01*
X6665506Y-73799463D01*
X6568815Y-73878815D01*
X6489463Y-73975506D01*
X6430498Y-74085820D01*
X6394188Y-74205518D01*
X6381928Y-74330000D01*
X1752262Y-74330000D01*
X1746261Y-70015000D01*
X17611928Y-70015000D01*
X17624188Y-70139482D01*
X17660498Y-70259180D01*
X17719463Y-70369494D01*
X17798815Y-70466185D01*
X17895506Y-70545537D01*
X18005820Y-70604502D01*
X18125518Y-70640812D01*
X18250000Y-70653072D01*
X18764250Y-70650000D01*
X18923000Y-70491250D01*
X18923000Y-69342000D01*
X19177000Y-69342000D01*
X19177000Y-70491250D01*
X19335750Y-70650000D01*
X19850000Y-70653072D01*
X19974482Y-70640812D01*
X20094180Y-70604502D01*
X20204494Y-70545537D01*
X20301185Y-70466185D01*
X20380537Y-70369494D01*
X20439502Y-70259180D01*
X20475812Y-70139482D01*
X20488072Y-70015000D01*
X20485000Y-69500750D01*
X20326250Y-69342000D01*
X19177000Y-69342000D01*
X18923000Y-69342000D01*
X17773750Y-69342000D01*
X17615000Y-69500750D01*
X17611928Y-70015000D01*
X1746261Y-70015000D01*
X1744036Y-68415000D01*
X17611928Y-68415000D01*
X17615000Y-68929250D01*
X17773750Y-69088000D01*
X18923000Y-69088000D01*
X18923000Y-67938750D01*
X19177000Y-67938750D01*
X19177000Y-69088000D01*
X20326250Y-69088000D01*
X20485000Y-68929250D01*
X20488072Y-68415000D01*
X20475812Y-68290518D01*
X20439502Y-68170820D01*
X20380537Y-68060506D01*
X20301185Y-67963815D01*
X20204494Y-67884463D01*
X20094180Y-67825498D01*
X19974482Y-67789188D01*
X19850000Y-67776928D01*
X19335750Y-67780000D01*
X19177000Y-67938750D01*
X18923000Y-67938750D01*
X18764250Y-67780000D01*
X18250000Y-67776928D01*
X18125518Y-67789188D01*
X18005820Y-67825498D01*
X17895506Y-67884463D01*
X17798815Y-67963815D01*
X17719463Y-68060506D01*
X17660498Y-68170820D01*
X17624188Y-68290518D01*
X17611928Y-68415000D01*
X1744036Y-68415000D01*
X1740084Y-65573665D01*
X17615000Y-65573665D01*
X17615000Y-65856335D01*
X17670147Y-66133574D01*
X17778320Y-66394727D01*
X17935363Y-66629759D01*
X18135241Y-66829637D01*
X18370273Y-66986680D01*
X18631426Y-67094853D01*
X18908665Y-67150000D01*
X19191335Y-67150000D01*
X19468574Y-67094853D01*
X19729727Y-66986680D01*
X19964759Y-66829637D01*
X20164637Y-66629759D01*
X20321680Y-66394727D01*
X20429853Y-66133574D01*
X20485000Y-65856335D01*
X20485000Y-65573665D01*
X20429853Y-65296426D01*
X20321680Y-65035273D01*
X20164637Y-64800241D01*
X19964759Y-64600363D01*
X19729727Y-64443320D01*
X19468574Y-64335147D01*
X19191335Y-64280000D01*
X18908665Y-64280000D01*
X18631426Y-64335147D01*
X18370273Y-64443320D01*
X18135241Y-64600363D01*
X17935363Y-64800241D01*
X17778320Y-65035273D01*
X17670147Y-65296426D01*
X17615000Y-65573665D01*
X1740084Y-65573665D01*
X1735582Y-62337740D01*
X3595000Y-62337740D01*
X3595000Y-62630260D01*
X3652068Y-62917158D01*
X3764010Y-63187411D01*
X3926525Y-63430632D01*
X4133368Y-63637475D01*
X4376589Y-63799990D01*
X4646842Y-63911932D01*
X4933740Y-63969000D01*
X5226260Y-63969000D01*
X5513158Y-63911932D01*
X5783411Y-63799990D01*
X6026632Y-63637475D01*
X6233475Y-63430632D01*
X6350000Y-63256240D01*
X6466525Y-63430632D01*
X6673368Y-63637475D01*
X6916589Y-63799990D01*
X7186842Y-63911932D01*
X7473740Y-63969000D01*
X7766260Y-63969000D01*
X8053158Y-63911932D01*
X8323411Y-63799990D01*
X8566632Y-63637475D01*
X8698487Y-63505620D01*
X8720498Y-63578180D01*
X8779463Y-63688494D01*
X8858815Y-63785185D01*
X8955506Y-63864537D01*
X9065820Y-63923502D01*
X9185518Y-63959812D01*
X9310000Y-63972072D01*
X9874250Y-63969000D01*
X10033000Y-63810250D01*
X10033000Y-62611000D01*
X10287000Y-62611000D01*
X10287000Y-63810250D01*
X10445750Y-63969000D01*
X11010000Y-63972072D01*
X11134482Y-63959812D01*
X11254180Y-63923502D01*
X11364494Y-63864537D01*
X11461185Y-63785185D01*
X11540537Y-63688494D01*
X11599502Y-63578180D01*
X11635812Y-63458482D01*
X11648072Y-63334000D01*
X11645000Y-62769750D01*
X11486250Y-62611000D01*
X10287000Y-62611000D01*
X10033000Y-62611000D01*
X10013000Y-62611000D01*
X10013000Y-62357000D01*
X10033000Y-62357000D01*
X10033000Y-61157750D01*
X10287000Y-61157750D01*
X10287000Y-62357000D01*
X11486250Y-62357000D01*
X11645000Y-62198250D01*
X11648072Y-61634000D01*
X11635812Y-61509518D01*
X11599502Y-61389820D01*
X11540537Y-61279506D01*
X11461185Y-61182815D01*
X11364494Y-61103463D01*
X11254180Y-61044498D01*
X11134482Y-61008188D01*
X11010000Y-60995928D01*
X10445750Y-60999000D01*
X10287000Y-61157750D01*
X10033000Y-61157750D01*
X9874250Y-60999000D01*
X9310000Y-60995928D01*
X9185518Y-61008188D01*
X9065820Y-61044498D01*
X8955506Y-61103463D01*
X8858815Y-61182815D01*
X8779463Y-61279506D01*
X8720498Y-61389820D01*
X8698487Y-61462380D01*
X8566632Y-61330525D01*
X8323411Y-61168010D01*
X8053158Y-61056068D01*
X7766260Y-60999000D01*
X7473740Y-60999000D01*
X7186842Y-61056068D01*
X6916589Y-61168010D01*
X6673368Y-61330525D01*
X6466525Y-61537368D01*
X6350000Y-61711760D01*
X6233475Y-61537368D01*
X6026632Y-61330525D01*
X5783411Y-61168010D01*
X5513158Y-61056068D01*
X5226260Y-60999000D01*
X4933740Y-60999000D01*
X4646842Y-61056068D01*
X4376589Y-61168010D01*
X4133368Y-61330525D01*
X3926525Y-61537368D01*
X3764010Y-61780589D01*
X3652068Y-62050842D01*
X3595000Y-62337740D01*
X1735582Y-62337740D01*
X1664601Y-11303000D01*
X3672408Y-11303000D01*
X3402510Y-11356686D01*
X3148273Y-11461995D01*
X2919465Y-11614880D01*
X2724880Y-11809465D01*
X2571995Y-12038273D01*
X2466686Y-12292510D01*
X2413000Y-12562408D01*
X2413000Y-12837592D01*
X2466686Y-13107490D01*
X2571995Y-13361727D01*
X2724880Y-13590535D01*
X2919465Y-13785120D01*
X3148273Y-13938005D01*
X3225515Y-13970000D01*
X3148273Y-14001995D01*
X2919465Y-14154880D01*
X2724880Y-14349465D01*
X2571995Y-14578273D01*
X2466686Y-14832510D01*
X2413000Y-15102408D01*
X2413000Y-15377592D01*
X2466686Y-15647490D01*
X2571995Y-15901727D01*
X2724880Y-16130535D01*
X2919465Y-16325120D01*
X3148273Y-16478005D01*
X3225515Y-16510000D01*
X3148273Y-16541995D01*
X2919465Y-16694880D01*
X2724880Y-16889465D01*
X2571995Y-17118273D01*
X2466686Y-17372510D01*
X2413000Y-17642408D01*
X2413000Y-17917592D01*
X2466686Y-18187490D01*
X2571995Y-18441727D01*
X2724880Y-18670535D01*
X2919465Y-18865120D01*
X3148273Y-19018005D01*
X3225515Y-19050000D01*
X3148273Y-19081995D01*
X2919465Y-19234880D01*
X2724880Y-19429465D01*
X2571995Y-19658273D01*
X2466686Y-19912510D01*
X2413000Y-20182408D01*
X2413000Y-20457592D01*
X2466686Y-20727490D01*
X2571995Y-20981727D01*
X2724880Y-21210535D01*
X2919465Y-21405120D01*
X3148273Y-21558005D01*
X3225515Y-21590000D01*
X3148273Y-21621995D01*
X2919465Y-21774880D01*
X2724880Y-21969465D01*
X2571995Y-22198273D01*
X2466686Y-22452510D01*
X2413000Y-22722408D01*
X2413000Y-22997592D01*
X2466686Y-23267490D01*
X2571995Y-23521727D01*
X2724880Y-23750535D01*
X2919465Y-23945120D01*
X3148273Y-24098005D01*
X3225515Y-24130000D01*
X3148273Y-24161995D01*
X2919465Y-24314880D01*
X2724880Y-24509465D01*
X2571995Y-24738273D01*
X2466686Y-24992510D01*
X2413000Y-25262408D01*
X2413000Y-25537592D01*
X2466686Y-25807490D01*
X2571995Y-26061727D01*
X2724880Y-26290535D01*
X2919465Y-26485120D01*
X3148273Y-26638005D01*
X3225515Y-26670000D01*
X3148273Y-26701995D01*
X2919465Y-26854880D01*
X2724880Y-27049465D01*
X2571995Y-27278273D01*
X2466686Y-27532510D01*
X2413000Y-27802408D01*
X2413000Y-28077592D01*
X2466686Y-28347490D01*
X2571995Y-28601727D01*
X2724880Y-28830535D01*
X2919465Y-29025120D01*
X3148273Y-29178005D01*
X3225515Y-29210000D01*
X3148273Y-29241995D01*
X2919465Y-29394880D01*
X2724880Y-29589465D01*
X2571995Y-29818273D01*
X2466686Y-30072510D01*
X2413000Y-30342408D01*
X2413000Y-30617592D01*
X2466686Y-30887490D01*
X2571995Y-31141727D01*
X2724880Y-31370535D01*
X2919465Y-31565120D01*
X3148273Y-31718005D01*
X3225515Y-31750000D01*
X3148273Y-31781995D01*
X2919465Y-31934880D01*
X2724880Y-32129465D01*
X2571995Y-32358273D01*
X2466686Y-32612510D01*
X2413000Y-32882408D01*
X2413000Y-33157592D01*
X2466686Y-33427490D01*
X2571995Y-33681727D01*
X2724880Y-33910535D01*
X2919465Y-34105120D01*
X3148273Y-34258005D01*
X3225515Y-34290000D01*
X3148273Y-34321995D01*
X2919465Y-34474880D01*
X2724880Y-34669465D01*
X2571995Y-34898273D01*
X2466686Y-35152510D01*
X2413000Y-35422408D01*
X2413000Y-35697592D01*
X2466686Y-35967490D01*
X2571995Y-36221727D01*
X2724880Y-36450535D01*
X2919465Y-36645120D01*
X3148273Y-36798005D01*
X3225515Y-36830000D01*
X3148273Y-36861995D01*
X2919465Y-37014880D01*
X2724880Y-37209465D01*
X2571995Y-37438273D01*
X2466686Y-37692510D01*
X2413000Y-37962408D01*
X2413000Y-38237592D01*
X2466686Y-38507490D01*
X2571995Y-38761727D01*
X2724880Y-38990535D01*
X2919465Y-39185120D01*
X3148273Y-39338005D01*
X3225515Y-39370000D01*
X3148273Y-39401995D01*
X2919465Y-39554880D01*
X2724880Y-39749465D01*
X2571995Y-39978273D01*
X2466686Y-40232510D01*
X2413000Y-40502408D01*
X2413000Y-40777592D01*
X2466686Y-41047490D01*
X2571995Y-41301727D01*
X2724880Y-41530535D01*
X2919465Y-41725120D01*
X3148273Y-41878005D01*
X3225515Y-41910000D01*
X3148273Y-41941995D01*
X2919465Y-42094880D01*
X2724880Y-42289465D01*
X2571995Y-42518273D01*
X2466686Y-42772510D01*
X2413000Y-43042408D01*
X2413000Y-43317592D01*
X2466686Y-43587490D01*
X2571995Y-43841727D01*
X2724880Y-44070535D01*
X2919465Y-44265120D01*
X3148273Y-44418005D01*
X3225515Y-44450000D01*
X3148273Y-44481995D01*
X2919465Y-44634880D01*
X2724880Y-44829465D01*
X2571995Y-45058273D01*
X2466686Y-45312510D01*
X2413000Y-45582408D01*
X2413000Y-45857592D01*
X2466686Y-46127490D01*
X2571995Y-46381727D01*
X2724880Y-46610535D01*
X2919465Y-46805120D01*
X3148273Y-46958005D01*
X3225515Y-46990000D01*
X3148273Y-47021995D01*
X2919465Y-47174880D01*
X2724880Y-47369465D01*
X2571995Y-47598273D01*
X2466686Y-47852510D01*
X2413000Y-48122408D01*
X2413000Y-48397592D01*
X2466686Y-48667490D01*
X2571995Y-48921727D01*
X2724880Y-49150535D01*
X2919465Y-49345120D01*
X3148273Y-49498005D01*
X3402510Y-49603314D01*
X3672408Y-49657000D01*
X3947592Y-49657000D01*
X4217490Y-49603314D01*
X4471727Y-49498005D01*
X4700535Y-49345120D01*
X4895120Y-49150535D01*
X5048005Y-48921727D01*
X5153314Y-48667490D01*
X5207000Y-48397592D01*
X5207000Y-48122408D01*
X5153314Y-47852510D01*
X5048005Y-47598273D01*
X4895120Y-47369465D01*
X4700535Y-47174880D01*
X4471727Y-47021995D01*
X4394485Y-46990000D01*
X4471727Y-46958005D01*
X4700535Y-46805120D01*
X4895120Y-46610535D01*
X5048005Y-46381727D01*
X5153314Y-46127490D01*
X5207000Y-45857592D01*
X5207000Y-45582408D01*
X5153314Y-45312510D01*
X5048005Y-45058273D01*
X4895120Y-44829465D01*
X4700535Y-44634880D01*
X4471727Y-44481995D01*
X4394485Y-44450000D01*
X4471727Y-44418005D01*
X4700535Y-44265120D01*
X4895120Y-44070535D01*
X5048005Y-43841727D01*
X5153314Y-43587490D01*
X5207000Y-43317592D01*
X5207000Y-43042408D01*
X5153314Y-42772510D01*
X5048005Y-42518273D01*
X4895120Y-42289465D01*
X4700535Y-42094880D01*
X4471727Y-41941995D01*
X4394485Y-41910000D01*
X4471727Y-41878005D01*
X4700535Y-41725120D01*
X4895120Y-41530535D01*
X5048005Y-41301727D01*
X5153314Y-41047490D01*
X5207000Y-40777592D01*
X5207000Y-40502408D01*
X5165546Y-40294000D01*
X21621928Y-40294000D01*
X21621928Y-41494000D01*
X21634188Y-41618482D01*
X21670498Y-41738180D01*
X21729463Y-41848494D01*
X21808815Y-41945185D01*
X21905506Y-42024537D01*
X22015820Y-42083502D01*
X22135518Y-42119812D01*
X22260000Y-42132072D01*
X23460000Y-42132072D01*
X23584482Y-42119812D01*
X23704180Y-42083502D01*
X23814494Y-42024537D01*
X23911185Y-41945185D01*
X23990537Y-41848494D01*
X24017499Y-41798053D01*
X24072733Y-41853287D01*
X24275008Y-41988443D01*
X24499764Y-42081540D01*
X24738363Y-42129000D01*
X24981637Y-42129000D01*
X25220236Y-42081540D01*
X25444992Y-41988443D01*
X25647267Y-41853287D01*
X25819287Y-41681267D01*
X25954443Y-41478992D01*
X26047540Y-41254236D01*
X26095000Y-41015637D01*
X26095000Y-40772363D01*
X26047540Y-40533764D01*
X25954443Y-40309008D01*
X25819287Y-40106733D01*
X25647267Y-39934713D01*
X25444992Y-39799557D01*
X25220236Y-39706460D01*
X24981637Y-39659000D01*
X24738363Y-39659000D01*
X24499764Y-39706460D01*
X24275008Y-39799557D01*
X24072733Y-39934713D01*
X24017499Y-39989947D01*
X23990537Y-39939506D01*
X23911185Y-39842815D01*
X23814494Y-39763463D01*
X23704180Y-39704498D01*
X23584482Y-39668188D01*
X23460000Y-39655928D01*
X22260000Y-39655928D01*
X22135518Y-39668188D01*
X22015820Y-39704498D01*
X21905506Y-39763463D01*
X21808815Y-39842815D01*
X21729463Y-39939506D01*
X21670498Y-40049820D01*
X21634188Y-40169518D01*
X21621928Y-40294000D01*
X5165546Y-40294000D01*
X5153314Y-40232510D01*
X5048005Y-39978273D01*
X4895120Y-39749465D01*
X4700535Y-39554880D01*
X4471727Y-39401995D01*
X4394485Y-39370000D01*
X4471727Y-39338005D01*
X4700535Y-39185120D01*
X4895120Y-38990535D01*
X5048005Y-38761727D01*
X5153314Y-38507490D01*
X5207000Y-38237592D01*
X5207000Y-37962408D01*
X5153314Y-37692510D01*
X5048005Y-37438273D01*
X4895120Y-37209465D01*
X4700535Y-37014880D01*
X4471727Y-36861995D01*
X4394485Y-36830000D01*
X4471727Y-36798005D01*
X4700535Y-36645120D01*
X4895120Y-36450535D01*
X5048005Y-36221727D01*
X5153314Y-35967490D01*
X5207000Y-35697592D01*
X5207000Y-35422408D01*
X5153314Y-35152510D01*
X5048005Y-34898273D01*
X4895120Y-34669465D01*
X4700535Y-34474880D01*
X4471727Y-34321995D01*
X4394485Y-34290000D01*
X4471727Y-34258005D01*
X4700535Y-34105120D01*
X4895120Y-33910535D01*
X5048005Y-33681727D01*
X5153314Y-33427490D01*
X5207000Y-33157592D01*
X5207000Y-32882408D01*
X5153314Y-32612510D01*
X5048005Y-32358273D01*
X4895120Y-32129465D01*
X4700535Y-31934880D01*
X4471727Y-31781995D01*
X4394485Y-31750000D01*
X4471727Y-31718005D01*
X4700535Y-31565120D01*
X4895120Y-31370535D01*
X5048005Y-31141727D01*
X5153314Y-30887490D01*
X5207000Y-30617592D01*
X5207000Y-30342408D01*
X5153314Y-30072510D01*
X5048005Y-29818273D01*
X4895120Y-29589465D01*
X4700535Y-29394880D01*
X4471727Y-29241995D01*
X4394485Y-29210000D01*
X4471727Y-29178005D01*
X4700535Y-29025120D01*
X4895120Y-28830535D01*
X5048005Y-28601727D01*
X5153314Y-28347490D01*
X5207000Y-28077592D01*
X5207000Y-27802408D01*
X5153314Y-27532510D01*
X5048005Y-27278273D01*
X4895120Y-27049465D01*
X4700535Y-26854880D01*
X4471727Y-26701995D01*
X4394485Y-26670000D01*
X4471727Y-26638005D01*
X4700535Y-26485120D01*
X4895120Y-26290535D01*
X5048005Y-26061727D01*
X5153314Y-25807490D01*
X5207000Y-25537592D01*
X5207000Y-25262408D01*
X5153314Y-24992510D01*
X5048005Y-24738273D01*
X4895120Y-24509465D01*
X4700535Y-24314880D01*
X4471727Y-24161995D01*
X4394485Y-24130000D01*
X4471727Y-24098005D01*
X4700535Y-23945120D01*
X4895120Y-23750535D01*
X5048005Y-23521727D01*
X5153314Y-23267490D01*
X5207000Y-22997592D01*
X5207000Y-22722408D01*
X5153314Y-22452510D01*
X5048005Y-22198273D01*
X4895120Y-21969465D01*
X4700535Y-21774880D01*
X4471727Y-21621995D01*
X4394485Y-21590000D01*
X4471727Y-21558005D01*
X4700535Y-21405120D01*
X4895120Y-21210535D01*
X5048005Y-20981727D01*
X5153314Y-20727490D01*
X5207000Y-20457592D01*
X5207000Y-20182408D01*
X5153314Y-19912510D01*
X5048005Y-19658273D01*
X4895120Y-19429465D01*
X4700535Y-19234880D01*
X4471727Y-19081995D01*
X4394485Y-19050000D01*
X4471727Y-19018005D01*
X4700535Y-18865120D01*
X4895120Y-18670535D01*
X5048005Y-18441727D01*
X5153314Y-18187490D01*
X5207000Y-17917592D01*
X5207000Y-17642408D01*
X5153314Y-17372510D01*
X5048005Y-17118273D01*
X4895120Y-16889465D01*
X4700535Y-16694880D01*
X4471727Y-16541995D01*
X4394485Y-16510000D01*
X4471727Y-16478005D01*
X4700535Y-16325120D01*
X4895120Y-16130535D01*
X5048005Y-15901727D01*
X5153314Y-15647490D01*
X5207000Y-15377592D01*
X5207000Y-15102408D01*
X5153314Y-14832510D01*
X5048005Y-14578273D01*
X4895120Y-14349465D01*
X4700535Y-14154880D01*
X4471727Y-14001995D01*
X4394485Y-13970000D01*
X4471727Y-13938005D01*
X4700535Y-13785120D01*
X4895120Y-13590535D01*
X5048005Y-13361727D01*
X5153314Y-13107490D01*
X5207000Y-12837592D01*
X5207000Y-12562408D01*
X5153314Y-12292510D01*
X5048005Y-12038273D01*
X4895120Y-11809465D01*
X4700535Y-11614880D01*
X4471727Y-11461995D01*
X4217490Y-11356686D01*
X3947592Y-11303000D01*
X31612408Y-11303000D01*
X31342510Y-11356686D01*
X31088273Y-11461995D01*
X30859465Y-11614880D01*
X30664880Y-11809465D01*
X30661182Y-11815000D01*
X29253469Y-11815000D01*
X29210000Y-11810719D01*
X29166531Y-11815000D01*
X29166523Y-11815000D01*
X29036510Y-11827805D01*
X28869686Y-11878411D01*
X28715941Y-11960589D01*
X28614953Y-12043468D01*
X28614951Y-12043470D01*
X28581183Y-12071183D01*
X28553470Y-12104951D01*
X23001422Y-17657000D01*
X9682454Y-17657000D01*
X9634256Y-17624795D01*
X9445898Y-17546774D01*
X9245939Y-17507000D01*
X9042061Y-17507000D01*
X8842102Y-17546774D01*
X8653744Y-17624795D01*
X8484226Y-17738063D01*
X8340063Y-17882226D01*
X8226795Y-18051744D01*
X8148774Y-18240102D01*
X8109000Y-18440061D01*
X8109000Y-18643939D01*
X8148774Y-18843898D01*
X8226795Y-19032256D01*
X8340063Y-19201774D01*
X8484226Y-19345937D01*
X8653744Y-19459205D01*
X8842102Y-19537226D01*
X8946541Y-19558000D01*
X8842102Y-19578774D01*
X8653744Y-19656795D01*
X8484226Y-19770063D01*
X8340063Y-19914226D01*
X8226795Y-20083744D01*
X8148774Y-20272102D01*
X8109000Y-20472061D01*
X8109000Y-20675939D01*
X8148774Y-20875898D01*
X8226795Y-21064256D01*
X8340063Y-21233774D01*
X8484226Y-21377937D01*
X8653744Y-21491205D01*
X8842102Y-21569226D01*
X8946541Y-21590000D01*
X8842102Y-21610774D01*
X8653744Y-21688795D01*
X8484226Y-21802063D01*
X8340063Y-21946226D01*
X8226795Y-22115744D01*
X8148774Y-22304102D01*
X8109000Y-22504061D01*
X8109000Y-22707939D01*
X8148774Y-22907898D01*
X8226795Y-23096256D01*
X8340063Y-23265774D01*
X8484226Y-23409937D01*
X8653744Y-23523205D01*
X8842102Y-23601226D01*
X8946541Y-23622000D01*
X8842102Y-23642774D01*
X8653744Y-23720795D01*
X8484226Y-23834063D01*
X8340063Y-23978226D01*
X8226795Y-24147744D01*
X8148774Y-24336102D01*
X8109000Y-24536061D01*
X8109000Y-24739939D01*
X8148774Y-24939898D01*
X8226795Y-25128256D01*
X8340063Y-25297774D01*
X8484226Y-25441937D01*
X8653744Y-25555205D01*
X8842102Y-25633226D01*
X9042061Y-25673000D01*
X9245939Y-25673000D01*
X9445898Y-25633226D01*
X9634256Y-25555205D01*
X9682454Y-25523000D01*
X16905422Y-25523000D01*
X27327421Y-35945000D01*
X26037282Y-35945000D01*
X26047540Y-35920236D01*
X26095000Y-35681637D01*
X26095000Y-35438363D01*
X26047540Y-35199764D01*
X25954443Y-34975008D01*
X25819287Y-34772733D01*
X25647267Y-34600713D01*
X25444992Y-34465557D01*
X25220236Y-34372460D01*
X24981637Y-34325000D01*
X24738363Y-34325000D01*
X24499764Y-34372460D01*
X24275008Y-34465557D01*
X24072733Y-34600713D01*
X24017499Y-34655947D01*
X23990537Y-34605506D01*
X23911185Y-34508815D01*
X23814494Y-34429463D01*
X23704180Y-34370498D01*
X23584482Y-34334188D01*
X23460000Y-34321928D01*
X22260000Y-34321928D01*
X22135518Y-34334188D01*
X22015820Y-34370498D01*
X21905506Y-34429463D01*
X21808815Y-34508815D01*
X21729463Y-34605506D01*
X21670498Y-34715820D01*
X21634188Y-34835518D01*
X21621928Y-34960000D01*
X21621928Y-36160000D01*
X21634188Y-36284482D01*
X21670498Y-36404180D01*
X21729463Y-36514494D01*
X21808815Y-36611185D01*
X21905506Y-36690537D01*
X22015820Y-36749502D01*
X22135518Y-36785812D01*
X22260000Y-36798072D01*
X22338494Y-36798072D01*
X22965470Y-37425049D01*
X22993183Y-37458817D01*
X23026951Y-37486530D01*
X23026953Y-37486532D01*
X23127941Y-37569411D01*
X23281687Y-37651589D01*
X23448510Y-37702195D01*
X23578523Y-37715000D01*
X23578531Y-37715000D01*
X23622000Y-37719281D01*
X23665469Y-37715000D01*
X29433546Y-37715000D01*
X29481744Y-37747205D01*
X29670102Y-37825226D01*
X29870061Y-37865000D01*
X30073939Y-37865000D01*
X30273898Y-37825226D01*
X30389840Y-37777201D01*
X30353000Y-37962408D01*
X30353000Y-38237592D01*
X30406686Y-38507490D01*
X30511995Y-38761727D01*
X30664880Y-38990535D01*
X30859465Y-39185120D01*
X31088273Y-39338005D01*
X31165515Y-39370000D01*
X31088273Y-39401995D01*
X30859465Y-39554880D01*
X30664880Y-39749465D01*
X30511995Y-39978273D01*
X30406686Y-40232510D01*
X30353000Y-40502408D01*
X30353000Y-40777592D01*
X30406686Y-41047490D01*
X30511995Y-41301727D01*
X30664880Y-41530535D01*
X30859465Y-41725120D01*
X31088273Y-41878005D01*
X31165515Y-41910000D01*
X31088273Y-41941995D01*
X30859465Y-42094880D01*
X30664880Y-42289465D01*
X30511995Y-42518273D01*
X30406686Y-42772510D01*
X30353000Y-43042408D01*
X30353000Y-43317592D01*
X30406686Y-43587490D01*
X30511995Y-43841727D01*
X30664880Y-44070535D01*
X30859465Y-44265120D01*
X31088273Y-44418005D01*
X31165515Y-44450000D01*
X31088273Y-44481995D01*
X30859465Y-44634880D01*
X30664880Y-44829465D01*
X30511995Y-45058273D01*
X30406686Y-45312510D01*
X30353000Y-45582408D01*
X30353000Y-45857592D01*
X30406686Y-46127490D01*
X30511995Y-46381727D01*
X30664880Y-46610535D01*
X30859465Y-46805120D01*
X31088273Y-46958005D01*
X31165515Y-46990000D01*
X31088273Y-47021995D01*
X30859465Y-47174880D01*
X30664880Y-47369465D01*
X30511995Y-47598273D01*
X30406686Y-47852510D01*
X30353000Y-48122408D01*
X30353000Y-48397592D01*
X30406686Y-48667490D01*
X30511995Y-48921727D01*
X30664880Y-49150535D01*
X30859465Y-49345120D01*
X31088273Y-49498005D01*
X31342510Y-49603314D01*
X31612408Y-49657000D01*
X31887592Y-49657000D01*
X32157490Y-49603314D01*
X32411727Y-49498005D01*
X32640535Y-49345120D01*
X32835120Y-49150535D01*
X32988005Y-48921727D01*
X33093314Y-48667490D01*
X33147000Y-48397592D01*
X33147000Y-48122408D01*
X33093314Y-47852510D01*
X32988005Y-47598273D01*
X32835120Y-47369465D01*
X32640535Y-47174880D01*
X32411727Y-47021995D01*
X32334485Y-46990000D01*
X32411727Y-46958005D01*
X32640535Y-46805120D01*
X32835120Y-46610535D01*
X32988005Y-46381727D01*
X33093314Y-46127490D01*
X33147000Y-45857592D01*
X33147000Y-45582408D01*
X33093314Y-45312510D01*
X32988005Y-45058273D01*
X32835120Y-44829465D01*
X32640535Y-44634880D01*
X32411727Y-44481995D01*
X32334485Y-44450000D01*
X32411727Y-44418005D01*
X32640535Y-44265120D01*
X32835120Y-44070535D01*
X32988005Y-43841727D01*
X33093314Y-43587490D01*
X33147000Y-43317592D01*
X33147000Y-43042408D01*
X33093314Y-42772510D01*
X32988005Y-42518273D01*
X32835120Y-42289465D01*
X32640535Y-42094880D01*
X32411727Y-41941995D01*
X32334485Y-41910000D01*
X32411727Y-41878005D01*
X32640535Y-41725120D01*
X32835120Y-41530535D01*
X32988005Y-41301727D01*
X33093314Y-41047490D01*
X33147000Y-40777592D01*
X33147000Y-40502408D01*
X33093314Y-40232510D01*
X32988005Y-39978273D01*
X32835120Y-39749465D01*
X32640535Y-39554880D01*
X32411727Y-39401995D01*
X32334485Y-39370000D01*
X32411727Y-39338005D01*
X32640535Y-39185120D01*
X32835120Y-38990535D01*
X32988005Y-38761727D01*
X33093314Y-38507490D01*
X33147000Y-38237592D01*
X33147000Y-37962408D01*
X33093314Y-37692510D01*
X32988005Y-37438273D01*
X32835120Y-37209465D01*
X32640535Y-37014880D01*
X32411727Y-36861995D01*
X32334485Y-36830000D01*
X32411727Y-36798005D01*
X32640535Y-36645120D01*
X32747038Y-36538617D01*
X35437000Y-39228579D01*
X35437000Y-78541196D01*
X35353898Y-78506774D01*
X35297044Y-78495465D01*
X31486535Y-74684957D01*
X31475226Y-74628102D01*
X31397205Y-74439744D01*
X31283937Y-74270226D01*
X31139774Y-74126063D01*
X30970256Y-74012795D01*
X30781898Y-73934774D01*
X30581939Y-73895000D01*
X30378061Y-73895000D01*
X30178102Y-73934774D01*
X29989744Y-74012795D01*
X29820226Y-74126063D01*
X29676063Y-74270226D01*
X29562795Y-74439744D01*
X29484774Y-74628102D01*
X29445000Y-74828061D01*
X29445000Y-75031939D01*
X29484774Y-75231898D01*
X29562795Y-75420256D01*
X29676063Y-75589774D01*
X29820226Y-75733937D01*
X29989744Y-75847205D01*
X30178102Y-75925226D01*
X30234957Y-75936535D01*
X34045465Y-79747044D01*
X34056774Y-79803898D01*
X34134795Y-79992256D01*
X34248063Y-80161774D01*
X34392226Y-80305937D01*
X34561744Y-80419205D01*
X34750102Y-80497226D01*
X34950061Y-80537000D01*
X35153939Y-80537000D01*
X35353898Y-80497226D01*
X35437000Y-80462804D01*
X35437001Y-150324521D01*
X35432719Y-150368000D01*
X35449805Y-150541490D01*
X35500412Y-150708313D01*
X35582590Y-150862059D01*
X35665468Y-150963046D01*
X35665471Y-150963049D01*
X35693184Y-150996817D01*
X35726952Y-151024530D01*
X40517000Y-155814579D01*
X40517001Y-173451544D01*
X40484795Y-173499744D01*
X40406774Y-173688102D01*
X40367000Y-173888061D01*
X40367000Y-174091939D01*
X40406774Y-174291898D01*
X40484795Y-174480256D01*
X40598063Y-174649774D01*
X40742226Y-174793937D01*
X40911744Y-174907205D01*
X41100102Y-174985226D01*
X41300061Y-175025000D01*
X41503939Y-175025000D01*
X41703898Y-174985226D01*
X41892256Y-174907205D01*
X42061774Y-174793937D01*
X42205937Y-174649774D01*
X42319205Y-174480256D01*
X42397226Y-174291898D01*
X42437000Y-174091939D01*
X42437000Y-173888061D01*
X42397226Y-173688102D01*
X42319205Y-173499744D01*
X42287000Y-173451546D01*
X42287000Y-155491469D01*
X42291281Y-155448000D01*
X42287000Y-155404531D01*
X42287000Y-155404523D01*
X42274195Y-155274510D01*
X42223589Y-155107687D01*
X42141411Y-154953941D01*
X42030817Y-154819183D01*
X41997051Y-154791472D01*
X37207000Y-150001422D01*
X37207000Y-149456578D01*
X40395465Y-152645044D01*
X40406774Y-152701898D01*
X40484795Y-152890256D01*
X40598063Y-153059774D01*
X40742226Y-153203937D01*
X40911744Y-153317205D01*
X41100102Y-153395226D01*
X41300061Y-153435000D01*
X41503939Y-153435000D01*
X41703898Y-153395226D01*
X41892256Y-153317205D01*
X42061774Y-153203937D01*
X42205937Y-153059774D01*
X42319205Y-152890256D01*
X42397226Y-152701898D01*
X42437000Y-152501939D01*
X42437000Y-152298061D01*
X42397226Y-152098102D01*
X42319205Y-151909744D01*
X42205937Y-151740226D01*
X42061774Y-151596063D01*
X41892256Y-151482795D01*
X41703898Y-151404774D01*
X41647044Y-151393465D01*
X38477000Y-148223422D01*
X38477000Y-136042061D01*
X43415000Y-136042061D01*
X43415000Y-136245939D01*
X43454774Y-136445898D01*
X43532795Y-136634256D01*
X43565001Y-136682456D01*
X43565000Y-139923545D01*
X43532795Y-139971744D01*
X43454774Y-140160102D01*
X43415000Y-140360061D01*
X43415000Y-140563939D01*
X43454774Y-140763898D01*
X43532795Y-140952256D01*
X43646063Y-141121774D01*
X43790226Y-141265937D01*
X43959744Y-141379205D01*
X44148102Y-141457226D01*
X44348061Y-141497000D01*
X44551939Y-141497000D01*
X44751898Y-141457226D01*
X44940256Y-141379205D01*
X45109774Y-141265937D01*
X45253937Y-141121774D01*
X45367205Y-140952256D01*
X45445226Y-140763898D01*
X45485000Y-140563939D01*
X45485000Y-140360061D01*
X45445226Y-140160102D01*
X45367205Y-139971744D01*
X45335000Y-139923546D01*
X45335000Y-136682454D01*
X45367205Y-136634256D01*
X45445226Y-136445898D01*
X45485000Y-136245939D01*
X45485000Y-136042061D01*
X45445226Y-135842102D01*
X45367205Y-135653744D01*
X45253937Y-135484226D01*
X45109774Y-135340063D01*
X44940256Y-135226795D01*
X44751898Y-135148774D01*
X44551939Y-135109000D01*
X44348061Y-135109000D01*
X44148102Y-135148774D01*
X43959744Y-135226795D01*
X43790226Y-135340063D01*
X43646063Y-135484226D01*
X43532795Y-135653744D01*
X43454774Y-135842102D01*
X43415000Y-136042061D01*
X38477000Y-136042061D01*
X38477000Y-108054578D01*
X40395465Y-109973044D01*
X40406774Y-110029898D01*
X40484795Y-110218256D01*
X40598063Y-110387774D01*
X40742226Y-110531937D01*
X40911744Y-110645205D01*
X41100102Y-110723226D01*
X41300061Y-110763000D01*
X41503939Y-110763000D01*
X41703898Y-110723226D01*
X41892256Y-110645205D01*
X42061774Y-110531937D01*
X42205937Y-110387774D01*
X42319205Y-110218256D01*
X42397226Y-110029898D01*
X42437000Y-109829939D01*
X42437000Y-109626061D01*
X42397226Y-109426102D01*
X42319205Y-109237744D01*
X42205937Y-109068226D01*
X42061774Y-108924063D01*
X41892256Y-108810795D01*
X41703898Y-108732774D01*
X41647044Y-108721465D01*
X39747000Y-106821422D01*
X39747000Y-87734578D01*
X40395465Y-88383044D01*
X40406774Y-88439898D01*
X40484795Y-88628256D01*
X40598063Y-88797774D01*
X40742226Y-88941937D01*
X40911744Y-89055205D01*
X41100102Y-89133226D01*
X41300061Y-89173000D01*
X41503939Y-89173000D01*
X41703898Y-89133226D01*
X41892256Y-89055205D01*
X42061774Y-88941937D01*
X42205937Y-88797774D01*
X42319205Y-88628256D01*
X42397226Y-88439898D01*
X42437000Y-88239939D01*
X42437000Y-88036061D01*
X42397226Y-87836102D01*
X42319205Y-87647744D01*
X42205937Y-87478226D01*
X42061774Y-87334063D01*
X41892256Y-87220795D01*
X41703898Y-87142774D01*
X41647044Y-87131465D01*
X41017000Y-86501422D01*
X41017000Y-72034061D01*
X43161000Y-72034061D01*
X43161000Y-72237939D01*
X43200774Y-72437898D01*
X43278795Y-72626256D01*
X43311001Y-72674456D01*
X43311000Y-75407545D01*
X43278795Y-75455744D01*
X43200774Y-75644102D01*
X43161000Y-75844061D01*
X43161000Y-76047939D01*
X43200774Y-76247898D01*
X43278795Y-76436256D01*
X43392063Y-76605774D01*
X43536226Y-76749937D01*
X43705744Y-76863205D01*
X43894102Y-76941226D01*
X44094061Y-76981000D01*
X44297939Y-76981000D01*
X44497898Y-76941226D01*
X44686256Y-76863205D01*
X44855774Y-76749937D01*
X44999937Y-76605774D01*
X45113205Y-76436256D01*
X45191226Y-76247898D01*
X45231000Y-76047939D01*
X45231000Y-75844061D01*
X45191226Y-75644102D01*
X45113205Y-75455744D01*
X45081000Y-75407546D01*
X45081000Y-72674454D01*
X45113205Y-72626256D01*
X45191226Y-72437898D01*
X45231000Y-72237939D01*
X45231000Y-72034061D01*
X45191226Y-71834102D01*
X45113205Y-71645744D01*
X44999937Y-71476226D01*
X44855774Y-71332063D01*
X44686256Y-71218795D01*
X44497898Y-71140774D01*
X44297939Y-71101000D01*
X44094061Y-71101000D01*
X43894102Y-71140774D01*
X43705744Y-71218795D01*
X43536226Y-71332063D01*
X43392063Y-71476226D01*
X43278795Y-71645744D01*
X43200774Y-71834102D01*
X43161000Y-72034061D01*
X41017000Y-72034061D01*
X41017000Y-46680804D01*
X41100102Y-46715226D01*
X41300061Y-46755000D01*
X41503939Y-46755000D01*
X41703898Y-46715226D01*
X41892256Y-46637205D01*
X42061774Y-46523937D01*
X42205937Y-46379774D01*
X42319205Y-46210256D01*
X42397226Y-46021898D01*
X42437000Y-45821939D01*
X42437000Y-45618061D01*
X42397226Y-45418102D01*
X42319205Y-45229744D01*
X42287000Y-45181546D01*
X42287000Y-28854061D01*
X42907000Y-28854061D01*
X42907000Y-29057939D01*
X42946774Y-29257898D01*
X43024795Y-29446256D01*
X43057001Y-29494456D01*
X43057000Y-33243546D01*
X43024795Y-33291744D01*
X42946774Y-33480102D01*
X42907000Y-33680061D01*
X42907000Y-33883939D01*
X42946774Y-34083898D01*
X43024795Y-34272256D01*
X43138063Y-34441774D01*
X43282226Y-34585937D01*
X43451744Y-34699205D01*
X43640102Y-34777226D01*
X43840061Y-34817000D01*
X44043939Y-34817000D01*
X44243898Y-34777226D01*
X44432256Y-34699205D01*
X44601774Y-34585937D01*
X44745937Y-34441774D01*
X44859205Y-34272256D01*
X44937226Y-34083898D01*
X44977000Y-33883939D01*
X44977000Y-33680061D01*
X44937226Y-33480102D01*
X44859205Y-33291744D01*
X44827000Y-33243546D01*
X44827000Y-29494454D01*
X44859205Y-29446256D01*
X44937226Y-29257898D01*
X44977000Y-29057939D01*
X44977000Y-28854061D01*
X44937226Y-28654102D01*
X44859205Y-28465744D01*
X44745937Y-28296226D01*
X44601774Y-28152063D01*
X44432256Y-28038795D01*
X44243898Y-27960774D01*
X44043939Y-27921000D01*
X43840061Y-27921000D01*
X43640102Y-27960774D01*
X43451744Y-28038795D01*
X43282226Y-28152063D01*
X43138063Y-28296226D01*
X43024795Y-28465744D01*
X42946774Y-28654102D01*
X42907000Y-28854061D01*
X42287000Y-28854061D01*
X42287000Y-26713465D01*
X42291281Y-26669999D01*
X42287000Y-26626533D01*
X42287000Y-26626523D01*
X42274195Y-26496510D01*
X42223589Y-26329687D01*
X42141411Y-26175941D01*
X42030817Y-26041183D01*
X41997050Y-26013471D01*
X39747000Y-23763422D01*
X39747000Y-20871465D01*
X39751281Y-20827999D01*
X39747000Y-20784533D01*
X39747000Y-20784523D01*
X39734195Y-20654510D01*
X39683589Y-20487687D01*
X39601411Y-20333941D01*
X39490817Y-20199183D01*
X39457050Y-20171471D01*
X38248536Y-18962958D01*
X38248532Y-18962953D01*
X37333520Y-18047941D01*
X35708536Y-16422958D01*
X35708532Y-16422953D01*
X33930534Y-14644956D01*
X33902817Y-14611183D01*
X33768059Y-14500589D01*
X33614313Y-14418411D01*
X33447490Y-14367805D01*
X33317477Y-14355000D01*
X33317469Y-14355000D01*
X33274000Y-14350719D01*
X33230531Y-14355000D01*
X32838818Y-14355000D01*
X32835120Y-14349465D01*
X32640535Y-14154880D01*
X32411727Y-14001995D01*
X32334485Y-13970000D01*
X32411727Y-13938005D01*
X32640535Y-13785120D01*
X32835120Y-13590535D01*
X32838818Y-13585000D01*
X33669422Y-13585000D01*
X40771000Y-20686579D01*
X40771000Y-20871477D01*
X40771001Y-20871487D01*
X40771000Y-23083545D01*
X40738795Y-23131744D01*
X40660774Y-23320102D01*
X40621000Y-23520061D01*
X40621000Y-23723939D01*
X40660774Y-23923898D01*
X40738795Y-24112256D01*
X40852063Y-24281774D01*
X40996226Y-24425937D01*
X41165744Y-24539205D01*
X41354102Y-24617226D01*
X41554061Y-24657000D01*
X41757939Y-24657000D01*
X41957898Y-24617226D01*
X42146256Y-24539205D01*
X42315774Y-24425937D01*
X42459937Y-24281774D01*
X42573205Y-24112256D01*
X42651226Y-23923898D01*
X42691000Y-23723939D01*
X42691000Y-23520061D01*
X42651226Y-23320102D01*
X42573205Y-23131744D01*
X42541000Y-23083546D01*
X42541000Y-20363465D01*
X42545281Y-20319999D01*
X42541000Y-20276533D01*
X42541000Y-20276523D01*
X42528195Y-20146510D01*
X42477589Y-19979687D01*
X42395411Y-19825941D01*
X42321949Y-19736428D01*
X42312532Y-19724953D01*
X42312530Y-19724951D01*
X42284817Y-19691183D01*
X42251051Y-19663472D01*
X34692534Y-12104956D01*
X34664817Y-12071183D01*
X34530059Y-11960589D01*
X34376313Y-11878411D01*
X34209490Y-11827805D01*
X34079477Y-11815000D01*
X34079469Y-11815000D01*
X34036000Y-11810719D01*
X33992531Y-11815000D01*
X32838818Y-11815000D01*
X32835120Y-11809465D01*
X32640535Y-11614880D01*
X32411727Y-11461995D01*
X32157490Y-11356686D01*
X31887592Y-11303000D01*
X33020000Y-11303000D01*
X33044776Y-11300560D01*
X33068601Y-11293333D01*
X33090557Y-11281597D01*
X33109803Y-11265803D01*
X33125597Y-11246557D01*
X33137333Y-11224601D01*
X33144560Y-11200776D01*
X33147000Y-11176000D01*
X33147000Y-1651000D01*
X46863000Y-1651000D01*
X46863000Y-184023000D01*
G37*
G04 #@! TD.AperFunction*
M02*
