G04 #@! TF.GenerationSoftware,KiCad,Pcbnew,(5.1.12-1-10_14)*
G04 #@! TF.CreationDate,2021-11-18T09:42:33+01:00*
G04 #@! TF.ProjectId,window-shutter-relay-esp8266,77696e64-6f77-42d7-9368-75747465722d,rev?*
G04 #@! TF.SameCoordinates,Original*
G04 #@! TF.FileFunction,Legend,Top*
G04 #@! TF.FilePolarity,Positive*
%FSLAX46Y46*%
G04 Gerber Fmt 4.6, Leading zero omitted, Abs format (unit mm)*
G04 Created by KiCad (PCBNEW (5.1.12-1-10_14)) date 2021-11-18 09:42:33*
%MOMM*%
%LPD*%
G01*
G04 APERTURE LIST*
%ADD10C,0.150000*%
G04 #@! TA.AperFunction,Profile*
%ADD11C,0.100000*%
G04 #@! TD*
G04 #@! TA.AperFunction,Profile*
%ADD12C,0.150000*%
G04 #@! TD*
%ADD13C,0.120000*%
G04 APERTURE END LIST*
D10*
X13019542Y-178353980D02*
X13019542Y-177353980D01*
X13352876Y-178068266D01*
X13686209Y-177353980D01*
X13686209Y-178353980D01*
X14162400Y-178353980D02*
X14162400Y-177687314D01*
X14162400Y-177353980D02*
X14114780Y-177401600D01*
X14162400Y-177449219D01*
X14210019Y-177401600D01*
X14162400Y-177353980D01*
X14162400Y-177449219D01*
X15067161Y-178306361D02*
X14971923Y-178353980D01*
X14781447Y-178353980D01*
X14686209Y-178306361D01*
X14638590Y-178258742D01*
X14590971Y-178163504D01*
X14590971Y-177877790D01*
X14638590Y-177782552D01*
X14686209Y-177734933D01*
X14781447Y-177687314D01*
X14971923Y-177687314D01*
X15067161Y-177734933D01*
X15495733Y-178353980D02*
X15495733Y-177687314D01*
X15495733Y-177877790D02*
X15543352Y-177782552D01*
X15590971Y-177734933D01*
X15686209Y-177687314D01*
X15781447Y-177687314D01*
X16257638Y-178353980D02*
X16162400Y-178306361D01*
X16114780Y-178258742D01*
X16067161Y-178163504D01*
X16067161Y-177877790D01*
X16114780Y-177782552D01*
X16162400Y-177734933D01*
X16257638Y-177687314D01*
X16400495Y-177687314D01*
X16495733Y-177734933D01*
X16543352Y-177782552D01*
X16590971Y-177877790D01*
X16590971Y-178163504D01*
X16543352Y-178258742D01*
X16495733Y-178306361D01*
X16400495Y-178353980D01*
X16257638Y-178353980D01*
X17781447Y-177353980D02*
X17781447Y-178163504D01*
X17829066Y-178258742D01*
X17876685Y-178306361D01*
X17971923Y-178353980D01*
X18162400Y-178353980D01*
X18257638Y-178306361D01*
X18305257Y-178258742D01*
X18352876Y-178163504D01*
X18352876Y-177353980D01*
X18781447Y-178306361D02*
X18924304Y-178353980D01*
X19162400Y-178353980D01*
X19257638Y-178306361D01*
X19305257Y-178258742D01*
X19352876Y-178163504D01*
X19352876Y-178068266D01*
X19305257Y-177973028D01*
X19257638Y-177925409D01*
X19162400Y-177877790D01*
X18971923Y-177830171D01*
X18876685Y-177782552D01*
X18829066Y-177734933D01*
X18781447Y-177639695D01*
X18781447Y-177544457D01*
X18829066Y-177449219D01*
X18876685Y-177401600D01*
X18971923Y-177353980D01*
X19210019Y-177353980D01*
X19352876Y-177401600D01*
X20114780Y-177830171D02*
X20257638Y-177877790D01*
X20305257Y-177925409D01*
X20352876Y-178020647D01*
X20352876Y-178163504D01*
X20305257Y-178258742D01*
X20257638Y-178306361D01*
X20162400Y-178353980D01*
X19781447Y-178353980D01*
X19781447Y-177353980D01*
X20114780Y-177353980D01*
X20210019Y-177401600D01*
X20257638Y-177449219D01*
X20305257Y-177544457D01*
X20305257Y-177639695D01*
X20257638Y-177734933D01*
X20210019Y-177782552D01*
X20114780Y-177830171D01*
X19781447Y-177830171D01*
X12930571Y-41616380D02*
X13549619Y-41616380D01*
X13216285Y-41997333D01*
X13359142Y-41997333D01*
X13454380Y-42044952D01*
X13502000Y-42092571D01*
X13549619Y-42187809D01*
X13549619Y-42425904D01*
X13502000Y-42521142D01*
X13454380Y-42568761D01*
X13359142Y-42616380D01*
X13073428Y-42616380D01*
X12978190Y-42568761D01*
X12930571Y-42521142D01*
X13835333Y-41616380D02*
X14168666Y-42616380D01*
X14502000Y-41616380D01*
X14740095Y-41616380D02*
X15359142Y-41616380D01*
X15025809Y-41997333D01*
X15168666Y-41997333D01*
X15263904Y-42044952D01*
X15311523Y-42092571D01*
X15359142Y-42187809D01*
X15359142Y-42425904D01*
X15311523Y-42521142D01*
X15263904Y-42568761D01*
X15168666Y-42616380D01*
X14882952Y-42616380D01*
X14787714Y-42568761D01*
X14740095Y-42521142D01*
X17121047Y-42616380D02*
X16787714Y-42140190D01*
X16549619Y-42616380D02*
X16549619Y-41616380D01*
X16930571Y-41616380D01*
X17025809Y-41664000D01*
X17073428Y-41711619D01*
X17121047Y-41806857D01*
X17121047Y-41949714D01*
X17073428Y-42044952D01*
X17025809Y-42092571D01*
X16930571Y-42140190D01*
X16549619Y-42140190D01*
X17549619Y-42092571D02*
X17882952Y-42092571D01*
X18025809Y-42616380D02*
X17549619Y-42616380D01*
X17549619Y-41616380D01*
X18025809Y-41616380D01*
X18978190Y-41664000D02*
X18882952Y-41616380D01*
X18740095Y-41616380D01*
X18597238Y-41664000D01*
X18502000Y-41759238D01*
X18454380Y-41854476D01*
X18406761Y-42044952D01*
X18406761Y-42187809D01*
X18454380Y-42378285D01*
X18502000Y-42473523D01*
X18597238Y-42568761D01*
X18740095Y-42616380D01*
X18835333Y-42616380D01*
X18978190Y-42568761D01*
X19025809Y-42521142D01*
X19025809Y-42187809D01*
X18835333Y-42187809D01*
X5962095Y-148972000D02*
X5866857Y-148924380D01*
X5723999Y-148924380D01*
X5581142Y-148972000D01*
X5485904Y-149067238D01*
X5438285Y-149162476D01*
X5390666Y-149352952D01*
X5390666Y-149495809D01*
X5438285Y-149686285D01*
X5485904Y-149781523D01*
X5581142Y-149876761D01*
X5723999Y-149924380D01*
X5819238Y-149924380D01*
X5962095Y-149876761D01*
X6009714Y-149829142D01*
X6009714Y-149495809D01*
X5819238Y-149495809D01*
X6438285Y-149924380D02*
X6438285Y-148924380D01*
X7009714Y-149924380D01*
X7009714Y-148924380D01*
X7485904Y-149924380D02*
X7485904Y-148924380D01*
X7724000Y-148924380D01*
X7866857Y-148972000D01*
X7962095Y-149067238D01*
X8009714Y-149162476D01*
X8057333Y-149352952D01*
X8057333Y-149495809D01*
X8009714Y-149686285D01*
X7962095Y-149781523D01*
X7866857Y-149876761D01*
X7724000Y-149924380D01*
X7485904Y-149924380D01*
X10842761Y-152988380D02*
X11176095Y-153988380D01*
X11509428Y-152988380D01*
X11842761Y-153988380D02*
X11842761Y-152988380D01*
X12318952Y-153988380D02*
X12318952Y-152988380D01*
X12890380Y-153988380D01*
X12890380Y-152988380D01*
X3096000Y-168870380D02*
X3429333Y-169870380D01*
X3762666Y-168870380D01*
X4096000Y-169870380D02*
X4096000Y-168870380D01*
X4572190Y-169870380D02*
X4572190Y-168870380D01*
X5143619Y-169870380D01*
X5143619Y-168870380D01*
X6905523Y-168918000D02*
X6810285Y-168870380D01*
X6667428Y-168870380D01*
X6524571Y-168918000D01*
X6429333Y-169013238D01*
X6381714Y-169108476D01*
X6334095Y-169298952D01*
X6334095Y-169441809D01*
X6381714Y-169632285D01*
X6429333Y-169727523D01*
X6524571Y-169822761D01*
X6667428Y-169870380D01*
X6762666Y-169870380D01*
X6905523Y-169822761D01*
X6953142Y-169775142D01*
X6953142Y-169441809D01*
X6762666Y-169441809D01*
X7381714Y-169870380D02*
X7381714Y-168870380D01*
X7953142Y-169870380D01*
X7953142Y-168870380D01*
X8429333Y-169870380D02*
X8429333Y-168870380D01*
X8667428Y-168870380D01*
X8810285Y-168918000D01*
X8905523Y-169013238D01*
X8953142Y-169108476D01*
X9000761Y-169298952D01*
X9000761Y-169441809D01*
X8953142Y-169632285D01*
X8905523Y-169727523D01*
X8810285Y-169822761D01*
X8667428Y-169870380D01*
X8429333Y-169870380D01*
X9510190Y-31694380D02*
X9510190Y-30694380D01*
X10081619Y-31694380D01*
X10081619Y-30694380D01*
X10700666Y-31694380D02*
X10605428Y-31646761D01*
X10557809Y-31599142D01*
X10510190Y-31503904D01*
X10510190Y-31218190D01*
X10557809Y-31122952D01*
X10605428Y-31075333D01*
X10700666Y-31027714D01*
X10843523Y-31027714D01*
X10938761Y-31075333D01*
X10986380Y-31122952D01*
X11033999Y-31218190D01*
X11033999Y-31503904D01*
X10986380Y-31599142D01*
X10938761Y-31646761D01*
X10843523Y-31694380D01*
X10700666Y-31694380D01*
X11891142Y-31694380D02*
X11891142Y-30694380D01*
X11891142Y-31646761D02*
X11795904Y-31694380D01*
X11605428Y-31694380D01*
X11510190Y-31646761D01*
X11462571Y-31599142D01*
X11414952Y-31503904D01*
X11414952Y-31218190D01*
X11462571Y-31122952D01*
X11510190Y-31075333D01*
X11605428Y-31027714D01*
X11795904Y-31027714D01*
X11891142Y-31075333D01*
X12748285Y-31646761D02*
X12653047Y-31694380D01*
X12462571Y-31694380D01*
X12367333Y-31646761D01*
X12319714Y-31551523D01*
X12319714Y-31170571D01*
X12367333Y-31075333D01*
X12462571Y-31027714D01*
X12653047Y-31027714D01*
X12748285Y-31075333D01*
X12795904Y-31170571D01*
X12795904Y-31265809D01*
X12319714Y-31361047D01*
X13224476Y-31694380D02*
X13224476Y-30694380D01*
X13557809Y-31408666D01*
X13891142Y-30694380D01*
X13891142Y-31694380D01*
X14938761Y-31599142D02*
X14891142Y-31646761D01*
X14748285Y-31694380D01*
X14653047Y-31694380D01*
X14510190Y-31646761D01*
X14414952Y-31551523D01*
X14367333Y-31456285D01*
X14319714Y-31265809D01*
X14319714Y-31122952D01*
X14367333Y-30932476D01*
X14414952Y-30837238D01*
X14510190Y-30742000D01*
X14653047Y-30694380D01*
X14748285Y-30694380D01*
X14891142Y-30742000D01*
X14938761Y-30789619D01*
X15367333Y-30694380D02*
X15367333Y-31503904D01*
X15414952Y-31599142D01*
X15462571Y-31646761D01*
X15557809Y-31694380D01*
X15748285Y-31694380D01*
X15843523Y-31646761D01*
X15891142Y-31599142D01*
X15938761Y-31503904D01*
X15938761Y-30694380D01*
X16938761Y-31694380D02*
X16367333Y-31694380D01*
X16653047Y-31694380D02*
X16653047Y-30694380D01*
X16557809Y-30837238D01*
X16462571Y-30932476D01*
X16367333Y-30980095D01*
X17367333Y-31599142D02*
X17414952Y-31646761D01*
X17367333Y-31694380D01*
X17319714Y-31646761D01*
X17367333Y-31599142D01*
X17367333Y-31694380D01*
X18034000Y-30694380D02*
X18129238Y-30694380D01*
X18224476Y-30742000D01*
X18272095Y-30789619D01*
X18319714Y-30884857D01*
X18367333Y-31075333D01*
X18367333Y-31313428D01*
X18319714Y-31503904D01*
X18272095Y-31599142D01*
X18224476Y-31646761D01*
X18129238Y-31694380D01*
X18034000Y-31694380D01*
X17938761Y-31646761D01*
X17891142Y-31599142D01*
X17843523Y-31503904D01*
X17795904Y-31313428D01*
X17795904Y-31075333D01*
X17843523Y-30884857D01*
X17891142Y-30789619D01*
X17938761Y-30742000D01*
X18034000Y-30694380D01*
X19081619Y-32075333D02*
X19033999Y-32027714D01*
X18938761Y-31884857D01*
X18891142Y-31789619D01*
X18843523Y-31646761D01*
X18795904Y-31408666D01*
X18795904Y-31218190D01*
X18843523Y-30980095D01*
X18891142Y-30837238D01*
X18938761Y-30742000D01*
X19033999Y-30599142D01*
X19081619Y-30551523D01*
X19462571Y-31170571D02*
X19795904Y-31170571D01*
X19938761Y-31694380D02*
X19462571Y-31694380D01*
X19462571Y-30694380D01*
X19938761Y-30694380D01*
X20319714Y-31646761D02*
X20462571Y-31694380D01*
X20700666Y-31694380D01*
X20795904Y-31646761D01*
X20843523Y-31599142D01*
X20891142Y-31503904D01*
X20891142Y-31408666D01*
X20843523Y-31313428D01*
X20795904Y-31265809D01*
X20700666Y-31218190D01*
X20510190Y-31170571D01*
X20414952Y-31122952D01*
X20367333Y-31075333D01*
X20319714Y-30980095D01*
X20319714Y-30884857D01*
X20367333Y-30789619D01*
X20414952Y-30742000D01*
X20510190Y-30694380D01*
X20748285Y-30694380D01*
X20891142Y-30742000D01*
X21319714Y-31694380D02*
X21319714Y-30694380D01*
X21700666Y-30694380D01*
X21795904Y-30742000D01*
X21843523Y-30789619D01*
X21891142Y-30884857D01*
X21891142Y-31027714D01*
X21843523Y-31122952D01*
X21795904Y-31170571D01*
X21700666Y-31218190D01*
X21319714Y-31218190D01*
X22319714Y-31313428D02*
X23081619Y-31313428D01*
X24081619Y-31694380D02*
X23510190Y-31694380D01*
X23795904Y-31694380D02*
X23795904Y-30694380D01*
X23700666Y-30837238D01*
X23605428Y-30932476D01*
X23510190Y-30980095D01*
X24462571Y-30789619D02*
X24510190Y-30742000D01*
X24605428Y-30694380D01*
X24843523Y-30694380D01*
X24938761Y-30742000D01*
X24986380Y-30789619D01*
X25033999Y-30884857D01*
X25033999Y-30980095D01*
X24986380Y-31122952D01*
X24414952Y-31694380D01*
X25033999Y-31694380D01*
X25462571Y-31170571D02*
X25795904Y-31170571D01*
X25938761Y-31694380D02*
X25462571Y-31694380D01*
X25462571Y-30694380D01*
X25938761Y-30694380D01*
X26272095Y-32075333D02*
X26319714Y-32027714D01*
X26414952Y-31884857D01*
X26462571Y-31789619D01*
X26510190Y-31646761D01*
X26557809Y-31408666D01*
X26557809Y-31218190D01*
X26510190Y-30980095D01*
X26462571Y-30837238D01*
X26414952Y-30742000D01*
X26319714Y-30599142D01*
X26272095Y-30551523D01*
D11*
X58997106Y-168369999D02*
G75*
G02*
X59790000Y-169162893I0J-792894D01*
G01*
X59790000Y-175370000D02*
X59790000Y-169162893D01*
X59790000Y-175370000D02*
G75*
G02*
X58790000Y-175370000I-500000J0D01*
G01*
X58790000Y-169870000D02*
X58790000Y-175370000D01*
X58290000Y-169370000D02*
G75*
G02*
X58790000Y-169870000I0J-500000D01*
G01*
X53340000Y-169370000D02*
X58290000Y-169370000D01*
X53340000Y-169370000D02*
G75*
G02*
X53340000Y-163370000I0J3000000D01*
G01*
X58290000Y-163370000D02*
X53340000Y-163370000D01*
X58790000Y-162870000D02*
G75*
G02*
X58290000Y-163370000I-500000J0D01*
G01*
X58790000Y-157369999D02*
X58790000Y-162870000D01*
X58789999Y-157369999D02*
G75*
G02*
X59789999Y-157369999I500000J0D01*
G01*
X59790000Y-163577106D02*
X59789999Y-157369999D01*
X59790000Y-163577106D02*
G75*
G02*
X58997106Y-164370000I-792894J0D01*
G01*
X53340000Y-164370000D02*
X58997106Y-164370000D01*
X53340000Y-168370000D02*
G75*
G02*
X53340000Y-164370000I0J2000000D01*
G01*
X58997106Y-168370000D02*
X53340000Y-168370000D01*
X58997106Y-146779999D02*
G75*
G02*
X59790000Y-147572893I0J-792894D01*
G01*
X59790000Y-153780000D02*
X59790000Y-147572893D01*
X59790000Y-153780000D02*
G75*
G02*
X58790000Y-153780000I-500000J0D01*
G01*
X58790000Y-148280000D02*
X58790000Y-153780000D01*
X58290000Y-147780000D02*
G75*
G02*
X58790000Y-148280000I0J-500000D01*
G01*
X53340000Y-147780000D02*
X58290000Y-147780000D01*
X53340000Y-147780000D02*
G75*
G02*
X53340000Y-141780000I0J3000000D01*
G01*
X58290000Y-141780000D02*
X53340000Y-141780000D01*
X58790000Y-141280000D02*
G75*
G02*
X58290000Y-141780000I-500000J0D01*
G01*
X58790000Y-135779999D02*
X58790000Y-141280000D01*
X58789999Y-135779999D02*
G75*
G02*
X59789999Y-135779999I500000J0D01*
G01*
X59790000Y-141987106D02*
X59789999Y-135779999D01*
X59790000Y-141987106D02*
G75*
G02*
X58997106Y-142780000I-792894J0D01*
G01*
X53340000Y-142780000D02*
X58997106Y-142780000D01*
X53340000Y-146780000D02*
G75*
G02*
X53340000Y-142780000I0J2000000D01*
G01*
X58997106Y-146780000D02*
X53340000Y-146780000D01*
X58997106Y-104361999D02*
G75*
G02*
X59790000Y-105154893I0J-792894D01*
G01*
X59790000Y-111362000D02*
X59790000Y-105154893D01*
X59790000Y-111362000D02*
G75*
G02*
X58790000Y-111362000I-500000J0D01*
G01*
X58790000Y-105862000D02*
X58790000Y-111362000D01*
X58290000Y-105362000D02*
G75*
G02*
X58790000Y-105862000I0J-500000D01*
G01*
X53340000Y-105362000D02*
X58290000Y-105362000D01*
X53340000Y-105362000D02*
G75*
G02*
X53340000Y-99362000I0J3000000D01*
G01*
X58290000Y-99362000D02*
X53340000Y-99362000D01*
X58790000Y-98862000D02*
G75*
G02*
X58290000Y-99362000I-500000J0D01*
G01*
X58790000Y-93361999D02*
X58790000Y-98862000D01*
X58789999Y-93361999D02*
G75*
G02*
X59789999Y-93361999I500000J0D01*
G01*
X59790000Y-99569106D02*
X59789999Y-93361999D01*
X59790000Y-99569106D02*
G75*
G02*
X58997106Y-100362000I-792894J0D01*
G01*
X53340000Y-100362000D02*
X58997106Y-100362000D01*
X53340000Y-104362000D02*
G75*
G02*
X53340000Y-100362000I0J2000000D01*
G01*
X58997106Y-104362000D02*
X53340000Y-104362000D01*
X58997106Y-82771999D02*
G75*
G02*
X59790000Y-83564893I0J-792894D01*
G01*
X59790000Y-89772000D02*
X59790000Y-83564893D01*
X59790000Y-89772000D02*
G75*
G02*
X58790000Y-89772000I-500000J0D01*
G01*
X58790000Y-84272000D02*
X58790000Y-89772000D01*
X58290000Y-83772000D02*
G75*
G02*
X58790000Y-84272000I0J-500000D01*
G01*
X53340000Y-83772000D02*
X58290000Y-83772000D01*
X53340000Y-83772000D02*
G75*
G02*
X53340000Y-77772000I0J3000000D01*
G01*
X58290000Y-77772000D02*
X53340000Y-77772000D01*
X58790000Y-77272000D02*
G75*
G02*
X58290000Y-77772000I-500000J0D01*
G01*
X58790000Y-71771999D02*
X58790000Y-77272000D01*
X58789999Y-71771999D02*
G75*
G02*
X59789999Y-71771999I500000J0D01*
G01*
X59790000Y-77979106D02*
X59789999Y-71771999D01*
X59790000Y-77979106D02*
G75*
G02*
X58997106Y-78772000I-792894J0D01*
G01*
X53340000Y-78772000D02*
X58997106Y-78772000D01*
X53340000Y-82772000D02*
G75*
G02*
X53340000Y-78772000I0J2000000D01*
G01*
X58997106Y-82772000D02*
X53340000Y-82772000D01*
X58997106Y-40099999D02*
G75*
G02*
X59790000Y-40892893I0J-792894D01*
G01*
X59790000Y-47100000D02*
X59790000Y-40892893D01*
X59790000Y-47100000D02*
G75*
G02*
X58790000Y-47100000I-500000J0D01*
G01*
X58790000Y-41600000D02*
X58790000Y-47100000D01*
X58290000Y-41100000D02*
G75*
G02*
X58790000Y-41600000I0J-500000D01*
G01*
X53340000Y-41100000D02*
X58290000Y-41100000D01*
X53340000Y-41100000D02*
G75*
G02*
X53340000Y-35100000I0J3000000D01*
G01*
X58290000Y-35100000D02*
X53340000Y-35100000D01*
X58790000Y-34600000D02*
G75*
G02*
X58290000Y-35100000I-500000J0D01*
G01*
X58790000Y-29099999D02*
X58790000Y-34600000D01*
X58789999Y-29099999D02*
G75*
G02*
X59789999Y-29099999I500000J0D01*
G01*
X59790000Y-35307106D02*
X59789999Y-29099999D01*
X59790000Y-35307106D02*
G75*
G02*
X58997106Y-36100000I-792894J0D01*
G01*
X53340000Y-36100000D02*
X58997106Y-36100000D01*
X53340000Y-40100000D02*
G75*
G02*
X53340000Y-36100000I0J2000000D01*
G01*
X58997106Y-40100000D02*
X53340000Y-40100000D01*
X58997106Y-18509999D02*
G75*
G02*
X59790000Y-19302893I0J-792894D01*
G01*
X59790000Y-25510000D02*
X59790000Y-19302893D01*
X59790000Y-25510000D02*
G75*
G02*
X58790000Y-25510000I-500000J0D01*
G01*
X58790000Y-20010000D02*
X58790000Y-25510000D01*
X58290000Y-19510000D02*
G75*
G02*
X58790000Y-20010000I0J-500000D01*
G01*
X53340000Y-19510000D02*
X58290000Y-19510000D01*
X53340000Y-19510000D02*
G75*
G02*
X53340000Y-13510000I0J3000000D01*
G01*
X58290000Y-13510000D02*
X53340000Y-13510000D01*
X58790000Y-13010000D02*
G75*
G02*
X58290000Y-13510000I-500000J0D01*
G01*
X58790000Y-7509999D02*
X58790000Y-13010000D01*
X58789999Y-7509999D02*
G75*
G02*
X59789999Y-7509999I500000J0D01*
G01*
X59790000Y-13717106D02*
X59789999Y-7509999D01*
X59790000Y-13717106D02*
G75*
G02*
X58997106Y-14510000I-792894J0D01*
G01*
X53340000Y-14510000D02*
X58997106Y-14510000D01*
X53340000Y-18510000D02*
G75*
G02*
X53340000Y-14510000I0J2000000D01*
G01*
X58997106Y-18510000D02*
X53340000Y-18510000D01*
D12*
X91440000Y-181610000D02*
X91440000Y-3810000D01*
X3810000Y-185420000D02*
G75*
G02*
X0Y-181610000I0J3810000D01*
G01*
X91440000Y-181610000D02*
G75*
G02*
X87630000Y-185420000I-3810000J0D01*
G01*
X87630000Y0D02*
G75*
G02*
X91440000Y-3810000I0J-3810000D01*
G01*
X0Y-3810000D02*
G75*
G02*
X3810000Y0I3810000J0D01*
G01*
D10*
X12406380Y-70857809D02*
X12406380Y-71334000D01*
X12882571Y-71381619D01*
X12834952Y-71334000D01*
X12787333Y-71238761D01*
X12787333Y-71000666D01*
X12834952Y-70905428D01*
X12882571Y-70857809D01*
X12977809Y-70810190D01*
X13215904Y-70810190D01*
X13311142Y-70857809D01*
X13358761Y-70905428D01*
X13406380Y-71000666D01*
X13406380Y-71238761D01*
X13358761Y-71334000D01*
X13311142Y-71381619D01*
X12406380Y-70524476D02*
X13406380Y-70191142D01*
X12406380Y-69857809D01*
X13406380Y-68191142D02*
X12930190Y-68524476D01*
X13406380Y-68762571D02*
X12406380Y-68762571D01*
X12406380Y-68381619D01*
X12454000Y-68286380D01*
X12501619Y-68238761D01*
X12596857Y-68191142D01*
X12739714Y-68191142D01*
X12834952Y-68238761D01*
X12882571Y-68286380D01*
X12930190Y-68381619D01*
X12930190Y-68762571D01*
X12882571Y-67762571D02*
X12882571Y-67429238D01*
X13406380Y-67286380D02*
X13406380Y-67762571D01*
X12406380Y-67762571D01*
X12406380Y-67286380D01*
X12454000Y-66334000D02*
X12406380Y-66429238D01*
X12406380Y-66572095D01*
X12454000Y-66714952D01*
X12549238Y-66810190D01*
X12644476Y-66857809D01*
X12834952Y-66905428D01*
X12977809Y-66905428D01*
X13168285Y-66857809D01*
X13263523Y-66810190D01*
X13358761Y-66714952D01*
X13406380Y-66572095D01*
X13406380Y-66476857D01*
X13358761Y-66334000D01*
X13311142Y-66286380D01*
X12977809Y-66286380D01*
X12977809Y-66476857D01*
X25336761Y-177760380D02*
X24860571Y-177760380D01*
X24812952Y-178236571D01*
X24860571Y-178188952D01*
X24955809Y-178141333D01*
X25193904Y-178141333D01*
X25289142Y-178188952D01*
X25336761Y-178236571D01*
X25384380Y-178331809D01*
X25384380Y-178569904D01*
X25336761Y-178665142D01*
X25289142Y-178712761D01*
X25193904Y-178760380D01*
X24955809Y-178760380D01*
X24860571Y-178712761D01*
X24812952Y-178665142D01*
X25670095Y-177760380D02*
X26003428Y-178760380D01*
X26336761Y-177760380D01*
X27955809Y-177808000D02*
X27860571Y-177760380D01*
X27717714Y-177760380D01*
X27574857Y-177808000D01*
X27479619Y-177903238D01*
X27432000Y-177998476D01*
X27384380Y-178188952D01*
X27384380Y-178331809D01*
X27432000Y-178522285D01*
X27479619Y-178617523D01*
X27574857Y-178712761D01*
X27717714Y-178760380D01*
X27812952Y-178760380D01*
X27955809Y-178712761D01*
X28003428Y-178665142D01*
X28003428Y-178331809D01*
X27812952Y-178331809D01*
X28432000Y-178760380D02*
X28432000Y-177760380D01*
X29003428Y-178760380D01*
X29003428Y-177760380D01*
X29479619Y-178760380D02*
X29479619Y-177760380D01*
X29717714Y-177760380D01*
X29860571Y-177808000D01*
X29955809Y-177903238D01*
X30003428Y-177998476D01*
X30051047Y-178188952D01*
X30051047Y-178331809D01*
X30003428Y-178522285D01*
X29955809Y-178617523D01*
X29860571Y-178712761D01*
X29717714Y-178760380D01*
X29479619Y-178760380D01*
D12*
X0Y-3810000D02*
X0Y-181610000D01*
X87630000Y0D02*
X3810000Y0D01*
X3810000Y-185420000D02*
X87630000Y-185420000D01*
D13*
X10295000Y-11375000D02*
X9685000Y-11375000D01*
X10295000Y-11375000D02*
X10295000Y-3755000D01*
X10295000Y-27995000D02*
X10295000Y-27375000D01*
X12415000Y-27995000D02*
X10295000Y-27995000D01*
X26535000Y-27995000D02*
X24415000Y-27995000D01*
X26535000Y-27375000D02*
X26535000Y-27995000D01*
X26535000Y-3755000D02*
X26535000Y-11375000D01*
X10295000Y-3755000D02*
X26535000Y-3755000D01*
X21610000Y-35110000D02*
X21610000Y-36010000D01*
X21160000Y-35560000D02*
X22060000Y-35560000D01*
X25941000Y-35395000D02*
X25941000Y-35725000D01*
X25901000Y-35145000D02*
X25901000Y-35975000D01*
X25861000Y-34993000D02*
X25861000Y-36127000D01*
X25821000Y-34874000D02*
X25821000Y-36246000D01*
X25781000Y-34774000D02*
X25781000Y-36346000D01*
X25741000Y-34686000D02*
X25741000Y-36434000D01*
X25701000Y-34608000D02*
X25701000Y-36512000D01*
X25661000Y-34537000D02*
X25661000Y-36583000D01*
X25621000Y-36340000D02*
X25621000Y-36648000D01*
X25621000Y-34472000D02*
X25621000Y-34780000D01*
X25581000Y-36340000D02*
X25581000Y-36708000D01*
X25581000Y-34412000D02*
X25581000Y-34780000D01*
X25541000Y-36340000D02*
X25541000Y-36764000D01*
X25541000Y-34356000D02*
X25541000Y-34780000D01*
X25501000Y-36340000D02*
X25501000Y-36816000D01*
X25501000Y-34304000D02*
X25501000Y-34780000D01*
X25461000Y-36340000D02*
X25461000Y-36865000D01*
X25461000Y-34255000D02*
X25461000Y-34780000D01*
X25421000Y-36340000D02*
X25421000Y-36911000D01*
X25421000Y-34209000D02*
X25421000Y-34780000D01*
X25381000Y-36340000D02*
X25381000Y-36955000D01*
X25381000Y-34165000D02*
X25381000Y-34780000D01*
X25341000Y-36340000D02*
X25341000Y-36996000D01*
X25341000Y-34124000D02*
X25341000Y-34780000D01*
X25301000Y-36340000D02*
X25301000Y-37035000D01*
X25301000Y-34085000D02*
X25301000Y-34780000D01*
X25261000Y-36340000D02*
X25261000Y-37072000D01*
X25261000Y-34048000D02*
X25261000Y-34780000D01*
X25221000Y-36340000D02*
X25221000Y-37107000D01*
X25221000Y-34013000D02*
X25221000Y-34780000D01*
X25181000Y-36340000D02*
X25181000Y-37141000D01*
X25181000Y-33979000D02*
X25181000Y-34780000D01*
X25141000Y-36340000D02*
X25141000Y-37173000D01*
X25141000Y-33947000D02*
X25141000Y-34780000D01*
X25101000Y-36340000D02*
X25101000Y-37203000D01*
X25101000Y-33917000D02*
X25101000Y-34780000D01*
X25061000Y-36340000D02*
X25061000Y-37232000D01*
X25061000Y-33888000D02*
X25061000Y-34780000D01*
X25021000Y-36340000D02*
X25021000Y-37259000D01*
X25021000Y-33861000D02*
X25021000Y-34780000D01*
X24981000Y-36340000D02*
X24981000Y-37285000D01*
X24981000Y-33835000D02*
X24981000Y-34780000D01*
X24941000Y-36340000D02*
X24941000Y-37310000D01*
X24941000Y-33810000D02*
X24941000Y-34780000D01*
X24901000Y-36340000D02*
X24901000Y-37333000D01*
X24901000Y-33787000D02*
X24901000Y-34780000D01*
X24861000Y-36340000D02*
X24861000Y-37356000D01*
X24861000Y-33764000D02*
X24861000Y-34780000D01*
X24821000Y-36340000D02*
X24821000Y-37377000D01*
X24821000Y-33743000D02*
X24821000Y-34780000D01*
X24781000Y-36340000D02*
X24781000Y-37397000D01*
X24781000Y-33723000D02*
X24781000Y-34780000D01*
X24741000Y-36340000D02*
X24741000Y-37416000D01*
X24741000Y-33704000D02*
X24741000Y-34780000D01*
X24701000Y-36340000D02*
X24701000Y-37434000D01*
X24701000Y-33686000D02*
X24701000Y-34780000D01*
X24661000Y-36340000D02*
X24661000Y-37451000D01*
X24661000Y-33669000D02*
X24661000Y-34780000D01*
X24621000Y-36340000D02*
X24621000Y-37467000D01*
X24621000Y-33653000D02*
X24621000Y-34780000D01*
X24581000Y-36340000D02*
X24581000Y-37483000D01*
X24581000Y-33637000D02*
X24581000Y-34780000D01*
X24540000Y-36340000D02*
X24540000Y-37497000D01*
X24540000Y-33623000D02*
X24540000Y-34780000D01*
X24500000Y-36340000D02*
X24500000Y-37510000D01*
X24500000Y-33610000D02*
X24500000Y-34780000D01*
X24460000Y-36340000D02*
X24460000Y-37523000D01*
X24460000Y-33597000D02*
X24460000Y-34780000D01*
X24420000Y-36340000D02*
X24420000Y-37534000D01*
X24420000Y-33586000D02*
X24420000Y-34780000D01*
X24380000Y-36340000D02*
X24380000Y-37545000D01*
X24380000Y-33575000D02*
X24380000Y-34780000D01*
X24340000Y-36340000D02*
X24340000Y-37555000D01*
X24340000Y-33565000D02*
X24340000Y-34780000D01*
X24300000Y-36340000D02*
X24300000Y-37564000D01*
X24300000Y-33556000D02*
X24300000Y-34780000D01*
X24260000Y-36340000D02*
X24260000Y-37572000D01*
X24260000Y-33548000D02*
X24260000Y-34780000D01*
X24220000Y-36340000D02*
X24220000Y-37579000D01*
X24220000Y-33541000D02*
X24220000Y-34780000D01*
X24180000Y-36340000D02*
X24180000Y-37586000D01*
X24180000Y-33534000D02*
X24180000Y-34780000D01*
X24140000Y-36340000D02*
X24140000Y-37592000D01*
X24140000Y-33528000D02*
X24140000Y-34780000D01*
X24100000Y-36340000D02*
X24100000Y-37597000D01*
X24100000Y-33523000D02*
X24100000Y-34780000D01*
X24060000Y-33519000D02*
X24060000Y-37601000D01*
X24020000Y-33516000D02*
X24020000Y-37604000D01*
X23980000Y-33513000D02*
X23980000Y-37607000D01*
X23940000Y-33511000D02*
X23940000Y-37609000D01*
X23900000Y-33510000D02*
X23900000Y-37610000D01*
X23860000Y-33510000D02*
X23860000Y-37610000D01*
X25706436Y-34580830D02*
G75*
G03*
X22014004Y-34580000I-1846436J-979170D01*
G01*
X25706436Y-36539170D02*
G75*
G02*
X22014004Y-36540000I-1846436J979170D01*
G01*
X25706436Y-36539170D02*
G75*
G03*
X25705996Y-34580000I-1846436J979170D01*
G01*
X21610000Y-40444000D02*
X21610000Y-41344000D01*
X21160000Y-40894000D02*
X22060000Y-40894000D01*
X25941000Y-40729000D02*
X25941000Y-41059000D01*
X25901000Y-40479000D02*
X25901000Y-41309000D01*
X25861000Y-40327000D02*
X25861000Y-41461000D01*
X25821000Y-40208000D02*
X25821000Y-41580000D01*
X25781000Y-40108000D02*
X25781000Y-41680000D01*
X25741000Y-40020000D02*
X25741000Y-41768000D01*
X25701000Y-39942000D02*
X25701000Y-41846000D01*
X25661000Y-39871000D02*
X25661000Y-41917000D01*
X25621000Y-41674000D02*
X25621000Y-41982000D01*
X25621000Y-39806000D02*
X25621000Y-40114000D01*
X25581000Y-41674000D02*
X25581000Y-42042000D01*
X25581000Y-39746000D02*
X25581000Y-40114000D01*
X25541000Y-41674000D02*
X25541000Y-42098000D01*
X25541000Y-39690000D02*
X25541000Y-40114000D01*
X25501000Y-41674000D02*
X25501000Y-42150000D01*
X25501000Y-39638000D02*
X25501000Y-40114000D01*
X25461000Y-41674000D02*
X25461000Y-42199000D01*
X25461000Y-39589000D02*
X25461000Y-40114000D01*
X25421000Y-41674000D02*
X25421000Y-42245000D01*
X25421000Y-39543000D02*
X25421000Y-40114000D01*
X25381000Y-41674000D02*
X25381000Y-42289000D01*
X25381000Y-39499000D02*
X25381000Y-40114000D01*
X25341000Y-41674000D02*
X25341000Y-42330000D01*
X25341000Y-39458000D02*
X25341000Y-40114000D01*
X25301000Y-41674000D02*
X25301000Y-42369000D01*
X25301000Y-39419000D02*
X25301000Y-40114000D01*
X25261000Y-41674000D02*
X25261000Y-42406000D01*
X25261000Y-39382000D02*
X25261000Y-40114000D01*
X25221000Y-41674000D02*
X25221000Y-42441000D01*
X25221000Y-39347000D02*
X25221000Y-40114000D01*
X25181000Y-41674000D02*
X25181000Y-42475000D01*
X25181000Y-39313000D02*
X25181000Y-40114000D01*
X25141000Y-41674000D02*
X25141000Y-42507000D01*
X25141000Y-39281000D02*
X25141000Y-40114000D01*
X25101000Y-41674000D02*
X25101000Y-42537000D01*
X25101000Y-39251000D02*
X25101000Y-40114000D01*
X25061000Y-41674000D02*
X25061000Y-42566000D01*
X25061000Y-39222000D02*
X25061000Y-40114000D01*
X25021000Y-41674000D02*
X25021000Y-42593000D01*
X25021000Y-39195000D02*
X25021000Y-40114000D01*
X24981000Y-41674000D02*
X24981000Y-42619000D01*
X24981000Y-39169000D02*
X24981000Y-40114000D01*
X24941000Y-41674000D02*
X24941000Y-42644000D01*
X24941000Y-39144000D02*
X24941000Y-40114000D01*
X24901000Y-41674000D02*
X24901000Y-42667000D01*
X24901000Y-39121000D02*
X24901000Y-40114000D01*
X24861000Y-41674000D02*
X24861000Y-42690000D01*
X24861000Y-39098000D02*
X24861000Y-40114000D01*
X24821000Y-41674000D02*
X24821000Y-42711000D01*
X24821000Y-39077000D02*
X24821000Y-40114000D01*
X24781000Y-41674000D02*
X24781000Y-42731000D01*
X24781000Y-39057000D02*
X24781000Y-40114000D01*
X24741000Y-41674000D02*
X24741000Y-42750000D01*
X24741000Y-39038000D02*
X24741000Y-40114000D01*
X24701000Y-41674000D02*
X24701000Y-42768000D01*
X24701000Y-39020000D02*
X24701000Y-40114000D01*
X24661000Y-41674000D02*
X24661000Y-42785000D01*
X24661000Y-39003000D02*
X24661000Y-40114000D01*
X24621000Y-41674000D02*
X24621000Y-42801000D01*
X24621000Y-38987000D02*
X24621000Y-40114000D01*
X24581000Y-41674000D02*
X24581000Y-42817000D01*
X24581000Y-38971000D02*
X24581000Y-40114000D01*
X24540000Y-41674000D02*
X24540000Y-42831000D01*
X24540000Y-38957000D02*
X24540000Y-40114000D01*
X24500000Y-41674000D02*
X24500000Y-42844000D01*
X24500000Y-38944000D02*
X24500000Y-40114000D01*
X24460000Y-41674000D02*
X24460000Y-42857000D01*
X24460000Y-38931000D02*
X24460000Y-40114000D01*
X24420000Y-41674000D02*
X24420000Y-42868000D01*
X24420000Y-38920000D02*
X24420000Y-40114000D01*
X24380000Y-41674000D02*
X24380000Y-42879000D01*
X24380000Y-38909000D02*
X24380000Y-40114000D01*
X24340000Y-41674000D02*
X24340000Y-42889000D01*
X24340000Y-38899000D02*
X24340000Y-40114000D01*
X24300000Y-41674000D02*
X24300000Y-42898000D01*
X24300000Y-38890000D02*
X24300000Y-40114000D01*
X24260000Y-41674000D02*
X24260000Y-42906000D01*
X24260000Y-38882000D02*
X24260000Y-40114000D01*
X24220000Y-41674000D02*
X24220000Y-42913000D01*
X24220000Y-38875000D02*
X24220000Y-40114000D01*
X24180000Y-41674000D02*
X24180000Y-42920000D01*
X24180000Y-38868000D02*
X24180000Y-40114000D01*
X24140000Y-41674000D02*
X24140000Y-42926000D01*
X24140000Y-38862000D02*
X24140000Y-40114000D01*
X24100000Y-41674000D02*
X24100000Y-42931000D01*
X24100000Y-38857000D02*
X24100000Y-40114000D01*
X24060000Y-38853000D02*
X24060000Y-42935000D01*
X24020000Y-38850000D02*
X24020000Y-42938000D01*
X23980000Y-38847000D02*
X23980000Y-42941000D01*
X23940000Y-38845000D02*
X23940000Y-42943000D01*
X23900000Y-38844000D02*
X23900000Y-42944000D01*
X23860000Y-38844000D02*
X23860000Y-42944000D01*
X25706436Y-39914830D02*
G75*
G03*
X22014004Y-39914000I-1846436J-979170D01*
G01*
X25706436Y-41873170D02*
G75*
G02*
X22014004Y-41874000I-1846436J979170D01*
G01*
X25706436Y-41873170D02*
G75*
G03*
X25705996Y-39914000I-1846436J979170D01*
G01*
X20102000Y-41002000D02*
X14092000Y-41002000D01*
X17852000Y-34182000D02*
X14092000Y-34182000D01*
X14092000Y-41002000D02*
X14092000Y-39742000D01*
X14092000Y-34182000D02*
X14092000Y-35442000D01*
X11490000Y-61154000D02*
X11490000Y-62484000D01*
X10160000Y-61154000D02*
X11490000Y-61154000D01*
X8890000Y-61154000D02*
X8890000Y-63814000D01*
X8890000Y-63814000D02*
X3750000Y-63814000D01*
X8890000Y-61154000D02*
X3750000Y-61154000D01*
X3750000Y-61154000D02*
X3750000Y-63814000D01*
X8696000Y-164532000D02*
X8696000Y-165862000D01*
X7366000Y-164532000D02*
X8696000Y-164532000D01*
X6096000Y-164532000D02*
X6096000Y-167192000D01*
X6096000Y-167192000D02*
X3496000Y-167192000D01*
X6096000Y-164532000D02*
X3496000Y-164532000D01*
X3496000Y-164532000D02*
X3496000Y-167192000D01*
X91178000Y-106452000D02*
X91178000Y-77952000D01*
X75438000Y-106452000D02*
X75438000Y-77952000D01*
X73378000Y-77952000D02*
X91178000Y-77952000D01*
X73378000Y-106452000D02*
X73378000Y-77952000D01*
X73378000Y-106452000D02*
X91178000Y-106452000D01*
X91178000Y-170460000D02*
X91178000Y-141960000D01*
X75438000Y-170460000D02*
X75438000Y-141960000D01*
X73378000Y-141960000D02*
X91178000Y-141960000D01*
X73378000Y-170460000D02*
X73378000Y-141960000D01*
X73378000Y-170460000D02*
X91178000Y-170460000D01*
X91178000Y-42190000D02*
X91178000Y-13690000D01*
X75438000Y-42190000D02*
X75438000Y-13690000D01*
X73378000Y-13690000D02*
X91178000Y-13690000D01*
X73378000Y-42190000D02*
X73378000Y-13690000D01*
X73378000Y-42190000D02*
X91178000Y-42190000D01*
X61390000Y-104212000D02*
X57390000Y-104212000D01*
X61390000Y-100612000D02*
X61390000Y-104212000D01*
X57390000Y-100612000D02*
X61390000Y-100612000D01*
X57390000Y-104212000D02*
X57390000Y-100612000D01*
X61390000Y-104212000D02*
X57390000Y-100612000D01*
X59390000Y-104212000D02*
X59390000Y-108412000D01*
X59390000Y-96412000D02*
X59390000Y-100612000D01*
X55990000Y-102412000D02*
X55990000Y-106012000D01*
X62790000Y-102412000D02*
X62790000Y-106012000D01*
X62790000Y-106012000D02*
X55990000Y-106012000D01*
X64290000Y-102412000D02*
X68890000Y-99912000D01*
X62790000Y-102412000D02*
X64290000Y-102412000D01*
X59390000Y-96412000D02*
X56890000Y-96412000D01*
X55990000Y-102412000D02*
X55190000Y-102412000D01*
X56890000Y-108412000D02*
X59390000Y-108412000D01*
X67490000Y-98162000D02*
X67490000Y-100662000D01*
X67490000Y-106562000D02*
X67490000Y-104112000D01*
X71740000Y-110162000D02*
X51940000Y-110162000D01*
X71740000Y-94562000D02*
X71740000Y-110162000D01*
X51940000Y-94562000D02*
X71740000Y-94562000D01*
X51940000Y-94562000D02*
X51940000Y-101162000D01*
X51940000Y-103562000D02*
X51940000Y-110162000D01*
X61390000Y-82622000D02*
X57390000Y-82622000D01*
X61390000Y-79022000D02*
X61390000Y-82622000D01*
X57390000Y-79022000D02*
X61390000Y-79022000D01*
X57390000Y-82622000D02*
X57390000Y-79022000D01*
X61390000Y-82622000D02*
X57390000Y-79022000D01*
X59390000Y-82622000D02*
X59390000Y-86822000D01*
X59390000Y-74822000D02*
X59390000Y-79022000D01*
X55990000Y-80822000D02*
X55990000Y-84422000D01*
X62790000Y-80822000D02*
X62790000Y-84422000D01*
X62790000Y-84422000D02*
X55990000Y-84422000D01*
X64290000Y-80822000D02*
X68890000Y-78322000D01*
X62790000Y-80822000D02*
X64290000Y-80822000D01*
X59390000Y-74822000D02*
X56890000Y-74822000D01*
X55990000Y-80822000D02*
X55190000Y-80822000D01*
X56890000Y-86822000D02*
X59390000Y-86822000D01*
X67490000Y-76572000D02*
X67490000Y-79072000D01*
X67490000Y-84972000D02*
X67490000Y-82522000D01*
X71740000Y-88572000D02*
X51940000Y-88572000D01*
X71740000Y-72972000D02*
X71740000Y-88572000D01*
X51940000Y-72972000D02*
X71740000Y-72972000D01*
X51940000Y-72972000D02*
X51940000Y-79572000D01*
X51940000Y-81972000D02*
X51940000Y-88572000D01*
X61390000Y-168220000D02*
X57390000Y-168220000D01*
X61390000Y-164620000D02*
X61390000Y-168220000D01*
X57390000Y-164620000D02*
X61390000Y-164620000D01*
X57390000Y-168220000D02*
X57390000Y-164620000D01*
X61390000Y-168220000D02*
X57390000Y-164620000D01*
X59390000Y-168220000D02*
X59390000Y-172420000D01*
X59390000Y-160420000D02*
X59390000Y-164620000D01*
X55990000Y-166420000D02*
X55990000Y-170020000D01*
X62790000Y-166420000D02*
X62790000Y-170020000D01*
X62790000Y-170020000D02*
X55990000Y-170020000D01*
X64290000Y-166420000D02*
X68890000Y-163920000D01*
X62790000Y-166420000D02*
X64290000Y-166420000D01*
X59390000Y-160420000D02*
X56890000Y-160420000D01*
X55990000Y-166420000D02*
X55190000Y-166420000D01*
X56890000Y-172420000D02*
X59390000Y-172420000D01*
X67490000Y-162170000D02*
X67490000Y-164670000D01*
X67490000Y-170570000D02*
X67490000Y-168120000D01*
X71740000Y-174170000D02*
X51940000Y-174170000D01*
X71740000Y-158570000D02*
X71740000Y-174170000D01*
X51940000Y-158570000D02*
X71740000Y-158570000D01*
X51940000Y-158570000D02*
X51940000Y-165170000D01*
X51940000Y-167570000D02*
X51940000Y-174170000D01*
X61390000Y-146630000D02*
X57390000Y-146630000D01*
X61390000Y-143030000D02*
X61390000Y-146630000D01*
X57390000Y-143030000D02*
X61390000Y-143030000D01*
X57390000Y-146630000D02*
X57390000Y-143030000D01*
X61390000Y-146630000D02*
X57390000Y-143030000D01*
X59390000Y-146630000D02*
X59390000Y-150830000D01*
X59390000Y-138830000D02*
X59390000Y-143030000D01*
X55990000Y-144830000D02*
X55990000Y-148430000D01*
X62790000Y-144830000D02*
X62790000Y-148430000D01*
X62790000Y-148430000D02*
X55990000Y-148430000D01*
X64290000Y-144830000D02*
X68890000Y-142330000D01*
X62790000Y-144830000D02*
X64290000Y-144830000D01*
X59390000Y-138830000D02*
X56890000Y-138830000D01*
X55990000Y-144830000D02*
X55190000Y-144830000D01*
X56890000Y-150830000D02*
X59390000Y-150830000D01*
X67490000Y-140580000D02*
X67490000Y-143080000D01*
X67490000Y-148980000D02*
X67490000Y-146530000D01*
X71740000Y-152580000D02*
X51940000Y-152580000D01*
X71740000Y-136980000D02*
X71740000Y-152580000D01*
X51940000Y-136980000D02*
X71740000Y-136980000D01*
X51940000Y-136980000D02*
X51940000Y-143580000D01*
X51940000Y-145980000D02*
X51940000Y-152580000D01*
X61390000Y-18360000D02*
X57390000Y-18360000D01*
X61390000Y-14760000D02*
X61390000Y-18360000D01*
X57390000Y-14760000D02*
X61390000Y-14760000D01*
X57390000Y-18360000D02*
X57390000Y-14760000D01*
X61390000Y-18360000D02*
X57390000Y-14760000D01*
X59390000Y-18360000D02*
X59390000Y-22560000D01*
X59390000Y-10560000D02*
X59390000Y-14760000D01*
X55990000Y-16560000D02*
X55990000Y-20160000D01*
X62790000Y-16560000D02*
X62790000Y-20160000D01*
X62790000Y-20160000D02*
X55990000Y-20160000D01*
X64290000Y-16560000D02*
X68890000Y-14060000D01*
X62790000Y-16560000D02*
X64290000Y-16560000D01*
X59390000Y-10560000D02*
X56890000Y-10560000D01*
X55990000Y-16560000D02*
X55190000Y-16560000D01*
X56890000Y-22560000D02*
X59390000Y-22560000D01*
X67490000Y-12310000D02*
X67490000Y-14810000D01*
X67490000Y-20710000D02*
X67490000Y-18260000D01*
X71740000Y-24310000D02*
X51940000Y-24310000D01*
X71740000Y-8710000D02*
X71740000Y-24310000D01*
X51940000Y-8710000D02*
X71740000Y-8710000D01*
X51940000Y-8710000D02*
X51940000Y-15310000D01*
X51940000Y-17710000D02*
X51940000Y-24310000D01*
X61390000Y-39950000D02*
X57390000Y-39950000D01*
X61390000Y-36350000D02*
X61390000Y-39950000D01*
X57390000Y-36350000D02*
X61390000Y-36350000D01*
X57390000Y-39950000D02*
X57390000Y-36350000D01*
X61390000Y-39950000D02*
X57390000Y-36350000D01*
X59390000Y-39950000D02*
X59390000Y-44150000D01*
X59390000Y-32150000D02*
X59390000Y-36350000D01*
X55990000Y-38150000D02*
X55990000Y-41750000D01*
X62790000Y-38150000D02*
X62790000Y-41750000D01*
X62790000Y-41750000D02*
X55990000Y-41750000D01*
X64290000Y-38150000D02*
X68890000Y-35650000D01*
X62790000Y-38150000D02*
X64290000Y-38150000D01*
X59390000Y-32150000D02*
X56890000Y-32150000D01*
X55990000Y-38150000D02*
X55190000Y-38150000D01*
X56890000Y-44150000D02*
X59390000Y-44150000D01*
X67490000Y-33900000D02*
X67490000Y-36400000D01*
X67490000Y-42300000D02*
X67490000Y-39850000D01*
X71740000Y-45900000D02*
X51940000Y-45900000D01*
X71740000Y-30300000D02*
X71740000Y-45900000D01*
X51940000Y-30300000D02*
X71740000Y-30300000D01*
X51940000Y-30300000D02*
X51940000Y-36900000D01*
X51940000Y-39300000D02*
X51940000Y-45900000D01*
X18146000Y-151464000D02*
X18146000Y-153204000D01*
X16406000Y-151464000D02*
X18146000Y-151464000D01*
X12506000Y-157254000D02*
X10056000Y-157254000D01*
X12506000Y-156854000D02*
X12506000Y-157254000D01*
X14506000Y-156854000D02*
X12506000Y-156854000D01*
X14506000Y-155254000D02*
X14506000Y-156854000D01*
X14506000Y-148454000D02*
X14506000Y-151454000D01*
X12506000Y-148454000D02*
X14506000Y-148454000D01*
X12506000Y-148054000D02*
X12506000Y-148454000D01*
X10056000Y-148054000D02*
X12506000Y-148054000D01*
X-194000Y-148054000D02*
X3356000Y-148054000D01*
X-194000Y-157254000D02*
X-194000Y-148054000D01*
X3356000Y-157254000D02*
X-194000Y-157254000D01*
X42726000Y-20082000D02*
X42726000Y-22082000D01*
X40586000Y-22082000D02*
X40586000Y-20082000D01*
X42472000Y-42148000D02*
X42472000Y-44148000D01*
X40332000Y-44148000D02*
X40332000Y-42148000D01*
X42472000Y-84598000D02*
X42472000Y-86598000D01*
X40332000Y-86598000D02*
X40332000Y-84598000D01*
X42472000Y-106188000D02*
X42472000Y-108188000D01*
X40332000Y-108188000D02*
X40332000Y-106188000D01*
X42472000Y-148860000D02*
X42472000Y-150860000D01*
X40332000Y-150860000D02*
X40332000Y-148860000D01*
X42472000Y-170196000D02*
X42472000Y-172196000D01*
X40332000Y-172196000D02*
X40332000Y-170196000D01*
X46030000Y-13464000D02*
X46030000Y-14924000D01*
X42870000Y-13464000D02*
X42870000Y-16624000D01*
X42870000Y-13464000D02*
X43800000Y-13464000D01*
X46030000Y-13464000D02*
X45100000Y-13464000D01*
X45776000Y-35308000D02*
X44846000Y-35308000D01*
X42616000Y-35308000D02*
X43546000Y-35308000D01*
X42616000Y-35308000D02*
X42616000Y-38468000D01*
X45776000Y-35308000D02*
X45776000Y-36768000D01*
X45776000Y-77726000D02*
X45776000Y-79186000D01*
X42616000Y-77726000D02*
X42616000Y-80886000D01*
X42616000Y-77726000D02*
X43546000Y-77726000D01*
X45776000Y-77726000D02*
X44846000Y-77726000D01*
X45776000Y-99570000D02*
X44846000Y-99570000D01*
X42616000Y-99570000D02*
X43546000Y-99570000D01*
X42616000Y-99570000D02*
X42616000Y-102730000D01*
X45776000Y-99570000D02*
X45776000Y-101030000D01*
X46030000Y-141734000D02*
X46030000Y-143194000D01*
X42870000Y-141734000D02*
X42870000Y-144894000D01*
X42870000Y-141734000D02*
X43800000Y-141734000D01*
X46030000Y-141734000D02*
X45100000Y-141734000D01*
X45776000Y-163324000D02*
X44846000Y-163324000D01*
X42616000Y-163324000D02*
X43546000Y-163324000D01*
X42616000Y-163324000D02*
X42616000Y-166484000D01*
X45776000Y-163324000D02*
X45776000Y-164784000D01*
X45908000Y-17950000D02*
X45908000Y-22650000D01*
X44008000Y-17950000D02*
X44008000Y-22650000D01*
X45908000Y-17950000D02*
X44008000Y-17950000D01*
X45654000Y-40048000D02*
X43754000Y-40048000D01*
X43754000Y-40048000D02*
X43754000Y-44748000D01*
X45654000Y-40048000D02*
X45654000Y-44748000D01*
X45654000Y-82498000D02*
X45654000Y-87198000D01*
X43754000Y-82498000D02*
X43754000Y-87198000D01*
X45654000Y-82498000D02*
X43754000Y-82498000D01*
X45654000Y-104088000D02*
X43754000Y-104088000D01*
X43754000Y-104088000D02*
X43754000Y-108788000D01*
X45654000Y-104088000D02*
X45654000Y-108788000D01*
X45908000Y-146760000D02*
X45908000Y-151460000D01*
X44008000Y-146760000D02*
X44008000Y-151460000D01*
X45908000Y-146760000D02*
X44008000Y-146760000D01*
X45908000Y-168096000D02*
X44008000Y-168096000D01*
X44008000Y-168096000D02*
X44008000Y-172796000D01*
X45908000Y-168096000D02*
X45908000Y-172796000D01*
X16958000Y-89348000D02*
X18288000Y-89348000D01*
X16958000Y-90678000D02*
X16958000Y-89348000D01*
X16958000Y-91948000D02*
X19618000Y-91948000D01*
X19618000Y-91948000D02*
X19618000Y-97088000D01*
X16958000Y-91948000D02*
X16958000Y-97088000D01*
X16958000Y-97088000D02*
X19618000Y-97088000D01*
X22800000Y-97088000D02*
X25460000Y-97088000D01*
X22800000Y-91948000D02*
X22800000Y-97088000D01*
X25460000Y-91948000D02*
X25460000Y-97088000D01*
X22800000Y-91948000D02*
X25460000Y-91948000D01*
X22800000Y-90678000D02*
X22800000Y-89348000D01*
X22800000Y-89348000D02*
X24130000Y-89348000D01*
X28388000Y-97088000D02*
X31048000Y-97088000D01*
X28388000Y-91948000D02*
X28388000Y-97088000D01*
X31048000Y-91948000D02*
X31048000Y-97088000D01*
X28388000Y-91948000D02*
X31048000Y-91948000D01*
X28388000Y-90678000D02*
X28388000Y-89348000D01*
X28388000Y-89348000D02*
X29718000Y-89348000D01*
D10*
X33030000Y-59520000D02*
X33030000Y-2520000D01*
X2530000Y-59520000D02*
X33030000Y-59520000D01*
X2530000Y-2520000D02*
X2530000Y-59520000D01*
X3030000Y-2520000D02*
X2530000Y-2520000D01*
X33030000Y-2520000D02*
X3030000Y-2520000D01*
X32276051Y-5080000D02*
G75*
G03*
X32276051Y-5080000I-1796051J0D01*
G01*
X6876051Y-5080000D02*
G75*
G03*
X6876051Y-5080000I-1796051J0D01*
G01*
X6876051Y-57150000D02*
G75*
G03*
X6876051Y-57150000I-1796051J0D01*
G01*
X32276051Y-57150000D02*
G75*
G03*
X32276051Y-57150000I-1796051J0D01*
G01*
D13*
X9530000Y-71990000D02*
X9530000Y-70730000D01*
X9530000Y-65170000D02*
X9530000Y-66430000D01*
X5770000Y-71990000D02*
X9530000Y-71990000D01*
X3520000Y-65170000D02*
X9530000Y-65170000D01*
X12160000Y-185640000D02*
X20860000Y-185640000D01*
X12160000Y-179230000D02*
X20860000Y-179230000D01*
X20860000Y-179230000D02*
X20860000Y-185640000D01*
X20860000Y-184410000D02*
X12160000Y-184410000D01*
X12160000Y-185640000D02*
X12160000Y-179230000D01*
X24578000Y-180026000D02*
X24578000Y-182686000D01*
X27178000Y-180026000D02*
X24578000Y-180026000D01*
X27178000Y-182686000D02*
X24578000Y-182686000D01*
X27178000Y-180026000D02*
X27178000Y-182686000D01*
X28448000Y-180026000D02*
X29778000Y-180026000D01*
X29778000Y-180026000D02*
X29778000Y-181356000D01*
X8620000Y-72880000D02*
X8620000Y-76980000D01*
X8660000Y-72880000D02*
X8660000Y-76980000D01*
X8700000Y-72881000D02*
X8700000Y-76979000D01*
X8740000Y-72883000D02*
X8740000Y-76977000D01*
X8780000Y-72886000D02*
X8780000Y-76974000D01*
X8820000Y-72889000D02*
X8820000Y-76971000D01*
X8860000Y-72893000D02*
X8860000Y-74150000D01*
X8860000Y-75710000D02*
X8860000Y-76967000D01*
X8900000Y-72898000D02*
X8900000Y-74150000D01*
X8900000Y-75710000D02*
X8900000Y-76962000D01*
X8940000Y-72904000D02*
X8940000Y-74150000D01*
X8940000Y-75710000D02*
X8940000Y-76956000D01*
X8980000Y-72911000D02*
X8980000Y-74150000D01*
X8980000Y-75710000D02*
X8980000Y-76949000D01*
X9020000Y-72918000D02*
X9020000Y-74150000D01*
X9020000Y-75710000D02*
X9020000Y-76942000D01*
X9060000Y-72926000D02*
X9060000Y-74150000D01*
X9060000Y-75710000D02*
X9060000Y-76934000D01*
X9100000Y-72935000D02*
X9100000Y-74150000D01*
X9100000Y-75710000D02*
X9100000Y-76925000D01*
X9140000Y-72945000D02*
X9140000Y-74150000D01*
X9140000Y-75710000D02*
X9140000Y-76915000D01*
X9180000Y-72956000D02*
X9180000Y-74150000D01*
X9180000Y-75710000D02*
X9180000Y-76904000D01*
X9220000Y-72967000D02*
X9220000Y-74150000D01*
X9220000Y-75710000D02*
X9220000Y-76893000D01*
X9260000Y-72980000D02*
X9260000Y-74150000D01*
X9260000Y-75710000D02*
X9260000Y-76880000D01*
X9300000Y-72993000D02*
X9300000Y-74150000D01*
X9300000Y-75710000D02*
X9300000Y-76867000D01*
X9341000Y-73007000D02*
X9341000Y-74150000D01*
X9341000Y-75710000D02*
X9341000Y-76853000D01*
X9381000Y-73023000D02*
X9381000Y-74150000D01*
X9381000Y-75710000D02*
X9381000Y-76837000D01*
X9421000Y-73039000D02*
X9421000Y-74150000D01*
X9421000Y-75710000D02*
X9421000Y-76821000D01*
X9461000Y-73056000D02*
X9461000Y-74150000D01*
X9461000Y-75710000D02*
X9461000Y-76804000D01*
X9501000Y-73074000D02*
X9501000Y-74150000D01*
X9501000Y-75710000D02*
X9501000Y-76786000D01*
X9541000Y-73093000D02*
X9541000Y-74150000D01*
X9541000Y-75710000D02*
X9541000Y-76767000D01*
X9581000Y-73113000D02*
X9581000Y-74150000D01*
X9581000Y-75710000D02*
X9581000Y-76747000D01*
X9621000Y-73134000D02*
X9621000Y-74150000D01*
X9621000Y-75710000D02*
X9621000Y-76726000D01*
X9661000Y-73157000D02*
X9661000Y-74150000D01*
X9661000Y-75710000D02*
X9661000Y-76703000D01*
X9701000Y-73180000D02*
X9701000Y-74150000D01*
X9701000Y-75710000D02*
X9701000Y-76680000D01*
X9741000Y-73205000D02*
X9741000Y-74150000D01*
X9741000Y-75710000D02*
X9741000Y-76655000D01*
X9781000Y-73231000D02*
X9781000Y-74150000D01*
X9781000Y-75710000D02*
X9781000Y-76629000D01*
X9821000Y-73258000D02*
X9821000Y-74150000D01*
X9821000Y-75710000D02*
X9821000Y-76602000D01*
X9861000Y-73287000D02*
X9861000Y-74150000D01*
X9861000Y-75710000D02*
X9861000Y-76573000D01*
X9901000Y-73317000D02*
X9901000Y-74150000D01*
X9901000Y-75710000D02*
X9901000Y-76543000D01*
X9941000Y-73349000D02*
X9941000Y-74150000D01*
X9941000Y-75710000D02*
X9941000Y-76511000D01*
X9981000Y-73383000D02*
X9981000Y-74150000D01*
X9981000Y-75710000D02*
X9981000Y-76477000D01*
X10021000Y-73418000D02*
X10021000Y-74150000D01*
X10021000Y-75710000D02*
X10021000Y-76442000D01*
X10061000Y-73455000D02*
X10061000Y-74150000D01*
X10061000Y-75710000D02*
X10061000Y-76405000D01*
X10101000Y-73494000D02*
X10101000Y-74150000D01*
X10101000Y-75710000D02*
X10101000Y-76366000D01*
X10141000Y-73535000D02*
X10141000Y-74150000D01*
X10141000Y-75710000D02*
X10141000Y-76325000D01*
X10181000Y-73579000D02*
X10181000Y-74150000D01*
X10181000Y-75710000D02*
X10181000Y-76281000D01*
X10221000Y-73625000D02*
X10221000Y-74150000D01*
X10221000Y-75710000D02*
X10221000Y-76235000D01*
X10261000Y-73674000D02*
X10261000Y-74150000D01*
X10261000Y-75710000D02*
X10261000Y-76186000D01*
X10301000Y-73726000D02*
X10301000Y-74150000D01*
X10301000Y-75710000D02*
X10301000Y-76134000D01*
X10341000Y-73782000D02*
X10341000Y-74150000D01*
X10341000Y-75710000D02*
X10341000Y-76078000D01*
X10381000Y-73842000D02*
X10381000Y-74150000D01*
X10381000Y-75710000D02*
X10381000Y-76018000D01*
X10421000Y-73907000D02*
X10421000Y-75953000D01*
X10461000Y-73978000D02*
X10461000Y-75882000D01*
X10501000Y-74056000D02*
X10501000Y-75804000D01*
X10541000Y-74144000D02*
X10541000Y-75716000D01*
X10581000Y-74244000D02*
X10581000Y-75616000D01*
X10621000Y-74363000D02*
X10621000Y-75497000D01*
X10661000Y-74515000D02*
X10661000Y-75345000D01*
X10701000Y-74765000D02*
X10701000Y-75095000D01*
X5920000Y-74930000D02*
X6820000Y-74930000D01*
X6370000Y-74480000D02*
X6370000Y-75380000D01*
X10466436Y-75909170D02*
G75*
G03*
X10465996Y-73950000I-1846436J979170D01*
G01*
X10466436Y-75909170D02*
G75*
G02*
X6774004Y-75910000I-1846436J979170D01*
G01*
X10466436Y-73950830D02*
G75*
G03*
X6774004Y-73950000I-1846436J-979170D01*
G01*
X6370000Y-79560000D02*
X6370000Y-80460000D01*
X5920000Y-80010000D02*
X6820000Y-80010000D01*
X10701000Y-79845000D02*
X10701000Y-80175000D01*
X10661000Y-79595000D02*
X10661000Y-80425000D01*
X10621000Y-79443000D02*
X10621000Y-80577000D01*
X10581000Y-79324000D02*
X10581000Y-80696000D01*
X10541000Y-79224000D02*
X10541000Y-80796000D01*
X10501000Y-79136000D02*
X10501000Y-80884000D01*
X10461000Y-79058000D02*
X10461000Y-80962000D01*
X10421000Y-78987000D02*
X10421000Y-81033000D01*
X10381000Y-80790000D02*
X10381000Y-81098000D01*
X10381000Y-78922000D02*
X10381000Y-79230000D01*
X10341000Y-80790000D02*
X10341000Y-81158000D01*
X10341000Y-78862000D02*
X10341000Y-79230000D01*
X10301000Y-80790000D02*
X10301000Y-81214000D01*
X10301000Y-78806000D02*
X10301000Y-79230000D01*
X10261000Y-80790000D02*
X10261000Y-81266000D01*
X10261000Y-78754000D02*
X10261000Y-79230000D01*
X10221000Y-80790000D02*
X10221000Y-81315000D01*
X10221000Y-78705000D02*
X10221000Y-79230000D01*
X10181000Y-80790000D02*
X10181000Y-81361000D01*
X10181000Y-78659000D02*
X10181000Y-79230000D01*
X10141000Y-80790000D02*
X10141000Y-81405000D01*
X10141000Y-78615000D02*
X10141000Y-79230000D01*
X10101000Y-80790000D02*
X10101000Y-81446000D01*
X10101000Y-78574000D02*
X10101000Y-79230000D01*
X10061000Y-80790000D02*
X10061000Y-81485000D01*
X10061000Y-78535000D02*
X10061000Y-79230000D01*
X10021000Y-80790000D02*
X10021000Y-81522000D01*
X10021000Y-78498000D02*
X10021000Y-79230000D01*
X9981000Y-80790000D02*
X9981000Y-81557000D01*
X9981000Y-78463000D02*
X9981000Y-79230000D01*
X9941000Y-80790000D02*
X9941000Y-81591000D01*
X9941000Y-78429000D02*
X9941000Y-79230000D01*
X9901000Y-80790000D02*
X9901000Y-81623000D01*
X9901000Y-78397000D02*
X9901000Y-79230000D01*
X9861000Y-80790000D02*
X9861000Y-81653000D01*
X9861000Y-78367000D02*
X9861000Y-79230000D01*
X9821000Y-80790000D02*
X9821000Y-81682000D01*
X9821000Y-78338000D02*
X9821000Y-79230000D01*
X9781000Y-80790000D02*
X9781000Y-81709000D01*
X9781000Y-78311000D02*
X9781000Y-79230000D01*
X9741000Y-80790000D02*
X9741000Y-81735000D01*
X9741000Y-78285000D02*
X9741000Y-79230000D01*
X9701000Y-80790000D02*
X9701000Y-81760000D01*
X9701000Y-78260000D02*
X9701000Y-79230000D01*
X9661000Y-80790000D02*
X9661000Y-81783000D01*
X9661000Y-78237000D02*
X9661000Y-79230000D01*
X9621000Y-80790000D02*
X9621000Y-81806000D01*
X9621000Y-78214000D02*
X9621000Y-79230000D01*
X9581000Y-80790000D02*
X9581000Y-81827000D01*
X9581000Y-78193000D02*
X9581000Y-79230000D01*
X9541000Y-80790000D02*
X9541000Y-81847000D01*
X9541000Y-78173000D02*
X9541000Y-79230000D01*
X9501000Y-80790000D02*
X9501000Y-81866000D01*
X9501000Y-78154000D02*
X9501000Y-79230000D01*
X9461000Y-80790000D02*
X9461000Y-81884000D01*
X9461000Y-78136000D02*
X9461000Y-79230000D01*
X9421000Y-80790000D02*
X9421000Y-81901000D01*
X9421000Y-78119000D02*
X9421000Y-79230000D01*
X9381000Y-80790000D02*
X9381000Y-81917000D01*
X9381000Y-78103000D02*
X9381000Y-79230000D01*
X9341000Y-80790000D02*
X9341000Y-81933000D01*
X9341000Y-78087000D02*
X9341000Y-79230000D01*
X9300000Y-80790000D02*
X9300000Y-81947000D01*
X9300000Y-78073000D02*
X9300000Y-79230000D01*
X9260000Y-80790000D02*
X9260000Y-81960000D01*
X9260000Y-78060000D02*
X9260000Y-79230000D01*
X9220000Y-80790000D02*
X9220000Y-81973000D01*
X9220000Y-78047000D02*
X9220000Y-79230000D01*
X9180000Y-80790000D02*
X9180000Y-81984000D01*
X9180000Y-78036000D02*
X9180000Y-79230000D01*
X9140000Y-80790000D02*
X9140000Y-81995000D01*
X9140000Y-78025000D02*
X9140000Y-79230000D01*
X9100000Y-80790000D02*
X9100000Y-82005000D01*
X9100000Y-78015000D02*
X9100000Y-79230000D01*
X9060000Y-80790000D02*
X9060000Y-82014000D01*
X9060000Y-78006000D02*
X9060000Y-79230000D01*
X9020000Y-80790000D02*
X9020000Y-82022000D01*
X9020000Y-77998000D02*
X9020000Y-79230000D01*
X8980000Y-80790000D02*
X8980000Y-82029000D01*
X8980000Y-77991000D02*
X8980000Y-79230000D01*
X8940000Y-80790000D02*
X8940000Y-82036000D01*
X8940000Y-77984000D02*
X8940000Y-79230000D01*
X8900000Y-80790000D02*
X8900000Y-82042000D01*
X8900000Y-77978000D02*
X8900000Y-79230000D01*
X8860000Y-80790000D02*
X8860000Y-82047000D01*
X8860000Y-77973000D02*
X8860000Y-79230000D01*
X8820000Y-77969000D02*
X8820000Y-82051000D01*
X8780000Y-77966000D02*
X8780000Y-82054000D01*
X8740000Y-77963000D02*
X8740000Y-82057000D01*
X8700000Y-77961000D02*
X8700000Y-82059000D01*
X8660000Y-77960000D02*
X8660000Y-82060000D01*
X8620000Y-77960000D02*
X8620000Y-82060000D01*
X10466436Y-79030830D02*
G75*
G03*
X6774004Y-79030000I-1846436J-979170D01*
G01*
X10466436Y-80989170D02*
G75*
G02*
X6774004Y-80990000I-1846436J979170D01*
G01*
X10466436Y-80989170D02*
G75*
G03*
X10465996Y-79030000I-1846436J979170D01*
G01*
X18400000Y-70815000D02*
X19700000Y-70815000D01*
X19050000Y-71415000D02*
X19050000Y-70215000D01*
X18804000Y-63384000D02*
X19296000Y-63384000D01*
X18452000Y-63424000D02*
X19648000Y-63424000D01*
X18236000Y-63464000D02*
X19864000Y-63464000D01*
X18067000Y-63504000D02*
X20033000Y-63504000D01*
X17923000Y-63544000D02*
X20177000Y-63544000D01*
X17796000Y-63584000D02*
X20304000Y-63584000D01*
X17681000Y-63624000D02*
X20419000Y-63624000D01*
X17577000Y-63664000D02*
X20523000Y-63664000D01*
X17480000Y-63704000D02*
X20620000Y-63704000D01*
X17390000Y-63744000D02*
X20710000Y-63744000D01*
X17305000Y-63784000D02*
X20795000Y-63784000D01*
X17224000Y-63824000D02*
X20876000Y-63824000D01*
X17148000Y-63864000D02*
X20952000Y-63864000D01*
X17076000Y-63904000D02*
X21024000Y-63904000D01*
X17007000Y-63944000D02*
X21093000Y-63944000D01*
X16941000Y-63984000D02*
X21159000Y-63984000D01*
X16877000Y-64024000D02*
X21223000Y-64024000D01*
X16816000Y-64064000D02*
X21284000Y-64064000D01*
X16757000Y-64104000D02*
X21343000Y-64104000D01*
X16701000Y-64144000D02*
X21399000Y-64144000D01*
X16646000Y-64184000D02*
X21454000Y-64184000D01*
X16593000Y-64224000D02*
X21507000Y-64224000D01*
X16542000Y-64264000D02*
X21558000Y-64264000D01*
X16493000Y-64304000D02*
X21607000Y-64304000D01*
X16445000Y-64344000D02*
X21655000Y-64344000D01*
X16398000Y-64384000D02*
X21702000Y-64384000D01*
X16353000Y-64424000D02*
X21747000Y-64424000D01*
X16310000Y-64464000D02*
X21790000Y-64464000D01*
X16267000Y-64504000D02*
X21833000Y-64504000D01*
X16226000Y-64544000D02*
X21874000Y-64544000D01*
X16185000Y-64584000D02*
X21915000Y-64584000D01*
X16146000Y-64624000D02*
X21954000Y-64624000D01*
X16108000Y-64664000D02*
X21992000Y-64664000D01*
X16071000Y-64704000D02*
X22029000Y-64704000D01*
X20030000Y-64744000D02*
X22065000Y-64744000D01*
X16035000Y-64744000D02*
X18070000Y-64744000D01*
X20030000Y-64784000D02*
X22100000Y-64784000D01*
X16000000Y-64784000D02*
X18070000Y-64784000D01*
X20030000Y-64824000D02*
X22134000Y-64824000D01*
X15966000Y-64824000D02*
X18070000Y-64824000D01*
X20030000Y-64864000D02*
X22168000Y-64864000D01*
X15932000Y-64864000D02*
X18070000Y-64864000D01*
X20030000Y-64904000D02*
X22200000Y-64904000D01*
X15900000Y-64904000D02*
X18070000Y-64904000D01*
X20030000Y-64944000D02*
X22232000Y-64944000D01*
X15868000Y-64944000D02*
X18070000Y-64944000D01*
X20030000Y-64984000D02*
X22263000Y-64984000D01*
X15837000Y-64984000D02*
X18070000Y-64984000D01*
X20030000Y-65024000D02*
X22293000Y-65024000D01*
X15807000Y-65024000D02*
X18070000Y-65024000D01*
X20030000Y-65064000D02*
X22322000Y-65064000D01*
X15778000Y-65064000D02*
X18070000Y-65064000D01*
X20030000Y-65104000D02*
X22351000Y-65104000D01*
X15749000Y-65104000D02*
X18070000Y-65104000D01*
X20030000Y-65144000D02*
X22379000Y-65144000D01*
X15721000Y-65144000D02*
X18070000Y-65144000D01*
X20030000Y-65184000D02*
X22406000Y-65184000D01*
X15694000Y-65184000D02*
X18070000Y-65184000D01*
X20030000Y-65224000D02*
X22433000Y-65224000D01*
X15667000Y-65224000D02*
X18070000Y-65224000D01*
X20030000Y-65264000D02*
X22458000Y-65264000D01*
X15642000Y-65264000D02*
X18070000Y-65264000D01*
X20030000Y-65304000D02*
X22484000Y-65304000D01*
X15616000Y-65304000D02*
X18070000Y-65304000D01*
X20030000Y-65344000D02*
X22508000Y-65344000D01*
X15592000Y-65344000D02*
X18070000Y-65344000D01*
X20030000Y-65384000D02*
X22532000Y-65384000D01*
X15568000Y-65384000D02*
X18070000Y-65384000D01*
X20030000Y-65424000D02*
X22555000Y-65424000D01*
X15545000Y-65424000D02*
X18070000Y-65424000D01*
X20030000Y-65464000D02*
X22578000Y-65464000D01*
X15522000Y-65464000D02*
X18070000Y-65464000D01*
X20030000Y-65504000D02*
X22600000Y-65504000D01*
X15500000Y-65504000D02*
X18070000Y-65504000D01*
X20030000Y-65544000D02*
X22622000Y-65544000D01*
X15478000Y-65544000D02*
X18070000Y-65544000D01*
X20030000Y-65584000D02*
X22643000Y-65584000D01*
X15457000Y-65584000D02*
X18070000Y-65584000D01*
X20030000Y-65624000D02*
X22663000Y-65624000D01*
X15437000Y-65624000D02*
X18070000Y-65624000D01*
X20030000Y-65664000D02*
X22683000Y-65664000D01*
X15417000Y-65664000D02*
X18070000Y-65664000D01*
X20030000Y-65704000D02*
X22702000Y-65704000D01*
X15398000Y-65704000D02*
X18070000Y-65704000D01*
X20030000Y-65744000D02*
X22721000Y-65744000D01*
X15379000Y-65744000D02*
X18070000Y-65744000D01*
X20030000Y-65784000D02*
X22740000Y-65784000D01*
X15360000Y-65784000D02*
X18070000Y-65784000D01*
X20030000Y-65824000D02*
X22757000Y-65824000D01*
X15343000Y-65824000D02*
X18070000Y-65824000D01*
X20030000Y-65864000D02*
X22775000Y-65864000D01*
X15325000Y-65864000D02*
X18070000Y-65864000D01*
X20030000Y-65904000D02*
X22791000Y-65904000D01*
X15309000Y-65904000D02*
X18070000Y-65904000D01*
X20030000Y-65944000D02*
X22808000Y-65944000D01*
X15292000Y-65944000D02*
X18070000Y-65944000D01*
X20030000Y-65984000D02*
X22823000Y-65984000D01*
X15277000Y-65984000D02*
X18070000Y-65984000D01*
X20030000Y-66024000D02*
X22839000Y-66024000D01*
X15261000Y-66024000D02*
X18070000Y-66024000D01*
X20030000Y-66064000D02*
X22853000Y-66064000D01*
X15247000Y-66064000D02*
X18070000Y-66064000D01*
X20030000Y-66104000D02*
X22868000Y-66104000D01*
X15232000Y-66104000D02*
X18070000Y-66104000D01*
X20030000Y-66144000D02*
X22882000Y-66144000D01*
X15218000Y-66144000D02*
X18070000Y-66144000D01*
X20030000Y-66184000D02*
X22895000Y-66184000D01*
X15205000Y-66184000D02*
X18070000Y-66184000D01*
X20030000Y-66224000D02*
X22908000Y-66224000D01*
X15192000Y-66224000D02*
X18070000Y-66224000D01*
X20030000Y-66264000D02*
X22920000Y-66264000D01*
X15180000Y-66264000D02*
X18070000Y-66264000D01*
X20030000Y-66304000D02*
X22933000Y-66304000D01*
X15167000Y-66304000D02*
X18070000Y-66304000D01*
X20030000Y-66344000D02*
X22944000Y-66344000D01*
X15156000Y-66344000D02*
X18070000Y-66344000D01*
X20030000Y-66384000D02*
X22955000Y-66384000D01*
X15145000Y-66384000D02*
X18070000Y-66384000D01*
X20030000Y-66424000D02*
X22966000Y-66424000D01*
X15134000Y-66424000D02*
X18070000Y-66424000D01*
X20030000Y-66464000D02*
X22976000Y-66464000D01*
X15124000Y-66464000D02*
X18070000Y-66464000D01*
X20030000Y-66504000D02*
X22986000Y-66504000D01*
X15114000Y-66504000D02*
X18070000Y-66504000D01*
X20030000Y-66544000D02*
X22996000Y-66544000D01*
X15104000Y-66544000D02*
X18070000Y-66544000D01*
X20030000Y-66584000D02*
X23005000Y-66584000D01*
X15095000Y-66584000D02*
X18070000Y-66584000D01*
X20030000Y-66624000D02*
X23013000Y-66624000D01*
X15087000Y-66624000D02*
X18070000Y-66624000D01*
X20030000Y-66664000D02*
X23021000Y-66664000D01*
X15079000Y-66664000D02*
X18070000Y-66664000D01*
X15071000Y-66704000D02*
X23029000Y-66704000D01*
X15063000Y-66744000D02*
X23037000Y-66744000D01*
X15056000Y-66785000D02*
X23044000Y-66785000D01*
X15050000Y-66825000D02*
X23050000Y-66825000D01*
X15044000Y-66865000D02*
X23056000Y-66865000D01*
X15038000Y-66905000D02*
X23062000Y-66905000D01*
X15033000Y-66945000D02*
X23067000Y-66945000D01*
X15028000Y-66985000D02*
X23072000Y-66985000D01*
X15023000Y-67025000D02*
X23077000Y-67025000D01*
X15019000Y-67065000D02*
X23081000Y-67065000D01*
X15015000Y-67105000D02*
X23085000Y-67105000D01*
X15012000Y-67145000D02*
X23088000Y-67145000D01*
X15009000Y-67185000D02*
X23091000Y-67185000D01*
X15007000Y-67225000D02*
X23093000Y-67225000D01*
X15004000Y-67265000D02*
X23096000Y-67265000D01*
X15003000Y-67305000D02*
X23097000Y-67305000D01*
X15001000Y-67345000D02*
X23099000Y-67345000D01*
X15000000Y-67385000D02*
X23100000Y-67385000D01*
X15000000Y-67425000D02*
X23100000Y-67425000D01*
X15000000Y-67465000D02*
X23100000Y-67465000D01*
X23140000Y-67465000D02*
G75*
G03*
X23140000Y-67465000I-4090000J0D01*
G01*
D10*
X26757380Y-22986904D02*
X27566904Y-22986904D01*
X27662142Y-22939285D01*
X27709761Y-22891666D01*
X27757380Y-22796428D01*
X27757380Y-22605952D01*
X27709761Y-22510714D01*
X27662142Y-22463095D01*
X27566904Y-22415476D01*
X26757380Y-22415476D01*
X26757380Y-22034523D02*
X26757380Y-21415476D01*
X27138333Y-21748809D01*
X27138333Y-21605952D01*
X27185952Y-21510714D01*
X27233571Y-21463095D01*
X27328809Y-21415476D01*
X27566904Y-21415476D01*
X27662142Y-21463095D01*
X27709761Y-21510714D01*
X27757380Y-21605952D01*
X27757380Y-21891666D01*
X27709761Y-21986904D01*
X27662142Y-22034523D01*
X81240380Y-92535333D02*
X81954666Y-92535333D01*
X82097523Y-92582952D01*
X82192761Y-92678190D01*
X82240380Y-92821047D01*
X82240380Y-92916285D01*
X81335619Y-92106761D02*
X81288000Y-92059142D01*
X81240380Y-91963904D01*
X81240380Y-91725809D01*
X81288000Y-91630571D01*
X81335619Y-91582952D01*
X81430857Y-91535333D01*
X81526095Y-91535333D01*
X81668952Y-91582952D01*
X82240380Y-92154380D01*
X82240380Y-91535333D01*
X81240380Y-156543333D02*
X81954666Y-156543333D01*
X82097523Y-156590952D01*
X82192761Y-156686190D01*
X82240380Y-156829047D01*
X82240380Y-156924285D01*
X81240380Y-156162380D02*
X81240380Y-155543333D01*
X81621333Y-155876666D01*
X81621333Y-155733809D01*
X81668952Y-155638571D01*
X81716571Y-155590952D01*
X81811809Y-155543333D01*
X82049904Y-155543333D01*
X82145142Y-155590952D01*
X82192761Y-155638571D01*
X82240380Y-155733809D01*
X82240380Y-156019523D01*
X82192761Y-156114761D01*
X82145142Y-156162380D01*
X81240380Y-28273333D02*
X81954666Y-28273333D01*
X82097523Y-28320952D01*
X82192761Y-28416190D01*
X82240380Y-28559047D01*
X82240380Y-28654285D01*
X82240380Y-27273333D02*
X82240380Y-27844761D01*
X82240380Y-27559047D02*
X81240380Y-27559047D01*
X81383238Y-27654285D01*
X81478476Y-27749523D01*
X81526095Y-27844761D01*
X50061904Y-110434380D02*
X50061904Y-109434380D01*
X50633333Y-110434380D02*
X50204761Y-109862952D01*
X50633333Y-109434380D02*
X50061904Y-110005809D01*
X50966666Y-109434380D02*
X51585714Y-109434380D01*
X51252380Y-109815333D01*
X51395238Y-109815333D01*
X51490476Y-109862952D01*
X51538095Y-109910571D01*
X51585714Y-110005809D01*
X51585714Y-110243904D01*
X51538095Y-110339142D01*
X51490476Y-110386761D01*
X51395238Y-110434380D01*
X51109523Y-110434380D01*
X51014285Y-110386761D01*
X50966666Y-110339142D01*
X50061904Y-88844380D02*
X50061904Y-87844380D01*
X50633333Y-88844380D02*
X50204761Y-88272952D01*
X50633333Y-87844380D02*
X50061904Y-88415809D01*
X51490476Y-88177714D02*
X51490476Y-88844380D01*
X51252380Y-87796761D02*
X51014285Y-88511047D01*
X51633333Y-88511047D01*
X50061904Y-174442380D02*
X50061904Y-173442380D01*
X50633333Y-174442380D02*
X50204761Y-173870952D01*
X50633333Y-173442380D02*
X50061904Y-174013809D01*
X51538095Y-173442380D02*
X51061904Y-173442380D01*
X51014285Y-173918571D01*
X51061904Y-173870952D01*
X51157142Y-173823333D01*
X51395238Y-173823333D01*
X51490476Y-173870952D01*
X51538095Y-173918571D01*
X51585714Y-174013809D01*
X51585714Y-174251904D01*
X51538095Y-174347142D01*
X51490476Y-174394761D01*
X51395238Y-174442380D01*
X51157142Y-174442380D01*
X51061904Y-174394761D01*
X51014285Y-174347142D01*
X50061904Y-152852380D02*
X50061904Y-151852380D01*
X50633333Y-152852380D02*
X50204761Y-152280952D01*
X50633333Y-151852380D02*
X50061904Y-152423809D01*
X51490476Y-151852380D02*
X51300000Y-151852380D01*
X51204761Y-151900000D01*
X51157142Y-151947619D01*
X51061904Y-152090476D01*
X51014285Y-152280952D01*
X51014285Y-152661904D01*
X51061904Y-152757142D01*
X51109523Y-152804761D01*
X51204761Y-152852380D01*
X51395238Y-152852380D01*
X51490476Y-152804761D01*
X51538095Y-152757142D01*
X51585714Y-152661904D01*
X51585714Y-152423809D01*
X51538095Y-152328571D01*
X51490476Y-152280952D01*
X51395238Y-152233333D01*
X51204761Y-152233333D01*
X51109523Y-152280952D01*
X51061904Y-152328571D01*
X51014285Y-152423809D01*
X50061904Y-24582380D02*
X50061904Y-23582380D01*
X50633333Y-24582380D02*
X50204761Y-24010952D01*
X50633333Y-23582380D02*
X50061904Y-24153809D01*
X51014285Y-23677619D02*
X51061904Y-23630000D01*
X51157142Y-23582380D01*
X51395238Y-23582380D01*
X51490476Y-23630000D01*
X51538095Y-23677619D01*
X51585714Y-23772857D01*
X51585714Y-23868095D01*
X51538095Y-24010952D01*
X50966666Y-24582380D01*
X51585714Y-24582380D01*
X50061904Y-46172380D02*
X50061904Y-45172380D01*
X50633333Y-46172380D02*
X50204761Y-45600952D01*
X50633333Y-45172380D02*
X50061904Y-45743809D01*
X51585714Y-46172380D02*
X51014285Y-46172380D01*
X51300000Y-46172380D02*
X51300000Y-45172380D01*
X51204761Y-45315238D01*
X51109523Y-45410476D01*
X51014285Y-45458095D01*
X42108380Y-25788666D02*
X41632190Y-26122000D01*
X42108380Y-26360095D02*
X41108380Y-26360095D01*
X41108380Y-25979142D01*
X41156000Y-25883904D01*
X41203619Y-25836285D01*
X41298857Y-25788666D01*
X41441714Y-25788666D01*
X41536952Y-25836285D01*
X41584571Y-25883904D01*
X41632190Y-25979142D01*
X41632190Y-26360095D01*
X42108380Y-24836285D02*
X42108380Y-25407714D01*
X42108380Y-25122000D02*
X41108380Y-25122000D01*
X41251238Y-25217238D01*
X41346476Y-25312476D01*
X41394095Y-25407714D01*
X41854380Y-47918666D02*
X41378190Y-48252000D01*
X41854380Y-48490095D02*
X40854380Y-48490095D01*
X40854380Y-48109142D01*
X40902000Y-48013904D01*
X40949619Y-47966285D01*
X41044857Y-47918666D01*
X41187714Y-47918666D01*
X41282952Y-47966285D01*
X41330571Y-48013904D01*
X41378190Y-48109142D01*
X41378190Y-48490095D01*
X40949619Y-47537714D02*
X40902000Y-47490095D01*
X40854380Y-47394857D01*
X40854380Y-47156761D01*
X40902000Y-47061523D01*
X40949619Y-47013904D01*
X41044857Y-46966285D01*
X41140095Y-46966285D01*
X41282952Y-47013904D01*
X41854380Y-47585333D01*
X41854380Y-46966285D01*
X41854380Y-90336666D02*
X41378190Y-90670000D01*
X41854380Y-90908095D02*
X40854380Y-90908095D01*
X40854380Y-90527142D01*
X40902000Y-90431904D01*
X40949619Y-90384285D01*
X41044857Y-90336666D01*
X41187714Y-90336666D01*
X41282952Y-90384285D01*
X41330571Y-90431904D01*
X41378190Y-90527142D01*
X41378190Y-90908095D01*
X40854380Y-90003333D02*
X40854380Y-89384285D01*
X41235333Y-89717619D01*
X41235333Y-89574761D01*
X41282952Y-89479523D01*
X41330571Y-89431904D01*
X41425809Y-89384285D01*
X41663904Y-89384285D01*
X41759142Y-89431904D01*
X41806761Y-89479523D01*
X41854380Y-89574761D01*
X41854380Y-89860476D01*
X41806761Y-89955714D01*
X41759142Y-90003333D01*
X41854380Y-111926666D02*
X41378190Y-112260000D01*
X41854380Y-112498095D02*
X40854380Y-112498095D01*
X40854380Y-112117142D01*
X40902000Y-112021904D01*
X40949619Y-111974285D01*
X41044857Y-111926666D01*
X41187714Y-111926666D01*
X41282952Y-111974285D01*
X41330571Y-112021904D01*
X41378190Y-112117142D01*
X41378190Y-112498095D01*
X41187714Y-111069523D02*
X41854380Y-111069523D01*
X40806761Y-111307619D02*
X41521047Y-111545714D01*
X41521047Y-110926666D01*
X41854380Y-154598666D02*
X41378190Y-154932000D01*
X41854380Y-155170095D02*
X40854380Y-155170095D01*
X40854380Y-154789142D01*
X40902000Y-154693904D01*
X40949619Y-154646285D01*
X41044857Y-154598666D01*
X41187714Y-154598666D01*
X41282952Y-154646285D01*
X41330571Y-154693904D01*
X41378190Y-154789142D01*
X41378190Y-155170095D01*
X40854380Y-153693904D02*
X40854380Y-154170095D01*
X41330571Y-154217714D01*
X41282952Y-154170095D01*
X41235333Y-154074857D01*
X41235333Y-153836761D01*
X41282952Y-153741523D01*
X41330571Y-153693904D01*
X41425809Y-153646285D01*
X41663904Y-153646285D01*
X41759142Y-153693904D01*
X41806761Y-153741523D01*
X41854380Y-153836761D01*
X41854380Y-154074857D01*
X41806761Y-154170095D01*
X41759142Y-154217714D01*
X41854380Y-175934666D02*
X41378190Y-176268000D01*
X41854380Y-176506095D02*
X40854380Y-176506095D01*
X40854380Y-176125142D01*
X40902000Y-176029904D01*
X40949619Y-175982285D01*
X41044857Y-175934666D01*
X41187714Y-175934666D01*
X41282952Y-175982285D01*
X41330571Y-176029904D01*
X41378190Y-176125142D01*
X41378190Y-176506095D01*
X40854380Y-175077523D02*
X40854380Y-175268000D01*
X40902000Y-175363238D01*
X40949619Y-175410857D01*
X41092476Y-175506095D01*
X41282952Y-175553714D01*
X41663904Y-175553714D01*
X41759142Y-175506095D01*
X41806761Y-175458476D01*
X41854380Y-175363238D01*
X41854380Y-175172761D01*
X41806761Y-175077523D01*
X41759142Y-175029904D01*
X41663904Y-174982285D01*
X41425809Y-174982285D01*
X41330571Y-175029904D01*
X41282952Y-175077523D01*
X41235333Y-175172761D01*
X41235333Y-175363238D01*
X41282952Y-175458476D01*
X41330571Y-175506095D01*
X41425809Y-175553714D01*
X42457619Y-14319238D02*
X42410000Y-14414476D01*
X42314761Y-14509714D01*
X42171904Y-14652571D01*
X42124285Y-14747809D01*
X42124285Y-14843047D01*
X42362380Y-14795428D02*
X42314761Y-14890666D01*
X42219523Y-14985904D01*
X42029047Y-15033523D01*
X41695714Y-15033523D01*
X41505238Y-14985904D01*
X41410000Y-14890666D01*
X41362380Y-14795428D01*
X41362380Y-14604952D01*
X41410000Y-14509714D01*
X41505238Y-14414476D01*
X41695714Y-14366857D01*
X42029047Y-14366857D01*
X42219523Y-14414476D01*
X42314761Y-14509714D01*
X42362380Y-14604952D01*
X42362380Y-14795428D01*
X42362380Y-13414476D02*
X42362380Y-13985904D01*
X42362380Y-13700190D02*
X41362380Y-13700190D01*
X41505238Y-13795428D01*
X41600476Y-13890666D01*
X41648095Y-13985904D01*
X42243619Y-36163238D02*
X42196000Y-36258476D01*
X42100761Y-36353714D01*
X41957904Y-36496571D01*
X41910285Y-36591809D01*
X41910285Y-36687047D01*
X42148380Y-36639428D02*
X42100761Y-36734666D01*
X42005523Y-36829904D01*
X41815047Y-36877523D01*
X41481714Y-36877523D01*
X41291238Y-36829904D01*
X41196000Y-36734666D01*
X41148380Y-36639428D01*
X41148380Y-36448952D01*
X41196000Y-36353714D01*
X41291238Y-36258476D01*
X41481714Y-36210857D01*
X41815047Y-36210857D01*
X42005523Y-36258476D01*
X42100761Y-36353714D01*
X42148380Y-36448952D01*
X42148380Y-36639428D01*
X41243619Y-35829904D02*
X41196000Y-35782285D01*
X41148380Y-35687047D01*
X41148380Y-35448952D01*
X41196000Y-35353714D01*
X41243619Y-35306095D01*
X41338857Y-35258476D01*
X41434095Y-35258476D01*
X41576952Y-35306095D01*
X42148380Y-35877523D01*
X42148380Y-35258476D01*
X42243619Y-78581238D02*
X42196000Y-78676476D01*
X42100761Y-78771714D01*
X41957904Y-78914571D01*
X41910285Y-79009809D01*
X41910285Y-79105047D01*
X42148380Y-79057428D02*
X42100761Y-79152666D01*
X42005523Y-79247904D01*
X41815047Y-79295523D01*
X41481714Y-79295523D01*
X41291238Y-79247904D01*
X41196000Y-79152666D01*
X41148380Y-79057428D01*
X41148380Y-78866952D01*
X41196000Y-78771714D01*
X41291238Y-78676476D01*
X41481714Y-78628857D01*
X41815047Y-78628857D01*
X42005523Y-78676476D01*
X42100761Y-78771714D01*
X42148380Y-78866952D01*
X42148380Y-79057428D01*
X41148380Y-78295523D02*
X41148380Y-77676476D01*
X41529333Y-78009809D01*
X41529333Y-77866952D01*
X41576952Y-77771714D01*
X41624571Y-77724095D01*
X41719809Y-77676476D01*
X41957904Y-77676476D01*
X42053142Y-77724095D01*
X42100761Y-77771714D01*
X42148380Y-77866952D01*
X42148380Y-78152666D01*
X42100761Y-78247904D01*
X42053142Y-78295523D01*
X42243619Y-100425238D02*
X42196000Y-100520476D01*
X42100761Y-100615714D01*
X41957904Y-100758571D01*
X41910285Y-100853809D01*
X41910285Y-100949047D01*
X42148380Y-100901428D02*
X42100761Y-100996666D01*
X42005523Y-101091904D01*
X41815047Y-101139523D01*
X41481714Y-101139523D01*
X41291238Y-101091904D01*
X41196000Y-100996666D01*
X41148380Y-100901428D01*
X41148380Y-100710952D01*
X41196000Y-100615714D01*
X41291238Y-100520476D01*
X41481714Y-100472857D01*
X41815047Y-100472857D01*
X42005523Y-100520476D01*
X42100761Y-100615714D01*
X42148380Y-100710952D01*
X42148380Y-100901428D01*
X41481714Y-99615714D02*
X42148380Y-99615714D01*
X41100761Y-99853809D02*
X41815047Y-100091904D01*
X41815047Y-99472857D01*
X42497619Y-142589238D02*
X42450000Y-142684476D01*
X42354761Y-142779714D01*
X42211904Y-142922571D01*
X42164285Y-143017809D01*
X42164285Y-143113047D01*
X42402380Y-143065428D02*
X42354761Y-143160666D01*
X42259523Y-143255904D01*
X42069047Y-143303523D01*
X41735714Y-143303523D01*
X41545238Y-143255904D01*
X41450000Y-143160666D01*
X41402380Y-143065428D01*
X41402380Y-142874952D01*
X41450000Y-142779714D01*
X41545238Y-142684476D01*
X41735714Y-142636857D01*
X42069047Y-142636857D01*
X42259523Y-142684476D01*
X42354761Y-142779714D01*
X42402380Y-142874952D01*
X42402380Y-143065428D01*
X41402380Y-141732095D02*
X41402380Y-142208285D01*
X41878571Y-142255904D01*
X41830952Y-142208285D01*
X41783333Y-142113047D01*
X41783333Y-141874952D01*
X41830952Y-141779714D01*
X41878571Y-141732095D01*
X41973809Y-141684476D01*
X42211904Y-141684476D01*
X42307142Y-141732095D01*
X42354761Y-141779714D01*
X42402380Y-141874952D01*
X42402380Y-142113047D01*
X42354761Y-142208285D01*
X42307142Y-142255904D01*
X42243619Y-164179238D02*
X42196000Y-164274476D01*
X42100761Y-164369714D01*
X41957904Y-164512571D01*
X41910285Y-164607809D01*
X41910285Y-164703047D01*
X42148380Y-164655428D02*
X42100761Y-164750666D01*
X42005523Y-164845904D01*
X41815047Y-164893523D01*
X41481714Y-164893523D01*
X41291238Y-164845904D01*
X41196000Y-164750666D01*
X41148380Y-164655428D01*
X41148380Y-164464952D01*
X41196000Y-164369714D01*
X41291238Y-164274476D01*
X41481714Y-164226857D01*
X41815047Y-164226857D01*
X42005523Y-164274476D01*
X42100761Y-164369714D01*
X42148380Y-164464952D01*
X42148380Y-164655428D01*
X41148380Y-163369714D02*
X41148380Y-163560190D01*
X41196000Y-163655428D01*
X41243619Y-163703047D01*
X41386476Y-163798285D01*
X41576952Y-163845904D01*
X41957904Y-163845904D01*
X42053142Y-163798285D01*
X42100761Y-163750666D01*
X42148380Y-163655428D01*
X42148380Y-163464952D01*
X42100761Y-163369714D01*
X42053142Y-163322095D01*
X41957904Y-163274476D01*
X41719809Y-163274476D01*
X41624571Y-163322095D01*
X41576952Y-163369714D01*
X41529333Y-163464952D01*
X41529333Y-163655428D01*
X41576952Y-163750666D01*
X41624571Y-163798285D01*
X41719809Y-163845904D01*
X45410380Y-26392095D02*
X44410380Y-26392095D01*
X44410380Y-26154000D01*
X44458000Y-26011142D01*
X44553238Y-25915904D01*
X44648476Y-25868285D01*
X44838952Y-25820666D01*
X44981809Y-25820666D01*
X45172285Y-25868285D01*
X45267523Y-25915904D01*
X45362761Y-26011142D01*
X45410380Y-26154000D01*
X45410380Y-26392095D01*
X45410380Y-24868285D02*
X45410380Y-25439714D01*
X45410380Y-25154000D02*
X44410380Y-25154000D01*
X44553238Y-25249238D01*
X44648476Y-25344476D01*
X44696095Y-25439714D01*
X45156380Y-48490095D02*
X44156380Y-48490095D01*
X44156380Y-48252000D01*
X44204000Y-48109142D01*
X44299238Y-48013904D01*
X44394476Y-47966285D01*
X44584952Y-47918666D01*
X44727809Y-47918666D01*
X44918285Y-47966285D01*
X45013523Y-48013904D01*
X45108761Y-48109142D01*
X45156380Y-48252000D01*
X45156380Y-48490095D01*
X44251619Y-47537714D02*
X44204000Y-47490095D01*
X44156380Y-47394857D01*
X44156380Y-47156761D01*
X44204000Y-47061523D01*
X44251619Y-47013904D01*
X44346857Y-46966285D01*
X44442095Y-46966285D01*
X44584952Y-47013904D01*
X45156380Y-47585333D01*
X45156380Y-46966285D01*
X45156380Y-90908095D02*
X44156380Y-90908095D01*
X44156380Y-90670000D01*
X44204000Y-90527142D01*
X44299238Y-90431904D01*
X44394476Y-90384285D01*
X44584952Y-90336666D01*
X44727809Y-90336666D01*
X44918285Y-90384285D01*
X45013523Y-90431904D01*
X45108761Y-90527142D01*
X45156380Y-90670000D01*
X45156380Y-90908095D01*
X44156380Y-90003333D02*
X44156380Y-89384285D01*
X44537333Y-89717619D01*
X44537333Y-89574761D01*
X44584952Y-89479523D01*
X44632571Y-89431904D01*
X44727809Y-89384285D01*
X44965904Y-89384285D01*
X45061142Y-89431904D01*
X45108761Y-89479523D01*
X45156380Y-89574761D01*
X45156380Y-89860476D01*
X45108761Y-89955714D01*
X45061142Y-90003333D01*
X45156380Y-112498095D02*
X44156380Y-112498095D01*
X44156380Y-112260000D01*
X44204000Y-112117142D01*
X44299238Y-112021904D01*
X44394476Y-111974285D01*
X44584952Y-111926666D01*
X44727809Y-111926666D01*
X44918285Y-111974285D01*
X45013523Y-112021904D01*
X45108761Y-112117142D01*
X45156380Y-112260000D01*
X45156380Y-112498095D01*
X44489714Y-111069523D02*
X45156380Y-111069523D01*
X44108761Y-111307619D02*
X44823047Y-111545714D01*
X44823047Y-110926666D01*
X45410380Y-155170095D02*
X44410380Y-155170095D01*
X44410380Y-154932000D01*
X44458000Y-154789142D01*
X44553238Y-154693904D01*
X44648476Y-154646285D01*
X44838952Y-154598666D01*
X44981809Y-154598666D01*
X45172285Y-154646285D01*
X45267523Y-154693904D01*
X45362761Y-154789142D01*
X45410380Y-154932000D01*
X45410380Y-155170095D01*
X44410380Y-153693904D02*
X44410380Y-154170095D01*
X44886571Y-154217714D01*
X44838952Y-154170095D01*
X44791333Y-154074857D01*
X44791333Y-153836761D01*
X44838952Y-153741523D01*
X44886571Y-153693904D01*
X44981809Y-153646285D01*
X45219904Y-153646285D01*
X45315142Y-153693904D01*
X45362761Y-153741523D01*
X45410380Y-153836761D01*
X45410380Y-154074857D01*
X45362761Y-154170095D01*
X45315142Y-154217714D01*
X45410380Y-176506095D02*
X44410380Y-176506095D01*
X44410380Y-176268000D01*
X44458000Y-176125142D01*
X44553238Y-176029904D01*
X44648476Y-175982285D01*
X44838952Y-175934666D01*
X44981809Y-175934666D01*
X45172285Y-175982285D01*
X45267523Y-176029904D01*
X45362761Y-176125142D01*
X45410380Y-176268000D01*
X45410380Y-176506095D01*
X44410380Y-175077523D02*
X44410380Y-175268000D01*
X44458000Y-175363238D01*
X44505619Y-175410857D01*
X44648476Y-175506095D01*
X44838952Y-175553714D01*
X45219904Y-175553714D01*
X45315142Y-175506095D01*
X45362761Y-175458476D01*
X45410380Y-175363238D01*
X45410380Y-175172761D01*
X45362761Y-175077523D01*
X45315142Y-175029904D01*
X45219904Y-174982285D01*
X44981809Y-174982285D01*
X44886571Y-175029904D01*
X44838952Y-175077523D01*
X44791333Y-175172761D01*
X44791333Y-175363238D01*
X44838952Y-175458476D01*
X44886571Y-175506095D01*
X44981809Y-175553714D01*
X16954666Y-98702761D02*
X17097523Y-98750380D01*
X17335619Y-98750380D01*
X17430857Y-98702761D01*
X17478476Y-98655142D01*
X17526095Y-98559904D01*
X17526095Y-98464666D01*
X17478476Y-98369428D01*
X17430857Y-98321809D01*
X17335619Y-98274190D01*
X17145142Y-98226571D01*
X17049904Y-98178952D01*
X17002285Y-98131333D01*
X16954666Y-98036095D01*
X16954666Y-97940857D01*
X17002285Y-97845619D01*
X17049904Y-97798000D01*
X17145142Y-97750380D01*
X17383238Y-97750380D01*
X17526095Y-97798000D01*
X17859428Y-97750380D02*
X18097523Y-98750380D01*
X18288000Y-98036095D01*
X18478476Y-98750380D01*
X18716571Y-97750380D01*
X19621333Y-98750380D02*
X19049904Y-98750380D01*
X19335619Y-98750380D02*
X19335619Y-97750380D01*
X19240380Y-97893238D01*
X19145142Y-97988476D01*
X19049904Y-98036095D01*
X22796666Y-98702761D02*
X22939523Y-98750380D01*
X23177619Y-98750380D01*
X23272857Y-98702761D01*
X23320476Y-98655142D01*
X23368095Y-98559904D01*
X23368095Y-98464666D01*
X23320476Y-98369428D01*
X23272857Y-98321809D01*
X23177619Y-98274190D01*
X22987142Y-98226571D01*
X22891904Y-98178952D01*
X22844285Y-98131333D01*
X22796666Y-98036095D01*
X22796666Y-97940857D01*
X22844285Y-97845619D01*
X22891904Y-97798000D01*
X22987142Y-97750380D01*
X23225238Y-97750380D01*
X23368095Y-97798000D01*
X23701428Y-97750380D02*
X23939523Y-98750380D01*
X24130000Y-98036095D01*
X24320476Y-98750380D01*
X24558571Y-97750380D01*
X24891904Y-97845619D02*
X24939523Y-97798000D01*
X25034761Y-97750380D01*
X25272857Y-97750380D01*
X25368095Y-97798000D01*
X25415714Y-97845619D01*
X25463333Y-97940857D01*
X25463333Y-98036095D01*
X25415714Y-98178952D01*
X24844285Y-98750380D01*
X25463333Y-98750380D01*
X28384666Y-98702761D02*
X28527523Y-98750380D01*
X28765619Y-98750380D01*
X28860857Y-98702761D01*
X28908476Y-98655142D01*
X28956095Y-98559904D01*
X28956095Y-98464666D01*
X28908476Y-98369428D01*
X28860857Y-98321809D01*
X28765619Y-98274190D01*
X28575142Y-98226571D01*
X28479904Y-98178952D01*
X28432285Y-98131333D01*
X28384666Y-98036095D01*
X28384666Y-97940857D01*
X28432285Y-97845619D01*
X28479904Y-97798000D01*
X28575142Y-97750380D01*
X28813238Y-97750380D01*
X28956095Y-97798000D01*
X29289428Y-97750380D02*
X29527523Y-98750380D01*
X29718000Y-98036095D01*
X29908476Y-98750380D01*
X30146571Y-97750380D01*
X30432285Y-97750380D02*
X31051333Y-97750380D01*
X30718000Y-98131333D01*
X30860857Y-98131333D01*
X30956095Y-98178952D01*
X31003714Y-98226571D01*
X31051333Y-98321809D01*
X31051333Y-98559904D01*
X31003714Y-98655142D01*
X30956095Y-98702761D01*
X30860857Y-98750380D01*
X30575142Y-98750380D01*
X30479904Y-98702761D01*
X30432285Y-98655142D01*
X17018095Y-32472380D02*
X17018095Y-33281904D01*
X17065714Y-33377142D01*
X17113333Y-33424761D01*
X17208571Y-33472380D01*
X17399047Y-33472380D01*
X17494285Y-33424761D01*
X17541904Y-33377142D01*
X17589523Y-33281904D01*
X17589523Y-32472380D01*
X18589523Y-33472380D02*
X18018095Y-33472380D01*
X18303809Y-33472380D02*
X18303809Y-32472380D01*
X18208571Y-32615238D01*
X18113333Y-32710476D01*
X18018095Y-32758095D01*
X5254761Y-47712380D02*
X5588095Y-48712380D01*
X5921428Y-47712380D01*
X6254761Y-48712380D02*
X6254761Y-47712380D01*
X6730952Y-48712380D02*
X6730952Y-47712380D01*
X7302380Y-48712380D01*
X7302380Y-47712380D01*
X6611904Y-45220000D02*
X6516666Y-45172380D01*
X6373809Y-45172380D01*
X6230952Y-45220000D01*
X6135714Y-45315238D01*
X6088095Y-45410476D01*
X6040476Y-45600952D01*
X6040476Y-45743809D01*
X6088095Y-45934285D01*
X6135714Y-46029523D01*
X6230952Y-46124761D01*
X6373809Y-46172380D01*
X6469047Y-46172380D01*
X6611904Y-46124761D01*
X6659523Y-46077142D01*
X6659523Y-45743809D01*
X6469047Y-45743809D01*
X5802380Y-43632380D02*
X5469047Y-43156190D01*
X5230952Y-43632380D02*
X5230952Y-42632380D01*
X5611904Y-42632380D01*
X5707142Y-42680000D01*
X5754761Y-42727619D01*
X5802380Y-42822857D01*
X5802380Y-42965714D01*
X5754761Y-43060952D01*
X5707142Y-43108571D01*
X5611904Y-43156190D01*
X5230952Y-43156190D01*
X6183333Y-43584761D02*
X6326190Y-43632380D01*
X6564285Y-43632380D01*
X6659523Y-43584761D01*
X6707142Y-43537142D01*
X6754761Y-43441904D01*
X6754761Y-43346666D01*
X6707142Y-43251428D01*
X6659523Y-43203809D01*
X6564285Y-43156190D01*
X6373809Y-43108571D01*
X6278571Y-43060952D01*
X6230952Y-43013333D01*
X6183333Y-42918095D01*
X6183333Y-42822857D01*
X6230952Y-42727619D01*
X6278571Y-42680000D01*
X6373809Y-42632380D01*
X6611904Y-42632380D01*
X6754761Y-42680000D01*
X7040476Y-42632380D02*
X7611904Y-42632380D01*
X7326190Y-43632380D02*
X7326190Y-42632380D01*
X5611904Y-40568571D02*
X5945238Y-40568571D01*
X6088095Y-41092380D02*
X5611904Y-41092380D01*
X5611904Y-40092380D01*
X6088095Y-40092380D01*
X6516666Y-41092380D02*
X6516666Y-40092380D01*
X7088095Y-41092380D01*
X7088095Y-40092380D01*
X5588095Y-37552380D02*
X6207142Y-37552380D01*
X5873809Y-37933333D01*
X6016666Y-37933333D01*
X6111904Y-37980952D01*
X6159523Y-38028571D01*
X6207142Y-38123809D01*
X6207142Y-38361904D01*
X6159523Y-38457142D01*
X6111904Y-38504761D01*
X6016666Y-38552380D01*
X5730952Y-38552380D01*
X5635714Y-38504761D01*
X5588095Y-38457142D01*
X6492857Y-37552380D02*
X6826190Y-38552380D01*
X7159523Y-37552380D01*
X6611904Y-35060000D02*
X6516666Y-35012380D01*
X6373809Y-35012380D01*
X6230952Y-35060000D01*
X6135714Y-35155238D01*
X6088095Y-35250476D01*
X6040476Y-35440952D01*
X6040476Y-35583809D01*
X6088095Y-35774285D01*
X6135714Y-35869523D01*
X6230952Y-35964761D01*
X6373809Y-36012380D01*
X6469047Y-36012380D01*
X6611904Y-35964761D01*
X6659523Y-35917142D01*
X6659523Y-35583809D01*
X6469047Y-35583809D01*
X5564285Y-33424761D02*
X5707142Y-33472380D01*
X5945238Y-33472380D01*
X6040476Y-33424761D01*
X6088095Y-33377142D01*
X6135714Y-33281904D01*
X6135714Y-33186666D01*
X6088095Y-33091428D01*
X6040476Y-33043809D01*
X5945238Y-32996190D01*
X5754761Y-32948571D01*
X5659523Y-32900952D01*
X5611904Y-32853333D01*
X5564285Y-32758095D01*
X5564285Y-32662857D01*
X5611904Y-32567619D01*
X5659523Y-32520000D01*
X5754761Y-32472380D01*
X5992857Y-32472380D01*
X6135714Y-32520000D01*
X6564285Y-33472380D02*
X6564285Y-32472380D01*
X7135714Y-33472380D02*
X6707142Y-32900952D01*
X7135714Y-32472380D02*
X6564285Y-33043809D01*
X5540476Y-30884761D02*
X5683333Y-30932380D01*
X5921428Y-30932380D01*
X6016666Y-30884761D01*
X6064285Y-30837142D01*
X6111904Y-30741904D01*
X6111904Y-30646666D01*
X6064285Y-30551428D01*
X6016666Y-30503809D01*
X5921428Y-30456190D01*
X5730952Y-30408571D01*
X5635714Y-30360952D01*
X5588095Y-30313333D01*
X5540476Y-30218095D01*
X5540476Y-30122857D01*
X5588095Y-30027619D01*
X5635714Y-29980000D01*
X5730952Y-29932380D01*
X5969047Y-29932380D01*
X6111904Y-29980000D01*
X6730952Y-29932380D02*
X6921428Y-29932380D01*
X7016666Y-29980000D01*
X7111904Y-30075238D01*
X7159523Y-30265714D01*
X7159523Y-30599047D01*
X7111904Y-30789523D01*
X7016666Y-30884761D01*
X6921428Y-30932380D01*
X6730952Y-30932380D01*
X6635714Y-30884761D01*
X6540476Y-30789523D01*
X6492857Y-30599047D01*
X6492857Y-30265714D01*
X6540476Y-30075238D01*
X6635714Y-29980000D01*
X6730952Y-29932380D01*
X5564285Y-28344761D02*
X5707142Y-28392380D01*
X5945238Y-28392380D01*
X6040476Y-28344761D01*
X6088095Y-28297142D01*
X6135714Y-28201904D01*
X6135714Y-28106666D01*
X6088095Y-28011428D01*
X6040476Y-27963809D01*
X5945238Y-27916190D01*
X5754761Y-27868571D01*
X5659523Y-27820952D01*
X5611904Y-27773333D01*
X5564285Y-27678095D01*
X5564285Y-27582857D01*
X5611904Y-27487619D01*
X5659523Y-27440000D01*
X5754761Y-27392380D01*
X5992857Y-27392380D01*
X6135714Y-27440000D01*
X7135714Y-28297142D02*
X7088095Y-28344761D01*
X6945238Y-28392380D01*
X6850000Y-28392380D01*
X6707142Y-28344761D01*
X6611904Y-28249523D01*
X6564285Y-28154285D01*
X6516666Y-27963809D01*
X6516666Y-27820952D01*
X6564285Y-27630476D01*
X6611904Y-27535238D01*
X6707142Y-27440000D01*
X6850000Y-27392380D01*
X6945238Y-27392380D01*
X7088095Y-27440000D01*
X7135714Y-27487619D01*
X5588095Y-25804761D02*
X5730952Y-25852380D01*
X5969047Y-25852380D01*
X6064285Y-25804761D01*
X6111904Y-25757142D01*
X6159523Y-25661904D01*
X6159523Y-25566666D01*
X6111904Y-25471428D01*
X6064285Y-25423809D01*
X5969047Y-25376190D01*
X5778571Y-25328571D01*
X5683333Y-25280952D01*
X5635714Y-25233333D01*
X5588095Y-25138095D01*
X5588095Y-25042857D01*
X5635714Y-24947619D01*
X5683333Y-24900000D01*
X5778571Y-24852380D01*
X6016666Y-24852380D01*
X6159523Y-24900000D01*
X7111904Y-25852380D02*
X6540476Y-25852380D01*
X6826190Y-25852380D02*
X6826190Y-24852380D01*
X6730952Y-24995238D01*
X6635714Y-25090476D01*
X6540476Y-25138095D01*
X5588095Y-23264761D02*
X5730952Y-23312380D01*
X5969047Y-23312380D01*
X6064285Y-23264761D01*
X6111904Y-23217142D01*
X6159523Y-23121904D01*
X6159523Y-23026666D01*
X6111904Y-22931428D01*
X6064285Y-22883809D01*
X5969047Y-22836190D01*
X5778571Y-22788571D01*
X5683333Y-22740952D01*
X5635714Y-22693333D01*
X5588095Y-22598095D01*
X5588095Y-22502857D01*
X5635714Y-22407619D01*
X5683333Y-22360000D01*
X5778571Y-22312380D01*
X6016666Y-22312380D01*
X6159523Y-22360000D01*
X6540476Y-22407619D02*
X6588095Y-22360000D01*
X6683333Y-22312380D01*
X6921428Y-22312380D01*
X7016666Y-22360000D01*
X7064285Y-22407619D01*
X7111904Y-22502857D01*
X7111904Y-22598095D01*
X7064285Y-22740952D01*
X6492857Y-23312380D01*
X7111904Y-23312380D01*
X5588095Y-20724761D02*
X5730952Y-20772380D01*
X5969047Y-20772380D01*
X6064285Y-20724761D01*
X6111904Y-20677142D01*
X6159523Y-20581904D01*
X6159523Y-20486666D01*
X6111904Y-20391428D01*
X6064285Y-20343809D01*
X5969047Y-20296190D01*
X5778571Y-20248571D01*
X5683333Y-20200952D01*
X5635714Y-20153333D01*
X5588095Y-20058095D01*
X5588095Y-19962857D01*
X5635714Y-19867619D01*
X5683333Y-19820000D01*
X5778571Y-19772380D01*
X6016666Y-19772380D01*
X6159523Y-19820000D01*
X6492857Y-19772380D02*
X7111904Y-19772380D01*
X6778571Y-20153333D01*
X6921428Y-20153333D01*
X7016666Y-20200952D01*
X7064285Y-20248571D01*
X7111904Y-20343809D01*
X7111904Y-20581904D01*
X7064285Y-20677142D01*
X7016666Y-20724761D01*
X6921428Y-20772380D01*
X6635714Y-20772380D01*
X6540476Y-20724761D01*
X6492857Y-20677142D01*
X5492857Y-17232380D02*
X5826190Y-18232380D01*
X6159523Y-17232380D01*
X6492857Y-17232380D02*
X6492857Y-18041904D01*
X6540476Y-18137142D01*
X6588095Y-18184761D01*
X6683333Y-18232380D01*
X6873809Y-18232380D01*
X6969047Y-18184761D01*
X7016666Y-18137142D01*
X7064285Y-18041904D01*
X7064285Y-17232380D01*
X6611904Y-14740000D02*
X6516666Y-14692380D01*
X6373809Y-14692380D01*
X6230952Y-14740000D01*
X6135714Y-14835238D01*
X6088095Y-14930476D01*
X6040476Y-15120952D01*
X6040476Y-15263809D01*
X6088095Y-15454285D01*
X6135714Y-15549523D01*
X6230952Y-15644761D01*
X6373809Y-15692380D01*
X6469047Y-15692380D01*
X6611904Y-15644761D01*
X6659523Y-15597142D01*
X6659523Y-15263809D01*
X6469047Y-15263809D01*
X5635714Y-12866666D02*
X6111904Y-12866666D01*
X5540476Y-13152380D02*
X5873809Y-12152380D01*
X6207142Y-13152380D01*
X6730952Y-12152380D02*
X6826190Y-12152380D01*
X6921428Y-12200000D01*
X6969047Y-12247619D01*
X7016666Y-12342857D01*
X7064285Y-12533333D01*
X7064285Y-12771428D01*
X7016666Y-12961904D01*
X6969047Y-13057142D01*
X6921428Y-13104761D01*
X6826190Y-13152380D01*
X6730952Y-13152380D01*
X6635714Y-13104761D01*
X6588095Y-13057142D01*
X6540476Y-12961904D01*
X6492857Y-12771428D01*
X6492857Y-12533333D01*
X6540476Y-12342857D01*
X6588095Y-12247619D01*
X6635714Y-12200000D01*
X6730952Y-12152380D01*
X28448095Y-47712380D02*
X29067142Y-47712380D01*
X28733809Y-48093333D01*
X28876666Y-48093333D01*
X28971904Y-48140952D01*
X29019523Y-48188571D01*
X29067142Y-48283809D01*
X29067142Y-48521904D01*
X29019523Y-48617142D01*
X28971904Y-48664761D01*
X28876666Y-48712380D01*
X28590952Y-48712380D01*
X28495714Y-48664761D01*
X28448095Y-48617142D01*
X29352857Y-47712380D02*
X29686190Y-48712380D01*
X30019523Y-47712380D01*
X29471904Y-45220000D02*
X29376666Y-45172380D01*
X29233809Y-45172380D01*
X29090952Y-45220000D01*
X28995714Y-45315238D01*
X28948095Y-45410476D01*
X28900476Y-45600952D01*
X28900476Y-45743809D01*
X28948095Y-45934285D01*
X28995714Y-46029523D01*
X29090952Y-46124761D01*
X29233809Y-46172380D01*
X29329047Y-46172380D01*
X29471904Y-46124761D01*
X29519523Y-46077142D01*
X29519523Y-45743809D01*
X29329047Y-45743809D01*
X28448095Y-42632380D02*
X29019523Y-42632380D01*
X28733809Y-43632380D02*
X28733809Y-42632380D01*
X29257619Y-42632380D02*
X29924285Y-43632380D01*
X29924285Y-42632380D02*
X29257619Y-43632380D01*
X29043333Y-41092380D02*
X28710000Y-40616190D01*
X28471904Y-41092380D02*
X28471904Y-40092380D01*
X28852857Y-40092380D01*
X28948095Y-40140000D01*
X28995714Y-40187619D01*
X29043333Y-40282857D01*
X29043333Y-40425714D01*
X28995714Y-40520952D01*
X28948095Y-40568571D01*
X28852857Y-40616190D01*
X28471904Y-40616190D01*
X29376666Y-40092380D02*
X30043333Y-41092380D01*
X30043333Y-40092380D02*
X29376666Y-41092380D01*
X28471904Y-38552380D02*
X28471904Y-37552380D01*
X28710000Y-37552380D01*
X28852857Y-37600000D01*
X28948095Y-37695238D01*
X28995714Y-37790476D01*
X29043333Y-37980952D01*
X29043333Y-38123809D01*
X28995714Y-38314285D01*
X28948095Y-38409523D01*
X28852857Y-38504761D01*
X28710000Y-38552380D01*
X28471904Y-38552380D01*
X29614761Y-37980952D02*
X29519523Y-37933333D01*
X29471904Y-37885714D01*
X29424285Y-37790476D01*
X29424285Y-37742857D01*
X29471904Y-37647619D01*
X29519523Y-37600000D01*
X29614761Y-37552380D01*
X29805238Y-37552380D01*
X29900476Y-37600000D01*
X29948095Y-37647619D01*
X29995714Y-37742857D01*
X29995714Y-37790476D01*
X29948095Y-37885714D01*
X29900476Y-37933333D01*
X29805238Y-37980952D01*
X29614761Y-37980952D01*
X29519523Y-38028571D01*
X29471904Y-38076190D01*
X29424285Y-38171428D01*
X29424285Y-38361904D01*
X29471904Y-38457142D01*
X29519523Y-38504761D01*
X29614761Y-38552380D01*
X29805238Y-38552380D01*
X29900476Y-38504761D01*
X29948095Y-38457142D01*
X29995714Y-38361904D01*
X29995714Y-38171428D01*
X29948095Y-38076190D01*
X29900476Y-38028571D01*
X29805238Y-37980952D01*
X28471904Y-36012380D02*
X28471904Y-35012380D01*
X28710000Y-35012380D01*
X28852857Y-35060000D01*
X28948095Y-35155238D01*
X28995714Y-35250476D01*
X29043333Y-35440952D01*
X29043333Y-35583809D01*
X28995714Y-35774285D01*
X28948095Y-35869523D01*
X28852857Y-35964761D01*
X28710000Y-36012380D01*
X28471904Y-36012380D01*
X29376666Y-35012380D02*
X30043333Y-35012380D01*
X29614761Y-36012380D01*
X28471904Y-33472380D02*
X28471904Y-32472380D01*
X28710000Y-32472380D01*
X28852857Y-32520000D01*
X28948095Y-32615238D01*
X28995714Y-32710476D01*
X29043333Y-32900952D01*
X29043333Y-33043809D01*
X28995714Y-33234285D01*
X28948095Y-33329523D01*
X28852857Y-33424761D01*
X28710000Y-33472380D01*
X28471904Y-33472380D01*
X29900476Y-32472380D02*
X29710000Y-32472380D01*
X29614761Y-32520000D01*
X29567142Y-32567619D01*
X29471904Y-32710476D01*
X29424285Y-32900952D01*
X29424285Y-33281904D01*
X29471904Y-33377142D01*
X29519523Y-33424761D01*
X29614761Y-33472380D01*
X29805238Y-33472380D01*
X29900476Y-33424761D01*
X29948095Y-33377142D01*
X29995714Y-33281904D01*
X29995714Y-33043809D01*
X29948095Y-32948571D01*
X29900476Y-32900952D01*
X29805238Y-32853333D01*
X29614761Y-32853333D01*
X29519523Y-32900952D01*
X29471904Y-32948571D01*
X29424285Y-33043809D01*
X28471904Y-30932380D02*
X28471904Y-29932380D01*
X28710000Y-29932380D01*
X28852857Y-29980000D01*
X28948095Y-30075238D01*
X28995714Y-30170476D01*
X29043333Y-30360952D01*
X29043333Y-30503809D01*
X28995714Y-30694285D01*
X28948095Y-30789523D01*
X28852857Y-30884761D01*
X28710000Y-30932380D01*
X28471904Y-30932380D01*
X29948095Y-29932380D02*
X29471904Y-29932380D01*
X29424285Y-30408571D01*
X29471904Y-30360952D01*
X29567142Y-30313333D01*
X29805238Y-30313333D01*
X29900476Y-30360952D01*
X29948095Y-30408571D01*
X29995714Y-30503809D01*
X29995714Y-30741904D01*
X29948095Y-30837142D01*
X29900476Y-30884761D01*
X29805238Y-30932380D01*
X29567142Y-30932380D01*
X29471904Y-30884761D01*
X29424285Y-30837142D01*
X29471904Y-27440000D02*
X29376666Y-27392380D01*
X29233809Y-27392380D01*
X29090952Y-27440000D01*
X28995714Y-27535238D01*
X28948095Y-27630476D01*
X28900476Y-27820952D01*
X28900476Y-27963809D01*
X28948095Y-28154285D01*
X28995714Y-28249523D01*
X29090952Y-28344761D01*
X29233809Y-28392380D01*
X29329047Y-28392380D01*
X29471904Y-28344761D01*
X29519523Y-28297142D01*
X29519523Y-27963809D01*
X29329047Y-27963809D01*
X28448095Y-24852380D02*
X29067142Y-24852380D01*
X28733809Y-25233333D01*
X28876666Y-25233333D01*
X28971904Y-25280952D01*
X29019523Y-25328571D01*
X29067142Y-25423809D01*
X29067142Y-25661904D01*
X29019523Y-25757142D01*
X28971904Y-25804761D01*
X28876666Y-25852380D01*
X28590952Y-25852380D01*
X28495714Y-25804761D01*
X28448095Y-25757142D01*
X29352857Y-24852380D02*
X29686190Y-25852380D01*
X30019523Y-24852380D01*
X28471904Y-23312380D02*
X28471904Y-22312380D01*
X28710000Y-22312380D01*
X28852857Y-22360000D01*
X28948095Y-22455238D01*
X28995714Y-22550476D01*
X29043333Y-22740952D01*
X29043333Y-22883809D01*
X28995714Y-23074285D01*
X28948095Y-23169523D01*
X28852857Y-23264761D01*
X28710000Y-23312380D01*
X28471904Y-23312380D01*
X29900476Y-22645714D02*
X29900476Y-23312380D01*
X29662380Y-22264761D02*
X29424285Y-22979047D01*
X30043333Y-22979047D01*
X28471904Y-20772380D02*
X28471904Y-19772380D01*
X28710000Y-19772380D01*
X28852857Y-19820000D01*
X28948095Y-19915238D01*
X28995714Y-20010476D01*
X29043333Y-20200952D01*
X29043333Y-20343809D01*
X28995714Y-20534285D01*
X28948095Y-20629523D01*
X28852857Y-20724761D01*
X28710000Y-20772380D01*
X28471904Y-20772380D01*
X29376666Y-19772380D02*
X29995714Y-19772380D01*
X29662380Y-20153333D01*
X29805238Y-20153333D01*
X29900476Y-20200952D01*
X29948095Y-20248571D01*
X29995714Y-20343809D01*
X29995714Y-20581904D01*
X29948095Y-20677142D01*
X29900476Y-20724761D01*
X29805238Y-20772380D01*
X29519523Y-20772380D01*
X29424285Y-20724761D01*
X29376666Y-20677142D01*
X28471904Y-18232380D02*
X28471904Y-17232380D01*
X28710000Y-17232380D01*
X28852857Y-17280000D01*
X28948095Y-17375238D01*
X28995714Y-17470476D01*
X29043333Y-17660952D01*
X29043333Y-17803809D01*
X28995714Y-17994285D01*
X28948095Y-18089523D01*
X28852857Y-18184761D01*
X28710000Y-18232380D01*
X28471904Y-18232380D01*
X29424285Y-17327619D02*
X29471904Y-17280000D01*
X29567142Y-17232380D01*
X29805238Y-17232380D01*
X29900476Y-17280000D01*
X29948095Y-17327619D01*
X29995714Y-17422857D01*
X29995714Y-17518095D01*
X29948095Y-17660952D01*
X29376666Y-18232380D01*
X29995714Y-18232380D01*
X28471904Y-15692380D02*
X28471904Y-14692380D01*
X28710000Y-14692380D01*
X28852857Y-14740000D01*
X28948095Y-14835238D01*
X28995714Y-14930476D01*
X29043333Y-15120952D01*
X29043333Y-15263809D01*
X28995714Y-15454285D01*
X28948095Y-15549523D01*
X28852857Y-15644761D01*
X28710000Y-15692380D01*
X28471904Y-15692380D01*
X29995714Y-15692380D02*
X29424285Y-15692380D01*
X29710000Y-15692380D02*
X29710000Y-14692380D01*
X29614761Y-14835238D01*
X29519523Y-14930476D01*
X29424285Y-14978095D01*
X28471904Y-13152380D02*
X28471904Y-12152380D01*
X28710000Y-12152380D01*
X28852857Y-12200000D01*
X28948095Y-12295238D01*
X28995714Y-12390476D01*
X29043333Y-12580952D01*
X29043333Y-12723809D01*
X28995714Y-12914285D01*
X28948095Y-13009523D01*
X28852857Y-13104761D01*
X28710000Y-13152380D01*
X28471904Y-13152380D01*
X29662380Y-12152380D02*
X29757619Y-12152380D01*
X29852857Y-12200000D01*
X29900476Y-12247619D01*
X29948095Y-12342857D01*
X29995714Y-12533333D01*
X29995714Y-12771428D01*
X29948095Y-12961904D01*
X29900476Y-13057142D01*
X29852857Y-13104761D01*
X29757619Y-13152380D01*
X29662380Y-13152380D01*
X29567142Y-13104761D01*
X29519523Y-13057142D01*
X29471904Y-12961904D01*
X29424285Y-12771428D01*
X29424285Y-12533333D01*
X29471904Y-12342857D01*
X29519523Y-12247619D01*
X29567142Y-12200000D01*
X29662380Y-12152380D01*
M02*
