%FSLAX45Y45*%
G04 Gerber Fmt 4.5, Leading zero omitted, Abs format (unit mm)*
G04 Created by KiCad (PCBNEW (5.1.12-1-10_14)) date 2021-11-18 09:42:35*
%MOMM*%
%LPD*%
G01*
G04 APERTURE LIST*
%TA.AperFunction,Profile*%
%ADD10C,0.100000*%
%TD*%
%TA.AperFunction,Profile*%
%ADD11C,0.150000*%
%TD*%
%ADD12C,0.200000*%
%ADD13C,0.300000*%
G04 APERTURE END LIST*
D10*
X5899711Y-16837000D02*
G75*
G02*
X5979000Y-16916289I0J-79289D01*
G01*
X5979000Y-17537000D02*
X5979000Y-16916289D01*
X5979000Y-17537000D02*
G75*
G02*
X5879000Y-17537000I-50000J0D01*
G01*
X5879000Y-16987000D02*
X5879000Y-17537000D01*
X5829000Y-16937000D02*
G75*
G02*
X5879000Y-16987000I0J-50000D01*
G01*
X5334000Y-16937000D02*
X5829000Y-16937000D01*
X5334000Y-16937000D02*
G75*
G02*
X5334000Y-16337000I0J300000D01*
G01*
X5829000Y-16337000D02*
X5334000Y-16337000D01*
X5879000Y-16287000D02*
G75*
G02*
X5829000Y-16337000I-50000J0D01*
G01*
X5879000Y-15737000D02*
X5879000Y-16287000D01*
X5879000Y-15737000D02*
G75*
G02*
X5979000Y-15737000I50000J0D01*
G01*
X5979000Y-16357711D02*
X5979000Y-15737000D01*
X5979000Y-16357711D02*
G75*
G02*
X5899711Y-16437000I-79289J0D01*
G01*
X5334000Y-16437000D02*
X5899711Y-16437000D01*
X5334000Y-16837000D02*
G75*
G02*
X5334000Y-16437000I0J200000D01*
G01*
X5899711Y-16837000D02*
X5334000Y-16837000D01*
X5899711Y-14678000D02*
G75*
G02*
X5979000Y-14757289I0J-79289D01*
G01*
X5979000Y-15378000D02*
X5979000Y-14757289D01*
X5979000Y-15378000D02*
G75*
G02*
X5879000Y-15378000I-50000J0D01*
G01*
X5879000Y-14828000D02*
X5879000Y-15378000D01*
X5829000Y-14778000D02*
G75*
G02*
X5879000Y-14828000I0J-50000D01*
G01*
X5334000Y-14778000D02*
X5829000Y-14778000D01*
X5334000Y-14778000D02*
G75*
G02*
X5334000Y-14178000I0J300000D01*
G01*
X5829000Y-14178000D02*
X5334000Y-14178000D01*
X5879000Y-14128000D02*
G75*
G02*
X5829000Y-14178000I-50000J0D01*
G01*
X5879000Y-13578000D02*
X5879000Y-14128000D01*
X5879000Y-13578000D02*
G75*
G02*
X5979000Y-13578000I50000J0D01*
G01*
X5979000Y-14198711D02*
X5979000Y-13578000D01*
X5979000Y-14198711D02*
G75*
G02*
X5899711Y-14278000I-79289J0D01*
G01*
X5334000Y-14278000D02*
X5899711Y-14278000D01*
X5334000Y-14678000D02*
G75*
G02*
X5334000Y-14278000I0J200000D01*
G01*
X5899711Y-14678000D02*
X5334000Y-14678000D01*
X5899711Y-10436200D02*
G75*
G02*
X5979000Y-10515489I0J-79289D01*
G01*
X5979000Y-11136200D02*
X5979000Y-10515489D01*
X5979000Y-11136200D02*
G75*
G02*
X5879000Y-11136200I-50000J0D01*
G01*
X5879000Y-10586200D02*
X5879000Y-11136200D01*
X5829000Y-10536200D02*
G75*
G02*
X5879000Y-10586200I0J-50000D01*
G01*
X5334000Y-10536200D02*
X5829000Y-10536200D01*
X5334000Y-10536200D02*
G75*
G02*
X5334000Y-9936200I0J300000D01*
G01*
X5829000Y-9936200D02*
X5334000Y-9936200D01*
X5879000Y-9886200D02*
G75*
G02*
X5829000Y-9936200I-50000J0D01*
G01*
X5879000Y-9336200D02*
X5879000Y-9886200D01*
X5879000Y-9336200D02*
G75*
G02*
X5979000Y-9336200I50000J0D01*
G01*
X5979000Y-9956911D02*
X5979000Y-9336200D01*
X5979000Y-9956911D02*
G75*
G02*
X5899711Y-10036200I-79289J0D01*
G01*
X5334000Y-10036200D02*
X5899711Y-10036200D01*
X5334000Y-10436200D02*
G75*
G02*
X5334000Y-10036200I0J200000D01*
G01*
X5899711Y-10436200D02*
X5334000Y-10436200D01*
X5899711Y-8277200D02*
G75*
G02*
X5979000Y-8356489I0J-79289D01*
G01*
X5979000Y-8977200D02*
X5979000Y-8356489D01*
X5979000Y-8977200D02*
G75*
G02*
X5879000Y-8977200I-50000J0D01*
G01*
X5879000Y-8427200D02*
X5879000Y-8977200D01*
X5829000Y-8377200D02*
G75*
G02*
X5879000Y-8427200I0J-50000D01*
G01*
X5334000Y-8377200D02*
X5829000Y-8377200D01*
X5334000Y-8377200D02*
G75*
G02*
X5334000Y-7777200I0J300000D01*
G01*
X5829000Y-7777200D02*
X5334000Y-7777200D01*
X5879000Y-7727200D02*
G75*
G02*
X5829000Y-7777200I-50000J0D01*
G01*
X5879000Y-7177200D02*
X5879000Y-7727200D01*
X5879000Y-7177200D02*
G75*
G02*
X5979000Y-7177200I50000J0D01*
G01*
X5979000Y-7797911D02*
X5979000Y-7177200D01*
X5979000Y-7797911D02*
G75*
G02*
X5899711Y-7877200I-79289J0D01*
G01*
X5334000Y-7877200D02*
X5899711Y-7877200D01*
X5334000Y-8277200D02*
G75*
G02*
X5334000Y-7877200I0J200000D01*
G01*
X5899711Y-8277200D02*
X5334000Y-8277200D01*
X5899711Y-4010000D02*
G75*
G02*
X5979000Y-4089289I0J-79289D01*
G01*
X5979000Y-4710000D02*
X5979000Y-4089289D01*
X5979000Y-4710000D02*
G75*
G02*
X5879000Y-4710000I-50000J0D01*
G01*
X5879000Y-4160000D02*
X5879000Y-4710000D01*
X5829000Y-4110000D02*
G75*
G02*
X5879000Y-4160000I0J-50000D01*
G01*
X5334000Y-4110000D02*
X5829000Y-4110000D01*
X5334000Y-4110000D02*
G75*
G02*
X5334000Y-3510000I0J300000D01*
G01*
X5829000Y-3510000D02*
X5334000Y-3510000D01*
X5879000Y-3460000D02*
G75*
G02*
X5829000Y-3510000I-50000J0D01*
G01*
X5879000Y-2910000D02*
X5879000Y-3460000D01*
X5879000Y-2910000D02*
G75*
G02*
X5979000Y-2910000I50000J0D01*
G01*
X5979000Y-3530711D02*
X5979000Y-2910000D01*
X5979000Y-3530711D02*
G75*
G02*
X5899711Y-3610000I-79289J0D01*
G01*
X5334000Y-3610000D02*
X5899711Y-3610000D01*
X5334000Y-4010000D02*
G75*
G02*
X5334000Y-3610000I0J200000D01*
G01*
X5899711Y-4010000D02*
X5334000Y-4010000D01*
X5899711Y-1851000D02*
G75*
G02*
X5979000Y-1930289I0J-79289D01*
G01*
X5979000Y-2551000D02*
X5979000Y-1930289D01*
X5979000Y-2551000D02*
G75*
G02*
X5879000Y-2551000I-50000J0D01*
G01*
X5879000Y-2001000D02*
X5879000Y-2551000D01*
X5829000Y-1951000D02*
G75*
G02*
X5879000Y-2001000I0J-50000D01*
G01*
X5334000Y-1951000D02*
X5829000Y-1951000D01*
X5334000Y-1951000D02*
G75*
G02*
X5334000Y-1351000I0J300000D01*
G01*
X5829000Y-1351000D02*
X5334000Y-1351000D01*
X5879000Y-1301000D02*
G75*
G02*
X5829000Y-1351000I-50000J0D01*
G01*
X5879000Y-751000D02*
X5879000Y-1301000D01*
X5879000Y-751000D02*
G75*
G02*
X5979000Y-751000I50000J0D01*
G01*
X5979000Y-1371711D02*
X5979000Y-751000D01*
X5979000Y-1371711D02*
G75*
G02*
X5899711Y-1451000I-79289J0D01*
G01*
X5334000Y-1451000D02*
X5899711Y-1451000D01*
X5334000Y-1851000D02*
G75*
G02*
X5334000Y-1451000I0J200000D01*
G01*
X5899711Y-1851000D02*
X5334000Y-1851000D01*
D11*
X9144000Y-18161000D02*
X9144000Y-381000D01*
X381000Y-18542000D02*
G75*
G02*
X0Y-18161000I0J381000D01*
G01*
X9144000Y-18161000D02*
G75*
G02*
X8763000Y-18542000I-381000J0D01*
G01*
X8763000Y0D02*
G75*
G02*
X9144000Y-381000I0J-381000D01*
G01*
X0Y-381000D02*
G75*
G02*
X381000Y0I381000J0D01*
G01*
X0Y-381000D02*
X0Y-18161000D01*
X8763000Y0D02*
X381000Y0D01*
X381000Y-18542000D02*
X8763000Y-18542000D01*
D12*
X361000Y-6838000D02*
X401000Y-6878000D01*
X401000Y-6838000D02*
X361000Y-6878000D01*
X462600Y-6838000D02*
X502600Y-6878000D01*
X502600Y-6838000D02*
X462600Y-6878000D01*
X894400Y-1834200D02*
X934400Y-1874200D01*
X934400Y-1834200D02*
X894400Y-1874200D01*
X894400Y-2037400D02*
X934400Y-2077400D01*
X934400Y-2037400D02*
X894400Y-2077400D01*
X894400Y-2240600D02*
X934400Y-2280600D01*
X934400Y-2240600D02*
X894400Y-2280600D01*
X894400Y-2443800D02*
X934400Y-2483800D01*
X934400Y-2443800D02*
X894400Y-2483800D01*
X1123000Y-6685600D02*
X1163000Y-6725600D01*
X1163000Y-6685600D02*
X1123000Y-6725600D01*
X1123000Y-6838000D02*
X1163000Y-6878000D01*
X1163000Y-6838000D02*
X1123000Y-6878000D01*
X1123000Y-6965000D02*
X1163000Y-7005000D01*
X1163000Y-6965000D02*
X1123000Y-7005000D01*
X1504000Y-17760000D02*
X1544000Y-17800000D01*
X1544000Y-17760000D02*
X1504000Y-17800000D01*
X2710500Y-2774000D02*
X2750500Y-2814000D01*
X2750500Y-2774000D02*
X2710500Y-2814000D01*
X2977200Y-3663000D02*
X3017200Y-3703000D01*
X3017200Y-3663000D02*
X2977200Y-3703000D01*
X3028000Y-7473000D02*
X3068000Y-7513000D01*
X3068000Y-7473000D02*
X3028000Y-7513000D01*
X3485200Y-7930200D02*
X3525200Y-7970200D01*
X3525200Y-7930200D02*
X3485200Y-7970200D01*
X4120200Y-4552000D02*
X4160200Y-4592000D01*
X4160200Y-4552000D02*
X4120200Y-4592000D01*
X4120200Y-8793800D02*
X4160200Y-8833800D01*
X4160200Y-8793800D02*
X4120200Y-8833800D01*
X4120200Y-10952800D02*
X4160200Y-10992800D01*
X4160200Y-10952800D02*
X4120200Y-10992800D01*
X4120200Y-15220000D02*
X4160200Y-15260000D01*
X4160200Y-15220000D02*
X4120200Y-15260000D01*
X4120200Y-17379000D02*
X4160200Y-17419000D01*
X4160200Y-17379000D02*
X4120200Y-17419000D01*
X4145600Y-2342200D02*
X4185600Y-2382200D01*
X4185600Y-2342200D02*
X4145600Y-2382200D01*
X4374200Y-2875600D02*
X4414200Y-2915600D01*
X4414200Y-2875600D02*
X4374200Y-2915600D01*
X4374200Y-3358200D02*
X4414200Y-3398200D01*
X4414200Y-3358200D02*
X4374200Y-3398200D01*
X4399600Y-7193600D02*
X4439600Y-7233600D01*
X4439600Y-7193600D02*
X4399600Y-7233600D01*
X4399600Y-7574600D02*
X4439600Y-7614600D01*
X4439600Y-7574600D02*
X4399600Y-7614600D01*
X4425000Y-13594400D02*
X4465000Y-13634400D01*
X4465000Y-13594400D02*
X4425000Y-13634400D01*
X4425000Y-14026200D02*
X4465000Y-14066200D01*
X4465000Y-14026200D02*
X4425000Y-14066200D01*
X4450400Y-4552000D02*
X4490400Y-4592000D01*
X4490400Y-4552000D02*
X4450400Y-4592000D01*
X4450400Y-8793800D02*
X4490400Y-8833800D01*
X4490400Y-8793800D02*
X4450400Y-8833800D01*
X4450400Y-10952800D02*
X4490400Y-10992800D01*
X4490400Y-10952800D02*
X4450400Y-10992800D01*
X4475800Y-2342200D02*
X4515800Y-2382200D01*
X4515800Y-2342200D02*
X4475800Y-2382200D01*
X4475800Y-15220000D02*
X4515800Y-15260000D01*
X4515800Y-15220000D02*
X4475800Y-15260000D01*
X4475800Y-17353600D02*
X4515800Y-17393600D01*
X4515800Y-17353600D02*
X4475800Y-17393600D01*
X1326000Y-18296000D02*
G75*
G03*
X1326000Y-18296000I-25000J0D01*
G01*
X1316000Y-18328500D02*
X1316000Y-18263500D01*
X1286000Y-18328500D02*
X1286000Y-18263500D01*
X1316000Y-18263500D02*
G75*
G03*
X1286000Y-18263500I-15000J0D01*
G01*
X1286000Y-18328500D02*
G75*
G03*
X1316000Y-18328500I15000J0D01*
G01*
X2026000Y-18296000D02*
G75*
G03*
X2026000Y-18296000I-25000J0D01*
G01*
X2016000Y-18328500D02*
X2016000Y-18263500D01*
X1986000Y-18328500D02*
X1986000Y-18263500D01*
X2016000Y-18263500D02*
G75*
G03*
X1986000Y-18263500I-15000J0D01*
G01*
X1986000Y-18328500D02*
G75*
G03*
X2016000Y-18328500I15000J0D01*
G01*
X1401000Y-17998500D02*
X1401000Y-18053500D01*
X1373500Y-18026000D02*
X1428500Y-18026000D01*
X1386000Y-18043500D02*
X1416000Y-18043500D01*
X1386000Y-18008500D02*
X1416000Y-18008500D01*
X1416000Y-18043500D02*
G75*
G03*
X1416000Y-18008500I0J17500D01*
G01*
X1386000Y-18008500D02*
G75*
G03*
X1386000Y-18043500I0J-17500D01*
G01*
X1901000Y-17998500D02*
X1901000Y-18053500D01*
X1873500Y-18026000D02*
X1928500Y-18026000D01*
X1886000Y-18043500D02*
X1916000Y-18043500D01*
X1886000Y-18008500D02*
X1916000Y-18008500D01*
X1916000Y-18043500D02*
G75*
G03*
X1916000Y-18008500I0J17500D01*
G01*
X1886000Y-18008500D02*
G75*
G03*
X1886000Y-18043500I0J-17500D01*
G01*
X783213Y-7514213D02*
X783213Y-7471787D01*
X740787Y-7471787D01*
X740787Y-7514213D01*
X783213Y-7514213D01*
X783213Y-8022213D02*
X783213Y-7979787D01*
X740787Y-7979787D01*
X740787Y-8022213D01*
X783213Y-8022213D01*
X983213Y-7514213D02*
X983213Y-7471787D01*
X940787Y-7471787D01*
X940787Y-7514213D01*
X983213Y-7514213D01*
X983213Y-8022213D02*
X983213Y-7979787D01*
X940787Y-7979787D01*
X940787Y-8022213D01*
X983213Y-8022213D01*
X2307213Y-3577213D02*
X2307213Y-3534787D01*
X2264787Y-3534787D01*
X2264787Y-3577213D01*
X2307213Y-3577213D01*
X2307213Y-4110613D02*
X2307213Y-4068187D01*
X2264787Y-4068187D01*
X2264787Y-4110613D01*
X2307213Y-4110613D01*
X2507213Y-3577213D02*
X2507213Y-3534787D01*
X2464787Y-3534787D01*
X2464787Y-3577213D01*
X2507213Y-3577213D01*
X2507213Y-4110613D02*
X2507213Y-4068187D01*
X2464787Y-4068187D01*
X2464787Y-4110613D01*
X2507213Y-4110613D01*
X381000Y-1308100D02*
X419100Y-1270000D01*
X381000Y-1231900D01*
X342900Y-1270000D01*
X381000Y-1308100D01*
X381000Y-1562100D02*
X419100Y-1524000D01*
X381000Y-1485900D01*
X342900Y-1524000D01*
X381000Y-1562100D01*
X381000Y-1816100D02*
X419100Y-1778000D01*
X381000Y-1739900D01*
X342900Y-1778000D01*
X381000Y-1816100D01*
X381000Y-2070100D02*
X419100Y-2032000D01*
X381000Y-1993900D01*
X342900Y-2032000D01*
X381000Y-2070100D01*
X381000Y-2324100D02*
X419100Y-2286000D01*
X381000Y-2247900D01*
X342900Y-2286000D01*
X381000Y-2324100D01*
X381000Y-2578100D02*
X419100Y-2540000D01*
X381000Y-2501900D01*
X342900Y-2540000D01*
X381000Y-2578100D01*
X381000Y-2832100D02*
X419100Y-2794000D01*
X381000Y-2755900D01*
X342900Y-2794000D01*
X381000Y-2832100D01*
X381000Y-3086100D02*
X419100Y-3048000D01*
X381000Y-3009900D01*
X342900Y-3048000D01*
X381000Y-3086100D01*
X381000Y-3340100D02*
X419100Y-3302000D01*
X381000Y-3263900D01*
X342900Y-3302000D01*
X381000Y-3340100D01*
X381000Y-3594100D02*
X419100Y-3556000D01*
X381000Y-3517900D01*
X342900Y-3556000D01*
X381000Y-3594100D01*
X381000Y-3848100D02*
X419100Y-3810000D01*
X381000Y-3771900D01*
X342900Y-3810000D01*
X381000Y-3848100D01*
X381000Y-4102100D02*
X419100Y-4064000D01*
X381000Y-4025900D01*
X342900Y-4064000D01*
X381000Y-4102100D01*
X381000Y-4356100D02*
X419100Y-4318000D01*
X381000Y-4279900D01*
X342900Y-4318000D01*
X381000Y-4356100D01*
X381000Y-4610100D02*
X419100Y-4572000D01*
X381000Y-4533900D01*
X342900Y-4572000D01*
X381000Y-4610100D01*
X381000Y-4864100D02*
X419100Y-4826000D01*
X381000Y-4787900D01*
X342900Y-4826000D01*
X381000Y-4864100D01*
X3175000Y-1308100D02*
X3213100Y-1270000D01*
X3175000Y-1231900D01*
X3136900Y-1270000D01*
X3175000Y-1308100D01*
X3175000Y-1562100D02*
X3213100Y-1524000D01*
X3175000Y-1485900D01*
X3136900Y-1524000D01*
X3175000Y-1562100D01*
X3175000Y-1816100D02*
X3213100Y-1778000D01*
X3175000Y-1739900D01*
X3136900Y-1778000D01*
X3175000Y-1816100D01*
X3175000Y-2070100D02*
X3213100Y-2032000D01*
X3175000Y-1993900D01*
X3136900Y-2032000D01*
X3175000Y-2070100D01*
X3175000Y-2324100D02*
X3213100Y-2286000D01*
X3175000Y-2247900D01*
X3136900Y-2286000D01*
X3175000Y-2324100D01*
X3175000Y-2578100D02*
X3213100Y-2540000D01*
X3175000Y-2501900D01*
X3136900Y-2540000D01*
X3175000Y-2578100D01*
X3175000Y-2832100D02*
X3213100Y-2794000D01*
X3175000Y-2755900D01*
X3136900Y-2794000D01*
X3175000Y-2832100D01*
X3175000Y-3086100D02*
X3213100Y-3048000D01*
X3175000Y-3009900D01*
X3136900Y-3048000D01*
X3175000Y-3086100D01*
X3175000Y-3340100D02*
X3213100Y-3302000D01*
X3175000Y-3263900D01*
X3136900Y-3302000D01*
X3175000Y-3340100D01*
X3175000Y-3594100D02*
X3213100Y-3556000D01*
X3175000Y-3517900D01*
X3136900Y-3556000D01*
X3175000Y-3594100D01*
X3175000Y-3848100D02*
X3213100Y-3810000D01*
X3175000Y-3771900D01*
X3136900Y-3810000D01*
X3175000Y-3848100D01*
X3175000Y-4102100D02*
X3213100Y-4064000D01*
X3175000Y-4025900D01*
X3136900Y-4064000D01*
X3175000Y-4102100D01*
X3175000Y-4356100D02*
X3213100Y-4318000D01*
X3175000Y-4279900D01*
X3136900Y-4318000D01*
X3175000Y-4356100D01*
X3175000Y-4610100D02*
X3213100Y-4572000D01*
X3175000Y-4533900D01*
X3136900Y-4572000D01*
X3175000Y-4610100D01*
X3175000Y-4864100D02*
X3213100Y-4826000D01*
X3175000Y-4787900D01*
X3136900Y-4826000D01*
X3175000Y-4864100D01*
X1865000Y-6531500D02*
X1945000Y-6611500D01*
X1945000Y-6531500D02*
X1865000Y-6611500D01*
X1945000Y-6571500D02*
G75*
G03*
X1945000Y-6571500I-40000J0D01*
G01*
X1865000Y-6881500D02*
X1945000Y-6961500D01*
X1945000Y-6881500D02*
X1865000Y-6961500D01*
X1945000Y-6921500D02*
G75*
G03*
X1945000Y-6921500I-40000J0D01*
G01*
X7755300Y-1801500D02*
X7840300Y-1886500D01*
X7840300Y-1801500D02*
X7755300Y-1886500D01*
X7797800Y-1801500D02*
X7797800Y-1886500D01*
X7755300Y-1844000D02*
X7840300Y-1844000D01*
X7830300Y-1884000D02*
X7830300Y-1804000D01*
X7765300Y-1884000D02*
X7765300Y-1804000D01*
X7830300Y-1804000D02*
G75*
G03*
X7765300Y-1804000I-32500J0D01*
G01*
X7765300Y-1884000D02*
G75*
G03*
X7830300Y-1884000I32500J0D01*
G01*
X7755300Y-2751500D02*
X7840300Y-2836500D01*
X7840300Y-2751500D02*
X7755300Y-2836500D01*
X7797800Y-2751500D02*
X7797800Y-2836500D01*
X7755300Y-2794000D02*
X7840300Y-2794000D01*
X7830300Y-2834000D02*
X7830300Y-2754000D01*
X7765300Y-2834000D02*
X7765300Y-2754000D01*
X7830300Y-2754000D02*
G75*
G03*
X7765300Y-2754000I-32500J0D01*
G01*
X7765300Y-2834000D02*
G75*
G03*
X7830300Y-2834000I32500J0D01*
G01*
X7755300Y-3701500D02*
X7840300Y-3786500D01*
X7840300Y-3701500D02*
X7755300Y-3786500D01*
X7797800Y-3701500D02*
X7797800Y-3786500D01*
X7755300Y-3744000D02*
X7840300Y-3744000D01*
X7830300Y-3784000D02*
X7830300Y-3704000D01*
X7765300Y-3784000D02*
X7765300Y-3704000D01*
X7830300Y-3704000D02*
G75*
G03*
X7765300Y-3704000I-32500J0D01*
G01*
X7765300Y-3784000D02*
G75*
G03*
X7830300Y-3784000I32500J0D01*
G01*
X7755300Y-8227700D02*
X7840300Y-8312700D01*
X7840300Y-8227700D02*
X7755300Y-8312700D01*
X7797800Y-8227700D02*
X7797800Y-8312700D01*
X7755300Y-8270200D02*
X7840300Y-8270200D01*
X7830300Y-8310200D02*
X7830300Y-8230200D01*
X7765300Y-8310200D02*
X7765300Y-8230200D01*
X7830300Y-8230200D02*
G75*
G03*
X7765300Y-8230200I-32500J0D01*
G01*
X7765300Y-8310200D02*
G75*
G03*
X7830300Y-8310200I32500J0D01*
G01*
X7755300Y-9177700D02*
X7840300Y-9262700D01*
X7840300Y-9177700D02*
X7755300Y-9262700D01*
X7797800Y-9177700D02*
X7797800Y-9262700D01*
X7755300Y-9220200D02*
X7840300Y-9220200D01*
X7830300Y-9260200D02*
X7830300Y-9180200D01*
X7765300Y-9260200D02*
X7765300Y-9180200D01*
X7830300Y-9180200D02*
G75*
G03*
X7765300Y-9180200I-32500J0D01*
G01*
X7765300Y-9260200D02*
G75*
G03*
X7830300Y-9260200I32500J0D01*
G01*
X7755300Y-10127700D02*
X7840300Y-10212700D01*
X7840300Y-10127700D02*
X7755300Y-10212700D01*
X7797800Y-10127700D02*
X7797800Y-10212700D01*
X7755300Y-10170200D02*
X7840300Y-10170200D01*
X7830300Y-10210200D02*
X7830300Y-10130200D01*
X7765300Y-10210200D02*
X7765300Y-10130200D01*
X7830300Y-10130200D02*
G75*
G03*
X7765300Y-10130200I-32500J0D01*
G01*
X7765300Y-10210200D02*
G75*
G03*
X7830300Y-10210200I32500J0D01*
G01*
X7755300Y-14628500D02*
X7840300Y-14713500D01*
X7840300Y-14628500D02*
X7755300Y-14713500D01*
X7797800Y-14628500D02*
X7797800Y-14713500D01*
X7755300Y-14671000D02*
X7840300Y-14671000D01*
X7830300Y-14711000D02*
X7830300Y-14631000D01*
X7765300Y-14711000D02*
X7765300Y-14631000D01*
X7830300Y-14631000D02*
G75*
G03*
X7765300Y-14631000I-32500J0D01*
G01*
X7765300Y-14711000D02*
G75*
G03*
X7830300Y-14711000I32500J0D01*
G01*
X7755300Y-15578500D02*
X7840300Y-15663500D01*
X7840300Y-15578500D02*
X7755300Y-15663500D01*
X7797800Y-15578500D02*
X7797800Y-15663500D01*
X7755300Y-15621000D02*
X7840300Y-15621000D01*
X7830300Y-15661000D02*
X7830300Y-15581000D01*
X7765300Y-15661000D02*
X7765300Y-15581000D01*
X7830300Y-15581000D02*
G75*
G03*
X7765300Y-15581000I-32500J0D01*
G01*
X7765300Y-15661000D02*
G75*
G03*
X7830300Y-15661000I32500J0D01*
G01*
X7755300Y-16528500D02*
X7840300Y-16613500D01*
X7840300Y-16528500D02*
X7755300Y-16613500D01*
X7797800Y-16528500D02*
X7797800Y-16613500D01*
X7755300Y-16571000D02*
X7840300Y-16571000D01*
X7830300Y-16611000D02*
X7830300Y-16531000D01*
X7765300Y-16611000D02*
X7765300Y-16531000D01*
X7830300Y-16531000D02*
G75*
G03*
X7765300Y-16531000I-32500J0D01*
G01*
X7765300Y-16611000D02*
G75*
G03*
X7830300Y-16611000I32500J0D01*
G01*
X432600Y-16536200D02*
X532600Y-16636200D01*
X532600Y-16536200D02*
X432600Y-16636200D01*
X517956Y-16621556D02*
X517956Y-16550844D01*
X447244Y-16550844D01*
X447244Y-16621556D01*
X517956Y-16621556D01*
X458000Y-6198400D02*
X558000Y-6298400D01*
X558000Y-6198400D02*
X458000Y-6298400D01*
X543356Y-6283756D02*
X543356Y-6213044D01*
X472644Y-6213044D01*
X472644Y-6283756D01*
X543356Y-6283756D01*
X686600Y-16536200D02*
X786600Y-16636200D01*
X786600Y-16536200D02*
X686600Y-16636200D01*
X771956Y-16621556D02*
X771956Y-16550844D01*
X701244Y-16550844D01*
X701244Y-16621556D01*
X771956Y-16621556D01*
X712000Y-6198400D02*
X812000Y-6298400D01*
X812000Y-6198400D02*
X712000Y-6298400D01*
X797356Y-6283756D02*
X797356Y-6213044D01*
X726644Y-6213044D01*
X726644Y-6283756D01*
X797356Y-6283756D01*
X966000Y-6198400D02*
X1066000Y-6298400D01*
X1066000Y-6198400D02*
X966000Y-6298400D01*
X1051356Y-6283756D02*
X1051356Y-6213044D01*
X980644Y-6213044D01*
X980644Y-6283756D01*
X1051356Y-6283756D01*
X1778800Y-9017800D02*
X1878800Y-9117800D01*
X1878800Y-9017800D02*
X1778800Y-9117800D01*
X1864156Y-9103156D02*
X1864156Y-9032444D01*
X1793444Y-9032444D01*
X1793444Y-9103156D01*
X1864156Y-9103156D01*
X1778800Y-9271800D02*
X1878800Y-9371800D01*
X1878800Y-9271800D02*
X1778800Y-9371800D01*
X1864156Y-9357156D02*
X1864156Y-9286444D01*
X1793444Y-9286444D01*
X1793444Y-9357156D01*
X1864156Y-9357156D01*
X1778800Y-9525800D02*
X1878800Y-9625800D01*
X1878800Y-9525800D02*
X1778800Y-9625800D01*
X1864156Y-9611156D02*
X1864156Y-9540444D01*
X1793444Y-9540444D01*
X1793444Y-9611156D01*
X1864156Y-9611156D01*
X2363000Y-9017800D02*
X2463000Y-9117800D01*
X2463000Y-9017800D02*
X2363000Y-9117800D01*
X2448356Y-9103156D02*
X2448356Y-9032444D01*
X2377644Y-9032444D01*
X2377644Y-9103156D01*
X2448356Y-9103156D01*
X2363000Y-9271800D02*
X2463000Y-9371800D01*
X2463000Y-9271800D02*
X2363000Y-9371800D01*
X2448356Y-9357156D02*
X2448356Y-9286444D01*
X2377644Y-9286444D01*
X2377644Y-9357156D01*
X2448356Y-9357156D01*
X2363000Y-9525800D02*
X2463000Y-9625800D01*
X2463000Y-9525800D02*
X2363000Y-9625800D01*
X2448356Y-9611156D02*
X2448356Y-9540444D01*
X2377644Y-9540444D01*
X2377644Y-9611156D01*
X2448356Y-9611156D01*
X2540800Y-18085600D02*
X2640800Y-18185600D01*
X2640800Y-18085600D02*
X2540800Y-18185600D01*
X2626156Y-18170956D02*
X2626156Y-18100244D01*
X2555444Y-18100244D01*
X2555444Y-18170956D01*
X2626156Y-18170956D01*
X2794800Y-18085600D02*
X2894800Y-18185600D01*
X2894800Y-18085600D02*
X2794800Y-18185600D01*
X2880156Y-18170956D02*
X2880156Y-18100244D01*
X2809444Y-18100244D01*
X2809444Y-18170956D01*
X2880156Y-18170956D01*
X2921800Y-9017800D02*
X3021800Y-9117800D01*
X3021800Y-9017800D02*
X2921800Y-9117800D01*
X3007156Y-9103156D02*
X3007156Y-9032444D01*
X2936444Y-9032444D01*
X2936444Y-9103156D01*
X3007156Y-9103156D01*
X2921800Y-9271800D02*
X3021800Y-9371800D01*
X3021800Y-9271800D02*
X2921800Y-9371800D01*
X3007156Y-9357156D02*
X3007156Y-9286444D01*
X2936444Y-9286444D01*
X2936444Y-9357156D01*
X3007156Y-9357156D01*
X2921800Y-9525800D02*
X3021800Y-9625800D01*
X3021800Y-9525800D02*
X2921800Y-9625800D01*
X3007156Y-9611156D02*
X3007156Y-9540444D01*
X2936444Y-9540444D01*
X2936444Y-9611156D01*
X3007156Y-9611156D01*
X5479000Y-1006000D02*
X5579000Y-1106000D01*
X5579000Y-1006000D02*
X5479000Y-1106000D01*
X5564356Y-1091356D02*
X5564356Y-1020644D01*
X5493644Y-1020644D01*
X5493644Y-1091356D01*
X5564356Y-1091356D01*
X5479000Y-2206000D02*
X5579000Y-2306000D01*
X5579000Y-2206000D02*
X5479000Y-2306000D01*
X5564356Y-2291356D02*
X5564356Y-2220644D01*
X5493644Y-2220644D01*
X5493644Y-2291356D01*
X5564356Y-2291356D01*
X5479000Y-3165000D02*
X5579000Y-3265000D01*
X5579000Y-3165000D02*
X5479000Y-3265000D01*
X5564356Y-3250356D02*
X5564356Y-3179644D01*
X5493644Y-3179644D01*
X5493644Y-3250356D01*
X5564356Y-3250356D01*
X5479000Y-4365000D02*
X5579000Y-4465000D01*
X5579000Y-4365000D02*
X5479000Y-4465000D01*
X5564356Y-4450356D02*
X5564356Y-4379644D01*
X5493644Y-4379644D01*
X5493644Y-4450356D01*
X5564356Y-4450356D01*
X5479000Y-7432200D02*
X5579000Y-7532200D01*
X5579000Y-7432200D02*
X5479000Y-7532200D01*
X5564356Y-7517556D02*
X5564356Y-7446844D01*
X5493644Y-7446844D01*
X5493644Y-7517556D01*
X5564356Y-7517556D01*
X5479000Y-8632200D02*
X5579000Y-8732200D01*
X5579000Y-8632200D02*
X5479000Y-8732200D01*
X5564356Y-8717556D02*
X5564356Y-8646844D01*
X5493644Y-8646844D01*
X5493644Y-8717556D01*
X5564356Y-8717556D01*
X5479000Y-9591200D02*
X5579000Y-9691200D01*
X5579000Y-9591200D02*
X5479000Y-9691200D01*
X5564356Y-9676556D02*
X5564356Y-9605844D01*
X5493644Y-9605844D01*
X5493644Y-9676556D01*
X5564356Y-9676556D01*
X5479000Y-10791200D02*
X5579000Y-10891200D01*
X5579000Y-10791200D02*
X5479000Y-10891200D01*
X5564356Y-10876556D02*
X5564356Y-10805844D01*
X5493644Y-10805844D01*
X5493644Y-10876556D01*
X5564356Y-10876556D01*
X5479000Y-13833000D02*
X5579000Y-13933000D01*
X5579000Y-13833000D02*
X5479000Y-13933000D01*
X5564356Y-13918356D02*
X5564356Y-13847644D01*
X5493644Y-13847644D01*
X5493644Y-13918356D01*
X5564356Y-13918356D01*
X5479000Y-15033000D02*
X5579000Y-15133000D01*
X5579000Y-15033000D02*
X5479000Y-15133000D01*
X5564356Y-15118356D02*
X5564356Y-15047644D01*
X5493644Y-15047644D01*
X5493644Y-15118356D01*
X5564356Y-15118356D01*
X5479000Y-15992000D02*
X5579000Y-16092000D01*
X5579000Y-15992000D02*
X5479000Y-16092000D01*
X5564356Y-16077356D02*
X5564356Y-16006644D01*
X5493644Y-16006644D01*
X5493644Y-16077356D01*
X5564356Y-16077356D01*
X5479000Y-17192000D02*
X5579000Y-17292000D01*
X5579000Y-17192000D02*
X5479000Y-17292000D01*
X5564356Y-17277356D02*
X5564356Y-17206644D01*
X5493644Y-17206644D01*
X5493644Y-17277356D01*
X5564356Y-17277356D01*
X5269000Y-1586000D02*
X5399000Y-1716000D01*
X5399000Y-1586000D02*
X5269000Y-1716000D01*
X5334000Y-1716000D02*
X5399000Y-1651000D01*
X5334000Y-1586000D01*
X5269000Y-1651000D01*
X5334000Y-1716000D01*
X5269000Y-3745000D02*
X5399000Y-3875000D01*
X5399000Y-3745000D02*
X5269000Y-3875000D01*
X5334000Y-3875000D02*
X5399000Y-3810000D01*
X5334000Y-3745000D01*
X5269000Y-3810000D01*
X5334000Y-3875000D01*
X5269000Y-8012200D02*
X5399000Y-8142200D01*
X5399000Y-8012200D02*
X5269000Y-8142200D01*
X5334000Y-8142200D02*
X5399000Y-8077200D01*
X5334000Y-8012200D01*
X5269000Y-8077200D01*
X5334000Y-8142200D01*
X5269000Y-10171200D02*
X5399000Y-10301200D01*
X5399000Y-10171200D02*
X5269000Y-10301200D01*
X5334000Y-10301200D02*
X5399000Y-10236200D01*
X5334000Y-10171200D01*
X5269000Y-10236200D01*
X5334000Y-10301200D01*
X5269000Y-14413000D02*
X5399000Y-14543000D01*
X5399000Y-14413000D02*
X5269000Y-14543000D01*
X5334000Y-14543000D02*
X5399000Y-14478000D01*
X5334000Y-14413000D01*
X5269000Y-14478000D01*
X5334000Y-14543000D01*
X5269000Y-16572000D02*
X5399000Y-16702000D01*
X5399000Y-16572000D02*
X5269000Y-16702000D01*
X5334000Y-16702000D02*
X5399000Y-16637000D01*
X5334000Y-16572000D01*
X5269000Y-16637000D01*
X5334000Y-16702000D01*
X6684000Y-2191000D02*
X6814000Y-2321000D01*
X6814000Y-2191000D02*
X6684000Y-2321000D01*
X6749000Y-2321000D02*
X6814000Y-2256000D01*
X6749000Y-2191000D01*
X6684000Y-2256000D01*
X6749000Y-2321000D01*
X6684000Y-4350000D02*
X6814000Y-4480000D01*
X6814000Y-4350000D02*
X6684000Y-4480000D01*
X6749000Y-4480000D02*
X6814000Y-4415000D01*
X6749000Y-4350000D01*
X6684000Y-4415000D01*
X6749000Y-4480000D01*
X6684000Y-8617200D02*
X6814000Y-8747200D01*
X6814000Y-8617200D02*
X6684000Y-8747200D01*
X6749000Y-8747200D02*
X6814000Y-8682200D01*
X6749000Y-8617200D01*
X6684000Y-8682200D01*
X6749000Y-8747200D01*
X6684000Y-10776200D02*
X6814000Y-10906200D01*
X6814000Y-10776200D02*
X6684000Y-10906200D01*
X6749000Y-10906200D02*
X6814000Y-10841200D01*
X6749000Y-10776200D01*
X6684000Y-10841200D01*
X6749000Y-10906200D01*
X6684000Y-15018000D02*
X6814000Y-15148000D01*
X6814000Y-15018000D02*
X6684000Y-15148000D01*
X6749000Y-15148000D02*
X6814000Y-15083000D01*
X6749000Y-15018000D01*
X6684000Y-15083000D01*
X6749000Y-15148000D01*
X6684000Y-17177000D02*
X6814000Y-17307000D01*
X6814000Y-17177000D02*
X6684000Y-17307000D01*
X6749000Y-17307000D02*
X6814000Y-17242000D01*
X6749000Y-17177000D01*
X6684000Y-17242000D01*
X6749000Y-17307000D01*
X6689000Y-986000D02*
X6819000Y-1116000D01*
X6819000Y-986000D02*
X6689000Y-1116000D01*
X6754000Y-1116000D02*
X6819000Y-1051000D01*
X6754000Y-986000D01*
X6689000Y-1051000D01*
X6754000Y-1116000D01*
X6689000Y-3145000D02*
X6819000Y-3275000D01*
X6819000Y-3145000D02*
X6689000Y-3275000D01*
X6754000Y-3275000D02*
X6819000Y-3210000D01*
X6754000Y-3145000D01*
X6689000Y-3210000D01*
X6754000Y-3275000D01*
X6689000Y-7412200D02*
X6819000Y-7542200D01*
X6819000Y-7412200D02*
X6689000Y-7542200D01*
X6754000Y-7542200D02*
X6819000Y-7477200D01*
X6754000Y-7412200D01*
X6689000Y-7477200D01*
X6754000Y-7542200D01*
X6689000Y-9571200D02*
X6819000Y-9701200D01*
X6819000Y-9571200D02*
X6689000Y-9701200D01*
X6754000Y-9701200D02*
X6819000Y-9636200D01*
X6754000Y-9571200D01*
X6689000Y-9636200D01*
X6754000Y-9701200D01*
X6689000Y-13813000D02*
X6819000Y-13943000D01*
X6819000Y-13813000D02*
X6689000Y-13943000D01*
X6754000Y-13943000D02*
X6819000Y-13878000D01*
X6754000Y-13813000D01*
X6689000Y-13878000D01*
X6754000Y-13943000D01*
X6689000Y-15972000D02*
X6819000Y-16102000D01*
X6819000Y-15972000D02*
X6689000Y-16102000D01*
X6754000Y-16102000D02*
X6819000Y-16037000D01*
X6754000Y-15972000D01*
X6689000Y-16037000D01*
X6754000Y-16102000D01*
X290600Y-15165400D02*
X290600Y-15365400D01*
X190600Y-15265400D02*
X390600Y-15265400D01*
X390600Y-15265400D02*
G75*
G03*
X390600Y-15265400I-100000J0D01*
G01*
X621138Y-621138D02*
X621138Y-394862D01*
X394862Y-394862D01*
X394862Y-621138D01*
X621138Y-621138D01*
X668000Y-508000D02*
G75*
G03*
X668000Y-508000I-160000J0D01*
G01*
X621138Y-18147138D02*
X621138Y-17920862D01*
X394862Y-17920862D01*
X394862Y-18147138D01*
X621138Y-18147138D01*
X668000Y-18034000D02*
G75*
G03*
X668000Y-18034000I-160000J0D01*
G01*
X8749138Y-621138D02*
X8749138Y-394862D01*
X8522862Y-394862D01*
X8522862Y-621138D01*
X8749138Y-621138D01*
X8796000Y-508000D02*
G75*
G03*
X8796000Y-508000I-160000J0D01*
G01*
X8749138Y-18147138D02*
X8749138Y-17920862D01*
X8522862Y-17920862D01*
X8522862Y-18147138D01*
X8749138Y-18147138D01*
X8796000Y-18034000D02*
G75*
G03*
X8796000Y-18034000I-160000J0D01*
G01*
D13*
X278928Y-19015214D02*
X278928Y-18715214D01*
X350357Y-18715214D01*
X393214Y-18729500D01*
X421786Y-18758072D01*
X436071Y-18786643D01*
X450357Y-18843786D01*
X450357Y-18886643D01*
X436071Y-18943786D01*
X421786Y-18972357D01*
X393214Y-19000929D01*
X350357Y-19015214D01*
X278928Y-19015214D01*
X578928Y-19015214D02*
X578928Y-18815214D01*
X578928Y-18872357D02*
X593214Y-18843786D01*
X607500Y-18829500D01*
X636071Y-18815214D01*
X664643Y-18815214D01*
X764643Y-19015214D02*
X764643Y-18815214D01*
X764643Y-18715214D02*
X750357Y-18729500D01*
X764643Y-18743786D01*
X778928Y-18729500D01*
X764643Y-18715214D01*
X764643Y-18743786D01*
X950357Y-19015214D02*
X921786Y-19000929D01*
X907500Y-18972357D01*
X907500Y-18715214D01*
X1107500Y-19015214D02*
X1078928Y-19000929D01*
X1064643Y-18972357D01*
X1064643Y-18715214D01*
X1450357Y-19015214D02*
X1450357Y-18715214D01*
X1550357Y-18929500D01*
X1650357Y-18715214D01*
X1650357Y-19015214D01*
X1921786Y-19015214D02*
X1921786Y-18858072D01*
X1907500Y-18829500D01*
X1878928Y-18815214D01*
X1821786Y-18815214D01*
X1793214Y-18829500D01*
X1921786Y-19000929D02*
X1893214Y-19015214D01*
X1821786Y-19015214D01*
X1793214Y-19000929D01*
X1778928Y-18972357D01*
X1778928Y-18943786D01*
X1793214Y-18915214D01*
X1821786Y-18900929D01*
X1893214Y-18900929D01*
X1921786Y-18886643D01*
X2064643Y-18815214D02*
X2064643Y-19115214D01*
X2064643Y-18829500D02*
X2093214Y-18815214D01*
X2150357Y-18815214D01*
X2178928Y-18829500D01*
X2193214Y-18843786D01*
X2207500Y-18872357D01*
X2207500Y-18958072D01*
X2193214Y-18986643D01*
X2178928Y-19000929D01*
X2150357Y-19015214D01*
X2093214Y-19015214D01*
X2064643Y-19000929D01*
X2336071Y-18986643D02*
X2350357Y-19000929D01*
X2336071Y-19015214D01*
X2321786Y-19000929D01*
X2336071Y-18986643D01*
X2336071Y-19015214D01*
X2336071Y-18829500D02*
X2350357Y-18843786D01*
X2336071Y-18858072D01*
X2321786Y-18843786D01*
X2336071Y-18829500D01*
X2336071Y-18858072D01*
X-47500Y-19489500D02*
X-7500Y-19529500D01*
X-7500Y-19489500D02*
X-47500Y-19529500D01*
X336071Y-19345214D02*
X364643Y-19345214D01*
X393214Y-19359500D01*
X407500Y-19373786D01*
X421786Y-19402357D01*
X436071Y-19459500D01*
X436071Y-19530929D01*
X421786Y-19588072D01*
X407500Y-19616643D01*
X393214Y-19630929D01*
X364643Y-19645214D01*
X336071Y-19645214D01*
X307500Y-19630929D01*
X293214Y-19616643D01*
X278928Y-19588072D01*
X264643Y-19530929D01*
X264643Y-19459500D01*
X278928Y-19402357D01*
X293214Y-19373786D01*
X307500Y-19359500D01*
X336071Y-19345214D01*
X564643Y-19616643D02*
X578928Y-19630929D01*
X564643Y-19645214D01*
X550357Y-19630929D01*
X564643Y-19616643D01*
X564643Y-19645214D01*
X836071Y-19445214D02*
X836071Y-19645214D01*
X764643Y-19330929D02*
X693214Y-19545214D01*
X878928Y-19545214D01*
X1050357Y-19345214D02*
X1078928Y-19345214D01*
X1107500Y-19359500D01*
X1121786Y-19373786D01*
X1136071Y-19402357D01*
X1150357Y-19459500D01*
X1150357Y-19530929D01*
X1136071Y-19588072D01*
X1121786Y-19616643D01*
X1107500Y-19630929D01*
X1078928Y-19645214D01*
X1050357Y-19645214D01*
X1021786Y-19630929D01*
X1007500Y-19616643D01*
X993214Y-19588072D01*
X978928Y-19530929D01*
X978928Y-19459500D01*
X993214Y-19402357D01*
X1007500Y-19373786D01*
X1021786Y-19359500D01*
X1050357Y-19345214D01*
X1336071Y-19345214D02*
X1364643Y-19345214D01*
X1393214Y-19359500D01*
X1407500Y-19373786D01*
X1421786Y-19402357D01*
X1436071Y-19459500D01*
X1436071Y-19530929D01*
X1421786Y-19588072D01*
X1407500Y-19616643D01*
X1393214Y-19630929D01*
X1364643Y-19645214D01*
X1336071Y-19645214D01*
X1307500Y-19630929D01*
X1293214Y-19616643D01*
X1278928Y-19588072D01*
X1264643Y-19530929D01*
X1264643Y-19459500D01*
X1278928Y-19402357D01*
X1293214Y-19373786D01*
X1307500Y-19359500D01*
X1336071Y-19345214D01*
X1564643Y-19645214D02*
X1564643Y-19445214D01*
X1564643Y-19473786D02*
X1578928Y-19459500D01*
X1607500Y-19445214D01*
X1650357Y-19445214D01*
X1678928Y-19459500D01*
X1693214Y-19488072D01*
X1693214Y-19645214D01*
X1693214Y-19488072D02*
X1707500Y-19459500D01*
X1736071Y-19445214D01*
X1778928Y-19445214D01*
X1807500Y-19459500D01*
X1821786Y-19488072D01*
X1821786Y-19645214D01*
X1964643Y-19645214D02*
X1964643Y-19445214D01*
X1964643Y-19473786D02*
X1978928Y-19459500D01*
X2007500Y-19445214D01*
X2050357Y-19445214D01*
X2078928Y-19459500D01*
X2093214Y-19488072D01*
X2093214Y-19645214D01*
X2093214Y-19488072D02*
X2107500Y-19459500D01*
X2136071Y-19445214D01*
X2178928Y-19445214D01*
X2207500Y-19459500D01*
X2221786Y-19488072D01*
X2221786Y-19645214D01*
X2807500Y-19330929D02*
X2550357Y-19716643D01*
X3193214Y-19345214D02*
X3221786Y-19345214D01*
X3250357Y-19359500D01*
X3264643Y-19373786D01*
X3278928Y-19402357D01*
X3293214Y-19459500D01*
X3293214Y-19530929D01*
X3278928Y-19588072D01*
X3264643Y-19616643D01*
X3250357Y-19630929D01*
X3221786Y-19645214D01*
X3193214Y-19645214D01*
X3164643Y-19630929D01*
X3150357Y-19616643D01*
X3136071Y-19588072D01*
X3121786Y-19530929D01*
X3121786Y-19459500D01*
X3136071Y-19402357D01*
X3150357Y-19373786D01*
X3164643Y-19359500D01*
X3193214Y-19345214D01*
X3421786Y-19616643D02*
X3436071Y-19630929D01*
X3421786Y-19645214D01*
X3407500Y-19630929D01*
X3421786Y-19616643D01*
X3421786Y-19645214D01*
X3621786Y-19345214D02*
X3650357Y-19345214D01*
X3678928Y-19359500D01*
X3693214Y-19373786D01*
X3707500Y-19402357D01*
X3721786Y-19459500D01*
X3721786Y-19530929D01*
X3707500Y-19588072D01*
X3693214Y-19616643D01*
X3678928Y-19630929D01*
X3650357Y-19645214D01*
X3621786Y-19645214D01*
X3593214Y-19630929D01*
X3578928Y-19616643D01*
X3564643Y-19588072D01*
X3550357Y-19530929D01*
X3550357Y-19459500D01*
X3564643Y-19402357D01*
X3578928Y-19373786D01*
X3593214Y-19359500D01*
X3621786Y-19345214D01*
X4007500Y-19645214D02*
X3836071Y-19645214D01*
X3921786Y-19645214D02*
X3921786Y-19345214D01*
X3893214Y-19388072D01*
X3864643Y-19416643D01*
X3836071Y-19430929D01*
X4278928Y-19345214D02*
X4136071Y-19345214D01*
X4121786Y-19488072D01*
X4136071Y-19473786D01*
X4164643Y-19459500D01*
X4236071Y-19459500D01*
X4264643Y-19473786D01*
X4278928Y-19488072D01*
X4293214Y-19516643D01*
X4293214Y-19588072D01*
X4278928Y-19616643D01*
X4264643Y-19630929D01*
X4236071Y-19645214D01*
X4164643Y-19645214D01*
X4136071Y-19630929D01*
X4121786Y-19616643D01*
X4393214Y-19345214D02*
X4593214Y-19345214D01*
X4464643Y-19645214D01*
X4693214Y-19345214D02*
X4693214Y-19402357D01*
X4807500Y-19345214D02*
X4807500Y-19402357D01*
X5250357Y-19759500D02*
X5236071Y-19745214D01*
X5207500Y-19702357D01*
X5193214Y-19673786D01*
X5178928Y-19630929D01*
X5164643Y-19559500D01*
X5164643Y-19502357D01*
X5178928Y-19430929D01*
X5193214Y-19388072D01*
X5207500Y-19359500D01*
X5236071Y-19316643D01*
X5250357Y-19302357D01*
X5336071Y-19345214D02*
X5521786Y-19345214D01*
X5421786Y-19459500D01*
X5464643Y-19459500D01*
X5493214Y-19473786D01*
X5507500Y-19488072D01*
X5521786Y-19516643D01*
X5521786Y-19588072D01*
X5507500Y-19616643D01*
X5493214Y-19630929D01*
X5464643Y-19645214D01*
X5378928Y-19645214D01*
X5350357Y-19630929D01*
X5336071Y-19616643D01*
X5636071Y-19373786D02*
X5650357Y-19359500D01*
X5678928Y-19345214D01*
X5750357Y-19345214D01*
X5778928Y-19359500D01*
X5793214Y-19373786D01*
X5807500Y-19402357D01*
X5807500Y-19430929D01*
X5793214Y-19473786D01*
X5621786Y-19645214D01*
X5807500Y-19645214D01*
X6164643Y-19645214D02*
X6164643Y-19345214D01*
X6293214Y-19645214D02*
X6293214Y-19488072D01*
X6278928Y-19459500D01*
X6250357Y-19445214D01*
X6207500Y-19445214D01*
X6178928Y-19459500D01*
X6164643Y-19473786D01*
X6478928Y-19645214D02*
X6450357Y-19630929D01*
X6436071Y-19616643D01*
X6421786Y-19588072D01*
X6421786Y-19502357D01*
X6436071Y-19473786D01*
X6450357Y-19459500D01*
X6478928Y-19445214D01*
X6521786Y-19445214D01*
X6550357Y-19459500D01*
X6564643Y-19473786D01*
X6578928Y-19502357D01*
X6578928Y-19588072D01*
X6564643Y-19616643D01*
X6550357Y-19630929D01*
X6521786Y-19645214D01*
X6478928Y-19645214D01*
X6750357Y-19645214D02*
X6721786Y-19630929D01*
X6707500Y-19602357D01*
X6707500Y-19345214D01*
X6978928Y-19630929D02*
X6950357Y-19645214D01*
X6893214Y-19645214D01*
X6864643Y-19630929D01*
X6850357Y-19602357D01*
X6850357Y-19488072D01*
X6864643Y-19459500D01*
X6893214Y-19445214D01*
X6950357Y-19445214D01*
X6978928Y-19459500D01*
X6993214Y-19488072D01*
X6993214Y-19516643D01*
X6850357Y-19545214D01*
X7107500Y-19630929D02*
X7136071Y-19645214D01*
X7193214Y-19645214D01*
X7221786Y-19630929D01*
X7236071Y-19602357D01*
X7236071Y-19588072D01*
X7221786Y-19559500D01*
X7193214Y-19545214D01*
X7150357Y-19545214D01*
X7121786Y-19530929D01*
X7107500Y-19502357D01*
X7107500Y-19488072D01*
X7121786Y-19459500D01*
X7150357Y-19445214D01*
X7193214Y-19445214D01*
X7221786Y-19459500D01*
X7336071Y-19759500D02*
X7350357Y-19745214D01*
X7378928Y-19702357D01*
X7393214Y-19673786D01*
X7407500Y-19630929D01*
X7421786Y-19559500D01*
X7421786Y-19502357D01*
X7407500Y-19430929D01*
X7393214Y-19388072D01*
X7378928Y-19359500D01*
X7350357Y-19316643D01*
X7336071Y-19302357D01*
X-7500Y-19905500D02*
G75*
G03*
X-7500Y-19905500I-25000J0D01*
G01*
X336071Y-19741214D02*
X364643Y-19741214D01*
X393214Y-19755500D01*
X407500Y-19769786D01*
X421786Y-19798357D01*
X436071Y-19855500D01*
X436071Y-19926929D01*
X421786Y-19984072D01*
X407500Y-20012643D01*
X393214Y-20026929D01*
X364643Y-20041214D01*
X336071Y-20041214D01*
X307500Y-20026929D01*
X293214Y-20012643D01*
X278928Y-19984072D01*
X264643Y-19926929D01*
X264643Y-19855500D01*
X278928Y-19798357D01*
X293214Y-19769786D01*
X307500Y-19755500D01*
X336071Y-19741214D01*
X564643Y-20012643D02*
X578928Y-20026929D01*
X564643Y-20041214D01*
X550357Y-20026929D01*
X564643Y-20012643D01*
X564643Y-20041214D01*
X850357Y-19741214D02*
X707500Y-19741214D01*
X693214Y-19884072D01*
X707500Y-19869786D01*
X736071Y-19855500D01*
X807500Y-19855500D01*
X836071Y-19869786D01*
X850357Y-19884072D01*
X864643Y-19912643D01*
X864643Y-19984072D01*
X850357Y-20012643D01*
X836071Y-20026929D01*
X807500Y-20041214D01*
X736071Y-20041214D01*
X707500Y-20026929D01*
X693214Y-20012643D01*
X1050357Y-19741214D02*
X1078928Y-19741214D01*
X1107500Y-19755500D01*
X1121786Y-19769786D01*
X1136071Y-19798357D01*
X1150357Y-19855500D01*
X1150357Y-19926929D01*
X1136071Y-19984072D01*
X1121786Y-20012643D01*
X1107500Y-20026929D01*
X1078928Y-20041214D01*
X1050357Y-20041214D01*
X1021786Y-20026929D01*
X1007500Y-20012643D01*
X993214Y-19984072D01*
X978928Y-19926929D01*
X978928Y-19855500D01*
X993214Y-19798357D01*
X1007500Y-19769786D01*
X1021786Y-19755500D01*
X1050357Y-19741214D01*
X1336071Y-19741214D02*
X1364643Y-19741214D01*
X1393214Y-19755500D01*
X1407500Y-19769786D01*
X1421786Y-19798357D01*
X1436071Y-19855500D01*
X1436071Y-19926929D01*
X1421786Y-19984072D01*
X1407500Y-20012643D01*
X1393214Y-20026929D01*
X1364643Y-20041214D01*
X1336071Y-20041214D01*
X1307500Y-20026929D01*
X1293214Y-20012643D01*
X1278928Y-19984072D01*
X1264643Y-19926929D01*
X1264643Y-19855500D01*
X1278928Y-19798357D01*
X1293214Y-19769786D01*
X1307500Y-19755500D01*
X1336071Y-19741214D01*
X1564643Y-20041214D02*
X1564643Y-19841214D01*
X1564643Y-19869786D02*
X1578928Y-19855500D01*
X1607500Y-19841214D01*
X1650357Y-19841214D01*
X1678928Y-19855500D01*
X1693214Y-19884072D01*
X1693214Y-20041214D01*
X1693214Y-19884072D02*
X1707500Y-19855500D01*
X1736071Y-19841214D01*
X1778928Y-19841214D01*
X1807500Y-19855500D01*
X1821786Y-19884072D01*
X1821786Y-20041214D01*
X1964643Y-20041214D02*
X1964643Y-19841214D01*
X1964643Y-19869786D02*
X1978928Y-19855500D01*
X2007500Y-19841214D01*
X2050357Y-19841214D01*
X2078928Y-19855500D01*
X2093214Y-19884072D01*
X2093214Y-20041214D01*
X2093214Y-19884072D02*
X2107500Y-19855500D01*
X2136071Y-19841214D01*
X2178928Y-19841214D01*
X2207500Y-19855500D01*
X2221786Y-19884072D01*
X2221786Y-20041214D01*
X2807500Y-19726929D02*
X2550357Y-20112643D01*
X3193214Y-19741214D02*
X3221786Y-19741214D01*
X3250357Y-19755500D01*
X3264643Y-19769786D01*
X3278928Y-19798357D01*
X3293214Y-19855500D01*
X3293214Y-19926929D01*
X3278928Y-19984072D01*
X3264643Y-20012643D01*
X3250357Y-20026929D01*
X3221786Y-20041214D01*
X3193214Y-20041214D01*
X3164643Y-20026929D01*
X3150357Y-20012643D01*
X3136071Y-19984072D01*
X3121786Y-19926929D01*
X3121786Y-19855500D01*
X3136071Y-19798357D01*
X3150357Y-19769786D01*
X3164643Y-19755500D01*
X3193214Y-19741214D01*
X3421786Y-20012643D02*
X3436071Y-20026929D01*
X3421786Y-20041214D01*
X3407500Y-20026929D01*
X3421786Y-20012643D01*
X3421786Y-20041214D01*
X3621786Y-19741214D02*
X3650357Y-19741214D01*
X3678928Y-19755500D01*
X3693214Y-19769786D01*
X3707500Y-19798357D01*
X3721786Y-19855500D01*
X3721786Y-19926929D01*
X3707500Y-19984072D01*
X3693214Y-20012643D01*
X3678928Y-20026929D01*
X3650357Y-20041214D01*
X3621786Y-20041214D01*
X3593214Y-20026929D01*
X3578928Y-20012643D01*
X3564643Y-19984072D01*
X3550357Y-19926929D01*
X3550357Y-19855500D01*
X3564643Y-19798357D01*
X3578928Y-19769786D01*
X3593214Y-19755500D01*
X3621786Y-19741214D01*
X4007500Y-20041214D02*
X3836071Y-20041214D01*
X3921786Y-20041214D02*
X3921786Y-19741214D01*
X3893214Y-19784072D01*
X3864643Y-19812643D01*
X3836071Y-19826929D01*
X4150357Y-20041214D02*
X4207500Y-20041214D01*
X4236071Y-20026929D01*
X4250357Y-20012643D01*
X4278928Y-19969786D01*
X4293214Y-19912643D01*
X4293214Y-19798357D01*
X4278928Y-19769786D01*
X4264643Y-19755500D01*
X4236071Y-19741214D01*
X4178928Y-19741214D01*
X4150357Y-19755500D01*
X4136071Y-19769786D01*
X4121786Y-19798357D01*
X4121786Y-19869786D01*
X4136071Y-19898357D01*
X4150357Y-19912643D01*
X4178928Y-19926929D01*
X4236071Y-19926929D01*
X4264643Y-19912643D01*
X4278928Y-19898357D01*
X4293214Y-19869786D01*
X4393214Y-19741214D02*
X4593214Y-19741214D01*
X4464643Y-20041214D01*
X4693214Y-19741214D02*
X4693214Y-19798357D01*
X4807500Y-19741214D02*
X4807500Y-19798357D01*
X5250357Y-20155500D02*
X5236071Y-20141214D01*
X5207500Y-20098357D01*
X5193214Y-20069786D01*
X5178928Y-20026929D01*
X5164643Y-19955500D01*
X5164643Y-19898357D01*
X5178928Y-19826929D01*
X5193214Y-19784072D01*
X5207500Y-19755500D01*
X5236071Y-19712643D01*
X5250357Y-19698357D01*
X5421786Y-19741214D02*
X5450357Y-19741214D01*
X5478928Y-19755500D01*
X5493214Y-19769786D01*
X5507500Y-19798357D01*
X5521786Y-19855500D01*
X5521786Y-19926929D01*
X5507500Y-19984072D01*
X5493214Y-20012643D01*
X5478928Y-20026929D01*
X5450357Y-20041214D01*
X5421786Y-20041214D01*
X5393214Y-20026929D01*
X5378928Y-20012643D01*
X5364643Y-19984072D01*
X5350357Y-19926929D01*
X5350357Y-19855500D01*
X5364643Y-19798357D01*
X5378928Y-19769786D01*
X5393214Y-19755500D01*
X5421786Y-19741214D01*
X5878928Y-20041214D02*
X5878928Y-19741214D01*
X6007500Y-20041214D02*
X6007500Y-19884072D01*
X5993214Y-19855500D01*
X5964643Y-19841214D01*
X5921786Y-19841214D01*
X5893214Y-19855500D01*
X5878928Y-19869786D01*
X6193214Y-20041214D02*
X6164643Y-20026929D01*
X6150357Y-20012643D01*
X6136071Y-19984072D01*
X6136071Y-19898357D01*
X6150357Y-19869786D01*
X6164643Y-19855500D01*
X6193214Y-19841214D01*
X6236071Y-19841214D01*
X6264643Y-19855500D01*
X6278928Y-19869786D01*
X6293214Y-19898357D01*
X6293214Y-19984072D01*
X6278928Y-20012643D01*
X6264643Y-20026929D01*
X6236071Y-20041214D01*
X6193214Y-20041214D01*
X6464643Y-20041214D02*
X6436071Y-20026929D01*
X6421786Y-19998357D01*
X6421786Y-19741214D01*
X6693214Y-20026929D02*
X6664643Y-20041214D01*
X6607500Y-20041214D01*
X6578928Y-20026929D01*
X6564643Y-19998357D01*
X6564643Y-19884072D01*
X6578928Y-19855500D01*
X6607500Y-19841214D01*
X6664643Y-19841214D01*
X6693214Y-19855500D01*
X6707500Y-19884072D01*
X6707500Y-19912643D01*
X6564643Y-19941214D01*
X6821786Y-20026929D02*
X6850357Y-20041214D01*
X6907500Y-20041214D01*
X6936071Y-20026929D01*
X6950357Y-19998357D01*
X6950357Y-19984072D01*
X6936071Y-19955500D01*
X6907500Y-19941214D01*
X6864643Y-19941214D01*
X6836071Y-19926929D01*
X6821786Y-19898357D01*
X6821786Y-19884072D01*
X6836071Y-19855500D01*
X6864643Y-19841214D01*
X6907500Y-19841214D01*
X6936071Y-19855500D01*
X7307500Y-19926929D02*
X7536071Y-19926929D01*
X7421786Y-20041214D02*
X7421786Y-19812643D01*
X7893214Y-19769786D02*
X7907500Y-19755500D01*
X7936071Y-19741214D01*
X8007500Y-19741214D01*
X8036071Y-19755500D01*
X8050357Y-19769786D01*
X8064643Y-19798357D01*
X8064643Y-19826929D01*
X8050357Y-19869786D01*
X7878928Y-20041214D01*
X8064643Y-20041214D01*
X8407500Y-20026929D02*
X8436071Y-20041214D01*
X8493214Y-20041214D01*
X8521786Y-20026929D01*
X8536071Y-19998357D01*
X8536071Y-19984072D01*
X8521786Y-19955500D01*
X8493214Y-19941214D01*
X8450357Y-19941214D01*
X8421786Y-19926929D01*
X8407500Y-19898357D01*
X8407500Y-19884072D01*
X8421786Y-19855500D01*
X8450357Y-19841214D01*
X8493214Y-19841214D01*
X8521786Y-19855500D01*
X8707500Y-20041214D02*
X8678928Y-20026929D01*
X8664643Y-19998357D01*
X8664643Y-19741214D01*
X8864643Y-20041214D02*
X8836071Y-20026929D01*
X8821786Y-20012643D01*
X8807500Y-19984072D01*
X8807500Y-19898357D01*
X8821786Y-19869786D01*
X8836071Y-19855500D01*
X8864643Y-19841214D01*
X8907500Y-19841214D01*
X8936071Y-19855500D01*
X8950357Y-19869786D01*
X8964643Y-19898357D01*
X8964643Y-19984072D01*
X8950357Y-20012643D01*
X8936071Y-20026929D01*
X8907500Y-20041214D01*
X8864643Y-20041214D01*
X9050357Y-19841214D02*
X9164643Y-19841214D01*
X9093214Y-19741214D02*
X9093214Y-19998357D01*
X9107500Y-20026929D01*
X9136071Y-20041214D01*
X9164643Y-20041214D01*
X9250357Y-20026929D02*
X9278928Y-20041214D01*
X9336071Y-20041214D01*
X9364643Y-20026929D01*
X9378928Y-19998357D01*
X9378928Y-19984072D01*
X9364643Y-19955500D01*
X9336071Y-19941214D01*
X9293214Y-19941214D01*
X9264643Y-19926929D01*
X9250357Y-19898357D01*
X9250357Y-19884072D01*
X9264643Y-19855500D01*
X9293214Y-19841214D01*
X9336071Y-19841214D01*
X9364643Y-19855500D01*
X9478928Y-20155500D02*
X9493214Y-20141214D01*
X9521786Y-20098357D01*
X9536071Y-20069786D01*
X9550357Y-20026929D01*
X9564643Y-19955500D01*
X9564643Y-19898357D01*
X9550357Y-19826929D01*
X9536071Y-19784072D01*
X9521786Y-19755500D01*
X9493214Y-19712643D01*
X9478928Y-19698357D01*
X-35000Y-20274000D02*
X-35000Y-20329000D01*
X-62500Y-20301500D02*
X-7500Y-20301500D01*
X336071Y-20137214D02*
X364643Y-20137214D01*
X393214Y-20151500D01*
X407500Y-20165786D01*
X421786Y-20194357D01*
X436071Y-20251500D01*
X436071Y-20322929D01*
X421786Y-20380072D01*
X407500Y-20408643D01*
X393214Y-20422929D01*
X364643Y-20437214D01*
X336071Y-20437214D01*
X307500Y-20422929D01*
X293214Y-20408643D01*
X278928Y-20380072D01*
X264643Y-20322929D01*
X264643Y-20251500D01*
X278928Y-20194357D01*
X293214Y-20165786D01*
X307500Y-20151500D01*
X336071Y-20137214D01*
X564643Y-20408643D02*
X578928Y-20422929D01*
X564643Y-20437214D01*
X550357Y-20422929D01*
X564643Y-20408643D01*
X564643Y-20437214D01*
X850357Y-20137214D02*
X707500Y-20137214D01*
X693214Y-20280072D01*
X707500Y-20265786D01*
X736071Y-20251500D01*
X807500Y-20251500D01*
X836071Y-20265786D01*
X850357Y-20280072D01*
X864643Y-20308643D01*
X864643Y-20380072D01*
X850357Y-20408643D01*
X836071Y-20422929D01*
X807500Y-20437214D01*
X736071Y-20437214D01*
X707500Y-20422929D01*
X693214Y-20408643D01*
X1136071Y-20137214D02*
X993214Y-20137214D01*
X978928Y-20280072D01*
X993214Y-20265786D01*
X1021786Y-20251500D01*
X1093214Y-20251500D01*
X1121786Y-20265786D01*
X1136071Y-20280072D01*
X1150357Y-20308643D01*
X1150357Y-20380072D01*
X1136071Y-20408643D01*
X1121786Y-20422929D01*
X1093214Y-20437214D01*
X1021786Y-20437214D01*
X993214Y-20422929D01*
X978928Y-20408643D01*
X1336071Y-20137214D02*
X1364643Y-20137214D01*
X1393214Y-20151500D01*
X1407500Y-20165786D01*
X1421786Y-20194357D01*
X1436071Y-20251500D01*
X1436071Y-20322929D01*
X1421786Y-20380072D01*
X1407500Y-20408643D01*
X1393214Y-20422929D01*
X1364643Y-20437214D01*
X1336071Y-20437214D01*
X1307500Y-20422929D01*
X1293214Y-20408643D01*
X1278928Y-20380072D01*
X1264643Y-20322929D01*
X1264643Y-20251500D01*
X1278928Y-20194357D01*
X1293214Y-20165786D01*
X1307500Y-20151500D01*
X1336071Y-20137214D01*
X1564643Y-20437214D02*
X1564643Y-20237214D01*
X1564643Y-20265786D02*
X1578928Y-20251500D01*
X1607500Y-20237214D01*
X1650357Y-20237214D01*
X1678928Y-20251500D01*
X1693214Y-20280072D01*
X1693214Y-20437214D01*
X1693214Y-20280072D02*
X1707500Y-20251500D01*
X1736071Y-20237214D01*
X1778928Y-20237214D01*
X1807500Y-20251500D01*
X1821786Y-20280072D01*
X1821786Y-20437214D01*
X1964643Y-20437214D02*
X1964643Y-20237214D01*
X1964643Y-20265786D02*
X1978928Y-20251500D01*
X2007500Y-20237214D01*
X2050357Y-20237214D01*
X2078928Y-20251500D01*
X2093214Y-20280072D01*
X2093214Y-20437214D01*
X2093214Y-20280072D02*
X2107500Y-20251500D01*
X2136071Y-20237214D01*
X2178928Y-20237214D01*
X2207500Y-20251500D01*
X2221786Y-20280072D01*
X2221786Y-20437214D01*
X2807500Y-20122929D02*
X2550357Y-20508643D01*
X3193214Y-20137214D02*
X3221786Y-20137214D01*
X3250357Y-20151500D01*
X3264643Y-20165786D01*
X3278928Y-20194357D01*
X3293214Y-20251500D01*
X3293214Y-20322929D01*
X3278928Y-20380072D01*
X3264643Y-20408643D01*
X3250357Y-20422929D01*
X3221786Y-20437214D01*
X3193214Y-20437214D01*
X3164643Y-20422929D01*
X3150357Y-20408643D01*
X3136071Y-20380072D01*
X3121786Y-20322929D01*
X3121786Y-20251500D01*
X3136071Y-20194357D01*
X3150357Y-20165786D01*
X3164643Y-20151500D01*
X3193214Y-20137214D01*
X3421786Y-20408643D02*
X3436071Y-20422929D01*
X3421786Y-20437214D01*
X3407500Y-20422929D01*
X3421786Y-20408643D01*
X3421786Y-20437214D01*
X3621786Y-20137214D02*
X3650357Y-20137214D01*
X3678928Y-20151500D01*
X3693214Y-20165786D01*
X3707500Y-20194357D01*
X3721786Y-20251500D01*
X3721786Y-20322929D01*
X3707500Y-20380072D01*
X3693214Y-20408643D01*
X3678928Y-20422929D01*
X3650357Y-20437214D01*
X3621786Y-20437214D01*
X3593214Y-20422929D01*
X3578928Y-20408643D01*
X3564643Y-20380072D01*
X3550357Y-20322929D01*
X3550357Y-20251500D01*
X3564643Y-20194357D01*
X3578928Y-20165786D01*
X3593214Y-20151500D01*
X3621786Y-20137214D01*
X3836071Y-20165786D02*
X3850357Y-20151500D01*
X3878928Y-20137214D01*
X3950357Y-20137214D01*
X3978928Y-20151500D01*
X3993214Y-20165786D01*
X4007500Y-20194357D01*
X4007500Y-20222929D01*
X3993214Y-20265786D01*
X3821786Y-20437214D01*
X4007500Y-20437214D01*
X4293214Y-20437214D02*
X4121786Y-20437214D01*
X4207500Y-20437214D02*
X4207500Y-20137214D01*
X4178928Y-20180072D01*
X4150357Y-20208643D01*
X4121786Y-20222929D01*
X4393214Y-20137214D02*
X4593214Y-20137214D01*
X4464643Y-20437214D01*
X4693214Y-20137214D02*
X4693214Y-20194357D01*
X4807500Y-20137214D02*
X4807500Y-20194357D01*
X5250357Y-20551500D02*
X5236071Y-20537214D01*
X5207500Y-20494357D01*
X5193214Y-20465786D01*
X5178928Y-20422929D01*
X5164643Y-20351500D01*
X5164643Y-20294357D01*
X5178928Y-20222929D01*
X5193214Y-20180072D01*
X5207500Y-20151500D01*
X5236071Y-20108643D01*
X5250357Y-20094357D01*
X5421786Y-20137214D02*
X5450357Y-20137214D01*
X5478928Y-20151500D01*
X5493214Y-20165786D01*
X5507500Y-20194357D01*
X5521786Y-20251500D01*
X5521786Y-20322929D01*
X5507500Y-20380072D01*
X5493214Y-20408643D01*
X5478928Y-20422929D01*
X5450357Y-20437214D01*
X5421786Y-20437214D01*
X5393214Y-20422929D01*
X5378928Y-20408643D01*
X5364643Y-20380072D01*
X5350357Y-20322929D01*
X5350357Y-20251500D01*
X5364643Y-20194357D01*
X5378928Y-20165786D01*
X5393214Y-20151500D01*
X5421786Y-20137214D01*
X5878928Y-20437214D02*
X5878928Y-20137214D01*
X6007500Y-20437214D02*
X6007500Y-20280072D01*
X5993214Y-20251500D01*
X5964643Y-20237214D01*
X5921786Y-20237214D01*
X5893214Y-20251500D01*
X5878928Y-20265786D01*
X6193214Y-20437214D02*
X6164643Y-20422929D01*
X6150357Y-20408643D01*
X6136071Y-20380072D01*
X6136071Y-20294357D01*
X6150357Y-20265786D01*
X6164643Y-20251500D01*
X6193214Y-20237214D01*
X6236071Y-20237214D01*
X6264643Y-20251500D01*
X6278928Y-20265786D01*
X6293214Y-20294357D01*
X6293214Y-20380072D01*
X6278928Y-20408643D01*
X6264643Y-20422929D01*
X6236071Y-20437214D01*
X6193214Y-20437214D01*
X6464643Y-20437214D02*
X6436071Y-20422929D01*
X6421786Y-20394357D01*
X6421786Y-20137214D01*
X6693214Y-20422929D02*
X6664643Y-20437214D01*
X6607500Y-20437214D01*
X6578928Y-20422929D01*
X6564643Y-20394357D01*
X6564643Y-20280072D01*
X6578928Y-20251500D01*
X6607500Y-20237214D01*
X6664643Y-20237214D01*
X6693214Y-20251500D01*
X6707500Y-20280072D01*
X6707500Y-20308643D01*
X6564643Y-20337214D01*
X6821786Y-20422929D02*
X6850357Y-20437214D01*
X6907500Y-20437214D01*
X6936071Y-20422929D01*
X6950357Y-20394357D01*
X6950357Y-20380072D01*
X6936071Y-20351500D01*
X6907500Y-20337214D01*
X6864643Y-20337214D01*
X6836071Y-20322929D01*
X6821786Y-20294357D01*
X6821786Y-20280072D01*
X6836071Y-20251500D01*
X6864643Y-20237214D01*
X6907500Y-20237214D01*
X6936071Y-20251500D01*
X7307500Y-20322929D02*
X7536071Y-20322929D01*
X7421786Y-20437214D02*
X7421786Y-20208643D01*
X7893214Y-20165786D02*
X7907500Y-20151500D01*
X7936071Y-20137214D01*
X8007500Y-20137214D01*
X8036071Y-20151500D01*
X8050357Y-20165786D01*
X8064643Y-20194357D01*
X8064643Y-20222929D01*
X8050357Y-20265786D01*
X7878928Y-20437214D01*
X8064643Y-20437214D01*
X8407500Y-20422929D02*
X8436071Y-20437214D01*
X8493214Y-20437214D01*
X8521786Y-20422929D01*
X8536071Y-20394357D01*
X8536071Y-20380072D01*
X8521786Y-20351500D01*
X8493214Y-20337214D01*
X8450357Y-20337214D01*
X8421786Y-20322929D01*
X8407500Y-20294357D01*
X8407500Y-20280072D01*
X8421786Y-20251500D01*
X8450357Y-20237214D01*
X8493214Y-20237214D01*
X8521786Y-20251500D01*
X8707500Y-20437214D02*
X8678928Y-20422929D01*
X8664643Y-20394357D01*
X8664643Y-20137214D01*
X8864643Y-20437214D02*
X8836071Y-20422929D01*
X8821786Y-20408643D01*
X8807500Y-20380072D01*
X8807500Y-20294357D01*
X8821786Y-20265786D01*
X8836071Y-20251500D01*
X8864643Y-20237214D01*
X8907500Y-20237214D01*
X8936071Y-20251500D01*
X8950357Y-20265786D01*
X8964643Y-20294357D01*
X8964643Y-20380072D01*
X8950357Y-20408643D01*
X8936071Y-20422929D01*
X8907500Y-20437214D01*
X8864643Y-20437214D01*
X9050357Y-20237214D02*
X9164643Y-20237214D01*
X9093214Y-20137214D02*
X9093214Y-20394357D01*
X9107500Y-20422929D01*
X9136071Y-20437214D01*
X9164643Y-20437214D01*
X9250357Y-20422929D02*
X9278928Y-20437214D01*
X9336071Y-20437214D01*
X9364643Y-20422929D01*
X9378928Y-20394357D01*
X9378928Y-20380072D01*
X9364643Y-20351500D01*
X9336071Y-20337214D01*
X9293214Y-20337214D01*
X9264643Y-20322929D01*
X9250357Y-20294357D01*
X9250357Y-20280072D01*
X9264643Y-20251500D01*
X9293214Y-20237214D01*
X9336071Y-20237214D01*
X9364643Y-20251500D01*
X9478928Y-20551500D02*
X9493214Y-20537214D01*
X9521786Y-20494357D01*
X9536071Y-20465786D01*
X9550357Y-20422929D01*
X9564643Y-20351500D01*
X9564643Y-20294357D01*
X9550357Y-20222929D01*
X9536071Y-20180072D01*
X9521786Y-20151500D01*
X9493214Y-20108643D01*
X9478928Y-20094357D01*
X-16287Y-20718714D02*
X-16287Y-20676287D01*
X-58713Y-20676287D01*
X-58713Y-20718714D01*
X-16287Y-20718714D01*
X336071Y-20533214D02*
X364643Y-20533214D01*
X393214Y-20547500D01*
X407500Y-20561786D01*
X421786Y-20590357D01*
X436071Y-20647500D01*
X436071Y-20718929D01*
X421786Y-20776072D01*
X407500Y-20804643D01*
X393214Y-20818929D01*
X364643Y-20833214D01*
X336071Y-20833214D01*
X307500Y-20818929D01*
X293214Y-20804643D01*
X278928Y-20776072D01*
X264643Y-20718929D01*
X264643Y-20647500D01*
X278928Y-20590357D01*
X293214Y-20561786D01*
X307500Y-20547500D01*
X336071Y-20533214D01*
X564643Y-20804643D02*
X578928Y-20818929D01*
X564643Y-20833214D01*
X550357Y-20818929D01*
X564643Y-20804643D01*
X564643Y-20833214D01*
X836071Y-20533214D02*
X778928Y-20533214D01*
X750357Y-20547500D01*
X736071Y-20561786D01*
X707500Y-20604643D01*
X693214Y-20661786D01*
X693214Y-20776072D01*
X707500Y-20804643D01*
X721786Y-20818929D01*
X750357Y-20833214D01*
X807500Y-20833214D01*
X836071Y-20818929D01*
X850357Y-20804643D01*
X864643Y-20776072D01*
X864643Y-20704643D01*
X850357Y-20676072D01*
X836071Y-20661786D01*
X807500Y-20647500D01*
X750357Y-20647500D01*
X721786Y-20661786D01*
X707500Y-20676072D01*
X693214Y-20704643D01*
X1050357Y-20533214D02*
X1078928Y-20533214D01*
X1107500Y-20547500D01*
X1121786Y-20561786D01*
X1136071Y-20590357D01*
X1150357Y-20647500D01*
X1150357Y-20718929D01*
X1136071Y-20776072D01*
X1121786Y-20804643D01*
X1107500Y-20818929D01*
X1078928Y-20833214D01*
X1050357Y-20833214D01*
X1021786Y-20818929D01*
X1007500Y-20804643D01*
X993214Y-20776072D01*
X978928Y-20718929D01*
X978928Y-20647500D01*
X993214Y-20590357D01*
X1007500Y-20561786D01*
X1021786Y-20547500D01*
X1050357Y-20533214D01*
X1336071Y-20533214D02*
X1364643Y-20533214D01*
X1393214Y-20547500D01*
X1407500Y-20561786D01*
X1421786Y-20590357D01*
X1436071Y-20647500D01*
X1436071Y-20718929D01*
X1421786Y-20776072D01*
X1407500Y-20804643D01*
X1393214Y-20818929D01*
X1364643Y-20833214D01*
X1336071Y-20833214D01*
X1307500Y-20818929D01*
X1293214Y-20804643D01*
X1278928Y-20776072D01*
X1264643Y-20718929D01*
X1264643Y-20647500D01*
X1278928Y-20590357D01*
X1293214Y-20561786D01*
X1307500Y-20547500D01*
X1336071Y-20533214D01*
X1564643Y-20833214D02*
X1564643Y-20633214D01*
X1564643Y-20661786D02*
X1578928Y-20647500D01*
X1607500Y-20633214D01*
X1650357Y-20633214D01*
X1678928Y-20647500D01*
X1693214Y-20676072D01*
X1693214Y-20833214D01*
X1693214Y-20676072D02*
X1707500Y-20647500D01*
X1736071Y-20633214D01*
X1778928Y-20633214D01*
X1807500Y-20647500D01*
X1821786Y-20676072D01*
X1821786Y-20833214D01*
X1964643Y-20833214D02*
X1964643Y-20633214D01*
X1964643Y-20661786D02*
X1978928Y-20647500D01*
X2007500Y-20633214D01*
X2050357Y-20633214D01*
X2078928Y-20647500D01*
X2093214Y-20676072D01*
X2093214Y-20833214D01*
X2093214Y-20676072D02*
X2107500Y-20647500D01*
X2136071Y-20633214D01*
X2178928Y-20633214D01*
X2207500Y-20647500D01*
X2221786Y-20676072D01*
X2221786Y-20833214D01*
X2807500Y-20518929D02*
X2550357Y-20904643D01*
X3193214Y-20533214D02*
X3221786Y-20533214D01*
X3250357Y-20547500D01*
X3264643Y-20561786D01*
X3278928Y-20590357D01*
X3293214Y-20647500D01*
X3293214Y-20718929D01*
X3278928Y-20776072D01*
X3264643Y-20804643D01*
X3250357Y-20818929D01*
X3221786Y-20833214D01*
X3193214Y-20833214D01*
X3164643Y-20818929D01*
X3150357Y-20804643D01*
X3136071Y-20776072D01*
X3121786Y-20718929D01*
X3121786Y-20647500D01*
X3136071Y-20590357D01*
X3150357Y-20561786D01*
X3164643Y-20547500D01*
X3193214Y-20533214D01*
X3421786Y-20804643D02*
X3436071Y-20818929D01*
X3421786Y-20833214D01*
X3407500Y-20818929D01*
X3421786Y-20804643D01*
X3421786Y-20833214D01*
X3621786Y-20533214D02*
X3650357Y-20533214D01*
X3678928Y-20547500D01*
X3693214Y-20561786D01*
X3707500Y-20590357D01*
X3721786Y-20647500D01*
X3721786Y-20718929D01*
X3707500Y-20776072D01*
X3693214Y-20804643D01*
X3678928Y-20818929D01*
X3650357Y-20833214D01*
X3621786Y-20833214D01*
X3593214Y-20818929D01*
X3578928Y-20804643D01*
X3564643Y-20776072D01*
X3550357Y-20718929D01*
X3550357Y-20647500D01*
X3564643Y-20590357D01*
X3578928Y-20561786D01*
X3593214Y-20547500D01*
X3621786Y-20533214D01*
X3836071Y-20561786D02*
X3850357Y-20547500D01*
X3878928Y-20533214D01*
X3950357Y-20533214D01*
X3978928Y-20547500D01*
X3993214Y-20561786D01*
X4007500Y-20590357D01*
X4007500Y-20618929D01*
X3993214Y-20661786D01*
X3821786Y-20833214D01*
X4007500Y-20833214D01*
X4107500Y-20533214D02*
X4293214Y-20533214D01*
X4193214Y-20647500D01*
X4236071Y-20647500D01*
X4264643Y-20661786D01*
X4278928Y-20676072D01*
X4293214Y-20704643D01*
X4293214Y-20776072D01*
X4278928Y-20804643D01*
X4264643Y-20818929D01*
X4236071Y-20833214D01*
X4150357Y-20833214D01*
X4121786Y-20818929D01*
X4107500Y-20804643D01*
X4550357Y-20533214D02*
X4493214Y-20533214D01*
X4464643Y-20547500D01*
X4450357Y-20561786D01*
X4421786Y-20604643D01*
X4407500Y-20661786D01*
X4407500Y-20776072D01*
X4421786Y-20804643D01*
X4436071Y-20818929D01*
X4464643Y-20833214D01*
X4521786Y-20833214D01*
X4550357Y-20818929D01*
X4564643Y-20804643D01*
X4578928Y-20776072D01*
X4578928Y-20704643D01*
X4564643Y-20676072D01*
X4550357Y-20661786D01*
X4521786Y-20647500D01*
X4464643Y-20647500D01*
X4436071Y-20661786D01*
X4421786Y-20676072D01*
X4407500Y-20704643D01*
X4693214Y-20533214D02*
X4693214Y-20590357D01*
X4807500Y-20533214D02*
X4807500Y-20590357D01*
X5250357Y-20947500D02*
X5236071Y-20933214D01*
X5207500Y-20890357D01*
X5193214Y-20861786D01*
X5178928Y-20818929D01*
X5164643Y-20747500D01*
X5164643Y-20690357D01*
X5178928Y-20618929D01*
X5193214Y-20576072D01*
X5207500Y-20547500D01*
X5236071Y-20504643D01*
X5250357Y-20490357D01*
X5407500Y-20661786D02*
X5378928Y-20647500D01*
X5364643Y-20633214D01*
X5350357Y-20604643D01*
X5350357Y-20590357D01*
X5364643Y-20561786D01*
X5378928Y-20547500D01*
X5407500Y-20533214D01*
X5464643Y-20533214D01*
X5493214Y-20547500D01*
X5507500Y-20561786D01*
X5521786Y-20590357D01*
X5521786Y-20604643D01*
X5507500Y-20633214D01*
X5493214Y-20647500D01*
X5464643Y-20661786D01*
X5407500Y-20661786D01*
X5378928Y-20676072D01*
X5364643Y-20690357D01*
X5350357Y-20718929D01*
X5350357Y-20776072D01*
X5364643Y-20804643D01*
X5378928Y-20818929D01*
X5407500Y-20833214D01*
X5464643Y-20833214D01*
X5493214Y-20818929D01*
X5507500Y-20804643D01*
X5521786Y-20776072D01*
X5521786Y-20718929D01*
X5507500Y-20690357D01*
X5493214Y-20676072D01*
X5464643Y-20661786D01*
X5878928Y-20833214D02*
X5878928Y-20533214D01*
X6007500Y-20833214D02*
X6007500Y-20676072D01*
X5993214Y-20647500D01*
X5964643Y-20633214D01*
X5921786Y-20633214D01*
X5893214Y-20647500D01*
X5878928Y-20661786D01*
X6193214Y-20833214D02*
X6164643Y-20818929D01*
X6150357Y-20804643D01*
X6136071Y-20776072D01*
X6136071Y-20690357D01*
X6150357Y-20661786D01*
X6164643Y-20647500D01*
X6193214Y-20633214D01*
X6236071Y-20633214D01*
X6264643Y-20647500D01*
X6278928Y-20661786D01*
X6293214Y-20690357D01*
X6293214Y-20776072D01*
X6278928Y-20804643D01*
X6264643Y-20818929D01*
X6236071Y-20833214D01*
X6193214Y-20833214D01*
X6464643Y-20833214D02*
X6436071Y-20818929D01*
X6421786Y-20790357D01*
X6421786Y-20533214D01*
X6693214Y-20818929D02*
X6664643Y-20833214D01*
X6607500Y-20833214D01*
X6578928Y-20818929D01*
X6564643Y-20790357D01*
X6564643Y-20676072D01*
X6578928Y-20647500D01*
X6607500Y-20633214D01*
X6664643Y-20633214D01*
X6693214Y-20647500D01*
X6707500Y-20676072D01*
X6707500Y-20704643D01*
X6564643Y-20733214D01*
X6821786Y-20818929D02*
X6850357Y-20833214D01*
X6907500Y-20833214D01*
X6936071Y-20818929D01*
X6950357Y-20790357D01*
X6950357Y-20776072D01*
X6936071Y-20747500D01*
X6907500Y-20733214D01*
X6864643Y-20733214D01*
X6836071Y-20718929D01*
X6821786Y-20690357D01*
X6821786Y-20676072D01*
X6836071Y-20647500D01*
X6864643Y-20633214D01*
X6907500Y-20633214D01*
X6936071Y-20647500D01*
X7050357Y-20947500D02*
X7064643Y-20933214D01*
X7093214Y-20890357D01*
X7107500Y-20861786D01*
X7121786Y-20818929D01*
X7136071Y-20747500D01*
X7136071Y-20690357D01*
X7121786Y-20618929D01*
X7107500Y-20576072D01*
X7093214Y-20547500D01*
X7064643Y-20504643D01*
X7050357Y-20490357D01*
X-45600Y-21131600D02*
X-7500Y-21093500D01*
X-45600Y-21055400D01*
X-83700Y-21093500D01*
X-45600Y-21131600D01*
X336071Y-20929214D02*
X364643Y-20929214D01*
X393214Y-20943500D01*
X407500Y-20957786D01*
X421786Y-20986357D01*
X436071Y-21043500D01*
X436071Y-21114929D01*
X421786Y-21172072D01*
X407500Y-21200643D01*
X393214Y-21214929D01*
X364643Y-21229214D01*
X336071Y-21229214D01*
X307500Y-21214929D01*
X293214Y-21200643D01*
X278928Y-21172072D01*
X264643Y-21114929D01*
X264643Y-21043500D01*
X278928Y-20986357D01*
X293214Y-20957786D01*
X307500Y-20943500D01*
X336071Y-20929214D01*
X564643Y-21200643D02*
X578928Y-21214929D01*
X564643Y-21229214D01*
X550357Y-21214929D01*
X564643Y-21200643D01*
X564643Y-21229214D01*
X678928Y-20929214D02*
X878928Y-20929214D01*
X750357Y-21229214D01*
X1121786Y-20929214D02*
X1064643Y-20929214D01*
X1036071Y-20943500D01*
X1021786Y-20957786D01*
X993214Y-21000643D01*
X978928Y-21057786D01*
X978928Y-21172072D01*
X993214Y-21200643D01*
X1007500Y-21214929D01*
X1036071Y-21229214D01*
X1093214Y-21229214D01*
X1121786Y-21214929D01*
X1136071Y-21200643D01*
X1150357Y-21172072D01*
X1150357Y-21100643D01*
X1136071Y-21072072D01*
X1121786Y-21057786D01*
X1093214Y-21043500D01*
X1036071Y-21043500D01*
X1007500Y-21057786D01*
X993214Y-21072072D01*
X978928Y-21100643D01*
X1264643Y-20957786D02*
X1278928Y-20943500D01*
X1307500Y-20929214D01*
X1378928Y-20929214D01*
X1407500Y-20943500D01*
X1421786Y-20957786D01*
X1436071Y-20986357D01*
X1436071Y-21014929D01*
X1421786Y-21057786D01*
X1250357Y-21229214D01*
X1436071Y-21229214D01*
X1564643Y-21229214D02*
X1564643Y-21029214D01*
X1564643Y-21057786D02*
X1578928Y-21043500D01*
X1607500Y-21029214D01*
X1650357Y-21029214D01*
X1678928Y-21043500D01*
X1693214Y-21072072D01*
X1693214Y-21229214D01*
X1693214Y-21072072D02*
X1707500Y-21043500D01*
X1736071Y-21029214D01*
X1778928Y-21029214D01*
X1807500Y-21043500D01*
X1821786Y-21072072D01*
X1821786Y-21229214D01*
X1964643Y-21229214D02*
X1964643Y-21029214D01*
X1964643Y-21057786D02*
X1978928Y-21043500D01*
X2007500Y-21029214D01*
X2050357Y-21029214D01*
X2078928Y-21043500D01*
X2093214Y-21072072D01*
X2093214Y-21229214D01*
X2093214Y-21072072D02*
X2107500Y-21043500D01*
X2136071Y-21029214D01*
X2178928Y-21029214D01*
X2207500Y-21043500D01*
X2221786Y-21072072D01*
X2221786Y-21229214D01*
X2807500Y-20914929D02*
X2550357Y-21300643D01*
X3193214Y-20929214D02*
X3221786Y-20929214D01*
X3250357Y-20943500D01*
X3264643Y-20957786D01*
X3278928Y-20986357D01*
X3293214Y-21043500D01*
X3293214Y-21114929D01*
X3278928Y-21172072D01*
X3264643Y-21200643D01*
X3250357Y-21214929D01*
X3221786Y-21229214D01*
X3193214Y-21229214D01*
X3164643Y-21214929D01*
X3150357Y-21200643D01*
X3136071Y-21172072D01*
X3121786Y-21114929D01*
X3121786Y-21043500D01*
X3136071Y-20986357D01*
X3150357Y-20957786D01*
X3164643Y-20943500D01*
X3193214Y-20929214D01*
X3421786Y-21200643D02*
X3436071Y-21214929D01*
X3421786Y-21229214D01*
X3407500Y-21214929D01*
X3421786Y-21200643D01*
X3421786Y-21229214D01*
X3621786Y-20929214D02*
X3650357Y-20929214D01*
X3678928Y-20943500D01*
X3693214Y-20957786D01*
X3707500Y-20986357D01*
X3721786Y-21043500D01*
X3721786Y-21114929D01*
X3707500Y-21172072D01*
X3693214Y-21200643D01*
X3678928Y-21214929D01*
X3650357Y-21229214D01*
X3621786Y-21229214D01*
X3593214Y-21214929D01*
X3578928Y-21200643D01*
X3564643Y-21172072D01*
X3550357Y-21114929D01*
X3550357Y-21043500D01*
X3564643Y-20986357D01*
X3578928Y-20957786D01*
X3593214Y-20943500D01*
X3621786Y-20929214D01*
X3821786Y-20929214D02*
X4007500Y-20929214D01*
X3907500Y-21043500D01*
X3950357Y-21043500D01*
X3978928Y-21057786D01*
X3993214Y-21072072D01*
X4007500Y-21100643D01*
X4007500Y-21172072D01*
X3993214Y-21200643D01*
X3978928Y-21214929D01*
X3950357Y-21229214D01*
X3864643Y-21229214D01*
X3836071Y-21214929D01*
X3821786Y-21200643D01*
X4193214Y-20929214D02*
X4221786Y-20929214D01*
X4250357Y-20943500D01*
X4264643Y-20957786D01*
X4278928Y-20986357D01*
X4293214Y-21043500D01*
X4293214Y-21114929D01*
X4278928Y-21172072D01*
X4264643Y-21200643D01*
X4250357Y-21214929D01*
X4221786Y-21229214D01*
X4193214Y-21229214D01*
X4164643Y-21214929D01*
X4150357Y-21200643D01*
X4136071Y-21172072D01*
X4121786Y-21114929D01*
X4121786Y-21043500D01*
X4136071Y-20986357D01*
X4150357Y-20957786D01*
X4164643Y-20943500D01*
X4193214Y-20929214D01*
X4478928Y-20929214D02*
X4507500Y-20929214D01*
X4536071Y-20943500D01*
X4550357Y-20957786D01*
X4564643Y-20986357D01*
X4578928Y-21043500D01*
X4578928Y-21114929D01*
X4564643Y-21172072D01*
X4550357Y-21200643D01*
X4536071Y-21214929D01*
X4507500Y-21229214D01*
X4478928Y-21229214D01*
X4450357Y-21214929D01*
X4436071Y-21200643D01*
X4421786Y-21172072D01*
X4407500Y-21114929D01*
X4407500Y-21043500D01*
X4421786Y-20986357D01*
X4436071Y-20957786D01*
X4450357Y-20943500D01*
X4478928Y-20929214D01*
X4693214Y-20929214D02*
X4693214Y-20986357D01*
X4807500Y-20929214D02*
X4807500Y-20986357D01*
X5250357Y-21343500D02*
X5236071Y-21329214D01*
X5207500Y-21286357D01*
X5193214Y-21257786D01*
X5178928Y-21214929D01*
X5164643Y-21143500D01*
X5164643Y-21086357D01*
X5178928Y-21014929D01*
X5193214Y-20972072D01*
X5207500Y-20943500D01*
X5236071Y-20900643D01*
X5250357Y-20886357D01*
X5336071Y-20929214D02*
X5521786Y-20929214D01*
X5421786Y-21043500D01*
X5464643Y-21043500D01*
X5493214Y-21057786D01*
X5507500Y-21072072D01*
X5521786Y-21100643D01*
X5521786Y-21172072D01*
X5507500Y-21200643D01*
X5493214Y-21214929D01*
X5464643Y-21229214D01*
X5378928Y-21229214D01*
X5350357Y-21214929D01*
X5336071Y-21200643D01*
X5707500Y-20929214D02*
X5736071Y-20929214D01*
X5764643Y-20943500D01*
X5778928Y-20957786D01*
X5793214Y-20986357D01*
X5807500Y-21043500D01*
X5807500Y-21114929D01*
X5793214Y-21172072D01*
X5778928Y-21200643D01*
X5764643Y-21214929D01*
X5736071Y-21229214D01*
X5707500Y-21229214D01*
X5678928Y-21214929D01*
X5664643Y-21200643D01*
X5650357Y-21172072D01*
X5636071Y-21114929D01*
X5636071Y-21043500D01*
X5650357Y-20986357D01*
X5664643Y-20957786D01*
X5678928Y-20943500D01*
X5707500Y-20929214D01*
X6164643Y-21229214D02*
X6164643Y-20929214D01*
X6293214Y-21229214D02*
X6293214Y-21072072D01*
X6278928Y-21043500D01*
X6250357Y-21029214D01*
X6207500Y-21029214D01*
X6178928Y-21043500D01*
X6164643Y-21057786D01*
X6478928Y-21229214D02*
X6450357Y-21214929D01*
X6436071Y-21200643D01*
X6421786Y-21172072D01*
X6421786Y-21086357D01*
X6436071Y-21057786D01*
X6450357Y-21043500D01*
X6478928Y-21029214D01*
X6521786Y-21029214D01*
X6550357Y-21043500D01*
X6564643Y-21057786D01*
X6578928Y-21086357D01*
X6578928Y-21172072D01*
X6564643Y-21200643D01*
X6550357Y-21214929D01*
X6521786Y-21229214D01*
X6478928Y-21229214D01*
X6750357Y-21229214D02*
X6721786Y-21214929D01*
X6707500Y-21186357D01*
X6707500Y-20929214D01*
X6978928Y-21214929D02*
X6950357Y-21229214D01*
X6893214Y-21229214D01*
X6864643Y-21214929D01*
X6850357Y-21186357D01*
X6850357Y-21072072D01*
X6864643Y-21043500D01*
X6893214Y-21029214D01*
X6950357Y-21029214D01*
X6978928Y-21043500D01*
X6993214Y-21072072D01*
X6993214Y-21100643D01*
X6850357Y-21129214D01*
X7107500Y-21214929D02*
X7136071Y-21229214D01*
X7193214Y-21229214D01*
X7221786Y-21214929D01*
X7236071Y-21186357D01*
X7236071Y-21172072D01*
X7221786Y-21143500D01*
X7193214Y-21129214D01*
X7150357Y-21129214D01*
X7121786Y-21114929D01*
X7107500Y-21086357D01*
X7107500Y-21072072D01*
X7121786Y-21043500D01*
X7150357Y-21029214D01*
X7193214Y-21029214D01*
X7221786Y-21043500D01*
X7336071Y-21343500D02*
X7350357Y-21329214D01*
X7378928Y-21286357D01*
X7393214Y-21257786D01*
X7407500Y-21214929D01*
X7421786Y-21143500D01*
X7421786Y-21086357D01*
X7407500Y-21014929D01*
X7393214Y-20972072D01*
X7378928Y-20943500D01*
X7350357Y-20900643D01*
X7336071Y-20886357D01*
X-87500Y-21449500D02*
X-7500Y-21529500D01*
X-7500Y-21449500D02*
X-87500Y-21529500D01*
X-7500Y-21489500D02*
G75*
G03*
X-7500Y-21489500I-40000J0D01*
G01*
X336071Y-21325214D02*
X364643Y-21325214D01*
X393214Y-21339500D01*
X407500Y-21353786D01*
X421786Y-21382357D01*
X436071Y-21439500D01*
X436071Y-21510929D01*
X421786Y-21568072D01*
X407500Y-21596643D01*
X393214Y-21610929D01*
X364643Y-21625214D01*
X336071Y-21625214D01*
X307500Y-21610929D01*
X293214Y-21596643D01*
X278928Y-21568072D01*
X264643Y-21510929D01*
X264643Y-21439500D01*
X278928Y-21382357D01*
X293214Y-21353786D01*
X307500Y-21339500D01*
X336071Y-21325214D01*
X564643Y-21596643D02*
X578928Y-21610929D01*
X564643Y-21625214D01*
X550357Y-21610929D01*
X564643Y-21596643D01*
X564643Y-21625214D01*
X750357Y-21453786D02*
X721786Y-21439500D01*
X707500Y-21425214D01*
X693214Y-21396643D01*
X693214Y-21382357D01*
X707500Y-21353786D01*
X721786Y-21339500D01*
X750357Y-21325214D01*
X807500Y-21325214D01*
X836071Y-21339500D01*
X850357Y-21353786D01*
X864643Y-21382357D01*
X864643Y-21396643D01*
X850357Y-21425214D01*
X836071Y-21439500D01*
X807500Y-21453786D01*
X750357Y-21453786D01*
X721786Y-21468072D01*
X707500Y-21482357D01*
X693214Y-21510929D01*
X693214Y-21568072D01*
X707500Y-21596643D01*
X721786Y-21610929D01*
X750357Y-21625214D01*
X807500Y-21625214D01*
X836071Y-21610929D01*
X850357Y-21596643D01*
X864643Y-21568072D01*
X864643Y-21510929D01*
X850357Y-21482357D01*
X836071Y-21468072D01*
X807500Y-21453786D01*
X1050357Y-21325214D02*
X1078928Y-21325214D01*
X1107500Y-21339500D01*
X1121786Y-21353786D01*
X1136071Y-21382357D01*
X1150357Y-21439500D01*
X1150357Y-21510929D01*
X1136071Y-21568072D01*
X1121786Y-21596643D01*
X1107500Y-21610929D01*
X1078928Y-21625214D01*
X1050357Y-21625214D01*
X1021786Y-21610929D01*
X1007500Y-21596643D01*
X993214Y-21568072D01*
X978928Y-21510929D01*
X978928Y-21439500D01*
X993214Y-21382357D01*
X1007500Y-21353786D01*
X1021786Y-21339500D01*
X1050357Y-21325214D01*
X1336071Y-21325214D02*
X1364643Y-21325214D01*
X1393214Y-21339500D01*
X1407500Y-21353786D01*
X1421786Y-21382357D01*
X1436071Y-21439500D01*
X1436071Y-21510929D01*
X1421786Y-21568072D01*
X1407500Y-21596643D01*
X1393214Y-21610929D01*
X1364643Y-21625214D01*
X1336071Y-21625214D01*
X1307500Y-21610929D01*
X1293214Y-21596643D01*
X1278928Y-21568072D01*
X1264643Y-21510929D01*
X1264643Y-21439500D01*
X1278928Y-21382357D01*
X1293214Y-21353786D01*
X1307500Y-21339500D01*
X1336071Y-21325214D01*
X1564643Y-21625214D02*
X1564643Y-21425214D01*
X1564643Y-21453786D02*
X1578928Y-21439500D01*
X1607500Y-21425214D01*
X1650357Y-21425214D01*
X1678928Y-21439500D01*
X1693214Y-21468072D01*
X1693214Y-21625214D01*
X1693214Y-21468072D02*
X1707500Y-21439500D01*
X1736071Y-21425214D01*
X1778928Y-21425214D01*
X1807500Y-21439500D01*
X1821786Y-21468072D01*
X1821786Y-21625214D01*
X1964643Y-21625214D02*
X1964643Y-21425214D01*
X1964643Y-21453786D02*
X1978928Y-21439500D01*
X2007500Y-21425214D01*
X2050357Y-21425214D01*
X2078928Y-21439500D01*
X2093214Y-21468072D01*
X2093214Y-21625214D01*
X2093214Y-21468072D02*
X2107500Y-21439500D01*
X2136071Y-21425214D01*
X2178928Y-21425214D01*
X2207500Y-21439500D01*
X2221786Y-21468072D01*
X2221786Y-21625214D01*
X2807500Y-21310929D02*
X2550357Y-21696643D01*
X3193214Y-21325214D02*
X3221786Y-21325214D01*
X3250357Y-21339500D01*
X3264643Y-21353786D01*
X3278928Y-21382357D01*
X3293214Y-21439500D01*
X3293214Y-21510929D01*
X3278928Y-21568072D01*
X3264643Y-21596643D01*
X3250357Y-21610929D01*
X3221786Y-21625214D01*
X3193214Y-21625214D01*
X3164643Y-21610929D01*
X3150357Y-21596643D01*
X3136071Y-21568072D01*
X3121786Y-21510929D01*
X3121786Y-21439500D01*
X3136071Y-21382357D01*
X3150357Y-21353786D01*
X3164643Y-21339500D01*
X3193214Y-21325214D01*
X3421786Y-21596643D02*
X3436071Y-21610929D01*
X3421786Y-21625214D01*
X3407500Y-21610929D01*
X3421786Y-21596643D01*
X3421786Y-21625214D01*
X3621786Y-21325214D02*
X3650357Y-21325214D01*
X3678928Y-21339500D01*
X3693214Y-21353786D01*
X3707500Y-21382357D01*
X3721786Y-21439500D01*
X3721786Y-21510929D01*
X3707500Y-21568072D01*
X3693214Y-21596643D01*
X3678928Y-21610929D01*
X3650357Y-21625214D01*
X3621786Y-21625214D01*
X3593214Y-21610929D01*
X3578928Y-21596643D01*
X3564643Y-21568072D01*
X3550357Y-21510929D01*
X3550357Y-21439500D01*
X3564643Y-21382357D01*
X3578928Y-21353786D01*
X3593214Y-21339500D01*
X3621786Y-21325214D01*
X3821786Y-21325214D02*
X4007500Y-21325214D01*
X3907500Y-21439500D01*
X3950357Y-21439500D01*
X3978928Y-21453786D01*
X3993214Y-21468072D01*
X4007500Y-21496643D01*
X4007500Y-21568072D01*
X3993214Y-21596643D01*
X3978928Y-21610929D01*
X3950357Y-21625214D01*
X3864643Y-21625214D01*
X3836071Y-21610929D01*
X3821786Y-21596643D01*
X4293214Y-21625214D02*
X4121786Y-21625214D01*
X4207500Y-21625214D02*
X4207500Y-21325214D01*
X4178928Y-21368072D01*
X4150357Y-21396643D01*
X4121786Y-21410929D01*
X4564643Y-21325214D02*
X4421786Y-21325214D01*
X4407500Y-21468072D01*
X4421786Y-21453786D01*
X4450357Y-21439500D01*
X4521786Y-21439500D01*
X4550357Y-21453786D01*
X4564643Y-21468072D01*
X4578928Y-21496643D01*
X4578928Y-21568072D01*
X4564643Y-21596643D01*
X4550357Y-21610929D01*
X4521786Y-21625214D01*
X4450357Y-21625214D01*
X4421786Y-21610929D01*
X4407500Y-21596643D01*
X4693214Y-21325214D02*
X4693214Y-21382357D01*
X4807500Y-21325214D02*
X4807500Y-21382357D01*
X5250357Y-21739500D02*
X5236071Y-21725214D01*
X5207500Y-21682357D01*
X5193214Y-21653786D01*
X5178928Y-21610929D01*
X5164643Y-21539500D01*
X5164643Y-21482357D01*
X5178928Y-21410929D01*
X5193214Y-21368072D01*
X5207500Y-21339500D01*
X5236071Y-21296643D01*
X5250357Y-21282357D01*
X5350357Y-21353786D02*
X5364643Y-21339500D01*
X5393214Y-21325214D01*
X5464643Y-21325214D01*
X5493214Y-21339500D01*
X5507500Y-21353786D01*
X5521786Y-21382357D01*
X5521786Y-21410929D01*
X5507500Y-21453786D01*
X5336071Y-21625214D01*
X5521786Y-21625214D01*
X5878928Y-21625214D02*
X5878928Y-21325214D01*
X6007500Y-21625214D02*
X6007500Y-21468072D01*
X5993214Y-21439500D01*
X5964643Y-21425214D01*
X5921786Y-21425214D01*
X5893214Y-21439500D01*
X5878928Y-21453786D01*
X6193214Y-21625214D02*
X6164643Y-21610929D01*
X6150357Y-21596643D01*
X6136071Y-21568072D01*
X6136071Y-21482357D01*
X6150357Y-21453786D01*
X6164643Y-21439500D01*
X6193214Y-21425214D01*
X6236071Y-21425214D01*
X6264643Y-21439500D01*
X6278928Y-21453786D01*
X6293214Y-21482357D01*
X6293214Y-21568072D01*
X6278928Y-21596643D01*
X6264643Y-21610929D01*
X6236071Y-21625214D01*
X6193214Y-21625214D01*
X6464643Y-21625214D02*
X6436071Y-21610929D01*
X6421786Y-21582357D01*
X6421786Y-21325214D01*
X6693214Y-21610929D02*
X6664643Y-21625214D01*
X6607500Y-21625214D01*
X6578928Y-21610929D01*
X6564643Y-21582357D01*
X6564643Y-21468072D01*
X6578928Y-21439500D01*
X6607500Y-21425214D01*
X6664643Y-21425214D01*
X6693214Y-21439500D01*
X6707500Y-21468072D01*
X6707500Y-21496643D01*
X6564643Y-21525214D01*
X6821786Y-21610929D02*
X6850357Y-21625214D01*
X6907500Y-21625214D01*
X6936071Y-21610929D01*
X6950357Y-21582357D01*
X6950357Y-21568072D01*
X6936071Y-21539500D01*
X6907500Y-21525214D01*
X6864643Y-21525214D01*
X6836071Y-21510929D01*
X6821786Y-21482357D01*
X6821786Y-21468072D01*
X6836071Y-21439500D01*
X6864643Y-21425214D01*
X6907500Y-21425214D01*
X6936071Y-21439500D01*
X7050357Y-21739500D02*
X7064643Y-21725214D01*
X7093214Y-21682357D01*
X7107500Y-21653786D01*
X7121786Y-21610929D01*
X7136071Y-21539500D01*
X7136071Y-21482357D01*
X7121786Y-21410929D01*
X7107500Y-21368072D01*
X7093214Y-21339500D01*
X7064643Y-21296643D01*
X7050357Y-21282357D01*
X-92500Y-21843000D02*
X-7500Y-21928000D01*
X-7500Y-21843000D02*
X-92500Y-21928000D01*
X-50000Y-21843000D02*
X-50000Y-21928000D01*
X-92500Y-21885500D02*
X-7500Y-21885500D01*
X336071Y-21721214D02*
X364643Y-21721214D01*
X393214Y-21735500D01*
X407500Y-21749786D01*
X421786Y-21778357D01*
X436071Y-21835500D01*
X436071Y-21906929D01*
X421786Y-21964072D01*
X407500Y-21992643D01*
X393214Y-22006929D01*
X364643Y-22021214D01*
X336071Y-22021214D01*
X307500Y-22006929D01*
X293214Y-21992643D01*
X278928Y-21964072D01*
X264643Y-21906929D01*
X264643Y-21835500D01*
X278928Y-21778357D01*
X293214Y-21749786D01*
X307500Y-21735500D01*
X336071Y-21721214D01*
X564643Y-21992643D02*
X578928Y-22006929D01*
X564643Y-22021214D01*
X550357Y-22006929D01*
X564643Y-21992643D01*
X564643Y-22021214D01*
X750357Y-21849786D02*
X721786Y-21835500D01*
X707500Y-21821214D01*
X693214Y-21792643D01*
X693214Y-21778357D01*
X707500Y-21749786D01*
X721786Y-21735500D01*
X750357Y-21721214D01*
X807500Y-21721214D01*
X836071Y-21735500D01*
X850357Y-21749786D01*
X864643Y-21778357D01*
X864643Y-21792643D01*
X850357Y-21821214D01*
X836071Y-21835500D01*
X807500Y-21849786D01*
X750357Y-21849786D01*
X721786Y-21864072D01*
X707500Y-21878357D01*
X693214Y-21906929D01*
X693214Y-21964072D01*
X707500Y-21992643D01*
X721786Y-22006929D01*
X750357Y-22021214D01*
X807500Y-22021214D01*
X836071Y-22006929D01*
X850357Y-21992643D01*
X864643Y-21964072D01*
X864643Y-21906929D01*
X850357Y-21878357D01*
X836071Y-21864072D01*
X807500Y-21849786D01*
X1136071Y-21721214D02*
X993214Y-21721214D01*
X978928Y-21864072D01*
X993214Y-21849786D01*
X1021786Y-21835500D01*
X1093214Y-21835500D01*
X1121786Y-21849786D01*
X1136071Y-21864072D01*
X1150357Y-21892643D01*
X1150357Y-21964072D01*
X1136071Y-21992643D01*
X1121786Y-22006929D01*
X1093214Y-22021214D01*
X1021786Y-22021214D01*
X993214Y-22006929D01*
X978928Y-21992643D01*
X1336071Y-21721214D02*
X1364643Y-21721214D01*
X1393214Y-21735500D01*
X1407500Y-21749786D01*
X1421786Y-21778357D01*
X1436071Y-21835500D01*
X1436071Y-21906929D01*
X1421786Y-21964072D01*
X1407500Y-21992643D01*
X1393214Y-22006929D01*
X1364643Y-22021214D01*
X1336071Y-22021214D01*
X1307500Y-22006929D01*
X1293214Y-21992643D01*
X1278928Y-21964072D01*
X1264643Y-21906929D01*
X1264643Y-21835500D01*
X1278928Y-21778357D01*
X1293214Y-21749786D01*
X1307500Y-21735500D01*
X1336071Y-21721214D01*
X1564643Y-22021214D02*
X1564643Y-21821214D01*
X1564643Y-21849786D02*
X1578928Y-21835500D01*
X1607500Y-21821214D01*
X1650357Y-21821214D01*
X1678928Y-21835500D01*
X1693214Y-21864072D01*
X1693214Y-22021214D01*
X1693214Y-21864072D02*
X1707500Y-21835500D01*
X1736071Y-21821214D01*
X1778928Y-21821214D01*
X1807500Y-21835500D01*
X1821786Y-21864072D01*
X1821786Y-22021214D01*
X1964643Y-22021214D02*
X1964643Y-21821214D01*
X1964643Y-21849786D02*
X1978928Y-21835500D01*
X2007500Y-21821214D01*
X2050357Y-21821214D01*
X2078928Y-21835500D01*
X2093214Y-21864072D01*
X2093214Y-22021214D01*
X2093214Y-21864072D02*
X2107500Y-21835500D01*
X2136071Y-21821214D01*
X2178928Y-21821214D01*
X2207500Y-21835500D01*
X2221786Y-21864072D01*
X2221786Y-22021214D01*
X2807500Y-21706929D02*
X2550357Y-22092643D01*
X3193214Y-21721214D02*
X3221786Y-21721214D01*
X3250357Y-21735500D01*
X3264643Y-21749786D01*
X3278928Y-21778357D01*
X3293214Y-21835500D01*
X3293214Y-21906929D01*
X3278928Y-21964072D01*
X3264643Y-21992643D01*
X3250357Y-22006929D01*
X3221786Y-22021214D01*
X3193214Y-22021214D01*
X3164643Y-22006929D01*
X3150357Y-21992643D01*
X3136071Y-21964072D01*
X3121786Y-21906929D01*
X3121786Y-21835500D01*
X3136071Y-21778357D01*
X3150357Y-21749786D01*
X3164643Y-21735500D01*
X3193214Y-21721214D01*
X3421786Y-21992643D02*
X3436071Y-22006929D01*
X3421786Y-22021214D01*
X3407500Y-22006929D01*
X3421786Y-21992643D01*
X3421786Y-22021214D01*
X3621786Y-21721214D02*
X3650357Y-21721214D01*
X3678928Y-21735500D01*
X3693214Y-21749786D01*
X3707500Y-21778357D01*
X3721786Y-21835500D01*
X3721786Y-21906929D01*
X3707500Y-21964072D01*
X3693214Y-21992643D01*
X3678928Y-22006929D01*
X3650357Y-22021214D01*
X3621786Y-22021214D01*
X3593214Y-22006929D01*
X3578928Y-21992643D01*
X3564643Y-21964072D01*
X3550357Y-21906929D01*
X3550357Y-21835500D01*
X3564643Y-21778357D01*
X3578928Y-21749786D01*
X3593214Y-21735500D01*
X3621786Y-21721214D01*
X3821786Y-21721214D02*
X4007500Y-21721214D01*
X3907500Y-21835500D01*
X3950357Y-21835500D01*
X3978928Y-21849786D01*
X3993214Y-21864072D01*
X4007500Y-21892643D01*
X4007500Y-21964072D01*
X3993214Y-21992643D01*
X3978928Y-22006929D01*
X3950357Y-22021214D01*
X3864643Y-22021214D01*
X3836071Y-22006929D01*
X3821786Y-21992643D01*
X4107500Y-21721214D02*
X4293214Y-21721214D01*
X4193214Y-21835500D01*
X4236071Y-21835500D01*
X4264643Y-21849786D01*
X4278928Y-21864072D01*
X4293214Y-21892643D01*
X4293214Y-21964072D01*
X4278928Y-21992643D01*
X4264643Y-22006929D01*
X4236071Y-22021214D01*
X4150357Y-22021214D01*
X4121786Y-22006929D01*
X4107500Y-21992643D01*
X4564643Y-21721214D02*
X4421786Y-21721214D01*
X4407500Y-21864072D01*
X4421786Y-21849786D01*
X4450357Y-21835500D01*
X4521786Y-21835500D01*
X4550357Y-21849786D01*
X4564643Y-21864072D01*
X4578928Y-21892643D01*
X4578928Y-21964072D01*
X4564643Y-21992643D01*
X4550357Y-22006929D01*
X4521786Y-22021214D01*
X4450357Y-22021214D01*
X4421786Y-22006929D01*
X4407500Y-21992643D01*
X4693214Y-21721214D02*
X4693214Y-21778357D01*
X4807500Y-21721214D02*
X4807500Y-21778357D01*
X5250357Y-22135500D02*
X5236071Y-22121214D01*
X5207500Y-22078357D01*
X5193214Y-22049786D01*
X5178928Y-22006929D01*
X5164643Y-21935500D01*
X5164643Y-21878357D01*
X5178928Y-21806929D01*
X5193214Y-21764072D01*
X5207500Y-21735500D01*
X5236071Y-21692643D01*
X5250357Y-21678357D01*
X5421786Y-21721214D02*
X5450357Y-21721214D01*
X5478928Y-21735500D01*
X5493214Y-21749786D01*
X5507500Y-21778357D01*
X5521786Y-21835500D01*
X5521786Y-21906929D01*
X5507500Y-21964072D01*
X5493214Y-21992643D01*
X5478928Y-22006929D01*
X5450357Y-22021214D01*
X5421786Y-22021214D01*
X5393214Y-22006929D01*
X5378928Y-21992643D01*
X5364643Y-21964072D01*
X5350357Y-21906929D01*
X5350357Y-21835500D01*
X5364643Y-21778357D01*
X5378928Y-21749786D01*
X5393214Y-21735500D01*
X5421786Y-21721214D01*
X5878928Y-22021214D02*
X5878928Y-21721214D01*
X6007500Y-22021214D02*
X6007500Y-21864072D01*
X5993214Y-21835500D01*
X5964643Y-21821214D01*
X5921786Y-21821214D01*
X5893214Y-21835500D01*
X5878928Y-21849786D01*
X6193214Y-22021214D02*
X6164643Y-22006929D01*
X6150357Y-21992643D01*
X6136071Y-21964072D01*
X6136071Y-21878357D01*
X6150357Y-21849786D01*
X6164643Y-21835500D01*
X6193214Y-21821214D01*
X6236071Y-21821214D01*
X6264643Y-21835500D01*
X6278928Y-21849786D01*
X6293214Y-21878357D01*
X6293214Y-21964072D01*
X6278928Y-21992643D01*
X6264643Y-22006929D01*
X6236071Y-22021214D01*
X6193214Y-22021214D01*
X6464643Y-22021214D02*
X6436071Y-22006929D01*
X6421786Y-21978357D01*
X6421786Y-21721214D01*
X6693214Y-22006929D02*
X6664643Y-22021214D01*
X6607500Y-22021214D01*
X6578928Y-22006929D01*
X6564643Y-21978357D01*
X6564643Y-21864072D01*
X6578928Y-21835500D01*
X6607500Y-21821214D01*
X6664643Y-21821214D01*
X6693214Y-21835500D01*
X6707500Y-21864072D01*
X6707500Y-21892643D01*
X6564643Y-21921214D01*
X6821786Y-22006929D02*
X6850357Y-22021214D01*
X6907500Y-22021214D01*
X6936071Y-22006929D01*
X6950357Y-21978357D01*
X6950357Y-21964072D01*
X6936071Y-21935500D01*
X6907500Y-21921214D01*
X6864643Y-21921214D01*
X6836071Y-21906929D01*
X6821786Y-21878357D01*
X6821786Y-21864072D01*
X6836071Y-21835500D01*
X6864643Y-21821214D01*
X6907500Y-21821214D01*
X6936071Y-21835500D01*
X7307500Y-21906929D02*
X7536071Y-21906929D01*
X7421786Y-22021214D02*
X7421786Y-21792643D01*
X7921786Y-22021214D02*
X7978928Y-22021214D01*
X8007500Y-22006929D01*
X8021786Y-21992643D01*
X8050357Y-21949786D01*
X8064643Y-21892643D01*
X8064643Y-21778357D01*
X8050357Y-21749786D01*
X8036071Y-21735500D01*
X8007500Y-21721214D01*
X7950357Y-21721214D01*
X7921786Y-21735500D01*
X7907500Y-21749786D01*
X7893214Y-21778357D01*
X7893214Y-21849786D01*
X7907500Y-21878357D01*
X7921786Y-21892643D01*
X7950357Y-21906929D01*
X8007500Y-21906929D01*
X8036071Y-21892643D01*
X8050357Y-21878357D01*
X8064643Y-21849786D01*
X8407500Y-22006929D02*
X8436071Y-22021214D01*
X8493214Y-22021214D01*
X8521786Y-22006929D01*
X8536071Y-21978357D01*
X8536071Y-21964072D01*
X8521786Y-21935500D01*
X8493214Y-21921214D01*
X8450357Y-21921214D01*
X8421786Y-21906929D01*
X8407500Y-21878357D01*
X8407500Y-21864072D01*
X8421786Y-21835500D01*
X8450357Y-21821214D01*
X8493214Y-21821214D01*
X8521786Y-21835500D01*
X8707500Y-22021214D02*
X8678928Y-22006929D01*
X8664643Y-21978357D01*
X8664643Y-21721214D01*
X8864643Y-22021214D02*
X8836071Y-22006929D01*
X8821786Y-21992643D01*
X8807500Y-21964072D01*
X8807500Y-21878357D01*
X8821786Y-21849786D01*
X8836071Y-21835500D01*
X8864643Y-21821214D01*
X8907500Y-21821214D01*
X8936071Y-21835500D01*
X8950357Y-21849786D01*
X8964643Y-21878357D01*
X8964643Y-21964072D01*
X8950357Y-21992643D01*
X8936071Y-22006929D01*
X8907500Y-22021214D01*
X8864643Y-22021214D01*
X9050357Y-21821214D02*
X9164643Y-21821214D01*
X9093214Y-21721214D02*
X9093214Y-21978357D01*
X9107500Y-22006929D01*
X9136071Y-22021214D01*
X9164643Y-22021214D01*
X9250357Y-22006929D02*
X9278928Y-22021214D01*
X9336071Y-22021214D01*
X9364643Y-22006929D01*
X9378928Y-21978357D01*
X9378928Y-21964072D01*
X9364643Y-21935500D01*
X9336071Y-21921214D01*
X9293214Y-21921214D01*
X9264643Y-21906929D01*
X9250357Y-21878357D01*
X9250357Y-21864072D01*
X9264643Y-21835500D01*
X9293214Y-21821214D01*
X9336071Y-21821214D01*
X9364643Y-21835500D01*
X9478928Y-22135500D02*
X9493214Y-22121214D01*
X9521786Y-22078357D01*
X9536071Y-22049786D01*
X9550357Y-22006929D01*
X9564643Y-21935500D01*
X9564643Y-21878357D01*
X9550357Y-21806929D01*
X9536071Y-21764072D01*
X9521786Y-21735500D01*
X9493214Y-21692643D01*
X9478928Y-21678357D01*
X-107500Y-22231500D02*
X-7500Y-22331500D01*
X-7500Y-22231500D02*
X-107500Y-22331500D01*
X-22144Y-22316856D02*
X-22144Y-22246144D01*
X-92856Y-22246144D01*
X-92856Y-22316856D01*
X-22144Y-22316856D01*
X436071Y-22417214D02*
X264643Y-22417214D01*
X350357Y-22417214D02*
X350357Y-22117214D01*
X321786Y-22160072D01*
X293214Y-22188643D01*
X264643Y-22202929D01*
X564643Y-22388643D02*
X578928Y-22402929D01*
X564643Y-22417214D01*
X550357Y-22402929D01*
X564643Y-22388643D01*
X564643Y-22417214D01*
X764643Y-22117214D02*
X793214Y-22117214D01*
X821786Y-22131500D01*
X836071Y-22145786D01*
X850357Y-22174357D01*
X864643Y-22231500D01*
X864643Y-22302929D01*
X850357Y-22360072D01*
X836071Y-22388643D01*
X821786Y-22402929D01*
X793214Y-22417214D01*
X764643Y-22417214D01*
X736071Y-22402929D01*
X721786Y-22388643D01*
X707500Y-22360072D01*
X693214Y-22302929D01*
X693214Y-22231500D01*
X707500Y-22174357D01*
X721786Y-22145786D01*
X736071Y-22131500D01*
X764643Y-22117214D01*
X1050357Y-22117214D02*
X1078928Y-22117214D01*
X1107500Y-22131500D01*
X1121786Y-22145786D01*
X1136071Y-22174357D01*
X1150357Y-22231500D01*
X1150357Y-22302929D01*
X1136071Y-22360072D01*
X1121786Y-22388643D01*
X1107500Y-22402929D01*
X1078928Y-22417214D01*
X1050357Y-22417214D01*
X1021786Y-22402929D01*
X1007500Y-22388643D01*
X993214Y-22360072D01*
X978928Y-22302929D01*
X978928Y-22231500D01*
X993214Y-22174357D01*
X1007500Y-22145786D01*
X1021786Y-22131500D01*
X1050357Y-22117214D01*
X1336071Y-22117214D02*
X1364643Y-22117214D01*
X1393214Y-22131500D01*
X1407500Y-22145786D01*
X1421786Y-22174357D01*
X1436071Y-22231500D01*
X1436071Y-22302929D01*
X1421786Y-22360072D01*
X1407500Y-22388643D01*
X1393214Y-22402929D01*
X1364643Y-22417214D01*
X1336071Y-22417214D01*
X1307500Y-22402929D01*
X1293214Y-22388643D01*
X1278928Y-22360072D01*
X1264643Y-22302929D01*
X1264643Y-22231500D01*
X1278928Y-22174357D01*
X1293214Y-22145786D01*
X1307500Y-22131500D01*
X1336071Y-22117214D01*
X1564643Y-22417214D02*
X1564643Y-22217214D01*
X1564643Y-22245786D02*
X1578928Y-22231500D01*
X1607500Y-22217214D01*
X1650357Y-22217214D01*
X1678928Y-22231500D01*
X1693214Y-22260072D01*
X1693214Y-22417214D01*
X1693214Y-22260072D02*
X1707500Y-22231500D01*
X1736071Y-22217214D01*
X1778928Y-22217214D01*
X1807500Y-22231500D01*
X1821786Y-22260072D01*
X1821786Y-22417214D01*
X1964643Y-22417214D02*
X1964643Y-22217214D01*
X1964643Y-22245786D02*
X1978928Y-22231500D01*
X2007500Y-22217214D01*
X2050357Y-22217214D01*
X2078928Y-22231500D01*
X2093214Y-22260072D01*
X2093214Y-22417214D01*
X2093214Y-22260072D02*
X2107500Y-22231500D01*
X2136071Y-22217214D01*
X2178928Y-22217214D01*
X2207500Y-22231500D01*
X2221786Y-22260072D01*
X2221786Y-22417214D01*
X2807500Y-22102929D02*
X2550357Y-22488643D01*
X3193214Y-22117214D02*
X3221786Y-22117214D01*
X3250357Y-22131500D01*
X3264643Y-22145786D01*
X3278928Y-22174357D01*
X3293214Y-22231500D01*
X3293214Y-22302929D01*
X3278928Y-22360072D01*
X3264643Y-22388643D01*
X3250357Y-22402929D01*
X3221786Y-22417214D01*
X3193214Y-22417214D01*
X3164643Y-22402929D01*
X3150357Y-22388643D01*
X3136071Y-22360072D01*
X3121786Y-22302929D01*
X3121786Y-22231500D01*
X3136071Y-22174357D01*
X3150357Y-22145786D01*
X3164643Y-22131500D01*
X3193214Y-22117214D01*
X3421786Y-22388643D02*
X3436071Y-22402929D01*
X3421786Y-22417214D01*
X3407500Y-22402929D01*
X3421786Y-22388643D01*
X3421786Y-22417214D01*
X3621786Y-22117214D02*
X3650357Y-22117214D01*
X3678928Y-22131500D01*
X3693214Y-22145786D01*
X3707500Y-22174357D01*
X3721786Y-22231500D01*
X3721786Y-22302929D01*
X3707500Y-22360072D01*
X3693214Y-22388643D01*
X3678928Y-22402929D01*
X3650357Y-22417214D01*
X3621786Y-22417214D01*
X3593214Y-22402929D01*
X3578928Y-22388643D01*
X3564643Y-22360072D01*
X3550357Y-22302929D01*
X3550357Y-22231500D01*
X3564643Y-22174357D01*
X3578928Y-22145786D01*
X3593214Y-22131500D01*
X3621786Y-22117214D01*
X3821786Y-22117214D02*
X4007500Y-22117214D01*
X3907500Y-22231500D01*
X3950357Y-22231500D01*
X3978928Y-22245786D01*
X3993214Y-22260072D01*
X4007500Y-22288643D01*
X4007500Y-22360072D01*
X3993214Y-22388643D01*
X3978928Y-22402929D01*
X3950357Y-22417214D01*
X3864643Y-22417214D01*
X3836071Y-22402929D01*
X3821786Y-22388643D01*
X4150357Y-22417214D02*
X4207500Y-22417214D01*
X4236071Y-22402929D01*
X4250357Y-22388643D01*
X4278928Y-22345786D01*
X4293214Y-22288643D01*
X4293214Y-22174357D01*
X4278928Y-22145786D01*
X4264643Y-22131500D01*
X4236071Y-22117214D01*
X4178928Y-22117214D01*
X4150357Y-22131500D01*
X4136071Y-22145786D01*
X4121786Y-22174357D01*
X4121786Y-22245786D01*
X4136071Y-22274357D01*
X4150357Y-22288643D01*
X4178928Y-22302929D01*
X4236071Y-22302929D01*
X4264643Y-22288643D01*
X4278928Y-22274357D01*
X4293214Y-22245786D01*
X4550357Y-22217214D02*
X4550357Y-22417214D01*
X4478928Y-22102929D02*
X4407500Y-22317214D01*
X4593214Y-22317214D01*
X4693214Y-22117214D02*
X4693214Y-22174357D01*
X4807500Y-22117214D02*
X4807500Y-22174357D01*
X5250357Y-22531500D02*
X5236071Y-22517214D01*
X5207500Y-22474357D01*
X5193214Y-22445786D01*
X5178928Y-22402929D01*
X5164643Y-22331500D01*
X5164643Y-22274357D01*
X5178928Y-22202929D01*
X5193214Y-22160072D01*
X5207500Y-22131500D01*
X5236071Y-22088643D01*
X5250357Y-22074357D01*
X5350357Y-22145786D02*
X5364643Y-22131500D01*
X5393214Y-22117214D01*
X5464643Y-22117214D01*
X5493214Y-22131500D01*
X5507500Y-22145786D01*
X5521786Y-22174357D01*
X5521786Y-22202929D01*
X5507500Y-22245786D01*
X5336071Y-22417214D01*
X5521786Y-22417214D01*
X5693214Y-22245786D02*
X5664643Y-22231500D01*
X5650357Y-22217214D01*
X5636071Y-22188643D01*
X5636071Y-22174357D01*
X5650357Y-22145786D01*
X5664643Y-22131500D01*
X5693214Y-22117214D01*
X5750357Y-22117214D01*
X5778928Y-22131500D01*
X5793214Y-22145786D01*
X5807500Y-22174357D01*
X5807500Y-22188643D01*
X5793214Y-22217214D01*
X5778928Y-22231500D01*
X5750357Y-22245786D01*
X5693214Y-22245786D01*
X5664643Y-22260072D01*
X5650357Y-22274357D01*
X5636071Y-22302929D01*
X5636071Y-22360072D01*
X5650357Y-22388643D01*
X5664643Y-22402929D01*
X5693214Y-22417214D01*
X5750357Y-22417214D01*
X5778928Y-22402929D01*
X5793214Y-22388643D01*
X5807500Y-22360072D01*
X5807500Y-22302929D01*
X5793214Y-22274357D01*
X5778928Y-22260072D01*
X5750357Y-22245786D01*
X6164643Y-22417214D02*
X6164643Y-22117214D01*
X6293214Y-22417214D02*
X6293214Y-22260072D01*
X6278928Y-22231500D01*
X6250357Y-22217214D01*
X6207500Y-22217214D01*
X6178928Y-22231500D01*
X6164643Y-22245786D01*
X6478928Y-22417214D02*
X6450357Y-22402929D01*
X6436071Y-22388643D01*
X6421786Y-22360072D01*
X6421786Y-22274357D01*
X6436071Y-22245786D01*
X6450357Y-22231500D01*
X6478928Y-22217214D01*
X6521786Y-22217214D01*
X6550357Y-22231500D01*
X6564643Y-22245786D01*
X6578928Y-22274357D01*
X6578928Y-22360072D01*
X6564643Y-22388643D01*
X6550357Y-22402929D01*
X6521786Y-22417214D01*
X6478928Y-22417214D01*
X6750357Y-22417214D02*
X6721786Y-22402929D01*
X6707500Y-22374357D01*
X6707500Y-22117214D01*
X6978928Y-22402929D02*
X6950357Y-22417214D01*
X6893214Y-22417214D01*
X6864643Y-22402929D01*
X6850357Y-22374357D01*
X6850357Y-22260072D01*
X6864643Y-22231500D01*
X6893214Y-22217214D01*
X6950357Y-22217214D01*
X6978928Y-22231500D01*
X6993214Y-22260072D01*
X6993214Y-22288643D01*
X6850357Y-22317214D01*
X7107500Y-22402929D02*
X7136071Y-22417214D01*
X7193214Y-22417214D01*
X7221786Y-22402929D01*
X7236071Y-22374357D01*
X7236071Y-22360072D01*
X7221786Y-22331500D01*
X7193214Y-22317214D01*
X7150357Y-22317214D01*
X7121786Y-22302929D01*
X7107500Y-22274357D01*
X7107500Y-22260072D01*
X7121786Y-22231500D01*
X7150357Y-22217214D01*
X7193214Y-22217214D01*
X7221786Y-22231500D01*
X7336071Y-22531500D02*
X7350357Y-22517214D01*
X7378928Y-22474357D01*
X7393214Y-22445786D01*
X7407500Y-22402929D01*
X7421786Y-22331500D01*
X7421786Y-22274357D01*
X7407500Y-22202929D01*
X7393214Y-22160072D01*
X7378928Y-22131500D01*
X7350357Y-22088643D01*
X7336071Y-22074357D01*
X-137500Y-22612500D02*
X-7500Y-22742500D01*
X-7500Y-22612500D02*
X-137500Y-22742500D01*
X-72500Y-22742500D02*
X-7500Y-22677500D01*
X-72500Y-22612500D01*
X-137500Y-22677500D01*
X-72500Y-22742500D01*
X436071Y-22813214D02*
X264643Y-22813214D01*
X350357Y-22813214D02*
X350357Y-22513214D01*
X321786Y-22556071D01*
X293214Y-22584643D01*
X264643Y-22598929D01*
X564643Y-22784643D02*
X578928Y-22798929D01*
X564643Y-22813214D01*
X550357Y-22798929D01*
X564643Y-22784643D01*
X564643Y-22813214D01*
X678928Y-22513214D02*
X864643Y-22513214D01*
X764643Y-22627500D01*
X807500Y-22627500D01*
X836071Y-22641786D01*
X850357Y-22656071D01*
X864643Y-22684643D01*
X864643Y-22756071D01*
X850357Y-22784643D01*
X836071Y-22798929D01*
X807500Y-22813214D01*
X721786Y-22813214D01*
X693214Y-22798929D01*
X678928Y-22784643D01*
X1050357Y-22513214D02*
X1078928Y-22513214D01*
X1107500Y-22527500D01*
X1121786Y-22541786D01*
X1136071Y-22570357D01*
X1150357Y-22627500D01*
X1150357Y-22698929D01*
X1136071Y-22756071D01*
X1121786Y-22784643D01*
X1107500Y-22798929D01*
X1078928Y-22813214D01*
X1050357Y-22813214D01*
X1021786Y-22798929D01*
X1007500Y-22784643D01*
X993214Y-22756071D01*
X978928Y-22698929D01*
X978928Y-22627500D01*
X993214Y-22570357D01*
X1007500Y-22541786D01*
X1021786Y-22527500D01*
X1050357Y-22513214D01*
X1336071Y-22513214D02*
X1364643Y-22513214D01*
X1393214Y-22527500D01*
X1407500Y-22541786D01*
X1421786Y-22570357D01*
X1436071Y-22627500D01*
X1436071Y-22698929D01*
X1421786Y-22756071D01*
X1407500Y-22784643D01*
X1393214Y-22798929D01*
X1364643Y-22813214D01*
X1336071Y-22813214D01*
X1307500Y-22798929D01*
X1293214Y-22784643D01*
X1278928Y-22756071D01*
X1264643Y-22698929D01*
X1264643Y-22627500D01*
X1278928Y-22570357D01*
X1293214Y-22541786D01*
X1307500Y-22527500D01*
X1336071Y-22513214D01*
X1564643Y-22813214D02*
X1564643Y-22613214D01*
X1564643Y-22641786D02*
X1578928Y-22627500D01*
X1607500Y-22613214D01*
X1650357Y-22613214D01*
X1678928Y-22627500D01*
X1693214Y-22656071D01*
X1693214Y-22813214D01*
X1693214Y-22656071D02*
X1707500Y-22627500D01*
X1736071Y-22613214D01*
X1778928Y-22613214D01*
X1807500Y-22627500D01*
X1821786Y-22656071D01*
X1821786Y-22813214D01*
X1964643Y-22813214D02*
X1964643Y-22613214D01*
X1964643Y-22641786D02*
X1978928Y-22627500D01*
X2007500Y-22613214D01*
X2050357Y-22613214D01*
X2078928Y-22627500D01*
X2093214Y-22656071D01*
X2093214Y-22813214D01*
X2093214Y-22656071D02*
X2107500Y-22627500D01*
X2136071Y-22613214D01*
X2178928Y-22613214D01*
X2207500Y-22627500D01*
X2221786Y-22656071D01*
X2221786Y-22813214D01*
X2807500Y-22498929D02*
X2550357Y-22884643D01*
X3193214Y-22513214D02*
X3221786Y-22513214D01*
X3250357Y-22527500D01*
X3264643Y-22541786D01*
X3278928Y-22570357D01*
X3293214Y-22627500D01*
X3293214Y-22698929D01*
X3278928Y-22756071D01*
X3264643Y-22784643D01*
X3250357Y-22798929D01*
X3221786Y-22813214D01*
X3193214Y-22813214D01*
X3164643Y-22798929D01*
X3150357Y-22784643D01*
X3136071Y-22756071D01*
X3121786Y-22698929D01*
X3121786Y-22627500D01*
X3136071Y-22570357D01*
X3150357Y-22541786D01*
X3164643Y-22527500D01*
X3193214Y-22513214D01*
X3421786Y-22784643D02*
X3436071Y-22798929D01*
X3421786Y-22813214D01*
X3407500Y-22798929D01*
X3421786Y-22784643D01*
X3421786Y-22813214D01*
X3621786Y-22513214D02*
X3650357Y-22513214D01*
X3678928Y-22527500D01*
X3693214Y-22541786D01*
X3707500Y-22570357D01*
X3721786Y-22627500D01*
X3721786Y-22698929D01*
X3707500Y-22756071D01*
X3693214Y-22784643D01*
X3678928Y-22798929D01*
X3650357Y-22813214D01*
X3621786Y-22813214D01*
X3593214Y-22798929D01*
X3578928Y-22784643D01*
X3564643Y-22756071D01*
X3550357Y-22698929D01*
X3550357Y-22627500D01*
X3564643Y-22570357D01*
X3578928Y-22541786D01*
X3593214Y-22527500D01*
X3621786Y-22513214D01*
X3993214Y-22513214D02*
X3850357Y-22513214D01*
X3836071Y-22656071D01*
X3850357Y-22641786D01*
X3878928Y-22627500D01*
X3950357Y-22627500D01*
X3978928Y-22641786D01*
X3993214Y-22656071D01*
X4007500Y-22684643D01*
X4007500Y-22756071D01*
X3993214Y-22784643D01*
X3978928Y-22798929D01*
X3950357Y-22813214D01*
X3878928Y-22813214D01*
X3850357Y-22798929D01*
X3836071Y-22784643D01*
X4293214Y-22813214D02*
X4121786Y-22813214D01*
X4207500Y-22813214D02*
X4207500Y-22513214D01*
X4178928Y-22556071D01*
X4150357Y-22584643D01*
X4121786Y-22598929D01*
X4407500Y-22541786D02*
X4421786Y-22527500D01*
X4450357Y-22513214D01*
X4521786Y-22513214D01*
X4550357Y-22527500D01*
X4564643Y-22541786D01*
X4578928Y-22570357D01*
X4578928Y-22598929D01*
X4564643Y-22641786D01*
X4393214Y-22813214D01*
X4578928Y-22813214D01*
X4693214Y-22513214D02*
X4693214Y-22570357D01*
X4807500Y-22513214D02*
X4807500Y-22570357D01*
X5250357Y-22927500D02*
X5236071Y-22913214D01*
X5207500Y-22870357D01*
X5193214Y-22841786D01*
X5178928Y-22798929D01*
X5164643Y-22727500D01*
X5164643Y-22670357D01*
X5178928Y-22598929D01*
X5193214Y-22556071D01*
X5207500Y-22527500D01*
X5236071Y-22484643D01*
X5250357Y-22470357D01*
X5521786Y-22813214D02*
X5350357Y-22813214D01*
X5436071Y-22813214D02*
X5436071Y-22513214D01*
X5407500Y-22556071D01*
X5378928Y-22584643D01*
X5350357Y-22598929D01*
X5693214Y-22641786D02*
X5664643Y-22627500D01*
X5650357Y-22613214D01*
X5636071Y-22584643D01*
X5636071Y-22570357D01*
X5650357Y-22541786D01*
X5664643Y-22527500D01*
X5693214Y-22513214D01*
X5750357Y-22513214D01*
X5778928Y-22527500D01*
X5793214Y-22541786D01*
X5807500Y-22570357D01*
X5807500Y-22584643D01*
X5793214Y-22613214D01*
X5778928Y-22627500D01*
X5750357Y-22641786D01*
X5693214Y-22641786D01*
X5664643Y-22656071D01*
X5650357Y-22670357D01*
X5636071Y-22698929D01*
X5636071Y-22756071D01*
X5650357Y-22784643D01*
X5664643Y-22798929D01*
X5693214Y-22813214D01*
X5750357Y-22813214D01*
X5778928Y-22798929D01*
X5793214Y-22784643D01*
X5807500Y-22756071D01*
X5807500Y-22698929D01*
X5793214Y-22670357D01*
X5778928Y-22656071D01*
X5750357Y-22641786D01*
X6164643Y-22813214D02*
X6164643Y-22513214D01*
X6293214Y-22813214D02*
X6293214Y-22656071D01*
X6278928Y-22627500D01*
X6250357Y-22613214D01*
X6207500Y-22613214D01*
X6178928Y-22627500D01*
X6164643Y-22641786D01*
X6478928Y-22813214D02*
X6450357Y-22798929D01*
X6436071Y-22784643D01*
X6421786Y-22756071D01*
X6421786Y-22670357D01*
X6436071Y-22641786D01*
X6450357Y-22627500D01*
X6478928Y-22613214D01*
X6521786Y-22613214D01*
X6550357Y-22627500D01*
X6564643Y-22641786D01*
X6578928Y-22670357D01*
X6578928Y-22756071D01*
X6564643Y-22784643D01*
X6550357Y-22798929D01*
X6521786Y-22813214D01*
X6478928Y-22813214D01*
X6750357Y-22813214D02*
X6721786Y-22798929D01*
X6707500Y-22770357D01*
X6707500Y-22513214D01*
X6978928Y-22798929D02*
X6950357Y-22813214D01*
X6893214Y-22813214D01*
X6864643Y-22798929D01*
X6850357Y-22770357D01*
X6850357Y-22656071D01*
X6864643Y-22627500D01*
X6893214Y-22613214D01*
X6950357Y-22613214D01*
X6978928Y-22627500D01*
X6993214Y-22656071D01*
X6993214Y-22684643D01*
X6850357Y-22713214D01*
X7107500Y-22798929D02*
X7136071Y-22813214D01*
X7193214Y-22813214D01*
X7221786Y-22798929D01*
X7236071Y-22770357D01*
X7236071Y-22756071D01*
X7221786Y-22727500D01*
X7193214Y-22713214D01*
X7150357Y-22713214D01*
X7121786Y-22698929D01*
X7107500Y-22670357D01*
X7107500Y-22656071D01*
X7121786Y-22627500D01*
X7150357Y-22613214D01*
X7193214Y-22613214D01*
X7221786Y-22627500D01*
X7336071Y-22927500D02*
X7350357Y-22913214D01*
X7378928Y-22870357D01*
X7393214Y-22841786D01*
X7407500Y-22798929D01*
X7421786Y-22727500D01*
X7421786Y-22670357D01*
X7407500Y-22598929D01*
X7393214Y-22556071D01*
X7378928Y-22527500D01*
X7350357Y-22484643D01*
X7336071Y-22470357D01*
X-107500Y-22973500D02*
X-107500Y-23173500D01*
X-207500Y-23073500D02*
X-7500Y-23073500D01*
X-7500Y-23073500D02*
G75*
G03*
X-7500Y-23073500I-100000J0D01*
G01*
X264643Y-22937786D02*
X278928Y-22923500D01*
X307500Y-22909214D01*
X378928Y-22909214D01*
X407500Y-22923500D01*
X421786Y-22937786D01*
X436071Y-22966357D01*
X436071Y-22994929D01*
X421786Y-23037786D01*
X250357Y-23209214D01*
X436071Y-23209214D01*
X564643Y-23180643D02*
X578928Y-23194929D01*
X564643Y-23209214D01*
X550357Y-23194929D01*
X564643Y-23180643D01*
X564643Y-23209214D01*
X764643Y-22909214D02*
X793214Y-22909214D01*
X821786Y-22923500D01*
X836071Y-22937786D01*
X850357Y-22966357D01*
X864643Y-23023500D01*
X864643Y-23094929D01*
X850357Y-23152071D01*
X836071Y-23180643D01*
X821786Y-23194929D01*
X793214Y-23209214D01*
X764643Y-23209214D01*
X736071Y-23194929D01*
X721786Y-23180643D01*
X707500Y-23152071D01*
X693214Y-23094929D01*
X693214Y-23023500D01*
X707500Y-22966357D01*
X721786Y-22937786D01*
X736071Y-22923500D01*
X764643Y-22909214D01*
X1050357Y-22909214D02*
X1078928Y-22909214D01*
X1107500Y-22923500D01*
X1121786Y-22937786D01*
X1136071Y-22966357D01*
X1150357Y-23023500D01*
X1150357Y-23094929D01*
X1136071Y-23152071D01*
X1121786Y-23180643D01*
X1107500Y-23194929D01*
X1078928Y-23209214D01*
X1050357Y-23209214D01*
X1021786Y-23194929D01*
X1007500Y-23180643D01*
X993214Y-23152071D01*
X978928Y-23094929D01*
X978928Y-23023500D01*
X993214Y-22966357D01*
X1007500Y-22937786D01*
X1021786Y-22923500D01*
X1050357Y-22909214D01*
X1336071Y-22909214D02*
X1364643Y-22909214D01*
X1393214Y-22923500D01*
X1407500Y-22937786D01*
X1421786Y-22966357D01*
X1436071Y-23023500D01*
X1436071Y-23094929D01*
X1421786Y-23152071D01*
X1407500Y-23180643D01*
X1393214Y-23194929D01*
X1364643Y-23209214D01*
X1336071Y-23209214D01*
X1307500Y-23194929D01*
X1293214Y-23180643D01*
X1278928Y-23152071D01*
X1264643Y-23094929D01*
X1264643Y-23023500D01*
X1278928Y-22966357D01*
X1293214Y-22937786D01*
X1307500Y-22923500D01*
X1336071Y-22909214D01*
X1564643Y-23209214D02*
X1564643Y-23009214D01*
X1564643Y-23037786D02*
X1578928Y-23023500D01*
X1607500Y-23009214D01*
X1650357Y-23009214D01*
X1678928Y-23023500D01*
X1693214Y-23052071D01*
X1693214Y-23209214D01*
X1693214Y-23052071D02*
X1707500Y-23023500D01*
X1736071Y-23009214D01*
X1778928Y-23009214D01*
X1807500Y-23023500D01*
X1821786Y-23052071D01*
X1821786Y-23209214D01*
X1964643Y-23209214D02*
X1964643Y-23009214D01*
X1964643Y-23037786D02*
X1978928Y-23023500D01*
X2007500Y-23009214D01*
X2050357Y-23009214D01*
X2078928Y-23023500D01*
X2093214Y-23052071D01*
X2093214Y-23209214D01*
X2093214Y-23052071D02*
X2107500Y-23023500D01*
X2136071Y-23009214D01*
X2178928Y-23009214D01*
X2207500Y-23023500D01*
X2221786Y-23052071D01*
X2221786Y-23209214D01*
X2807500Y-22894929D02*
X2550357Y-23280643D01*
X3193214Y-22909214D02*
X3221786Y-22909214D01*
X3250357Y-22923500D01*
X3264643Y-22937786D01*
X3278928Y-22966357D01*
X3293214Y-23023500D01*
X3293214Y-23094929D01*
X3278928Y-23152071D01*
X3264643Y-23180643D01*
X3250357Y-23194929D01*
X3221786Y-23209214D01*
X3193214Y-23209214D01*
X3164643Y-23194929D01*
X3150357Y-23180643D01*
X3136071Y-23152071D01*
X3121786Y-23094929D01*
X3121786Y-23023500D01*
X3136071Y-22966357D01*
X3150357Y-22937786D01*
X3164643Y-22923500D01*
X3193214Y-22909214D01*
X3421786Y-23180643D02*
X3436071Y-23194929D01*
X3421786Y-23209214D01*
X3407500Y-23194929D01*
X3421786Y-23180643D01*
X3421786Y-23209214D01*
X3621786Y-22909214D02*
X3650357Y-22909214D01*
X3678928Y-22923500D01*
X3693214Y-22937786D01*
X3707500Y-22966357D01*
X3721786Y-23023500D01*
X3721786Y-23094929D01*
X3707500Y-23152071D01*
X3693214Y-23180643D01*
X3678928Y-23194929D01*
X3650357Y-23209214D01*
X3621786Y-23209214D01*
X3593214Y-23194929D01*
X3578928Y-23180643D01*
X3564643Y-23152071D01*
X3550357Y-23094929D01*
X3550357Y-23023500D01*
X3564643Y-22966357D01*
X3578928Y-22937786D01*
X3593214Y-22923500D01*
X3621786Y-22909214D01*
X3821786Y-22909214D02*
X4021786Y-22909214D01*
X3893214Y-23209214D01*
X4178928Y-23037786D02*
X4150357Y-23023500D01*
X4136071Y-23009214D01*
X4121786Y-22980643D01*
X4121786Y-22966357D01*
X4136071Y-22937786D01*
X4150357Y-22923500D01*
X4178928Y-22909214D01*
X4236071Y-22909214D01*
X4264643Y-22923500D01*
X4278928Y-22937786D01*
X4293214Y-22966357D01*
X4293214Y-22980643D01*
X4278928Y-23009214D01*
X4264643Y-23023500D01*
X4236071Y-23037786D01*
X4178928Y-23037786D01*
X4150357Y-23052071D01*
X4136071Y-23066357D01*
X4121786Y-23094929D01*
X4121786Y-23152071D01*
X4136071Y-23180643D01*
X4150357Y-23194929D01*
X4178928Y-23209214D01*
X4236071Y-23209214D01*
X4264643Y-23194929D01*
X4278928Y-23180643D01*
X4293214Y-23152071D01*
X4293214Y-23094929D01*
X4278928Y-23066357D01*
X4264643Y-23052071D01*
X4236071Y-23037786D01*
X4393214Y-22909214D02*
X4593214Y-22909214D01*
X4464643Y-23209214D01*
X4693214Y-22909214D02*
X4693214Y-22966357D01*
X4807500Y-22909214D02*
X4807500Y-22966357D01*
X5250357Y-23323500D02*
X5236071Y-23309214D01*
X5207500Y-23266357D01*
X5193214Y-23237786D01*
X5178928Y-23194929D01*
X5164643Y-23123500D01*
X5164643Y-23066357D01*
X5178928Y-22994929D01*
X5193214Y-22952071D01*
X5207500Y-22923500D01*
X5236071Y-22880643D01*
X5250357Y-22866357D01*
X5521786Y-23209214D02*
X5350357Y-23209214D01*
X5436071Y-23209214D02*
X5436071Y-22909214D01*
X5407500Y-22952071D01*
X5378928Y-22980643D01*
X5350357Y-22994929D01*
X5878928Y-23209214D02*
X5878928Y-22909214D01*
X6007500Y-23209214D02*
X6007500Y-23052071D01*
X5993214Y-23023500D01*
X5964643Y-23009214D01*
X5921786Y-23009214D01*
X5893214Y-23023500D01*
X5878928Y-23037786D01*
X6193214Y-23209214D02*
X6164643Y-23194929D01*
X6150357Y-23180643D01*
X6136071Y-23152071D01*
X6136071Y-23066357D01*
X6150357Y-23037786D01*
X6164643Y-23023500D01*
X6193214Y-23009214D01*
X6236071Y-23009214D01*
X6264643Y-23023500D01*
X6278928Y-23037786D01*
X6293214Y-23066357D01*
X6293214Y-23152071D01*
X6278928Y-23180643D01*
X6264643Y-23194929D01*
X6236071Y-23209214D01*
X6193214Y-23209214D01*
X6464643Y-23209214D02*
X6436071Y-23194929D01*
X6421786Y-23166357D01*
X6421786Y-22909214D01*
X6693214Y-23194929D02*
X6664643Y-23209214D01*
X6607500Y-23209214D01*
X6578928Y-23194929D01*
X6564643Y-23166357D01*
X6564643Y-23052071D01*
X6578928Y-23023500D01*
X6607500Y-23009214D01*
X6664643Y-23009214D01*
X6693214Y-23023500D01*
X6707500Y-23052071D01*
X6707500Y-23080643D01*
X6564643Y-23109214D01*
X6807500Y-23323500D02*
X6821786Y-23309214D01*
X6850357Y-23266357D01*
X6864643Y-23237786D01*
X6878928Y-23194929D01*
X6893214Y-23123500D01*
X6893214Y-23066357D01*
X6878928Y-22994929D01*
X6864643Y-22952071D01*
X6850357Y-22923500D01*
X6821786Y-22880643D01*
X6807500Y-22866357D01*
X7350357Y-23323500D02*
X7336071Y-23309214D01*
X7307500Y-23266357D01*
X7293214Y-23237786D01*
X7278928Y-23194929D01*
X7264643Y-23123500D01*
X7264643Y-23066357D01*
X7278928Y-22994929D01*
X7293214Y-22952071D01*
X7307500Y-22923500D01*
X7336071Y-22880643D01*
X7350357Y-22866357D01*
X7464643Y-23009214D02*
X7464643Y-23209214D01*
X7464643Y-23037786D02*
X7478928Y-23023500D01*
X7507500Y-23009214D01*
X7550357Y-23009214D01*
X7578928Y-23023500D01*
X7593214Y-23052071D01*
X7593214Y-23209214D01*
X7778928Y-23209214D02*
X7750357Y-23194929D01*
X7736071Y-23180643D01*
X7721786Y-23152071D01*
X7721786Y-23066357D01*
X7736071Y-23037786D01*
X7750357Y-23023500D01*
X7778928Y-23009214D01*
X7821786Y-23009214D01*
X7850357Y-23023500D01*
X7864643Y-23037786D01*
X7878928Y-23066357D01*
X7878928Y-23152071D01*
X7864643Y-23180643D01*
X7850357Y-23194929D01*
X7821786Y-23209214D01*
X7778928Y-23209214D01*
X7964643Y-23009214D02*
X8078928Y-23009214D01*
X8007500Y-22909214D02*
X8007500Y-23166357D01*
X8021786Y-23194929D01*
X8050357Y-23209214D01*
X8078928Y-23209214D01*
X8407500Y-23009214D02*
X8407500Y-23309214D01*
X8407500Y-23023500D02*
X8436071Y-23009214D01*
X8493214Y-23009214D01*
X8521786Y-23023500D01*
X8536071Y-23037786D01*
X8550357Y-23066357D01*
X8550357Y-23152071D01*
X8536071Y-23180643D01*
X8521786Y-23194929D01*
X8493214Y-23209214D01*
X8436071Y-23209214D01*
X8407500Y-23194929D01*
X8721786Y-23209214D02*
X8693214Y-23194929D01*
X8678928Y-23166357D01*
X8678928Y-22909214D01*
X8964643Y-23209214D02*
X8964643Y-23052071D01*
X8950357Y-23023500D01*
X8921786Y-23009214D01*
X8864643Y-23009214D01*
X8836071Y-23023500D01*
X8964643Y-23194929D02*
X8936071Y-23209214D01*
X8864643Y-23209214D01*
X8836071Y-23194929D01*
X8821786Y-23166357D01*
X8821786Y-23137786D01*
X8836071Y-23109214D01*
X8864643Y-23094929D01*
X8936071Y-23094929D01*
X8964643Y-23080643D01*
X9064643Y-23009214D02*
X9178928Y-23009214D01*
X9107500Y-22909214D02*
X9107500Y-23166357D01*
X9121786Y-23194929D01*
X9150357Y-23209214D01*
X9178928Y-23209214D01*
X9393214Y-23194929D02*
X9364643Y-23209214D01*
X9307500Y-23209214D01*
X9278928Y-23194929D01*
X9264643Y-23166357D01*
X9264643Y-23052071D01*
X9278928Y-23023500D01*
X9307500Y-23009214D01*
X9364643Y-23009214D01*
X9393214Y-23023500D01*
X9407500Y-23052071D01*
X9407500Y-23080643D01*
X9264643Y-23109214D01*
X9664643Y-23209214D02*
X9664643Y-22909214D01*
X9664643Y-23194929D02*
X9636071Y-23209214D01*
X9578928Y-23209214D01*
X9550357Y-23194929D01*
X9536071Y-23180643D01*
X9521786Y-23152071D01*
X9521786Y-23066357D01*
X9536071Y-23037786D01*
X9550357Y-23023500D01*
X9578928Y-23009214D01*
X9636071Y-23009214D01*
X9664643Y-23023500D01*
X9778928Y-23323500D02*
X9793214Y-23309214D01*
X9821786Y-23266357D01*
X9836071Y-23237786D01*
X9850357Y-23194929D01*
X9864643Y-23123500D01*
X9864643Y-23066357D01*
X9850357Y-22994929D01*
X9836071Y-22952071D01*
X9821786Y-22923500D01*
X9793214Y-22880643D01*
X9778928Y-22866357D01*
X-54362Y-23582638D02*
X-54362Y-23356362D01*
X-280638Y-23356362D01*
X-280638Y-23582638D01*
X-54362Y-23582638D01*
X-7500Y-23469500D02*
G75*
G03*
X-7500Y-23469500I-160000J0D01*
G01*
X250357Y-23305214D02*
X436071Y-23305214D01*
X336071Y-23419500D01*
X378928Y-23419500D01*
X407500Y-23433786D01*
X421786Y-23448071D01*
X436071Y-23476643D01*
X436071Y-23548071D01*
X421786Y-23576643D01*
X407500Y-23590929D01*
X378928Y-23605214D01*
X293214Y-23605214D01*
X264643Y-23590929D01*
X250357Y-23576643D01*
X564643Y-23576643D02*
X578928Y-23590929D01*
X564643Y-23605214D01*
X550357Y-23590929D01*
X564643Y-23576643D01*
X564643Y-23605214D01*
X693214Y-23333786D02*
X707500Y-23319500D01*
X736071Y-23305214D01*
X807500Y-23305214D01*
X836071Y-23319500D01*
X850357Y-23333786D01*
X864643Y-23362357D01*
X864643Y-23390929D01*
X850357Y-23433786D01*
X678928Y-23605214D01*
X864643Y-23605214D01*
X1050357Y-23305214D02*
X1078928Y-23305214D01*
X1107500Y-23319500D01*
X1121786Y-23333786D01*
X1136071Y-23362357D01*
X1150357Y-23419500D01*
X1150357Y-23490929D01*
X1136071Y-23548071D01*
X1121786Y-23576643D01*
X1107500Y-23590929D01*
X1078928Y-23605214D01*
X1050357Y-23605214D01*
X1021786Y-23590929D01*
X1007500Y-23576643D01*
X993214Y-23548071D01*
X978928Y-23490929D01*
X978928Y-23419500D01*
X993214Y-23362357D01*
X1007500Y-23333786D01*
X1021786Y-23319500D01*
X1050357Y-23305214D01*
X1336071Y-23305214D02*
X1364643Y-23305214D01*
X1393214Y-23319500D01*
X1407500Y-23333786D01*
X1421786Y-23362357D01*
X1436071Y-23419500D01*
X1436071Y-23490929D01*
X1421786Y-23548071D01*
X1407500Y-23576643D01*
X1393214Y-23590929D01*
X1364643Y-23605214D01*
X1336071Y-23605214D01*
X1307500Y-23590929D01*
X1293214Y-23576643D01*
X1278928Y-23548071D01*
X1264643Y-23490929D01*
X1264643Y-23419500D01*
X1278928Y-23362357D01*
X1293214Y-23333786D01*
X1307500Y-23319500D01*
X1336071Y-23305214D01*
X1564643Y-23605214D02*
X1564643Y-23405214D01*
X1564643Y-23433786D02*
X1578928Y-23419500D01*
X1607500Y-23405214D01*
X1650357Y-23405214D01*
X1678928Y-23419500D01*
X1693214Y-23448071D01*
X1693214Y-23605214D01*
X1693214Y-23448071D02*
X1707500Y-23419500D01*
X1736071Y-23405214D01*
X1778928Y-23405214D01*
X1807500Y-23419500D01*
X1821786Y-23448071D01*
X1821786Y-23605214D01*
X1964643Y-23605214D02*
X1964643Y-23405214D01*
X1964643Y-23433786D02*
X1978928Y-23419500D01*
X2007500Y-23405214D01*
X2050357Y-23405214D01*
X2078928Y-23419500D01*
X2093214Y-23448071D01*
X2093214Y-23605214D01*
X2093214Y-23448071D02*
X2107500Y-23419500D01*
X2136071Y-23405214D01*
X2178928Y-23405214D01*
X2207500Y-23419500D01*
X2221786Y-23448071D01*
X2221786Y-23605214D01*
X2807500Y-23290929D02*
X2550357Y-23676643D01*
X3193214Y-23305214D02*
X3221786Y-23305214D01*
X3250357Y-23319500D01*
X3264643Y-23333786D01*
X3278928Y-23362357D01*
X3293214Y-23419500D01*
X3293214Y-23490929D01*
X3278928Y-23548071D01*
X3264643Y-23576643D01*
X3250357Y-23590929D01*
X3221786Y-23605214D01*
X3193214Y-23605214D01*
X3164643Y-23590929D01*
X3150357Y-23576643D01*
X3136071Y-23548071D01*
X3121786Y-23490929D01*
X3121786Y-23419500D01*
X3136071Y-23362357D01*
X3150357Y-23333786D01*
X3164643Y-23319500D01*
X3193214Y-23305214D01*
X3421786Y-23576643D02*
X3436071Y-23590929D01*
X3421786Y-23605214D01*
X3407500Y-23590929D01*
X3421786Y-23576643D01*
X3421786Y-23605214D01*
X3721786Y-23605214D02*
X3550357Y-23605214D01*
X3636071Y-23605214D02*
X3636071Y-23305214D01*
X3607500Y-23348071D01*
X3578928Y-23376643D01*
X3550357Y-23390929D01*
X3836071Y-23333786D02*
X3850357Y-23319500D01*
X3878928Y-23305214D01*
X3950357Y-23305214D01*
X3978928Y-23319500D01*
X3993214Y-23333786D01*
X4007500Y-23362357D01*
X4007500Y-23390929D01*
X3993214Y-23433786D01*
X3821786Y-23605214D01*
X4007500Y-23605214D01*
X4264643Y-23305214D02*
X4207500Y-23305214D01*
X4178928Y-23319500D01*
X4164643Y-23333786D01*
X4136071Y-23376643D01*
X4121786Y-23433786D01*
X4121786Y-23548071D01*
X4136071Y-23576643D01*
X4150357Y-23590929D01*
X4178928Y-23605214D01*
X4236071Y-23605214D01*
X4264643Y-23590929D01*
X4278928Y-23576643D01*
X4293214Y-23548071D01*
X4293214Y-23476643D01*
X4278928Y-23448071D01*
X4264643Y-23433786D01*
X4236071Y-23419500D01*
X4178928Y-23419500D01*
X4150357Y-23433786D01*
X4136071Y-23448071D01*
X4121786Y-23476643D01*
X4478928Y-23305214D02*
X4507500Y-23305214D01*
X4536071Y-23319500D01*
X4550357Y-23333786D01*
X4564643Y-23362357D01*
X4578928Y-23419500D01*
X4578928Y-23490929D01*
X4564643Y-23548071D01*
X4550357Y-23576643D01*
X4536071Y-23590929D01*
X4507500Y-23605214D01*
X4478928Y-23605214D01*
X4450357Y-23590929D01*
X4436071Y-23576643D01*
X4421786Y-23548071D01*
X4407500Y-23490929D01*
X4407500Y-23419500D01*
X4421786Y-23362357D01*
X4436071Y-23333786D01*
X4450357Y-23319500D01*
X4478928Y-23305214D01*
X4693214Y-23305214D02*
X4693214Y-23362357D01*
X4807500Y-23305214D02*
X4807500Y-23362357D01*
X5250357Y-23719500D02*
X5236071Y-23705214D01*
X5207500Y-23662357D01*
X5193214Y-23633786D01*
X5178928Y-23590929D01*
X5164643Y-23519500D01*
X5164643Y-23462357D01*
X5178928Y-23390929D01*
X5193214Y-23348071D01*
X5207500Y-23319500D01*
X5236071Y-23276643D01*
X5250357Y-23262357D01*
X5493214Y-23405214D02*
X5493214Y-23605214D01*
X5421786Y-23290929D02*
X5350357Y-23505214D01*
X5536071Y-23505214D01*
X5878928Y-23605214D02*
X5878928Y-23305214D01*
X6007500Y-23605214D02*
X6007500Y-23448071D01*
X5993214Y-23419500D01*
X5964643Y-23405214D01*
X5921786Y-23405214D01*
X5893214Y-23419500D01*
X5878928Y-23433786D01*
X6193214Y-23605214D02*
X6164643Y-23590929D01*
X6150357Y-23576643D01*
X6136071Y-23548071D01*
X6136071Y-23462357D01*
X6150357Y-23433786D01*
X6164643Y-23419500D01*
X6193214Y-23405214D01*
X6236071Y-23405214D01*
X6264643Y-23419500D01*
X6278928Y-23433786D01*
X6293214Y-23462357D01*
X6293214Y-23548071D01*
X6278928Y-23576643D01*
X6264643Y-23590929D01*
X6236071Y-23605214D01*
X6193214Y-23605214D01*
X6464643Y-23605214D02*
X6436071Y-23590929D01*
X6421786Y-23562357D01*
X6421786Y-23305214D01*
X6693214Y-23590929D02*
X6664643Y-23605214D01*
X6607500Y-23605214D01*
X6578928Y-23590929D01*
X6564643Y-23562357D01*
X6564643Y-23448071D01*
X6578928Y-23419500D01*
X6607500Y-23405214D01*
X6664643Y-23405214D01*
X6693214Y-23419500D01*
X6707500Y-23448071D01*
X6707500Y-23476643D01*
X6564643Y-23505214D01*
X6821786Y-23590929D02*
X6850357Y-23605214D01*
X6907500Y-23605214D01*
X6936071Y-23590929D01*
X6950357Y-23562357D01*
X6950357Y-23548071D01*
X6936071Y-23519500D01*
X6907500Y-23505214D01*
X6864643Y-23505214D01*
X6836071Y-23490929D01*
X6821786Y-23462357D01*
X6821786Y-23448071D01*
X6836071Y-23419500D01*
X6864643Y-23405214D01*
X6907500Y-23405214D01*
X6936071Y-23419500D01*
X7050357Y-23719500D02*
X7064643Y-23705214D01*
X7093214Y-23662357D01*
X7107500Y-23633786D01*
X7121786Y-23590929D01*
X7136071Y-23519500D01*
X7136071Y-23462357D01*
X7121786Y-23390929D01*
X7107500Y-23348071D01*
X7093214Y-23319500D01*
X7064643Y-23276643D01*
X7050357Y-23262357D01*
X7593214Y-23719500D02*
X7578928Y-23705214D01*
X7550357Y-23662357D01*
X7536071Y-23633786D01*
X7521786Y-23590929D01*
X7507500Y-23519500D01*
X7507500Y-23462357D01*
X7521786Y-23390929D01*
X7536071Y-23348071D01*
X7550357Y-23319500D01*
X7578928Y-23276643D01*
X7593214Y-23262357D01*
X7707500Y-23405214D02*
X7707500Y-23605214D01*
X7707500Y-23433786D02*
X7721786Y-23419500D01*
X7750357Y-23405214D01*
X7793214Y-23405214D01*
X7821786Y-23419500D01*
X7836071Y-23448071D01*
X7836071Y-23605214D01*
X8021786Y-23605214D02*
X7993214Y-23590929D01*
X7978928Y-23576643D01*
X7964643Y-23548071D01*
X7964643Y-23462357D01*
X7978928Y-23433786D01*
X7993214Y-23419500D01*
X8021786Y-23405214D01*
X8064643Y-23405214D01*
X8093214Y-23419500D01*
X8107500Y-23433786D01*
X8121786Y-23462357D01*
X8121786Y-23548071D01*
X8107500Y-23576643D01*
X8093214Y-23590929D01*
X8064643Y-23605214D01*
X8021786Y-23605214D01*
X8207500Y-23405214D02*
X8321786Y-23405214D01*
X8250357Y-23305214D02*
X8250357Y-23562357D01*
X8264643Y-23590929D01*
X8293214Y-23605214D01*
X8321786Y-23605214D01*
X8650357Y-23405214D02*
X8650357Y-23705214D01*
X8650357Y-23419500D02*
X8678928Y-23405214D01*
X8736071Y-23405214D01*
X8764643Y-23419500D01*
X8778928Y-23433786D01*
X8793214Y-23462357D01*
X8793214Y-23548071D01*
X8778928Y-23576643D01*
X8764643Y-23590929D01*
X8736071Y-23605214D01*
X8678928Y-23605214D01*
X8650357Y-23590929D01*
X8964643Y-23605214D02*
X8936071Y-23590929D01*
X8921786Y-23562357D01*
X8921786Y-23305214D01*
X9207500Y-23605214D02*
X9207500Y-23448071D01*
X9193214Y-23419500D01*
X9164643Y-23405214D01*
X9107500Y-23405214D01*
X9078928Y-23419500D01*
X9207500Y-23590929D02*
X9178928Y-23605214D01*
X9107500Y-23605214D01*
X9078928Y-23590929D01*
X9064643Y-23562357D01*
X9064643Y-23533786D01*
X9078928Y-23505214D01*
X9107500Y-23490929D01*
X9178928Y-23490929D01*
X9207500Y-23476643D01*
X9307500Y-23405214D02*
X9421786Y-23405214D01*
X9350357Y-23305214D02*
X9350357Y-23562357D01*
X9364643Y-23590929D01*
X9393214Y-23605214D01*
X9421786Y-23605214D01*
X9636071Y-23590929D02*
X9607500Y-23605214D01*
X9550357Y-23605214D01*
X9521786Y-23590929D01*
X9507500Y-23562357D01*
X9507500Y-23448071D01*
X9521786Y-23419500D01*
X9550357Y-23405214D01*
X9607500Y-23405214D01*
X9636071Y-23419500D01*
X9650357Y-23448071D01*
X9650357Y-23476643D01*
X9507500Y-23505214D01*
X9907500Y-23605214D02*
X9907500Y-23305214D01*
X9907500Y-23590929D02*
X9878928Y-23605214D01*
X9821786Y-23605214D01*
X9793214Y-23590929D01*
X9778928Y-23576643D01*
X9764643Y-23548071D01*
X9764643Y-23462357D01*
X9778928Y-23433786D01*
X9793214Y-23419500D01*
X9821786Y-23405214D01*
X9878928Y-23405214D01*
X9907500Y-23419500D01*
X10021786Y-23719500D02*
X10036071Y-23705214D01*
X10064643Y-23662357D01*
X10078928Y-23633786D01*
X10093214Y-23590929D01*
X10107500Y-23519500D01*
X10107500Y-23462357D01*
X10093214Y-23390929D01*
X10078928Y-23348071D01*
X10064643Y-23319500D01*
X10036071Y-23276643D01*
X10021786Y-23262357D01*
M02*
