G04 #@! TF.GenerationSoftware,KiCad,Pcbnew,(5.1.12-1-10_14)*
G04 #@! TF.CreationDate,2021-11-18T09:42:33+01:00*
G04 #@! TF.ProjectId,window-shutter-relay-esp8266,77696e64-6f77-42d7-9368-75747465722d,rev?*
G04 #@! TF.SameCoordinates,Original*
G04 #@! TF.FileFunction,Legend,Bot*
G04 #@! TF.FilePolarity,Positive*
%FSLAX46Y46*%
G04 Gerber Fmt 4.6, Leading zero omitted, Abs format (unit mm)*
G04 Created by KiCad (PCBNEW (5.1.12-1-10_14)) date 2021-11-18 09:42:33*
%MOMM*%
%LPD*%
G01*
G04 APERTURE LIST*
G04 #@! TA.AperFunction,Profile*
%ADD10C,0.100000*%
G04 #@! TD*
G04 #@! TA.AperFunction,Profile*
%ADD11C,0.150000*%
G04 #@! TD*
G04 APERTURE END LIST*
D10*
X58997106Y-168369999D02*
G75*
G02*
X59790000Y-169162893I0J-792894D01*
G01*
X59790000Y-175370000D02*
X59790000Y-169162893D01*
X59790000Y-175370000D02*
G75*
G02*
X58790000Y-175370000I-500000J0D01*
G01*
X58790000Y-169870000D02*
X58790000Y-175370000D01*
X58290000Y-169370000D02*
G75*
G02*
X58790000Y-169870000I0J-500000D01*
G01*
X53340000Y-169370000D02*
X58290000Y-169370000D01*
X53340000Y-169370000D02*
G75*
G02*
X53340000Y-163370000I0J3000000D01*
G01*
X58290000Y-163370000D02*
X53340000Y-163370000D01*
X58790000Y-162870000D02*
G75*
G02*
X58290000Y-163370000I-500000J0D01*
G01*
X58790000Y-157369999D02*
X58790000Y-162870000D01*
X58789999Y-157369999D02*
G75*
G02*
X59789999Y-157369999I500000J0D01*
G01*
X59790000Y-163577106D02*
X59789999Y-157369999D01*
X59790000Y-163577106D02*
G75*
G02*
X58997106Y-164370000I-792894J0D01*
G01*
X53340000Y-164370000D02*
X58997106Y-164370000D01*
X53340000Y-168370000D02*
G75*
G02*
X53340000Y-164370000I0J2000000D01*
G01*
X58997106Y-168370000D02*
X53340000Y-168370000D01*
X58997106Y-146779999D02*
G75*
G02*
X59790000Y-147572893I0J-792894D01*
G01*
X59790000Y-153780000D02*
X59790000Y-147572893D01*
X59790000Y-153780000D02*
G75*
G02*
X58790000Y-153780000I-500000J0D01*
G01*
X58790000Y-148280000D02*
X58790000Y-153780000D01*
X58290000Y-147780000D02*
G75*
G02*
X58790000Y-148280000I0J-500000D01*
G01*
X53340000Y-147780000D02*
X58290000Y-147780000D01*
X53340000Y-147780000D02*
G75*
G02*
X53340000Y-141780000I0J3000000D01*
G01*
X58290000Y-141780000D02*
X53340000Y-141780000D01*
X58790000Y-141280000D02*
G75*
G02*
X58290000Y-141780000I-500000J0D01*
G01*
X58790000Y-135779999D02*
X58790000Y-141280000D01*
X58789999Y-135779999D02*
G75*
G02*
X59789999Y-135779999I500000J0D01*
G01*
X59790000Y-141987106D02*
X59789999Y-135779999D01*
X59790000Y-141987106D02*
G75*
G02*
X58997106Y-142780000I-792894J0D01*
G01*
X53340000Y-142780000D02*
X58997106Y-142780000D01*
X53340000Y-146780000D02*
G75*
G02*
X53340000Y-142780000I0J2000000D01*
G01*
X58997106Y-146780000D02*
X53340000Y-146780000D01*
X58997106Y-104361999D02*
G75*
G02*
X59790000Y-105154893I0J-792894D01*
G01*
X59790000Y-111362000D02*
X59790000Y-105154893D01*
X59790000Y-111362000D02*
G75*
G02*
X58790000Y-111362000I-500000J0D01*
G01*
X58790000Y-105862000D02*
X58790000Y-111362000D01*
X58290000Y-105362000D02*
G75*
G02*
X58790000Y-105862000I0J-500000D01*
G01*
X53340000Y-105362000D02*
X58290000Y-105362000D01*
X53340000Y-105362000D02*
G75*
G02*
X53340000Y-99362000I0J3000000D01*
G01*
X58290000Y-99362000D02*
X53340000Y-99362000D01*
X58790000Y-98862000D02*
G75*
G02*
X58290000Y-99362000I-500000J0D01*
G01*
X58790000Y-93361999D02*
X58790000Y-98862000D01*
X58789999Y-93361999D02*
G75*
G02*
X59789999Y-93361999I500000J0D01*
G01*
X59790000Y-99569106D02*
X59789999Y-93361999D01*
X59790000Y-99569106D02*
G75*
G02*
X58997106Y-100362000I-792894J0D01*
G01*
X53340000Y-100362000D02*
X58997106Y-100362000D01*
X53340000Y-104362000D02*
G75*
G02*
X53340000Y-100362000I0J2000000D01*
G01*
X58997106Y-104362000D02*
X53340000Y-104362000D01*
X58997106Y-82771999D02*
G75*
G02*
X59790000Y-83564893I0J-792894D01*
G01*
X59790000Y-89772000D02*
X59790000Y-83564893D01*
X59790000Y-89772000D02*
G75*
G02*
X58790000Y-89772000I-500000J0D01*
G01*
X58790000Y-84272000D02*
X58790000Y-89772000D01*
X58290000Y-83772000D02*
G75*
G02*
X58790000Y-84272000I0J-500000D01*
G01*
X53340000Y-83772000D02*
X58290000Y-83772000D01*
X53340000Y-83772000D02*
G75*
G02*
X53340000Y-77772000I0J3000000D01*
G01*
X58290000Y-77772000D02*
X53340000Y-77772000D01*
X58790000Y-77272000D02*
G75*
G02*
X58290000Y-77772000I-500000J0D01*
G01*
X58790000Y-71771999D02*
X58790000Y-77272000D01*
X58789999Y-71771999D02*
G75*
G02*
X59789999Y-71771999I500000J0D01*
G01*
X59790000Y-77979106D02*
X59789999Y-71771999D01*
X59790000Y-77979106D02*
G75*
G02*
X58997106Y-78772000I-792894J0D01*
G01*
X53340000Y-78772000D02*
X58997106Y-78772000D01*
X53340000Y-82772000D02*
G75*
G02*
X53340000Y-78772000I0J2000000D01*
G01*
X58997106Y-82772000D02*
X53340000Y-82772000D01*
X58997106Y-40099999D02*
G75*
G02*
X59790000Y-40892893I0J-792894D01*
G01*
X59790000Y-47100000D02*
X59790000Y-40892893D01*
X59790000Y-47100000D02*
G75*
G02*
X58790000Y-47100000I-500000J0D01*
G01*
X58790000Y-41600000D02*
X58790000Y-47100000D01*
X58290000Y-41100000D02*
G75*
G02*
X58790000Y-41600000I0J-500000D01*
G01*
X53340000Y-41100000D02*
X58290000Y-41100000D01*
X53340000Y-41100000D02*
G75*
G02*
X53340000Y-35100000I0J3000000D01*
G01*
X58290000Y-35100000D02*
X53340000Y-35100000D01*
X58790000Y-34600000D02*
G75*
G02*
X58290000Y-35100000I-500000J0D01*
G01*
X58790000Y-29099999D02*
X58790000Y-34600000D01*
X58789999Y-29099999D02*
G75*
G02*
X59789999Y-29099999I500000J0D01*
G01*
X59790000Y-35307106D02*
X59789999Y-29099999D01*
X59790000Y-35307106D02*
G75*
G02*
X58997106Y-36100000I-792894J0D01*
G01*
X53340000Y-36100000D02*
X58997106Y-36100000D01*
X53340000Y-40100000D02*
G75*
G02*
X53340000Y-36100000I0J2000000D01*
G01*
X58997106Y-40100000D02*
X53340000Y-40100000D01*
X58997106Y-18509999D02*
G75*
G02*
X59790000Y-19302893I0J-792894D01*
G01*
X59790000Y-25510000D02*
X59790000Y-19302893D01*
X59790000Y-25510000D02*
G75*
G02*
X58790000Y-25510000I-500000J0D01*
G01*
X58790000Y-20010000D02*
X58790000Y-25510000D01*
X58290000Y-19510000D02*
G75*
G02*
X58790000Y-20010000I0J-500000D01*
G01*
X53340000Y-19510000D02*
X58290000Y-19510000D01*
X53340000Y-19510000D02*
G75*
G02*
X53340000Y-13510000I0J3000000D01*
G01*
X58290000Y-13510000D02*
X53340000Y-13510000D01*
X58790000Y-13010000D02*
G75*
G02*
X58290000Y-13510000I-500000J0D01*
G01*
X58790000Y-7509999D02*
X58790000Y-13010000D01*
X58789999Y-7509999D02*
G75*
G02*
X59789999Y-7509999I500000J0D01*
G01*
X59790000Y-13717106D02*
X59789999Y-7509999D01*
X59790000Y-13717106D02*
G75*
G02*
X58997106Y-14510000I-792894J0D01*
G01*
X53340000Y-14510000D02*
X58997106Y-14510000D01*
X53340000Y-18510000D02*
G75*
G02*
X53340000Y-14510000I0J2000000D01*
G01*
X58997106Y-18510000D02*
X53340000Y-18510000D01*
D11*
X91440000Y-181610000D02*
X91440000Y-3810000D01*
X3810000Y-185420000D02*
G75*
G02*
X0Y-181610000I0J3810000D01*
G01*
X91440000Y-181610000D02*
G75*
G02*
X87630000Y-185420000I-3810000J0D01*
G01*
X87630000Y0D02*
G75*
G02*
X91440000Y-3810000I0J-3810000D01*
G01*
X0Y-3810000D02*
G75*
G02*
X3810000Y0I3810000J0D01*
G01*
X0Y-3810000D02*
X0Y-181610000D01*
X87630000Y0D02*
X3810000Y0D01*
X3810000Y-185420000D02*
X87630000Y-185420000D01*
M02*
