M48
; DRILL file {KiCad (5.1.12-1-10_14)} date 2021 November 18, Thursday 09:42:36
; FORMAT={-:-/ absolute / inch / decimal}
; #@! TF.CreationDate,2021-11-18T09:42:36+01:00
; #@! TF.GenerationSoftware,Kicad,Pcbnew,(5.1.12-1-10_14)
FMAT,2
INCH
T1C0.0157
T2C0.0197
T3C0.0217
T4C0.0236
T5C0.0300
T6C0.0315
T7C0.0335
T8C0.0394
T9C0.0512
T10C0.0787
T11C0.1260
%
G90
G05
T1
X0.15Y-2.7
X0.19Y-2.7
X0.36Y-0.73
X0.36Y-0.81
X0.36Y-0.89
X0.36Y-0.97
X0.45Y-2.64
X0.45Y-2.7
X0.45Y-2.75
X0.6Y-7.0
X1.075Y-1.1
X1.18Y-1.45
X1.2Y-2.95
X1.38Y-3.13
X1.63Y-1.8
X1.63Y-3.47
X1.63Y-4.32
X1.63Y-6.0
X1.63Y-6.85
X1.64Y-0.93
X1.73Y-1.14
X1.73Y-1.33
X1.74Y-2.84
X1.74Y-2.99
X1.75Y-5.36
X1.75Y-5.53
X1.76Y-1.8
X1.76Y-3.47
X1.76Y-4.32
X1.77Y-0.93
X1.77Y-6.0
X1.77Y-6.84
T4
X0.3Y-2.95
X0.3Y-3.15
X0.3787Y-2.95
X0.3787Y-3.15
X0.9Y-1.4
X0.9Y-1.61
X0.9787Y-1.4
X0.9787Y-1.61
T5
X0.15Y-0.5
X0.15Y-0.6
X0.15Y-0.7
X0.15Y-0.8
X0.15Y-0.9
X0.15Y-1.0
X0.15Y-1.1
X0.15Y-1.2
X0.15Y-1.3
X0.15Y-1.4
X0.15Y-1.5
X0.15Y-1.6
X0.15Y-1.7
X0.15Y-1.8
X0.15Y-1.9
X1.25Y-0.5
X1.25Y-0.6
X1.25Y-0.7
X1.25Y-0.8
X1.25Y-0.9
X1.25Y-1.0
X1.25Y-1.1
X1.25Y-1.2
X1.25Y-1.3
X1.25Y-1.4
X1.25Y-1.5
X1.25Y-1.6
X1.25Y-1.7
X1.25Y-1.8
X1.25Y-1.9
T6
X0.75Y-2.5872
X0.75Y-2.725
T8
X0.19Y-6.53
X0.2Y-2.46
X0.29Y-6.53
X0.3Y-2.46
X0.4Y-2.46
X0.72Y-3.57
X0.72Y-3.67
X0.72Y-3.77
X0.95Y-3.57
X0.95Y-3.67
X0.95Y-3.77
X1.02Y-7.14
X1.12Y-7.14
X1.17Y-3.57
X1.17Y-3.67
X1.17Y-3.77
X2.1768Y-0.4157
X2.1768Y-0.8882
X2.1768Y-1.2657
X2.1768Y-1.7382
X2.1768Y-2.9457
X2.1768Y-3.4182
X2.1768Y-3.7957
X2.1768Y-4.2682
X2.1768Y-5.4657
X2.1768Y-5.9382
X2.1768Y-6.3157
X2.1768Y-6.7882
T9
X2.1Y-0.65
X2.1Y-1.5
X2.1Y-3.18
X2.1Y-4.03
X2.1Y-5.7
X2.1Y-6.55
X2.6571Y-0.8882
X2.6571Y-1.7382
X2.6571Y-3.4182
X2.6571Y-4.2682
X2.6571Y-5.9382
X2.6571Y-6.7882
X2.6591Y-0.4138
X2.6591Y-1.2638
X2.6591Y-2.9438
X2.6591Y-3.7938
X2.6591Y-5.4638
X2.6591Y-6.3138
T10
X0.1144Y-6.01
T11
X0.2Y-0.2
X0.2Y-7.1
X3.4Y-0.2
X3.4Y-7.1
T2
G00X0.5122Y-7.2159
M15
G01X0.5122Y-7.1904
M16
G05
G00X0.7878Y-7.2159
M15
G01X0.7878Y-7.1904
M16
G05
T3
G00X0.5457Y-7.0969
M15
G01X0.5575Y-7.0969
M16
G05
G00X0.7425Y-7.0969
M15
G01X0.7543Y-7.0969
M16
G05
T7
G00X3.07Y-0.7417
M15
G01X3.07Y-0.7102
M16
G05
G00X3.07Y-1.1157
M15
G01X3.07Y-1.0843
M16
G05
G00X3.07Y-1.4898
M15
G01X3.07Y-1.4583
M16
G05
G00X3.07Y-3.2717
M15
G01X3.07Y-3.2402
M16
G05
G00X3.07Y-3.6457
M15
G01X3.07Y-3.6143
M16
G05
G00X3.07Y-4.0198
M15
G01X3.07Y-3.9883
M16
G05
G00X3.07Y-5.7917
M15
G01X3.07Y-5.7602
M16
G05
G00X3.07Y-6.1657
M15
G01X3.07Y-6.1343
M16
G05
G00X3.07Y-6.5398
M15
G01X3.07Y-6.5083
M16
G05
T0
M30
