G04 #@! TF.GenerationSoftware,KiCad,Pcbnew,(5.1.12-1-10_14)*
G04 #@! TF.CreationDate,2021-11-18T09:42:33+01:00*
G04 #@! TF.ProjectId,window-shutter-relay-esp8266,77696e64-6f77-42d7-9368-75747465722d,rev?*
G04 #@! TF.SameCoordinates,Original*
G04 #@! TF.FileFunction,Soldermask,Bot*
G04 #@! TF.FilePolarity,Negative*
%FSLAX46Y46*%
G04 Gerber Fmt 4.6, Leading zero omitted, Abs format (unit mm)*
G04 Created by KiCad (PCBNEW (5.1.12-1-10_14)) date 2021-11-18 09:42:33*
%MOMM*%
%LPD*%
G01*
G04 APERTURE LIST*
G04 #@! TA.AperFunction,Profile*
%ADD10C,0.100000*%
G04 #@! TD*
G04 #@! TA.AperFunction,Profile*
%ADD11C,0.150000*%
G04 #@! TD*
%ADD12C,1.302000*%
%ADD13O,1.802000X1.802000*%
%ADD14O,2.602000X3.602000*%
%ADD15C,2.602000*%
%ADD16C,3.102000*%
%ADD17C,3.302000*%
%ADD18C,2.102000*%
%ADD19C,1.626000*%
%ADD20O,1.200000X1.750000*%
%ADD21O,1.450000X1.150000*%
%ADD22C,1.702000*%
G04 APERTURE END LIST*
D10*
X58997106Y-168369999D02*
G75*
G02*
X59790000Y-169162893I0J-792894D01*
G01*
X59790000Y-175370000D02*
X59790000Y-169162893D01*
X59790000Y-175370000D02*
G75*
G02*
X58790000Y-175370000I-500000J0D01*
G01*
X58790000Y-169870000D02*
X58790000Y-175370000D01*
X58290000Y-169370000D02*
G75*
G02*
X58790000Y-169870000I0J-500000D01*
G01*
X53340000Y-169370000D02*
X58290000Y-169370000D01*
X53340000Y-169370000D02*
G75*
G02*
X53340000Y-163370000I0J3000000D01*
G01*
X58290000Y-163370000D02*
X53340000Y-163370000D01*
X58790000Y-162870000D02*
G75*
G02*
X58290000Y-163370000I-500000J0D01*
G01*
X58790000Y-157369999D02*
X58790000Y-162870000D01*
X58789999Y-157369999D02*
G75*
G02*
X59789999Y-157369999I500000J0D01*
G01*
X59790000Y-163577106D02*
X59789999Y-157369999D01*
X59790000Y-163577106D02*
G75*
G02*
X58997106Y-164370000I-792894J0D01*
G01*
X53340000Y-164370000D02*
X58997106Y-164370000D01*
X53340000Y-168370000D02*
G75*
G02*
X53340000Y-164370000I0J2000000D01*
G01*
X58997106Y-168370000D02*
X53340000Y-168370000D01*
X58997106Y-146779999D02*
G75*
G02*
X59790000Y-147572893I0J-792894D01*
G01*
X59790000Y-153780000D02*
X59790000Y-147572893D01*
X59790000Y-153780000D02*
G75*
G02*
X58790000Y-153780000I-500000J0D01*
G01*
X58790000Y-148280000D02*
X58790000Y-153780000D01*
X58290000Y-147780000D02*
G75*
G02*
X58790000Y-148280000I0J-500000D01*
G01*
X53340000Y-147780000D02*
X58290000Y-147780000D01*
X53340000Y-147780000D02*
G75*
G02*
X53340000Y-141780000I0J3000000D01*
G01*
X58290000Y-141780000D02*
X53340000Y-141780000D01*
X58790000Y-141280000D02*
G75*
G02*
X58290000Y-141780000I-500000J0D01*
G01*
X58790000Y-135779999D02*
X58790000Y-141280000D01*
X58789999Y-135779999D02*
G75*
G02*
X59789999Y-135779999I500000J0D01*
G01*
X59790000Y-141987106D02*
X59789999Y-135779999D01*
X59790000Y-141987106D02*
G75*
G02*
X58997106Y-142780000I-792894J0D01*
G01*
X53340000Y-142780000D02*
X58997106Y-142780000D01*
X53340000Y-146780000D02*
G75*
G02*
X53340000Y-142780000I0J2000000D01*
G01*
X58997106Y-146780000D02*
X53340000Y-146780000D01*
X58997106Y-104361999D02*
G75*
G02*
X59790000Y-105154893I0J-792894D01*
G01*
X59790000Y-111362000D02*
X59790000Y-105154893D01*
X59790000Y-111362000D02*
G75*
G02*
X58790000Y-111362000I-500000J0D01*
G01*
X58790000Y-105862000D02*
X58790000Y-111362000D01*
X58290000Y-105362000D02*
G75*
G02*
X58790000Y-105862000I0J-500000D01*
G01*
X53340000Y-105362000D02*
X58290000Y-105362000D01*
X53340000Y-105362000D02*
G75*
G02*
X53340000Y-99362000I0J3000000D01*
G01*
X58290000Y-99362000D02*
X53340000Y-99362000D01*
X58790000Y-98862000D02*
G75*
G02*
X58290000Y-99362000I-500000J0D01*
G01*
X58790000Y-93361999D02*
X58790000Y-98862000D01*
X58789999Y-93361999D02*
G75*
G02*
X59789999Y-93361999I500000J0D01*
G01*
X59790000Y-99569106D02*
X59789999Y-93361999D01*
X59790000Y-99569106D02*
G75*
G02*
X58997106Y-100362000I-792894J0D01*
G01*
X53340000Y-100362000D02*
X58997106Y-100362000D01*
X53340000Y-104362000D02*
G75*
G02*
X53340000Y-100362000I0J2000000D01*
G01*
X58997106Y-104362000D02*
X53340000Y-104362000D01*
X58997106Y-82771999D02*
G75*
G02*
X59790000Y-83564893I0J-792894D01*
G01*
X59790000Y-89772000D02*
X59790000Y-83564893D01*
X59790000Y-89772000D02*
G75*
G02*
X58790000Y-89772000I-500000J0D01*
G01*
X58790000Y-84272000D02*
X58790000Y-89772000D01*
X58290000Y-83772000D02*
G75*
G02*
X58790000Y-84272000I0J-500000D01*
G01*
X53340000Y-83772000D02*
X58290000Y-83772000D01*
X53340000Y-83772000D02*
G75*
G02*
X53340000Y-77772000I0J3000000D01*
G01*
X58290000Y-77772000D02*
X53340000Y-77772000D01*
X58790000Y-77272000D02*
G75*
G02*
X58290000Y-77772000I-500000J0D01*
G01*
X58790000Y-71771999D02*
X58790000Y-77272000D01*
X58789999Y-71771999D02*
G75*
G02*
X59789999Y-71771999I500000J0D01*
G01*
X59790000Y-77979106D02*
X59789999Y-71771999D01*
X59790000Y-77979106D02*
G75*
G02*
X58997106Y-78772000I-792894J0D01*
G01*
X53340000Y-78772000D02*
X58997106Y-78772000D01*
X53340000Y-82772000D02*
G75*
G02*
X53340000Y-78772000I0J2000000D01*
G01*
X58997106Y-82772000D02*
X53340000Y-82772000D01*
X58997106Y-40099999D02*
G75*
G02*
X59790000Y-40892893I0J-792894D01*
G01*
X59790000Y-47100000D02*
X59790000Y-40892893D01*
X59790000Y-47100000D02*
G75*
G02*
X58790000Y-47100000I-500000J0D01*
G01*
X58790000Y-41600000D02*
X58790000Y-47100000D01*
X58290000Y-41100000D02*
G75*
G02*
X58790000Y-41600000I0J-500000D01*
G01*
X53340000Y-41100000D02*
X58290000Y-41100000D01*
X53340000Y-41100000D02*
G75*
G02*
X53340000Y-35100000I0J3000000D01*
G01*
X58290000Y-35100000D02*
X53340000Y-35100000D01*
X58790000Y-34600000D02*
G75*
G02*
X58290000Y-35100000I-500000J0D01*
G01*
X58790000Y-29099999D02*
X58790000Y-34600000D01*
X58789999Y-29099999D02*
G75*
G02*
X59789999Y-29099999I500000J0D01*
G01*
X59790000Y-35307106D02*
X59789999Y-29099999D01*
X59790000Y-35307106D02*
G75*
G02*
X58997106Y-36100000I-792894J0D01*
G01*
X53340000Y-36100000D02*
X58997106Y-36100000D01*
X53340000Y-40100000D02*
G75*
G02*
X53340000Y-36100000I0J2000000D01*
G01*
X58997106Y-40100000D02*
X53340000Y-40100000D01*
X58997106Y-18509999D02*
G75*
G02*
X59790000Y-19302893I0J-792894D01*
G01*
X59790000Y-25510000D02*
X59790000Y-19302893D01*
X59790000Y-25510000D02*
G75*
G02*
X58790000Y-25510000I-500000J0D01*
G01*
X58790000Y-20010000D02*
X58790000Y-25510000D01*
X58290000Y-19510000D02*
G75*
G02*
X58790000Y-20010000I0J-500000D01*
G01*
X53340000Y-19510000D02*
X58290000Y-19510000D01*
X53340000Y-19510000D02*
G75*
G02*
X53340000Y-13510000I0J3000000D01*
G01*
X58290000Y-13510000D02*
X53340000Y-13510000D01*
X58790000Y-13010000D02*
G75*
G02*
X58290000Y-13510000I-500000J0D01*
G01*
X58790000Y-7509999D02*
X58790000Y-13010000D01*
X58789999Y-7509999D02*
G75*
G02*
X59789999Y-7509999I500000J0D01*
G01*
X59790000Y-13717106D02*
X59789999Y-7509999D01*
X59790000Y-13717106D02*
G75*
G02*
X58997106Y-14510000I-792894J0D01*
G01*
X53340000Y-14510000D02*
X58997106Y-14510000D01*
X53340000Y-18510000D02*
G75*
G02*
X53340000Y-14510000I0J2000000D01*
G01*
X58997106Y-18510000D02*
X53340000Y-18510000D01*
D11*
X91440000Y-181610000D02*
X91440000Y-3810000D01*
X3810000Y-185420000D02*
G75*
G02*
X0Y-181610000I0J3810000D01*
G01*
X91440000Y-181610000D02*
G75*
G02*
X87630000Y-185420000I-3810000J0D01*
G01*
X87630000Y0D02*
G75*
G02*
X91440000Y-3810000I0J-3810000D01*
G01*
X0Y-3810000D02*
G75*
G02*
X3810000Y0I3810000J0D01*
G01*
X0Y-3810000D02*
X0Y-181610000D01*
X87630000Y0D02*
X3810000Y0D01*
X3810000Y-185420000D02*
X87630000Y-185420000D01*
D10*
X58997106Y-168369999D02*
G75*
G02*
X59790000Y-169162893I0J-792894D01*
G01*
X59790000Y-175370000D02*
X59790000Y-169162893D01*
X59790000Y-175370000D02*
G75*
G02*
X58790000Y-175370000I-500000J0D01*
G01*
X58790000Y-169870000D02*
X58790000Y-175370000D01*
X58290000Y-169370000D02*
G75*
G02*
X58790000Y-169870000I0J-500000D01*
G01*
X53340000Y-169370000D02*
X58290000Y-169370000D01*
X53340000Y-169370000D02*
G75*
G02*
X53340000Y-163370000I0J3000000D01*
G01*
X58290000Y-163370000D02*
X53340000Y-163370000D01*
X58790000Y-162870000D02*
G75*
G02*
X58290000Y-163370000I-500000J0D01*
G01*
X58790000Y-157369999D02*
X58790000Y-162870000D01*
X58789999Y-157369999D02*
G75*
G02*
X59789999Y-157369999I500000J0D01*
G01*
X59790000Y-163577106D02*
X59789999Y-157369999D01*
X59790000Y-163577106D02*
G75*
G02*
X58997106Y-164370000I-792894J0D01*
G01*
X53340000Y-164370000D02*
X58997106Y-164370000D01*
X53340000Y-168370000D02*
G75*
G02*
X53340000Y-164370000I0J2000000D01*
G01*
X58997106Y-168370000D02*
X53340000Y-168370000D01*
X58997106Y-146779999D02*
G75*
G02*
X59790000Y-147572893I0J-792894D01*
G01*
X59790000Y-153780000D02*
X59790000Y-147572893D01*
X59790000Y-153780000D02*
G75*
G02*
X58790000Y-153780000I-500000J0D01*
G01*
X58790000Y-148280000D02*
X58790000Y-153780000D01*
X58290000Y-147780000D02*
G75*
G02*
X58790000Y-148280000I0J-500000D01*
G01*
X53340000Y-147780000D02*
X58290000Y-147780000D01*
X53340000Y-147780000D02*
G75*
G02*
X53340000Y-141780000I0J3000000D01*
G01*
X58290000Y-141780000D02*
X53340000Y-141780000D01*
X58790000Y-141280000D02*
G75*
G02*
X58290000Y-141780000I-500000J0D01*
G01*
X58790000Y-135779999D02*
X58790000Y-141280000D01*
X58789999Y-135779999D02*
G75*
G02*
X59789999Y-135779999I500000J0D01*
G01*
X59790000Y-141987106D02*
X59789999Y-135779999D01*
X59790000Y-141987106D02*
G75*
G02*
X58997106Y-142780000I-792894J0D01*
G01*
X53340000Y-142780000D02*
X58997106Y-142780000D01*
X53340000Y-146780000D02*
G75*
G02*
X53340000Y-142780000I0J2000000D01*
G01*
X58997106Y-146780000D02*
X53340000Y-146780000D01*
X58997106Y-104361999D02*
G75*
G02*
X59790000Y-105154893I0J-792894D01*
G01*
X59790000Y-111362000D02*
X59790000Y-105154893D01*
X59790000Y-111362000D02*
G75*
G02*
X58790000Y-111362000I-500000J0D01*
G01*
X58790000Y-105862000D02*
X58790000Y-111362000D01*
X58290000Y-105362000D02*
G75*
G02*
X58790000Y-105862000I0J-500000D01*
G01*
X53340000Y-105362000D02*
X58290000Y-105362000D01*
X53340000Y-105362000D02*
G75*
G02*
X53340000Y-99362000I0J3000000D01*
G01*
X58290000Y-99362000D02*
X53340000Y-99362000D01*
X58790000Y-98862000D02*
G75*
G02*
X58290000Y-99362000I-500000J0D01*
G01*
X58790000Y-93361999D02*
X58790000Y-98862000D01*
X58789999Y-93361999D02*
G75*
G02*
X59789999Y-93361999I500000J0D01*
G01*
X59790000Y-99569106D02*
X59789999Y-93361999D01*
X59790000Y-99569106D02*
G75*
G02*
X58997106Y-100362000I-792894J0D01*
G01*
X53340000Y-100362000D02*
X58997106Y-100362000D01*
X53340000Y-104362000D02*
G75*
G02*
X53340000Y-100362000I0J2000000D01*
G01*
X58997106Y-104362000D02*
X53340000Y-104362000D01*
X58997106Y-82771999D02*
G75*
G02*
X59790000Y-83564893I0J-792894D01*
G01*
X59790000Y-89772000D02*
X59790000Y-83564893D01*
X59790000Y-89772000D02*
G75*
G02*
X58790000Y-89772000I-500000J0D01*
G01*
X58790000Y-84272000D02*
X58790000Y-89772000D01*
X58290000Y-83772000D02*
G75*
G02*
X58790000Y-84272000I0J-500000D01*
G01*
X53340000Y-83772000D02*
X58290000Y-83772000D01*
X53340000Y-83772000D02*
G75*
G02*
X53340000Y-77772000I0J3000000D01*
G01*
X58290000Y-77772000D02*
X53340000Y-77772000D01*
X58790000Y-77272000D02*
G75*
G02*
X58290000Y-77772000I-500000J0D01*
G01*
X58790000Y-71771999D02*
X58790000Y-77272000D01*
X58789999Y-71771999D02*
G75*
G02*
X59789999Y-71771999I500000J0D01*
G01*
X59790000Y-77979106D02*
X59789999Y-71771999D01*
X59790000Y-77979106D02*
G75*
G02*
X58997106Y-78772000I-792894J0D01*
G01*
X53340000Y-78772000D02*
X58997106Y-78772000D01*
X53340000Y-82772000D02*
G75*
G02*
X53340000Y-78772000I0J2000000D01*
G01*
X58997106Y-82772000D02*
X53340000Y-82772000D01*
X58997106Y-40099999D02*
G75*
G02*
X59790000Y-40892893I0J-792894D01*
G01*
X59790000Y-47100000D02*
X59790000Y-40892893D01*
X59790000Y-47100000D02*
G75*
G02*
X58790000Y-47100000I-500000J0D01*
G01*
X58790000Y-41600000D02*
X58790000Y-47100000D01*
X58290000Y-41100000D02*
G75*
G02*
X58790000Y-41600000I0J-500000D01*
G01*
X53340000Y-41100000D02*
X58290000Y-41100000D01*
X53340000Y-41100000D02*
G75*
G02*
X53340000Y-35100000I0J3000000D01*
G01*
X58290000Y-35100000D02*
X53340000Y-35100000D01*
X58790000Y-34600000D02*
G75*
G02*
X58290000Y-35100000I-500000J0D01*
G01*
X58790000Y-29099999D02*
X58790000Y-34600000D01*
X58789999Y-29099999D02*
G75*
G02*
X59789999Y-29099999I500000J0D01*
G01*
X59790000Y-35307106D02*
X59789999Y-29099999D01*
X59790000Y-35307106D02*
G75*
G02*
X58997106Y-36100000I-792894J0D01*
G01*
X53340000Y-36100000D02*
X58997106Y-36100000D01*
X53340000Y-40100000D02*
G75*
G02*
X53340000Y-36100000I0J2000000D01*
G01*
X58997106Y-40100000D02*
X53340000Y-40100000D01*
X58997106Y-18509999D02*
G75*
G02*
X59790000Y-19302893I0J-792894D01*
G01*
X59790000Y-25510000D02*
X59790000Y-19302893D01*
X59790000Y-25510000D02*
G75*
G02*
X58790000Y-25510000I-500000J0D01*
G01*
X58790000Y-20010000D02*
X58790000Y-25510000D01*
X58290000Y-19510000D02*
G75*
G02*
X58790000Y-20010000I0J-500000D01*
G01*
X53340000Y-19510000D02*
X58290000Y-19510000D01*
X53340000Y-19510000D02*
G75*
G02*
X53340000Y-13510000I0J3000000D01*
G01*
X58290000Y-13510000D02*
X53340000Y-13510000D01*
X58790000Y-13010000D02*
G75*
G02*
X58290000Y-13510000I-500000J0D01*
G01*
X58790000Y-7509999D02*
X58790000Y-13010000D01*
X58789999Y-7509999D02*
G75*
G02*
X59789999Y-7509999I500000J0D01*
G01*
X59790000Y-13717106D02*
X59789999Y-7509999D01*
X59790000Y-13717106D02*
G75*
G02*
X58997106Y-14510000I-792894J0D01*
G01*
X53340000Y-14510000D02*
X58997106Y-14510000D01*
X53340000Y-18510000D02*
G75*
G02*
X53340000Y-14510000I0J2000000D01*
G01*
X58997106Y-18510000D02*
X53340000Y-18510000D01*
D11*
X91440000Y-181610000D02*
X91440000Y-3810000D01*
X3810000Y-185420000D02*
G75*
G02*
X0Y-181610000I0J3810000D01*
G01*
X91440000Y-181610000D02*
G75*
G02*
X87630000Y-185420000I-3810000J0D01*
G01*
X87630000Y0D02*
G75*
G02*
X91440000Y-3810000I0J-3810000D01*
G01*
X0Y-3810000D02*
G75*
G02*
X3810000Y0I3810000J0D01*
G01*
X0Y-3810000D02*
X0Y-181610000D01*
X87630000Y0D02*
X3810000Y0D01*
X3810000Y-185420000D02*
X87630000Y-185420000D01*
G36*
G01*
X22209000Y-36160001D02*
X22209000Y-34959999D01*
G75*
G02*
X22259999Y-34909000I50999J0D01*
G01*
X23460001Y-34909000D01*
G75*
G02*
X23511000Y-34959999I0J-50999D01*
G01*
X23511000Y-36160001D01*
G75*
G02*
X23460001Y-36211000I-50999J0D01*
G01*
X22259999Y-36211000D01*
G75*
G02*
X22209000Y-36160001I0J50999D01*
G01*
G37*
D12*
X24860000Y-35560000D03*
G36*
G01*
X22209000Y-41494001D02*
X22209000Y-40293999D01*
G75*
G02*
X22259999Y-40243000I50999J0D01*
G01*
X23460001Y-40243000D01*
G75*
G02*
X23511000Y-40293999I0J-50999D01*
G01*
X23511000Y-41494001D01*
G75*
G02*
X23460001Y-41545000I-50999J0D01*
G01*
X22259999Y-41545000D01*
G75*
G02*
X22209000Y-41494001I0J50999D01*
G01*
G37*
X24860000Y-40894000D03*
G36*
G01*
X9310000Y-61583000D02*
X11010000Y-61583000D01*
G75*
G02*
X11061000Y-61634000I0J-51000D01*
G01*
X11061000Y-63334000D01*
G75*
G02*
X11010000Y-63385000I-51000J0D01*
G01*
X9310000Y-63385000D01*
G75*
G02*
X9259000Y-63334000I0J51000D01*
G01*
X9259000Y-61634000D01*
G75*
G02*
X9310000Y-61583000I51000J0D01*
G01*
G37*
D13*
X7620000Y-62484000D03*
X5080000Y-62484000D03*
G36*
G01*
X6516000Y-164961000D02*
X8216000Y-164961000D01*
G75*
G02*
X8267000Y-165012000I0J-51000D01*
G01*
X8267000Y-166712000D01*
G75*
G02*
X8216000Y-166763000I-51000J0D01*
G01*
X6516000Y-166763000D01*
G75*
G02*
X6465000Y-166712000I0J51000D01*
G01*
X6465000Y-165012000D01*
G75*
G02*
X6516000Y-164961000I51000J0D01*
G01*
G37*
X4826000Y-165862000D03*
D14*
X77978000Y-92202000D03*
X77978000Y-101702000D03*
X77978000Y-82702000D03*
X77978000Y-156210000D03*
X77978000Y-165710000D03*
X77978000Y-146710000D03*
X77978000Y-27940000D03*
X77978000Y-37440000D03*
X77978000Y-18440000D03*
D15*
X55290000Y-108412000D03*
D16*
X67490000Y-108412000D03*
X67540000Y-96362000D03*
D15*
X55290000Y-96412000D03*
D16*
X53340000Y-102362000D03*
D15*
X55290000Y-86822000D03*
D16*
X67490000Y-86822000D03*
X67540000Y-74772000D03*
D15*
X55290000Y-74822000D03*
D16*
X53340000Y-80772000D03*
D15*
X55290000Y-172420000D03*
D16*
X67490000Y-172420000D03*
X67540000Y-160370000D03*
D15*
X55290000Y-160420000D03*
D16*
X53340000Y-166370000D03*
D15*
X55290000Y-150830000D03*
D16*
X67490000Y-150830000D03*
X67540000Y-138780000D03*
D15*
X55290000Y-138830000D03*
D16*
X53340000Y-144780000D03*
D15*
X55290000Y-22560000D03*
D16*
X67490000Y-22560000D03*
X67540000Y-10510000D03*
D15*
X55290000Y-10560000D03*
D16*
X53340000Y-16510000D03*
D15*
X55290000Y-44150000D03*
D16*
X67490000Y-44150000D03*
X67540000Y-32100000D03*
D15*
X55290000Y-32150000D03*
D16*
X53340000Y-38100000D03*
D17*
X5080000Y-5080000D03*
X86360000Y-5080000D03*
X86360000Y-180340000D03*
X5080000Y-180340000D03*
D18*
X2906000Y-152654000D03*
G36*
G01*
X17387000Y-91528000D02*
X17387000Y-89828000D01*
G75*
G02*
X17438000Y-89777000I51000J0D01*
G01*
X19138000Y-89777000D01*
G75*
G02*
X19189000Y-89828000I0J-51000D01*
G01*
X19189000Y-91528000D01*
G75*
G02*
X19138000Y-91579000I-51000J0D01*
G01*
X17438000Y-91579000D01*
G75*
G02*
X17387000Y-91528000I0J51000D01*
G01*
G37*
D13*
X18288000Y-93218000D03*
X18288000Y-95758000D03*
X24130000Y-95758000D03*
X24130000Y-93218000D03*
G36*
G01*
X23229000Y-91528000D02*
X23229000Y-89828000D01*
G75*
G02*
X23280000Y-89777000I51000J0D01*
G01*
X24980000Y-89777000D01*
G75*
G02*
X25031000Y-89828000I0J-51000D01*
G01*
X25031000Y-91528000D01*
G75*
G02*
X24980000Y-91579000I-51000J0D01*
G01*
X23280000Y-91579000D01*
G75*
G02*
X23229000Y-91528000I0J51000D01*
G01*
G37*
X29718000Y-95758000D03*
X29718000Y-93218000D03*
G36*
G01*
X28817000Y-91528000D02*
X28817000Y-89828000D01*
G75*
G02*
X28868000Y-89777000I51000J0D01*
G01*
X30568000Y-89777000D01*
G75*
G02*
X30619000Y-89828000I0J-51000D01*
G01*
X30619000Y-91528000D01*
G75*
G02*
X30568000Y-91579000I-51000J0D01*
G01*
X28868000Y-91579000D01*
G75*
G02*
X28817000Y-91528000I0J51000D01*
G01*
G37*
D19*
X3810000Y-12700000D03*
X3810000Y-15240000D03*
X3810000Y-17780000D03*
X3810000Y-20320000D03*
X3810000Y-22860000D03*
X3810000Y-25400000D03*
X3810000Y-27940000D03*
X3810000Y-30480000D03*
X3810000Y-33020000D03*
X3810000Y-35560000D03*
X3810000Y-38100000D03*
X3810000Y-40640000D03*
X3810000Y-43180000D03*
X3810000Y-45720000D03*
X3810000Y-48260000D03*
X31750000Y-48260000D03*
X31750000Y-45720000D03*
X31750000Y-43180000D03*
X31750000Y-40640000D03*
X31750000Y-38100000D03*
X31750000Y-35560000D03*
X31750000Y-33020000D03*
X31750000Y-30480000D03*
X31750000Y-27940000D03*
X31750000Y-25400000D03*
X31750000Y-22860000D03*
X31750000Y-20320000D03*
X31750000Y-17780000D03*
X31750000Y-15240000D03*
X31750000Y-12700000D03*
D20*
X20010000Y-182960000D03*
X13010000Y-182960000D03*
D21*
X19010000Y-180260000D03*
X14010000Y-180260000D03*
D13*
X25908000Y-181356000D03*
G36*
G01*
X27598000Y-180455000D02*
X29298000Y-180455000D01*
G75*
G02*
X29349000Y-180506000I0J-51000D01*
G01*
X29349000Y-182206000D01*
G75*
G02*
X29298000Y-182257000I-51000J0D01*
G01*
X27598000Y-182257000D01*
G75*
G02*
X27547000Y-182206000I0J51000D01*
G01*
X27547000Y-180506000D01*
G75*
G02*
X27598000Y-180455000I51000J0D01*
G01*
G37*
D12*
X9620000Y-74930000D03*
G36*
G01*
X6969000Y-75530001D02*
X6969000Y-74329999D01*
G75*
G02*
X7019999Y-74279000I50999J0D01*
G01*
X8220001Y-74279000D01*
G75*
G02*
X8271000Y-74329999I0J-50999D01*
G01*
X8271000Y-75530001D01*
G75*
G02*
X8220001Y-75581000I-50999J0D01*
G01*
X7019999Y-75581000D01*
G75*
G02*
X6969000Y-75530001I0J50999D01*
G01*
G37*
G36*
G01*
X6969000Y-80610001D02*
X6969000Y-79409999D01*
G75*
G02*
X7019999Y-79359000I50999J0D01*
G01*
X8220001Y-79359000D01*
G75*
G02*
X8271000Y-79409999I0J-50999D01*
G01*
X8271000Y-80610001D01*
G75*
G02*
X8220001Y-80661000I-50999J0D01*
G01*
X7019999Y-80661000D01*
G75*
G02*
X6969000Y-80610001I0J50999D01*
G01*
G37*
X9620000Y-80010000D03*
G36*
G01*
X19850000Y-70066000D02*
X18250000Y-70066000D01*
G75*
G02*
X18199000Y-70015000I0J51000D01*
G01*
X18199000Y-68415000D01*
G75*
G02*
X18250000Y-68364000I51000J0D01*
G01*
X19850000Y-68364000D01*
G75*
G02*
X19901000Y-68415000I0J-51000D01*
G01*
X19901000Y-70015000D01*
G75*
G02*
X19850000Y-70066000I-51000J0D01*
G01*
G37*
D22*
X19050000Y-65715000D03*
M02*
